<svg width="145" height="28" viewBox="0 0 145 28" fill="none" xmlns="http://www.w3.org/2000/svg">
<path d="M4.44165 27.5282C4.80607 27.5282 4.97172 27.3253 4.97172 26.9871V18.4643H8.94718C12.0613 18.4643 13.7177 16.7395 13.7177 13.5942V5.34196C13.7177 2.16284 12.0613 0.471815 8.94718 0.471815H0.996249C0.66496 0.471815 0.466187 0.674738 0.466187 1.01294V26.9871C0.466187 27.3253 0.66496 27.5282 0.996249 27.5282H4.44165ZM7.88706 14H4.97172V4.93612H7.88706C8.78154 4.93612 9.21221 5.4096 9.21221 6.28893V12.6472C9.21221 13.4927 8.78154 14 7.88706 14ZM21.0061 27.5282C21.3374 27.5282 21.5362 27.3253 21.5362 26.9871V18.4643H23.8221L26.0417 27.0547C26.108 27.3591 26.2736 27.5282 26.6049 27.5282H30.0503C30.4147 27.5282 30.6135 27.3253 30.5141 26.9194L28.2282 18.0585C29.8184 17.3482 30.6466 15.8601 30.6466 13.5942V5.34196C30.6466 2.16284 28.9902 0.471815 25.876 0.471815H17.5607C17.2294 0.471815 17.0306 0.674738 17.0306 1.01294V26.9871C17.0306 27.3253 17.2294 27.5282 17.5607 27.5282H21.0061ZM24.8159 14H21.5362V4.93612H24.8159C25.6773 4.93612 26.1411 5.4096 26.1411 6.28893V12.6472C26.1411 13.5265 25.6773 14 24.8159 14ZM37.935 27.5282C38.2663 27.5282 38.465 27.3253 38.465 26.9871V1.01294C38.465 0.674738 38.2663 0.471815 37.935 0.471815H34.4896C34.1251 0.471815 33.9595 0.674738 33.9595 1.01294V26.9871C33.9595 27.3253 34.1251 27.5282 34.4896 27.5282H37.935ZM45.4884 27.5282C45.919 27.5282 46.1509 27.2914 46.1509 26.8518V11.6326H46.3828L49.6626 26.9194C49.762 27.3253 49.9939 27.5282 50.3914 27.5282H52.0147C52.4123 27.5282 52.6442 27.3253 52.7436 26.9194L56.0233 11.6326H56.2552V26.8518C56.2552 27.2914 56.4871 27.5282 56.9178 27.5282H59.9988C60.4295 27.5282 60.6614 27.2914 60.6614 26.8518V1.14822C60.6614 0.708558 60.4295 0.471815 59.9988 0.471815H55.6258C55.2282 0.471815 54.9963 0.674738 54.897 1.08058L51.2197 17.9232L47.5423 1.08058C47.443 0.674738 47.2111 0.471815 46.8135 0.471815H42.4405C42.0098 0.471815 41.7779 0.708558 41.7779 1.14822V26.8518C41.7779 27.2914 42.0098 27.5282 42.4405 27.5282H45.4884ZM76.6626 27.5282C77.0602 27.5282 77.1927 27.3253 77.1927 26.9871V23.605C77.1927 23.233 77.0602 23.0639 76.6626 23.0639H68.3804V16.2322H74.708C75.0393 16.2322 75.2381 16.0292 75.2381 15.6572V12.309C75.2381 11.937 75.0393 11.734 74.708 11.734H68.3804V4.96994H76.6626C77.0602 4.96994 77.1927 4.73319 77.1927 4.39499V1.01294C77.1927 0.674738 77.0602 0.471815 76.6626 0.471815H64.4712C64.173 0.471815 63.9743 0.674738 63.9743 1.01294V26.9871C63.9743 27.3253 64.173 27.5282 64.4712 27.5282H76.6626Z" fill="#131314" fill-opacity="0.87"/>
<path d="M84.5455 27.5282C84.8752 27.5282 85.0731 27.3253 85.0731 26.9871V16.1983H91.2722C91.602 16.1983 91.7998 16.0292 91.7998 15.6572V12.2752C91.7998 11.937 91.602 11.734 91.2722 11.734H85.0731V4.93612H93.2506C93.5804 4.93612 93.7782 4.73319 93.7782 4.39499V1.01294C93.7782 0.674738 93.5804 0.471815 93.2506 0.471815H81.1162C80.7535 0.471815 80.5886 0.674738 80.5886 1.01294V26.9871C80.5886 27.3253 80.7535 27.5282 81.1162 27.5282H84.5455ZM109.408 27.5282C109.771 27.5282 109.936 27.3591 109.936 26.9871V23.605C109.936 23.2668 109.771 23.0639 109.408 23.0639H101.56V1.01294C101.56 0.674738 101.395 0.471815 101.033 0.471815H97.6032C97.2735 0.471815 97.0756 0.674738 97.0756 1.01294V26.9871C97.0756 27.3591 97.2735 27.5282 97.6032 27.5282H109.408ZM125.862 27.5282C126.258 27.5282 126.39 27.3253 126.39 26.9871V23.605C126.39 23.233 126.258 23.0639 125.862 23.0639H117.618V16.2322H123.917C124.246 16.2322 124.444 16.0292 124.444 15.6572V12.309C124.444 11.937 124.246 11.734 123.917 11.734H117.618V4.96994H125.862C126.258 4.96994 126.39 4.73319 126.39 4.39499V1.01294C126.39 0.674738 126.258 0.471815 125.862 0.471815H113.728C113.431 0.471815 113.233 0.674738 113.233 1.01294V26.9871C113.233 27.3253 113.431 27.5282 113.728 27.5282H125.862ZM132.655 27.5282C133.017 27.5282 133.281 27.3929 133.413 27.0547L136.579 18.8701L139.744 27.0547C139.876 27.3929 140.14 27.5282 140.502 27.5282H143.899C144.426 27.5282 144.591 27.19 144.393 26.7165L139.151 13.7294L144.196 1.28351C144.393 0.81002 144.229 0.471815 143.701 0.471815H140.404C140.041 0.471815 139.777 0.607097 139.645 0.945302L136.579 8.96075L133.512 0.945302C133.38 0.607097 133.116 0.471815 132.754 0.471815H129.456C128.929 0.471815 128.764 0.81002 128.962 1.28351L133.974 13.7294L128.764 26.7165C128.566 27.19 128.731 27.5282 129.258 27.5282H132.655Z" fill="#0078E3"/>
</svg>
