<svg width="180" height="55" viewBox="0 0 180 55" fill="none" xmlns="http://www.w3.org/2000/svg">
<path fill-rule="evenodd" clip-rule="evenodd" d="M70.4 43.536C70.4 43.951 70.6507 44.2 71.0684 44.2H75.4134C75.8729 44.2 76.0818 43.951 76.0818 43.536V33.078H81.0952C85.0224 33.078 87.1113 30.9615 87.1113 27.102V16.976C87.1113 13.075 85.0224 11 81.0952 11H71.0684C70.6507 11 70.4 11.249 70.4 11.664V43.536ZM76.0818 27.6V16.478H79.7583C80.8863 16.478 81.4295 17.059 81.4295 18.138V25.94C81.4295 26.9775 80.8863 27.6 79.7583 27.6H76.0818ZM105.169 11C109.096 11 111.185 13.075 111.185 16.976V27.102C111.185 29.8825 110.14 31.7085 108.135 32.58L111.018 43.453C111.143 43.951 110.892 44.2 110.433 44.2H106.088C105.67 44.2 105.461 43.9925 105.378 43.619L102.578 33.078H99.6958V43.536C99.6958 43.951 99.4451 44.2 99.0273 44.2H94.6824C94.2646 44.2 94.0139 43.951 94.0139 43.536V11.664C94.0139 11.249 94.2646 11 94.6824 11H105.169ZM99.6958 27.6V16.478H103.832C104.918 16.478 105.503 17.059 105.503 18.138V25.94C105.503 27.019 104.918 27.6 103.832 27.6H99.6958ZM118.505 11.664C118.505 11.249 118.714 11 119.174 11H123.519C123.936 11 124.187 11.249 124.187 11.664V43.536C124.187 43.951 123.936 44.2 123.519 44.2H119.174C118.714 44.2 118.505 43.951 118.505 43.536V11.664ZM148.971 11C148.469 11 148.177 11.249 148.052 11.747L143.414 32.414L138.777 11.747C138.652 11.249 138.359 11 137.858 11H132.343C131.8 11 131.508 11.2905 131.508 11.83V43.37C131.508 43.9095 131.8 44.2 132.343 44.2H136.187C136.73 44.2 137.022 43.9095 137.022 43.37V24.695H137.315L141.451 43.453C141.576 43.951 141.869 44.2 142.37 44.2H144.417C144.918 44.2 145.211 43.951 145.336 43.453L149.472 24.695H149.765V43.37C149.765 43.9095 150.057 44.2 150.6 44.2H154.486C155.029 44.2 155.321 43.9095 155.321 43.37V11.83C155.321 11.2905 155.029 11 154.486 11H148.971ZM178.643 11C179.144 11 179.311 11.249 179.311 11.664V15.814C179.311 16.229 179.144 16.5195 178.643 16.5195H168.198V24.8195H176.178C176.595 24.8195 176.846 25.0685 176.846 25.525V29.6335C176.846 30.09 176.595 30.339 176.178 30.339H168.198V38.722H178.643C179.144 38.722 179.311 38.9295 179.311 39.386V43.536C179.311 43.951 179.144 44.2 178.643 44.2H163.268C162.892 44.2 162.642 43.951 162.642 43.536V11.664C162.642 11.249 162.892 11 163.268 11H178.643Z" fill="white"/>
<rect x="1" width="55" height="55" fill="black"/>
<rect x="2.3" y="1.3" width="52.4" height="52.4" stroke="white" stroke-width="2.6"/>
<path d="M36.7739 26.0458L34.0661 25.4443L36.1722 28.4519V37.7756L43.393 31.7603V21.5343L40.0835 22.7374L36.7739 26.0458Z" fill="white"/>
<path d="M19.9252 26.0458L22.633 25.4443L20.527 28.4519V37.7756L13.3061 31.7603V21.5343L16.6157 22.7374L19.9252 26.0458Z" fill="white"/>
<path fill-rule="evenodd" clip-rule="evenodd" d="M21.4296 29.0534L23.8365 25.4443L25.3409 26.3466H31.3583L32.8626 25.4443L35.2696 29.0534V42.5878L33.4643 45.2947L31.3583 47.4H25.3409L23.2348 45.2947L21.4296 42.5878V29.0534Z" fill="white"/>
<path d="M36.1722 43.4901L40.0835 39.5802V35.6702L36.1722 38.9786V43.4901Z" fill="white"/>
<path d="M20.527 43.4901L16.6157 39.5802V35.6702L20.527 38.9786V43.4901Z" fill="white"/>
<path fill-rule="evenodd" clip-rule="evenodd" d="M24.4383 8L22.0313 13.7145L25.9426 25.1435H27.7478V8H24.4383ZM28.9513 8V25.1435H31.0574L34.6678 13.7145L32.2609 8H28.9513Z" fill="white"/>
<path d="M25.9426 25.1435L13.0052 20.3313L11.2 12.8122L22.3322 13.7145L26.2435 25.1435H25.9426Z" fill="white"/>
<path d="M31.0574 25.1435L43.9948 20.3313L45.8 12.8122L34.367 13.7145L30.7565 25.1435H31.0574Z" fill="white"/>
<path d="M35.2696 12.8122L41.5878 12.2107L37.3757 8H33.1635L35.2696 12.8122Z" fill="white"/>
<path d="M21.4296 12.8122L15.1113 12.2107L19.3235 8H23.5357L21.4296 12.8122Z" fill="white"/>
</svg>
