<svg width="916" height="234" viewBox="0 0 916 234" fill="none" xmlns="http://www.w3.org/2000/svg">
<path d="M278.733 174.984V61.684C278.733 60.2087 279.618 59.3236 281.093 59.3236H316.499C330.367 59.3236 337.743 66.6999 337.743 80.5674V116.564C337.743 130.284 330.367 137.808 316.499 137.808H298.796V174.984C298.796 176.46 298.059 177.345 296.436 177.345H281.093C279.618 177.345 278.733 176.46 278.733 174.984ZM298.796 118.334H311.779C315.762 118.334 317.68 116.121 317.68 112.433V84.6982C317.68 80.8625 315.762 78.7971 311.779 78.7971H298.796V118.334Z" fill="url(#paint0_linear_624_140867)"/>
<path d="M411.689 80.5674V116.564C411.689 126.448 408.001 132.939 400.919 136.037L411.099 174.689C411.541 176.46 410.656 177.345 409.033 177.345H393.69C392.215 177.345 391.478 176.607 391.182 175.28L381.298 137.808H371.119V174.984C371.119 176.46 370.234 177.345 368.758 177.345H353.416C351.94 177.345 351.055 176.46 351.055 174.984V61.684C351.055 60.2087 351.94 59.3236 353.416 59.3236H390.445C404.312 59.3236 411.689 66.6999 411.689 80.5674ZM371.119 118.334H385.724C389.56 118.334 391.625 116.269 391.625 112.433V84.6982C391.625 80.8625 389.56 78.7971 385.724 78.7971H371.119V118.334Z" fill="url(#paint1_linear_624_140867)"/>
<path d="M428.764 59.3236H444.106C445.582 59.3236 446.467 60.2087 446.467 61.684V174.984C446.467 176.46 445.582 177.345 444.106 177.345H428.764C427.141 177.345 426.403 176.46 426.403 174.984V61.684C426.403 60.2087 427.141 59.3236 428.764 59.3236Z" fill="url(#paint2_linear_624_140867)"/>
<path d="M522.934 59.3236H542.407C544.325 59.3236 545.358 60.3563 545.358 62.2741V174.394C545.358 176.312 544.325 177.345 542.407 177.345H528.688C526.77 177.345 525.737 176.312 525.737 174.394V108.007H524.704L510.099 174.689C509.657 176.46 508.624 177.345 506.854 177.345H499.625C497.855 177.345 496.822 176.46 496.379 174.689L481.774 108.007H480.742V174.394C480.742 176.312 479.709 177.345 477.791 177.345H464.219C462.301 177.345 461.268 176.312 461.268 174.394V62.2741C461.268 60.3563 462.301 59.3236 464.219 59.3236H483.692C485.462 59.3236 486.495 60.2087 486.938 61.9791L503.313 135.447L519.689 61.9791C520.131 60.2087 521.164 59.3236 522.934 59.3236Z" fill="url(#paint3_linear_624_140867)"/>
<path d="M618.962 61.684V76.4367C618.962 77.9119 618.372 78.9446 616.602 78.9446H579.72V108.45H607.898C609.373 108.45 610.258 109.335 610.258 110.958V125.563C610.258 127.186 609.373 128.071 607.898 128.071H579.72V157.871H616.602C618.372 157.871 618.962 158.609 618.962 160.232V174.984C618.962 176.46 618.372 177.345 616.602 177.345H562.312C560.984 177.345 560.099 176.46 560.099 174.984V61.684C560.099 60.2087 560.984 59.3236 562.312 59.3236H616.602C618.372 59.3236 618.962 60.2087 618.962 61.684Z" fill="url(#paint4_linear_624_140867)"/>
<path d="M692.729 61.684V76.4367C692.729 77.9119 691.844 78.7971 690.368 78.7971H653.782V108.45H681.517C682.992 108.45 683.877 109.335 683.877 110.81V125.563C683.877 127.186 682.992 127.923 681.517 127.923H653.782V174.984C653.782 176.46 652.897 177.345 651.421 177.345H636.079C634.456 177.345 633.718 176.46 633.718 174.984V61.684C633.718 60.2087 634.456 59.3236 636.079 59.3236H690.368C691.844 59.3236 692.729 60.2087 692.729 61.684Z" fill="url(#paint5_linear_624_140867)"/>
<path d="M726.104 157.871H761.216C762.839 157.871 763.576 158.757 763.576 160.232V174.984C763.576 176.607 762.839 177.345 761.216 177.345H708.401C706.926 177.345 706.041 176.607 706.041 174.984V61.684C706.041 60.2087 706.926 59.3236 708.401 59.3236H723.744C725.367 59.3236 726.104 60.2087 726.104 61.684V157.871Z" fill="url(#paint6_linear_624_140867)"/>
<path d="M834.345 61.684V76.4367C834.345 77.9119 833.755 78.9446 831.985 78.9446H795.103V108.45H823.281C824.756 108.45 825.641 109.335 825.641 110.958V125.563C825.641 127.186 824.756 128.071 823.281 128.071H795.103V157.871H831.985C833.755 157.871 834.345 158.609 834.345 160.232V174.984C834.345 176.46 833.755 177.345 831.985 177.345H777.695C776.367 177.345 775.482 176.46 775.482 174.984V61.684C775.482 60.2087 776.367 59.3236 777.695 59.3236H831.985C833.755 59.3236 834.345 60.2087 834.345 61.684Z" fill="url(#paint7_linear_624_140867)"/>
<path d="M891.442 117.154L914.898 173.804C915.784 175.87 915.046 177.345 912.685 177.345H897.49C895.867 177.345 894.687 176.755 894.097 175.28L879.934 139.578L865.772 175.28C865.182 176.755 864.002 177.345 862.379 177.345H847.184C844.823 177.345 844.086 175.87 844.971 173.804L868.28 117.154L845.856 62.8642C844.971 60.7988 845.708 59.3236 848.069 59.3236H862.821C864.444 59.3236 865.624 59.9137 866.214 61.389L879.934 96.3528L893.654 61.389C894.245 59.9137 895.425 59.3236 897.048 59.3236H911.8C914.161 59.3236 914.898 60.7988 914.013 62.8642L891.442 117.154Z" fill="url(#paint8_linear_624_140867)"/>
<path fill-rule="evenodd" clip-rule="evenodd" d="M233.936 117.39L117.338 0.792358L0.739624 117.39L117.338 233.988L233.936 117.39ZM140.15 75.4934L161.44 73.4665L147.246 59.278H133.053L140.15 75.4934ZM103.652 59.2783L95.5745 78.4547L59.0426 75.4937L65.1256 100.83L108.72 117.046L114.804 117.046V59.2783H103.652ZM88.4446 120.086L97.5691 118.059L90.4723 128.194V159.611L66.1405 139.342V104.884L77.2926 108.938L88.4446 120.086ZM145.219 120.086L136.094 118.059L143.191 128.194V159.611L167.523 139.342V104.884L156.371 108.938L145.219 120.086ZM101.501 117.91L93.4141 130.096V175.794L99.4795 184.933L106.556 192.042H126.774L133.85 184.933L139.915 175.794V130.096L131.828 117.91L126.774 120.956H106.556L101.501 117.91ZM143.191 178.867L156.371 165.692V152.517L143.191 163.665V178.867ZM77.2926 165.692L90.4723 178.867V163.665L77.2926 152.517V165.692ZM118.859 117.046V59.2783H130.011L138.089 78.4566L175.633 75.4937L169.55 100.83L125.956 117.046H118.859ZM72.2235 73.4665L93.5138 75.4934L100.611 59.278H86.417L72.2235 73.4665Z" fill="url(#paint9_linear_624_140867)"/>
<defs>
<linearGradient id="paint0_linear_624_140867" x1="458" y1="-127.142" x2="741.882" y2="329.744" gradientUnits="userSpaceOnUse">
<stop stop-color="#00E08F"/>
<stop offset="1" stop-color="#00A3FF"/>
</linearGradient>
<linearGradient id="paint1_linear_624_140867" x1="458" y1="-127.142" x2="741.882" y2="329.744" gradientUnits="userSpaceOnUse">
<stop stop-color="#00E08F"/>
<stop offset="1" stop-color="#00A3FF"/>
</linearGradient>
<linearGradient id="paint2_linear_624_140867" x1="458" y1="-127.142" x2="741.882" y2="329.744" gradientUnits="userSpaceOnUse">
<stop stop-color="#00E08F"/>
<stop offset="1" stop-color="#00A3FF"/>
</linearGradient>
<linearGradient id="paint3_linear_624_140867" x1="458" y1="-127.142" x2="741.882" y2="329.744" gradientUnits="userSpaceOnUse">
<stop stop-color="#00E08F"/>
<stop offset="1" stop-color="#00A3FF"/>
</linearGradient>
<linearGradient id="paint4_linear_624_140867" x1="458" y1="-127.142" x2="741.882" y2="329.744" gradientUnits="userSpaceOnUse">
<stop stop-color="#00E08F"/>
<stop offset="1" stop-color="#00A3FF"/>
</linearGradient>
<linearGradient id="paint5_linear_624_140867" x1="458" y1="-127.142" x2="741.882" y2="329.744" gradientUnits="userSpaceOnUse">
<stop stop-color="#00E08F"/>
<stop offset="1" stop-color="#00A3FF"/>
</linearGradient>
<linearGradient id="paint6_linear_624_140867" x1="458" y1="-127.142" x2="741.882" y2="329.744" gradientUnits="userSpaceOnUse">
<stop stop-color="#00E08F"/>
<stop offset="1" stop-color="#00A3FF"/>
</linearGradient>
<linearGradient id="paint7_linear_624_140867" x1="458" y1="-127.142" x2="741.882" y2="329.744" gradientUnits="userSpaceOnUse">
<stop stop-color="#00E08F"/>
<stop offset="1" stop-color="#00A3FF"/>
</linearGradient>
<linearGradient id="paint8_linear_624_140867" x1="458" y1="-127.142" x2="741.882" y2="329.744" gradientUnits="userSpaceOnUse">
<stop stop-color="#00E08F"/>
<stop offset="1" stop-color="#00A3FF"/>
</linearGradient>
<linearGradient id="paint9_linear_624_140867" x1="458" y1="-127.142" x2="741.882" y2="329.744" gradientUnits="userSpaceOnUse">
<stop stop-color="#00E08F"/>
<stop offset="1" stop-color="#00A3FF"/>
</linearGradient>
</defs>
</svg>
