<svg width="130" height="41" viewBox="0 0 130 41" fill="none" xmlns="http://www.w3.org/2000/svg">
<path fill-rule="evenodd" clip-rule="evenodd" d="M50.6361 31.7796C50.6361 32.0739 50.8158 32.2504 51.1152 32.2504H54.229C54.5584 32.2504 54.7081 32.0739 54.7081 31.7796V24.3639H58.301C61.1155 24.3639 62.6125 22.8631 62.6125 20.1264V12.9461C62.6125 10.18 61.1155 8.70862 58.301 8.70862H51.1152C50.8158 8.70862 50.6361 8.88518 50.6361 9.17945V31.7796ZM54.7081 20.4795V12.593H57.3429C58.1513 12.593 58.5406 13.005 58.5406 13.7701V19.3024C58.5406 20.0381 58.1513 20.4795 57.3429 20.4795H54.7081ZM75.5537 8.70862C78.3682 8.70862 79.8652 10.18 79.8652 12.9461V20.1264C79.8652 22.098 79.1167 23.3928 77.6795 24.0108L79.7455 31.7207C79.8353 32.0739 79.6556 32.2504 79.3263 32.2504H76.2124C75.913 32.2504 75.7633 32.1033 75.7034 31.8385L73.6974 24.3639H71.6314V31.7796C71.6314 32.0739 71.4518 32.2504 71.1524 32.2504H68.0385C67.7391 32.2504 67.5594 32.0739 67.5594 31.7796V9.17945C67.5594 8.88518 67.7391 8.70862 68.0385 8.70862H75.5537ZM71.6314 20.4795V12.593H74.5956C75.3741 12.593 75.7932 13.005 75.7932 13.7701V19.3024C75.7932 20.0675 75.3741 20.4795 74.5956 20.4795H71.6314ZM85.1115 9.17945C85.1115 8.88518 85.2612 8.70862 85.5906 8.70862H88.7045C89.0039 8.70862 89.1835 8.88518 89.1835 9.17945V31.7796C89.1835 32.0739 89.0039 32.2504 88.7045 32.2504H85.5906C85.2612 32.2504 85.1115 32.0739 85.1115 31.7796V9.17945ZM106.945 8.70862C106.586 8.70862 106.376 8.88518 106.287 9.23831L102.963 23.8931L99.6396 9.23831C99.5498 8.88518 99.3402 8.70862 98.9809 8.70862H95.0287C94.6394 8.70862 94.4298 8.91461 94.4298 9.29716V31.6619C94.4298 32.0444 94.6394 32.2504 95.0287 32.2504H97.7832C98.1725 32.2504 98.3821 32.0444 98.3821 31.6619V18.4196H98.5917L101.556 31.7207C101.646 32.0739 101.855 32.2504 102.215 32.2504H103.682C104.041 32.2504 104.251 32.0739 104.34 31.7207L107.305 18.4196H107.514V31.6619C107.514 32.0444 107.724 32.2504 108.113 32.2504H110.897C111.287 32.2504 111.496 32.0444 111.496 31.6619V9.29716C111.496 8.91461 111.287 8.70862 110.897 8.70862H106.945ZM128.21 8.70862C128.569 8.70862 128.689 8.88518 128.689 9.17945V12.1222C128.689 12.4165 128.569 12.6224 128.21 12.6224H120.725V18.5079H126.443C126.743 18.5079 126.923 18.6845 126.923 19.0082V21.9215C126.923 22.2452 126.743 22.4217 126.443 22.4217H120.725V28.366H128.21C128.569 28.366 128.689 28.5132 128.689 28.8369V31.7796C128.689 32.0739 128.569 32.2504 128.21 32.2504H117.192C116.922 32.2504 116.743 32.0739 116.743 31.7796V9.17945C116.743 8.88518 116.922 8.70862 117.192 8.70862H128.21Z" fill="#20272A"/>
<rect x="0.899414" y="0.908569" width="39.4167" height="39" fill="#F8F9FA"/>
<rect x="1.83105" y="1.83032" width="37.5533" height="37.1564" stroke="#20272A" stroke-width="2.6"/>
<path d="M26.5374 19.3774L24.5968 18.9508L26.1062 21.0835V27.6948L31.2811 23.4295V16.1783L28.9093 17.0314L26.5374 19.3774Z" fill="#20272A"/>
<path d="M14.4625 19.3774L16.4031 18.9508L14.8937 21.0835V27.6948L9.71876 23.4295V16.1783L12.0906 17.0314L14.4625 19.3774Z" fill="#20272A"/>
<path fill-rule="evenodd" clip-rule="evenodd" d="M15.5406 21.51L17.2656 18.9508L18.3438 19.5906H22.6562L23.7343 18.9508L25.4593 21.51V31.1071L24.1656 33.0265L22.6562 34.5194H18.3438L16.8344 33.0265L15.5406 31.1071V21.51Z" fill="#20272A"/>
<path d="M26.1061 31.747L28.9092 28.9745V26.202L26.1061 28.548V31.747Z" fill="#20272A"/>
<path d="M14.8937 31.747L12.0906 28.9745V26.202L14.8937 28.548V31.747Z" fill="#20272A"/>
<path fill-rule="evenodd" clip-rule="evenodd" d="M17.6968 6.5813L15.9718 10.6334L18.7749 18.7376H20.0686V6.5813H17.6968ZM20.9311 6.5813V18.7376H22.4405L25.028 10.6334L23.303 6.5813H20.9311Z" fill="#20272A"/>
<path d="M18.7749 18.7375L9.50309 15.3252L8.20935 9.99353L16.1874 10.6333L18.9905 18.7375H18.7749Z" fill="#20272A"/>
<path d="M22.4406 18.7375L31.7124 15.3252L33.0061 9.99353L24.8124 10.6333L22.2249 18.7375H22.4406Z" fill="#20272A"/>
<path d="M25.4593 9.9936L29.9874 9.56706L26.9687 6.5813H23.95L25.4593 9.9936Z" fill="#20272A"/>
<path d="M15.5406 9.9936L11.0125 9.56706L14.0312 6.5813H17.0499L15.5406 9.9936Z" fill="#20272A"/>
</svg>
