<svg width="22" height="21" viewBox="0 0 22 21" fill="none" xmlns="http://www.w3.org/2000/svg">
<rect x="0.5" width="21" height="21" rx="4" fill="black" fill-opacity="0.02"/>
<rect width="3.29749" height="8.23589" transform="matrix(0.866325 0.49948 3.18816e-05 1 6.00024 7.61682)" fill="#CCCCCC"/>
<path fill-rule="evenodd" clip-rule="evenodd" d="M16 5.14581L8.8572 9.26398L8.85693 17.4999L15.9997 13.3817L16 5.14581ZM13.6993 7.78968L14.743 7.07229L14.0472 6.67086L13.3514 7.07262L13.6993 7.78968ZM11.9101 7.90487L11.5141 9.21905L9.72313 10.0855L10.0213 11.3476L12.1584 11.0315L12.4567 10.8593L12.4568 7.5892L11.9101 7.90487ZM11.6118 11.4045L11.1644 11.7775L10.6178 11.4621L10.071 11.5483L10.071 13.4989L11.2638 13.9576L11.2638 12.1791L11.6118 11.4045ZM13.9477 10.1705L13.5004 10.314L13.8483 10.6869L13.8482 12.4654L15.0411 10.6292L15.0412 8.67861L14.4945 9.22376L13.9477 10.1705ZM11.4081 12.2035L11.8045 11.2848L12.0523 11.3142L13.0435 10.7419L13.2913 10.4264L13.6877 10.8873L13.6876 13.4742L13.3903 14.1632L13.0433 14.7659L12.0522 15.3382L11.7053 15.1361L11.408 14.7904L11.4081 12.2035ZM13.8482 13.5554L14.4943 12.4365L14.4944 11.6907L13.8482 12.6949L13.8482 13.5554ZM11.2637 15.0477L10.6176 14.6749L10.6177 13.9291L11.2638 14.1871L11.2637 15.0477ZM12.6555 10.7446L12.6556 7.47441L13.2023 7.15874L13.5983 8.01575L15.4388 6.78531L15.1405 8.39177L13.0034 10.5437L12.6555 10.7446ZM11.413 9.10975L10.3693 9.59764L11.0652 8.39269L11.761 7.99093L11.413 9.10975Z" fill="white"/>
<path d="M13.6993 7.78967L14.743 7.07229L14.0472 6.67086L13.3514 7.07262L13.6993 7.78967Z" fill="#BABABA"/>
<path d="M11.91 7.90486L11.514 9.21904L9.72312 10.0855L10.0213 11.3476L12.1584 11.0315L12.4566 10.8593L12.4568 7.58919L11.91 7.90486Z" fill="#BABABA"/>
<path d="M11.1644 11.7775L11.6117 11.4045L11.2638 12.1791L11.2638 13.9576L10.071 13.4989L10.071 11.5483L10.6177 11.4621L11.1644 11.7775Z" fill="#BABABA"/>
<path d="M13.9477 10.1705L13.5004 10.314L13.8483 10.6869L13.8482 12.4654L15.0411 10.6292L15.0412 8.6786L14.4944 9.22375L13.9477 10.1705Z" fill="#BABABA"/>
<path d="M11.8045 11.2848L11.408 12.2035L11.4079 14.7904L11.7053 15.1361L12.0522 15.3382L13.0433 14.7659L13.3902 14.1632L13.6876 13.4742L13.6877 10.8873L13.2912 10.4263L13.0435 10.7419L12.0523 11.3142L11.8045 11.2848Z" fill="#BABABA"/>
<path d="M13.8482 13.5554L14.4943 12.4365L14.4944 11.6907L13.8482 12.6948L13.8482 13.5554Z" fill="#BABABA"/>
<path d="M10.6176 14.6749L11.2637 15.0477L11.2638 14.1871L10.6177 13.9291L10.6176 14.6749Z" fill="#BABABA"/>
<path d="M12.6555 10.7445L12.6556 7.47441L13.2023 7.15874L13.5982 8.01574L15.4388 6.78531L15.1405 8.39176L13.0034 10.5437L12.6555 10.7445Z" fill="#BABABA"/>
<path d="M10.3693 9.59764L11.413 9.10974L11.761 7.99093L11.0651 8.39269L10.3693 9.59764Z" fill="#BABABA"/>
<rect width="8.24491" height="3.29749" transform="matrix(0.866357 -0.499425 0.866357 0.499425 6.00024 7.61774)" fill="#E6E6E6"/>
</svg>
