<svg width="22" height="22" viewBox="0 0 22 22" fill="none" xmlns="http://www.w3.org/2000/svg">
<rect x="0.75" y="0.138" width="21" height="21" rx="4" fill="white" fill-opacity="0.05"/>
<g clip-path="url(#clip0_632_105290)">
<path d="M11.2909 7.14386C9.03335 7.14386 7.20752 8.96969 7.20752 11.2272C7.20752 13.4847 9.03335 15.3105 11.2909 15.3105C13.5484 15.3105 15.3742 13.4847 15.3742 11.2272C15.3742 8.96969 13.5484 7.14386 11.2909 7.14386ZM11.8742 11.8105H10.7075V8.31053H11.8742V11.8105Z" fill="white" fill-opacity="0.1"/>
<path d="M11.2909 7.14386C9.03335 7.14386 7.20752 8.96969 7.20752 11.2272C7.20752 13.4847 9.03335 15.3105 11.2909 15.3105C13.5484 15.3105 15.3742 13.4847 15.3742 11.2272C15.3742 8.96969 13.5484 7.14386 11.2909 7.14386ZM11.8742 11.8105H10.7075V8.31053H11.8742V11.8105Z" fill="url(#paint0_radial_632_105290)" fill-opacity="0.5"/>
<path d="M9.54077 4.22717H13.0408V5.39384H9.54077V4.22717ZM10.7074 8.31051H11.8741V11.8105H10.7074V8.31051ZM15.3916 7.94884L16.2199 7.12051C15.9691 6.82301 15.6949 6.54301 15.3974 6.29801L14.5691 7.12634C13.6649 6.40301 12.5274 5.97134 11.2908 5.97134C8.3916 5.97134 6.04077 8.32217 6.04077 11.2213C6.04077 14.1205 8.38577 16.4713 11.2908 16.4713C14.1958 16.4713 16.5408 14.1205 16.5408 11.2213C16.5408 9.99051 16.1091 8.84717 15.3916 7.94884ZM11.2908 15.3105C9.03327 15.3105 7.20744 13.4847 7.20744 11.2272C7.20744 8.96967 9.03327 7.14384 11.2908 7.14384C13.5483 7.14384 15.3741 8.96967 15.3741 11.2272C15.3741 13.4847 13.5483 15.3105 11.2908 15.3105Z" fill="white"/>
</g>
<defs>
<radialGradient id="paint0_radial_632_105290" cx="0" cy="0" r="1" gradientUnits="userSpaceOnUse" gradientTransform="translate(11.2909 15.3105) rotate(-90) scale(4.08334 4.08341)">
<stop stop-color="white"/>
<stop offset="1" stop-color="white" stop-opacity="0.1"/>
</radialGradient>
<clipPath id="clip0_632_105290">
<rect width="14" height="14" fill="white" transform="translate(4.25 3.638)"/>
</clipPath>
</defs>
</svg>
