<svg width="22" height="21" viewBox="0 0 22 21" fill="none" xmlns="http://www.w3.org/2000/svg">
<rect x="0.5" width="21" height="21" rx="4" fill="black" fill-opacity="0.02"/>
<path fill-rule="evenodd" clip-rule="evenodd" d="M18 10.5L11 3.5L4 10.5L11 17.5L18 10.5ZM12.3695 7.98471L13.6477 7.86302L12.7956 7.01121H11.9435L12.3695 7.98471ZM10.1784 7.01123L9.69345 8.16249L7.50024 7.98472L7.86543 9.50582L10.4826 10.4793L10.8479 10.4793V7.01123H10.1784ZM9.2654 10.6618L9.81319 10.5401L9.38713 11.1486V13.0347L7.92637 11.8179V9.74917L8.59588 9.99255L9.2654 10.6618ZM12.6739 10.6618L12.1261 10.5401L12.5521 11.1486V13.0347L14.0129 11.8179V9.74917L13.3434 9.99255L12.6739 10.6618ZM10.0493 10.5312L9.56375 11.2628V14.0063L9.92788 14.555L10.3527 14.9817H11.5665L11.9913 14.555L12.3555 14.0063V11.2628L11.8699 10.5312L11.5665 10.7141H10.3527L10.0493 10.5312ZM12.5521 14.1908L13.3434 13.3998V12.6088L12.5521 13.2781V14.1908ZM8.59588 13.3998L9.38713 14.1908V13.2781L8.59588 12.6088V13.3998ZM11.0913 10.4793V7.01123H11.7609L12.2458 8.1626L14.4998 7.98472L14.1346 9.50582L11.5174 10.4793H11.0913ZM8.29156 7.86302L9.56973 7.98471L9.99579 7.01121H9.14367L8.29156 7.86302Z" fill="#BABABA"/>
<path d="M12.3695 7.9785L13.6477 7.85682L12.7956 7.005H11.9435L12.3695 7.9785Z" fill="black" fill-opacity="0.03"/>
<path d="M10.1784 7.00502L9.69345 8.15629L7.50024 7.97852L7.86544 9.49961L10.4826 10.4731L10.8479 10.4731V7.00502H10.1784Z" fill="black" fill-opacity="0.03"/>
<path d="M9.2654 10.6556L9.81319 10.5339L9.38714 11.1424V13.0285L7.92637 11.8117V9.74297L8.59589 9.98635L9.2654 10.6556Z" fill="black" fill-opacity="0.03"/>
<path d="M12.6739 10.6556L12.1261 10.5339L12.5521 11.1424V13.0285L14.0129 11.8117V9.74297L13.3434 9.98635L12.6739 10.6556Z" fill="black" fill-opacity="0.03"/>
<path d="M10.0493 10.525L9.56375 11.2566V14.0001L9.92789 14.5488L10.3527 14.9755H11.5665L11.9913 14.5488L12.3555 14.0001V11.2566L11.8699 10.525L11.5665 10.7079H10.3527L10.0493 10.525Z" fill="black" fill-opacity="0.03"/>
<path d="M12.5521 14.1846L13.3434 13.3936V12.6026L12.5521 13.2719V14.1846Z" fill="black" fill-opacity="0.03"/>
<path d="M8.59589 13.3936L9.38714 14.1846V13.2719L8.59589 12.6026V13.3936Z" fill="black" fill-opacity="0.03"/>
<path d="M11.0913 10.4731V7.00502H11.7609L12.2458 8.1564L14.4998 7.97852L14.1346 9.49961L11.5174 10.4731H11.0913Z" fill="black" fill-opacity="0.03"/>
<path d="M8.29156 7.85682L9.56973 7.9785L9.99579 7.005H9.14367L8.29156 7.85682Z" fill="black" fill-opacity="0.03"/>
</svg>
