<svg width="22" height="21" viewBox="0 0 22 21" fill="none" xmlns="http://www.w3.org/2000/svg">
<rect x="0.5" width="21" height="21" rx="4" fill="black" fill-opacity="0.02"/>
<g clip-path="url(#clip0_635_105439)">
<path d="M13.4733 9.12916L11 6.57416L8.52667 9.09999C7.86167 9.75916 7.50583 10.5 7.5 11.6667H14.5C14.4942 10.5 14.1383 9.78249 13.4733 9.12916Z" fill="black" fill-opacity="0.03"/>
<path d="M14.3018 8.16668L11.0002 4.87085L7.6985 8.16668C6.7885 9.07668 6.3335 10.29 6.3335 11.4567C6.3335 12.6233 6.7885 13.8542 7.6985 14.7642C8.6085 15.6742 9.80433 16.135 11.0002 16.135C12.196 16.135 13.3918 15.6742 14.3018 14.7642C15.2118 13.8542 15.6668 12.6233 15.6668 11.4567C15.6668 10.29 15.2118 9.07668 14.3018 8.16668ZM7.50016 11.6667C7.506 10.5 7.86183 9.75918 8.52683 9.10002L11.0002 6.57418L13.4735 9.12918C14.1385 9.78252 14.4943 10.5 14.5002 11.6667H7.50016Z" fill="#BABABA"/>
</g>
<defs>
<clipPath id="clip0_635_105439">
<rect width="14" height="14" fill="white" transform="translate(4 3.5)"/>
</clipPath>
</defs>
</svg>
