<svg width="22" height="22" viewBox="0 0 22 22" fill="none" xmlns="http://www.w3.org/2000/svg">
<rect x="0.75" y="0.138" width="21" height="21" rx="4" fill="white" fill-opacity="0.05"/>
<g clip-path="url(#clip0_632_105282)">
<path d="M6 14.7272H16.5V6.54883H6V14.7272ZM12.4167 12.388H14.1667V10.638H15.3333V13.5547H12.4167V12.388ZM7.16667 7.72133H10.0833V8.88799H8.33333V10.638H7.16667V7.72133Z" fill="white" fill-opacity="0.1"/>
<path d="M6 14.7272H16.5V6.54883H6V14.7272ZM12.4167 12.388H14.1667V10.638H15.3333V13.5547H12.4167V12.388ZM7.16667 7.72133H10.0833V8.88799H8.33333V10.638H7.16667V7.72133Z" fill="url(#paint0_radial_632_105282)" fill-opacity="0.5"/>
<path d="M16.4999 5.388H5.99992C5.35825 5.388 4.83325 5.913 4.83325 6.55467V14.7213C4.83325 15.363 5.35825 15.888 5.99992 15.888H16.4999C17.1416 15.888 17.6666 15.363 17.6666 14.7213V6.55467C17.6666 5.913 17.1416 5.388 16.4999 5.388ZM16.4999 14.7272H5.99992V6.54883H16.4999V14.7272ZM8.33325 8.888H10.0833V7.72133H7.16659V10.638H8.33325V8.888ZM15.3333 10.638H14.1666V12.388H12.4166V13.5547H15.3333V10.638Z" fill="white"/>
</g>
<defs>
<radialGradient id="paint0_radial_632_105282" cx="0" cy="0" r="1" gradientUnits="userSpaceOnUse" gradientTransform="translate(11.25 14.7272) rotate(-90) scale(4.08918 5.2501)">
<stop stop-color="white"/>
<stop offset="1" stop-color="white" stop-opacity="0.1"/>
</radialGradient>
<clipPath id="clip0_632_105282">
<rect width="14" height="14" fill="white" transform="translate(4.25 3.638)"/>
</clipPath>
</defs>
</svg>
