<svg width="22" height="22" viewBox="0 0 22 22" fill="none" xmlns="http://www.w3.org/2000/svg">
<rect x="0.75" y="0.138" width="21" height="21" rx="4" fill="white" fill-opacity="0.05"/>
<g clip-path="url(#clip0_632_105278)">
<path d="M15.3333 14.7213H16.5V15.888H15.3333V14.7213ZM15.3333 10.0547H16.5V11.2213H15.3333V10.0547ZM15.3333 12.388H16.5V13.5547H15.3333V12.388ZM13 14.7213H14.1667V15.888H13V14.7213ZM6 15.888H7.16667V6.55467H16.5V5.388H6V15.888ZM15.3333 7.72133H16.5V8.888H15.3333V7.72133ZM10.6667 14.7213H11.8333V15.888H10.6667V14.7213ZM8.33333 14.7213H9.5V15.888H8.33333V14.7213Z" fill="white"/>
</g>
<defs>
<clipPath id="clip0_632_105278">
<rect width="14" height="14" fill="white" transform="translate(4.25 3.638)"/>
</clipPath>
</defs>
</svg>
