<svg width="22" height="21" viewBox="0 0 22 21" fill="none" xmlns="http://www.w3.org/2000/svg">
<rect x="0.5" width="21" height="21" rx="4" fill="black" fill-opacity="0.02"/>
<g clip-path="url(#clip0_635_105430)">
<path d="M5.75 14.5892H16.25V6.41083H5.75V14.5892ZM12.1667 12.25H13.9167V10.5H15.0833V13.4167H12.1667V12.25ZM6.91667 7.58333H9.83333V8.74999H8.08333V10.5H6.91667V7.58333Z" fill="black" fill-opacity="0.03"/>
<path d="M16.2499 5.25H5.74992C5.10825 5.25 4.58325 5.775 4.58325 6.41667V14.5833C4.58325 15.225 5.10825 15.75 5.74992 15.75H16.2499C16.8916 15.75 17.4166 15.225 17.4166 14.5833V6.41667C17.4166 5.775 16.8916 5.25 16.2499 5.25ZM16.2499 14.5892H5.74992V6.41083H16.2499V14.5892ZM8.08325 8.75H9.83325V7.58333H6.91659V10.5H8.08325V8.75ZM15.0833 10.5H13.9166V12.25H12.1666V13.4167H15.0833V10.5Z" fill="#BABABA"/>
</g>
<defs>
<clipPath id="clip0_635_105430">
<rect width="14" height="14" fill="white" transform="translate(4 3.5)"/>
</clipPath>
</defs>
</svg>
