<svg width="22" height="21" viewBox="0 0 22 21" fill="none" xmlns="http://www.w3.org/2000/svg">
<rect x="0.5" width="21" height="21" rx="4" fill="black" fill-opacity="0.02"/>
<g clip-path="url(#clip0_635_105450)">
<path d="M11.0409 7.00586C8.78335 7.00586 6.95752 8.83169 6.95752 11.0892C6.95752 13.3467 8.78335 15.1725 11.0409 15.1725C13.2984 15.1725 15.1242 13.3467 15.1242 11.0892C15.1242 8.83169 13.2984 7.00586 11.0409 7.00586ZM11.6242 11.6725H10.4575V8.17253H11.6242V11.6725Z" fill="black" fill-opacity="0.03"/>
<path d="M9.29102 4.08917H12.791V5.25584H9.29102V4.08917ZM10.4577 8.17251H11.6243V11.6725H10.4577V8.17251ZM15.1418 7.81084L15.9702 6.98251C15.7193 6.68501 15.4452 6.40501 15.1477 6.16001L14.3193 6.98834C13.4152 6.26501 12.2777 5.83334 11.041 5.83334C8.14185 5.83334 5.79102 8.18417 5.79102 11.0833C5.79102 13.9825 8.13602 16.3333 11.041 16.3333C13.946 16.3333 16.291 13.9825 16.291 11.0833C16.291 9.85251 15.8593 8.70917 15.1418 7.81084ZM11.041 15.1725C8.78352 15.1725 6.95768 13.3467 6.95768 11.0892C6.95768 8.83167 8.78352 7.00584 11.041 7.00584C13.2985 7.00584 15.1243 8.83167 15.1243 11.0892C15.1243 13.3467 13.2985 15.1725 11.041 15.1725Z" fill="#BABABA"/>
</g>
<defs>
<clipPath id="clip0_635_105450">
<rect width="14" height="14" fill="white" transform="translate(4 3.5)"/>
</clipPath>
</defs>
</svg>
