<svg width="22" height="21" viewBox="0 0 22 21" fill="none" xmlns="http://www.w3.org/2000/svg">
<rect x="0.5" width="21" height="21" rx="4" fill="black" fill-opacity="0.02"/>
<g clip-path="url(#clip0_634_105711)">
<path d="M13.3333 10.7916H15.0833V12.8333H13.3333V10.7916ZM7.5 7.58331H9.25V12.8333H7.5V7.58331ZM10.4167 10.7916H12.1667V12.8333H10.4167V10.7916ZM10.4167 7.58331H15.0833V9.62498H10.4167V7.58331Z" fill="black" fill-opacity="0.03"/>
<path d="M6.33325 6.41669V14H16.2499V6.41669H6.33325ZM9.24992 12.8334H7.49992V7.58335H9.24992V12.8334ZM12.1666 12.8334H10.4166V10.7917H12.1666V12.8334ZM15.0833 12.8334H13.3333V10.7917H15.0833V12.8334ZM15.0833 9.62502H10.4166V7.58335H15.0833V9.62502Z" fill="#BABABA"/>
</g>
<defs>
<clipPath id="clip0_634_105711">
<rect width="14" height="14" fill="white" transform="translate(4 3.5)"/>
</clipPath>
</defs>
</svg>
