<svg width="22" height="21" viewBox="0 0 22 21" fill="none" xmlns="http://www.w3.org/2000/svg">
<rect x="0.5" width="21" height="21" rx="4" fill="black" fill-opacity="0.02"/>
<g clip-path="url(#clip0_635_105444)">
<path d="M11.5835 15.4584H10.4168V14.5834H11.5835V15.4584ZM11.5835 14H10.4168C10.4168 13.125 8.9585 12.25 8.9585 11.0834C8.9585 9.95752 9.87433 9.04169 11.0002 9.04169C12.126 9.04169 13.0418 9.95752 13.0418 11.0834C13.0418 12.25 11.5835 13.125 11.5835 14Z" fill="#BABABA"/>
<path d="M13.9165 8.16669H8.08317C7.4415 8.16669 6.9165 8.69169 6.9165 9.33335V15.1667C6.9165 15.8084 7.4415 16.3334 8.08317 16.3334H13.9165C14.5582 16.3334 15.0832 15.8084 15.0832 15.1667V9.33335C15.0832 8.69169 14.5582 8.16669 13.9165 8.16669ZM11.5832 15.4584H10.4165V14.5834H11.5832V15.4584ZM11.5832 14H10.4165C10.4165 13.125 8.95817 12.25 8.95817 11.0834C8.95817 9.95752 9.874 9.04169 10.9998 9.04169C12.1257 9.04169 13.0415 9.95752 13.0415 11.0834C13.0415 12.25 11.5832 13.125 11.5832 14ZM14.4998 7.29169H7.49984C7.49984 6.80752 7.89067 6.41669 8.37484 6.41669H13.6248C14.109 6.41669 14.4998 6.80752 14.4998 7.29169ZM13.9165 5.54169H8.08317C8.08317 5.05752 8.474 4.66669 8.95817 4.66669H13.0415C13.5257 4.66669 13.9165 5.05752 13.9165 5.54169Z" fill="#BABABA"/>
</g>
<defs>
<clipPath id="clip0_635_105444">
<rect width="14" height="14" fill="white" transform="translate(4 3.5)"/>
</clipPath>
</defs>
</svg>
