<svg width="22" height="21" viewBox="0 0 22 21" fill="none" xmlns="http://www.w3.org/2000/svg">
<rect x="0.5" width="21" height="21" rx="4" fill="black" fill-opacity="0.02"/>
<g clip-path="url(#clip0_635_105421)">
<path d="M15.0833 14.5833H16.25V15.75H15.0833V14.5833ZM15.0833 9.91667H16.25V11.0833H15.0833V9.91667ZM15.0833 12.25H16.25V13.4167H15.0833V12.25ZM12.75 14.5833H13.9167V15.75H12.75V14.5833ZM5.75 15.75H6.91667V6.41667H16.25V5.25H5.75V15.75ZM15.0833 7.58333H16.25V8.75H15.0833V7.58333ZM10.4167 14.5833H11.5833V15.75H10.4167V14.5833ZM8.08333 14.5833H9.25V15.75H8.08333V14.5833Z" fill="#BABABA"/>
</g>
<defs>
<clipPath id="clip0_635_105421">
<rect width="14" height="14" fill="white" transform="translate(4 3.5)"/>
</clipPath>
</defs>
</svg>
