<svg width="22" height="21" viewBox="0 0 22 21" fill="none" xmlns="http://www.w3.org/2000/svg">
<rect x="0.5" width="21" height="21" rx="4" fill="black" fill-opacity="0.02"/>
<g clip-path="url(#clip0_635_105455)">
<path d="M8.28734 8.89001L6.15234 11.025L8.28151 13.16L10.4165 11.025L8.28734 8.89001Z" fill="black" fill-opacity="0.03"/>
<path d="M8.28146 7.23919L4.50146 11.025L8.2873 14.805L12.0731 11.025L8.28146 7.23919ZM8.28146 13.16L6.1523 11.025L8.2873 8.89003L10.4165 11.025L8.28146 13.16ZM15.2931 7.37336C14.2723 6.34669 12.9248 5.83336 11.5831 5.83336V3.94336L9.1098 6.41669L11.5831 8.89003V7.00003C12.6273 7.00003 13.6715 7.39669 14.4706 8.19586C16.0631 9.78836 16.0631 12.3784 14.4706 13.9709C13.6715 14.77 12.6273 15.1667 11.5831 15.1667C11.0173 15.1667 10.4515 15.0442 9.92646 14.8109L9.0573 15.68C9.8448 16.1117 10.714 16.3334 11.5831 16.3334C12.9248 16.3334 14.2723 15.82 15.2931 14.7934C17.3465 12.7459 17.3465 9.42086 15.2931 7.37336Z" fill="#BABABA"/>
</g>
<defs>
<clipPath id="clip0_635_105455">
<rect width="14" height="14" fill="white" transform="translate(4 3.5)"/>
</clipPath>
</defs>
</svg>
