<svg width="22" height="22" viewBox="0 0 22 22" fill="none" xmlns="http://www.w3.org/2000/svg">
<rect x="0.25" y="0.138" width="21" height="21" rx="4" fill="white" fill-opacity="0.05"/>
<g clip-path="url(#clip0_632_105276)">
<path d="M7.83325 5.388H15.9999V13.5547H7.83325V5.388Z" fill="white" fill-opacity="0.1"/>
<path d="M7.83325 5.388H15.9999V13.5547H7.83325V5.388Z" fill="url(#paint0_radial_632_105276)" fill-opacity="0.5"/>
<path d="M5.49992 17.0546H14.8333V15.888H5.49992V6.55465H4.33325V15.888C4.33325 16.5296 4.85825 17.0546 5.49992 17.0546ZM15.9999 4.22131H7.83325C7.19159 4.22131 6.66659 4.74631 6.66659 5.38798V13.5546C6.66659 14.1963 7.19159 14.7213 7.83325 14.7213H15.9999C16.6416 14.7213 17.1666 14.1963 17.1666 13.5546V5.38798C17.1666 4.74631 16.6416 4.22131 15.9999 4.22131ZM15.9999 13.5546H7.83325V5.38798H15.9999V13.5546Z" fill="white"/>
</g>
<defs>
<radialGradient id="paint0_radial_632_105276" cx="0" cy="0" r="1" gradientUnits="userSpaceOnUse" gradientTransform="translate(11.9166 13.5547) rotate(-90) scale(4.08334 4.08341)">
<stop stop-color="white"/>
<stop offset="1" stop-color="white" stop-opacity="0.1"/>
</radialGradient>
<clipPath id="clip0_632_105276">
<rect width="14" height="14" fill="white" transform="translate(3.75 3.638)"/>
</clipPath>
</defs>
</svg>
