<svg width="22" height="22" viewBox="0 0 22 22" fill="none" xmlns="http://www.w3.org/2000/svg">
<rect x="0.25" y="0.138" width="21" height="21" rx="4" fill="white" fill-opacity="0.05"/>
<g clip-path="url(#clip0_632_105288)">
<path d="M11.3333 15.5964H10.1666V14.7214H11.3333V15.5964ZM11.3333 14.138H10.1666C10.1666 13.263 8.70825 12.388 8.70825 11.2214C8.70825 10.0955 9.62409 9.17969 10.7499 9.17969C11.8758 9.17969 12.7916 10.0955 12.7916 11.2214C12.7916 12.388 11.3333 13.263 11.3333 14.138Z" fill="white"/>
<path d="M13.6667 8.30469H7.83341C7.19175 8.30469 6.66675 8.82969 6.66675 9.47135V15.3047C6.66675 15.9464 7.19175 16.4714 7.83341 16.4714H13.6667C14.3084 16.4714 14.8334 15.9464 14.8334 15.3047V9.47135C14.8334 8.82969 14.3084 8.30469 13.6667 8.30469ZM11.3334 15.5964H10.1667V14.7214H11.3334V15.5964ZM11.3334 14.138H10.1667C10.1667 13.263 8.70841 12.388 8.70841 11.2214C8.70841 10.0955 9.62425 9.17969 10.7501 9.17969C11.8759 9.17969 12.7917 10.0955 12.7917 11.2214C12.7917 12.388 11.3334 13.263 11.3334 14.138ZM14.2501 7.42969H7.25008C7.25008 6.94552 7.64091 6.55469 8.12508 6.55469H13.3751C13.8592 6.55469 14.2501 6.94552 14.2501 7.42969ZM13.6667 5.67969H7.83341C7.83341 5.19552 8.22425 4.80469 8.70841 4.80469H12.7917C13.2759 4.80469 13.6667 5.19552 13.6667 5.67969Z" fill="white"/>
</g>
<defs>
<clipPath id="clip0_632_105288">
<rect width="14" height="14" fill="white" transform="translate(3.75 3.638)"/>
</clipPath>
</defs>
</svg>
