<svg width="22" height="22" viewBox="0 0 22 22" fill="none" xmlns="http://www.w3.org/2000/svg">
<rect x="0.75" y="0.138" width="21" height="21" rx="4" fill="white" fill-opacity="0.05"/>
<g clip-path="url(#clip0_632_105294)">
<path d="M11.8333 5.48132V8.88799H14.75C14.7267 7.17299 13.4725 5.75549 11.8333 5.48132ZM10.6667 5.48132C9.0275 5.75549 7.77333 7.17299 7.75 8.88799H10.6667V5.48132ZM10.6667 10.0547H7.75V12.388C7.75 14.3188 9.31917 15.888 11.25 15.888C13.1808 15.888 14.75 14.3188 14.75 12.388V10.0547H10.6667Z" fill="white" fill-opacity="0.1"/>
<path d="M11.8333 5.48132V8.88799H14.75C14.7267 7.17299 13.4725 5.75549 11.8333 5.48132ZM10.6667 5.48132C9.0275 5.75549 7.77333 7.17299 7.75 8.88799H10.6667V5.48132ZM10.6667 10.0547H7.75V12.388C7.75 14.3188 9.31917 15.888 11.25 15.888C13.1808 15.888 14.75 14.3188 14.75 12.388V10.0547H10.6667Z" fill="url(#paint0_radial_632_105294)" fill-opacity="0.5"/>
<path d="M15.9168 8.88798C15.8935 6.32715 13.8168 4.26215 11.2502 4.26215C8.6835 4.26215 6.60683 6.32715 6.5835 8.88798V12.388C6.5835 14.9663 8.67183 17.0546 11.2502 17.0546C13.8285 17.0546 15.9168 14.9663 15.9168 12.388V8.88798ZM11.8335 5.48131C13.4727 5.75548 14.7268 7.17298 14.7502 8.88798H11.8335V5.48131ZM10.6668 5.48131V8.88798H7.75016C7.7735 7.17298 9.02766 5.75548 10.6668 5.48131ZM14.7502 12.388C14.7502 14.3188 13.181 15.888 11.2502 15.888C9.31933 15.888 7.75016 14.3188 7.75016 12.388V10.0546H14.7502V12.388Z" fill="white"/>
</g>
<defs>
<radialGradient id="paint0_radial_632_105294" cx="0" cy="0" r="1" gradientUnits="userSpaceOnUse" gradientTransform="translate(11.25 15.888) rotate(-90) scale(5.20334 3.50007)">
<stop stop-color="white"/>
<stop offset="1" stop-color="white" stop-opacity="0.1"/>
</radialGradient>
<clipPath id="clip0_632_105294">
<rect width="14" height="14" fill="white" transform="translate(4.25 3.638)"/>
</clipPath>
</defs>
</svg>
