<svg width="22" height="22" viewBox="0 0 22 22" fill="none" xmlns="http://www.w3.org/2000/svg">
<rect x="0.25" y="0.138" width="21" height="21" rx="4" fill="white" fill-opacity="0.05"/>
<g clip-path="url(#clip0_632_105292)">
<path d="M8.03734 9.02802L5.90234 11.163L8.03151 13.298L10.1665 11.163L8.03734 9.02802Z" fill="white" fill-opacity="0.1"/>
<path d="M8.03734 9.02802L5.90234 11.163L8.03151 13.298L10.1665 11.163L8.03734 9.02802Z" fill="url(#paint0_radial_632_105292)" fill-opacity="0.5"/>
<path d="M8.03146 7.37719L4.25146 11.163L8.0373 14.943L11.8231 11.163L8.03146 7.37719ZM8.03146 13.298L5.9023 11.163L8.0373 9.02803L10.1665 11.163L8.03146 13.298ZM15.0431 7.51136C14.0223 6.48469 12.6748 5.97136 11.3331 5.97136V4.08136L8.8598 6.55469L11.3331 9.02803V7.13803C12.3773 7.13803 13.4215 7.53469 14.2206 8.33386C15.8131 9.92636 15.8131 12.5164 14.2206 14.1089C13.4215 14.908 12.3773 15.3047 11.3331 15.3047C10.7673 15.3047 10.2015 15.1822 9.67646 14.9489L8.8073 15.818C9.5948 16.2497 10.464 16.4714 11.3331 16.4714C12.6748 16.4714 14.0223 15.958 15.0431 14.9314C17.0965 12.8839 17.0965 9.55886 15.0431 7.51136Z" fill="white"/>
</g>
<defs>
<radialGradient id="paint0_radial_632_105292" cx="0" cy="0" r="1" gradientUnits="userSpaceOnUse" gradientTransform="translate(8.03443 13.298) rotate(-90) scale(2.135 2.13213)">
<stop stop-color="white"/>
<stop offset="1" stop-color="white" stop-opacity="0.1"/>
</radialGradient>
<clipPath id="clip0_632_105292">
<rect width="14" height="14" fill="white" transform="translate(3.75 3.638)"/>
</clipPath>
</defs>
</svg>
