<svg width="22" height="21" viewBox="0 0 22 21" fill="none" xmlns="http://www.w3.org/2000/svg">
<rect x="0.5" width="21" height="21" rx="4" fill="black" fill-opacity="0.02"/>
<g clip-path="url(#clip0_635_105416)">
<path d="M8.08325 5.25H16.2499V13.4167H8.08325V5.25Z" fill="black" fill-opacity="0.03"/>
<path d="M5.74992 16.9166H15.0833V15.75H5.74992V6.41665H4.58325V15.75C4.58325 16.3916 5.10825 16.9166 5.74992 16.9166ZM16.2499 4.08331H8.08325C7.44159 4.08331 6.91659 4.60831 6.91659 5.24998V13.4166C6.91659 14.0583 7.44159 14.5833 8.08325 14.5833H16.2499C16.8916 14.5833 17.4166 14.0583 17.4166 13.4166V5.24998C17.4166 4.60831 16.8916 4.08331 16.2499 4.08331ZM16.2499 13.4166H8.08325V5.24998H16.2499V13.4166Z" fill="#BABABA"/>
</g>
<defs>
<clipPath id="clip0_635_105416">
<rect width="14" height="14" fill="white" transform="translate(4 3.5)"/>
</clipPath>
</defs>
</svg>
