<svg width="22" height="21" viewBox="0 0 22 21" fill="none" xmlns="http://www.w3.org/2000/svg">
<rect x="0.5" width="21" height="21" rx="4" fill="black" fill-opacity="0.02"/>
<g clip-path="url(#clip0_635_105460)">
<path d="M11.5833 5.34332V8.74999H14.5C14.4767 7.03499 13.2225 5.61749 11.5833 5.34332ZM10.4167 5.34332C8.7775 5.61749 7.52333 7.03499 7.5 8.74999H10.4167V5.34332ZM10.4167 9.91666H7.5V12.25C7.5 14.1808 9.06917 15.75 11 15.75C12.9308 15.75 14.5 14.1808 14.5 12.25V9.91666H10.4167Z" fill="black" fill-opacity="0.03"/>
<path d="M15.6668 8.74998C15.6435 6.18915 13.5668 4.12415 11.0002 4.12415C8.4335 4.12415 6.35683 6.18915 6.3335 8.74998V12.25C6.3335 14.8283 8.42183 16.9166 11.0002 16.9166C13.5785 16.9166 15.6668 14.8283 15.6668 12.25V8.74998ZM11.5835 5.34331C13.2227 5.61748 14.4768 7.03498 14.5002 8.74998H11.5835V5.34331ZM10.4168 5.34331V8.74998H7.50016C7.5235 7.03498 8.77766 5.61748 10.4168 5.34331ZM14.5002 12.25C14.5002 14.1808 12.931 15.75 11.0002 15.75C9.06933 15.75 7.50016 14.1808 7.50016 12.25V9.91665H14.5002V12.25Z" fill="#BABABA"/>
</g>
<defs>
<clipPath id="clip0_635_105460">
<rect width="14" height="14" fill="white" transform="translate(4 3.5)"/>
</clipPath>
</defs>
</svg>
