<svg width="132" height="23" viewBox="0 0 132 23" fill="none" xmlns="http://www.w3.org/2000/svg">
<path fill-rule="evenodd" clip-rule="evenodd" d="M21.3622 11.3501C21.2506 5.67507 16.8886 1.06394 11.5201 1.06394C6.151 1.06394 1.90131 5.79304 1.90131 11.4689H0C0 5.20172 4.69747 0.117968 10.6253 0C16.5531 0 21.4745 5.08375 21.4745 11.3501H21.3622Z" fill="#20272A"/>
<path fill-rule="evenodd" clip-rule="evenodd" d="M21.6591 10.9428C21.6591 6.3317 18.1919 2.66653 13.8299 2.66653C9.46794 2.66653 6.33629 6.3317 6.33629 10.9428H4.21109C4.21109 5.74038 8.2376 1.60185 13.159 1.48389C17.968 1.48389 21.8829 6.21299 21.9945 10.8241L21.6591 10.9428Z" fill="#20272A"/>
<path fill-rule="evenodd" clip-rule="evenodd" d="M21.2534 10.9221C21.2534 7.61156 18.5688 4.89236 15.3256 4.89236C12.0823 4.89236 9.73324 7.61156 9.73324 11.0408H7.72034C7.72034 7.02024 10.6281 3.70972 14.4307 3.70972C18.234 3.70972 21.2534 7.02024 21.3657 10.9221H21.2534Z" fill="#20272A"/>
<mask id="mask0" mask-type="alpha" maskUnits="userSpaceOnUse" x="0" y="11" width="22" height="12">
<path fill-rule="evenodd" clip-rule="evenodd" d="M0 11.5309V22.9997H21.5865V11.5309H0L0 11.5309Z" fill="white"/>
</mask>
<g mask="url(#mask0)">
<path fill-rule="evenodd" clip-rule="evenodd" d="M0.223646 11.6496C0.223646 17.3247 4.58564 21.9358 9.95408 21.9358C15.4348 21.9358 19.6852 17.2067 19.6852 11.5309H21.5865C21.5865 17.7973 16.7768 22.9997 10.8489 22.9997C4.92112 22.9997 0.112052 17.916 -0.000244141 11.6496H0.223646Z" fill="#20272A"/>
</g>
<mask id="mask1" mask-type="alpha" maskUnits="userSpaceOnUse" x="0" y="11" width="18" height="10">
<path fill-rule="evenodd" clip-rule="evenodd" d="M0 11.5312V20.9902H17.6716V11.5313H0L0 11.5312Z" fill="white"/>
</mask>
<g mask="url(#mask1)">
<path fill-rule="evenodd" clip-rule="evenodd" d="M0.223646 11.5312C0.223646 16.1424 3.69078 19.8076 8.05277 19.8076C12.4148 19.8076 15.658 16.1424 15.5464 11.5312H17.6716C17.6716 16.7337 13.6451 20.9902 8.83603 20.9902C3.91467 20.9902 -0.000244141 16.2611 -0.000244141 11.65L0.223646 11.5312Z" fill="#20272A"/>
</g>
<path fill-rule="evenodd" clip-rule="evenodd" d="M0 11.2479C0.111594 14.5584 2.79617 17.2776 5.92782 17.2776C9.17106 17.2776 11.5201 14.5584 11.5201 11.1292H13.5331C13.5331 15.1497 10.6253 18.4602 6.82267 18.4602C3.02006 18.4602 0 15.2677 0 11.2479Z" fill="#20272A"/>
<path fill-rule="evenodd" clip-rule="evenodd" d="M32.2626 19.8105L33.2691 17.4459H38.8614L39.1969 19.8105H44.7892L41.6576 1.48389H35.9536L26.6703 19.8105H32.2626ZM38.5259 13.6621H34.9465L37.855 7.04107L38.5259 13.6621Z" fill="#20272A"/>
<path fill-rule="evenodd" clip-rule="evenodd" d="M47.0239 19.8105L50.044 1.48389H55.7479L52.7279 19.8105H47.0239Z" fill="#20272A"/>
<path fill-rule="evenodd" clip-rule="evenodd" d="M61.6287 19.8105L62.6351 13.4261H64.8719C65.5429 13.4261 66.1023 13.5441 66.4378 13.662C66.7732 13.8987 66.9971 14.1354 67.1094 14.49C67.221 14.8447 67.221 15.3173 67.1094 15.9086L66.9971 17.3272C66.7732 18.5098 66.7732 19.3379 66.7732 19.8105H72.5895V19.2191C72.4779 19.2191 72.254 19.2191 72.254 19.1012C72.1424 18.9832 72.1424 18.7465 72.254 18.2732L72.7018 15.436C72.8134 14.1354 72.8134 13.1894 72.4779 12.7161C72.1424 12.1255 71.4714 11.6521 70.4643 11.1795C71.0236 11.0615 71.4714 10.8249 71.9185 10.5882C72.4779 10.1156 72.9249 9.64222 73.2604 9.05164C73.7082 8.34161 73.9314 7.63232 74.1553 6.68635C74.2669 5.97706 74.2669 5.38573 74.1553 4.91312C74.0437 4.32179 73.8198 3.84918 73.5959 3.49453C73.2604 3.02118 72.9249 2.66653 72.4779 2.31189C71.9185 2.07521 71.3591 1.83853 70.5766 1.72056C69.7933 1.6026 68.7868 1.48389 67.5565 1.48389H59.168L56.1479 19.8105H61.6287ZM63.8655 5.97713H66.6617C67.5565 5.97713 68.1159 6.0951 68.4514 6.45049C68.6746 6.68642 68.7869 7.15978 68.6746 7.63239C68.563 8.22372 68.3398 8.69633 67.892 8.93301C67.5565 9.28765 66.8856 9.40562 65.9907 9.40562H63.3061L63.8655 5.97713Z" fill="#20272A"/>
<path fill-rule="evenodd" clip-rule="evenodd" d="M84.8592 12.1248C85.9779 12.1248 86.6489 12.3615 86.9844 12.5981C87.3198 12.952 87.4314 13.3074 87.3198 13.898C87.2082 14.3714 86.9844 14.844 86.5373 15.1986C86.0895 15.4353 85.4185 15.672 84.2998 15.672H81.9514L82.5108 12.1248H84.8592ZM84.5237 19.8097C85.8656 19.8097 86.7605 19.6918 87.3198 19.5738C87.8792 19.4551 88.5502 19.2191 89.1095 18.9825C89.7805 18.6278 90.2276 18.3911 90.5638 18.0365C91.1224 17.6819 91.4579 17.0905 91.7934 16.4992C92.2412 15.7899 92.4651 15.0806 92.5767 14.3713C92.6883 13.3074 92.5767 12.3614 92.2412 11.6514C91.7934 10.8241 91.2347 10.3515 90.3399 10.1148C92.0173 9.0509 93.0238 7.75028 93.2476 6.21299C93.5831 4.55773 93.1361 3.37583 91.9057 2.54782C91.0109 1.83853 89.5566 1.48389 87.3198 1.48389H78.8197L75.7997 19.8097H84.5237ZM85.4185 5.62175C86.2011 5.62175 86.7604 5.74046 86.9843 5.74046C87.3198 5.85842 87.5437 6.0951 87.6553 6.33104C87.8792 6.56771 87.8792 6.92236 87.8792 7.27701C87.7669 7.75036 87.5437 8.10501 87.0959 8.45965C86.7604 8.69633 86.0895 8.93227 85.1946 8.93227H83.0694L83.6288 5.62175H85.4185Z" fill="#20272A"/>
<path fill-rule="evenodd" clip-rule="evenodd" d="M97.5084 1.48389H103.101L101.199 12.834C101.087 13.5433 101.087 14.1346 101.199 14.4893C101.311 14.8439 101.535 15.1993 101.983 15.4353C102.43 15.6719 102.877 15.7899 103.436 15.7899C104.219 15.7899 105.002 15.5532 105.449 15.0806C106.009 14.608 106.345 13.78 106.568 12.834L108.469 1.48389H114.062L112.272 12.2427C112.049 13.5433 111.825 14.608 111.489 15.4353C111.154 16.1446 110.706 16.8538 110.147 17.4452C109.588 18.0365 108.917 18.6278 108.246 18.9825C107.463 19.4551 106.68 19.8105 105.785 20.0464C104.778 20.1651 103.772 20.2831 102.765 20.2831C101.535 20.2831 100.529 20.1651 99.6336 20.0464C98.7388 19.8105 98.0678 19.4551 97.5084 18.9825C96.8375 18.5098 96.3904 18.0365 96.0542 17.4452C95.7194 16.8538 95.4955 16.0266 95.4955 15.0806C95.3832 14.4893 95.4955 13.4254 95.7194 12.1247L97.5084 1.48389Z" fill="#20272A"/>
<path fill-rule="evenodd" clip-rule="evenodd" d="M131.656 7.27767H126.176C126.176 6.80432 125.952 6.3317 125.729 6.09502C125.393 5.85909 124.945 5.74038 124.274 5.74038C123.603 5.74038 123.044 5.85909 122.708 6.09502C122.373 6.3317 122.261 6.56838 122.15 6.92303C122.15 7.27767 122.15 7.39564 122.373 7.63232C122.597 7.86899 123.156 8.10493 124.163 8.34161L126.288 8.93293C128.189 9.52425 129.531 10.2335 130.202 11.1795C130.874 12.1255 131.097 13.1894 130.874 14.49C130.65 15.554 130.314 16.382 129.755 17.2092C129.196 18.0372 128.525 18.7465 127.854 19.2191C127.183 19.6925 126.288 20.0471 125.281 20.4018C124.274 20.6385 123.156 20.7564 122.037 20.7564C120.919 20.7564 119.801 20.6385 118.794 20.2831C117.788 19.9284 117.005 19.4558 116.445 18.8645C115.886 18.2732 115.439 17.5639 115.215 16.7366C115.103 16.1453 115.103 15.436 115.103 14.608H120.584C120.584 15.1993 120.807 15.6719 121.143 15.9086C121.479 16.2633 122.15 16.382 123.044 16.382C123.827 16.382 124.387 16.2633 124.722 16.0266C125.058 15.7907 125.169 15.554 125.281 15.1993C125.281 14.8447 125.281 14.49 125.058 14.2534C124.834 14.0167 124.274 13.7807 123.268 13.5441L121.367 13.0715C120.472 12.8348 119.465 12.4801 118.682 12.0068C117.899 11.5342 117.228 10.9428 116.893 10.1148C116.557 9.40555 116.557 8.57829 116.669 7.51435C116.893 6.45041 117.228 5.62241 117.788 4.79441C118.346 3.96715 119.018 3.37583 119.801 2.90321C120.472 2.31189 121.367 2.07521 122.261 1.83927C123.156 1.6026 124.051 1.48389 124.945 1.48389C126.064 1.48389 126.959 1.6026 127.854 1.83927C128.749 2.07521 129.307 2.42986 129.867 2.7845C130.314 3.13989 130.65 3.6125 130.874 4.08512C131.209 4.55847 131.321 5.03109 131.432 5.50444C131.545 5.97706 131.656 6.56838 131.656 7.27767Z" fill="#20272A"/>
</svg>
