<svg width="113" height="43" viewBox="0 0 113 43" fill="none" xmlns="http://www.w3.org/2000/svg">
<path fill-rule="evenodd" clip-rule="evenodd" d="M6.3227 19.8987H0.88297H0.882568V9.93751L4.73819 0.908569H13.0408L14.1103 3.15133V0.908569H23.8456L25.9752 5.8134L28.0491 0.908569H58.9571C60.3621 0.908569 61.6256 1.17634 62.5528 2.01742V0.908569H71.0129V2.01742C72.4701 1.20139 74.274 0.908569 76.3261 0.908569H88.5856L89.723 3.15133V0.908569H98.799L100.038 3.15133V0.908569H108.883V19.8987H99.9452L98.2562 17.026V19.8987H87.1031L85.8919 16.8744H83.1459L81.9073 19.8987H76.1196C73.8485 19.8987 72.1226 19.3509 71.0129 18.743V19.8987H57.2557V15.5894C57.2557 14.9812 57.1505 14.9471 56.7901 14.9343H56.2754L56.2879 19.8987H29.6886V17.552L28.7333 19.9086H23.177L22.2217 17.5865V19.8987H11.5186L10.2952 16.8744H7.54925L6.3227 19.8987ZM35.2573 17.2243H31.9939L31.9819 6.56044L27.3653 17.2243H24.5699L19.9413 6.55099V17.2243H13.4659L12.2425 14.1873H5.61361L4.37782 17.2243H0.919931L6.62121 3.60842H11.3514L16.7663 16.4999V3.60842H21.9625L26.1291 12.8452L29.9566 3.60842H35.2573V17.2243ZM11.0931 11.349L8.91401 5.921L6.74736 11.349H11.0931ZM59.0986 9.1876C58.6611 9.45906 58.1436 9.4681 57.5237 9.4681H53.656V6.4438H57.5763C58.1311 6.4438 58.7101 6.46926 59.0861 6.68939C59.4991 6.88775 59.7546 7.30994 59.7546 7.89311C59.7546 8.4882 59.5116 8.96706 59.0986 9.1876ZM84.4869 5.921L86.6901 11.349H82.2958L84.4869 5.921ZM37.6305 17.2243H48.2661V14.4082H40.8144V11.6891H48.0873V8.89806H40.8144V6.4438H48.2661V3.60842H37.6305V17.2243ZM63.2619 7.27544C63.2619 9.44633 61.8445 10.5679 61.0185 10.9047C61.7152 11.1757 62.3102 11.6546 62.5934 12.0513C63.043 12.7285 63.1205 13.3335 63.1205 14.5495V17.2243H59.9093L59.8972 15.5072C59.8972 15.4244 59.898 15.338 59.8988 15.2487L59.8988 15.2479C59.9061 14.4544 59.9153 13.4433 59.3947 12.8546C58.9294 12.3758 58.2203 12.2719 57.0741 12.2719H53.6564V17.2243H50.4729V3.60842H57.7957C59.4228 3.60842 60.6216 3.65237 61.6509 4.26059C62.6581 4.86882 63.2619 5.75672 63.2619 7.27544ZM65.1084 17.2243H68.357V3.60842H65.1084V17.2243ZM106.045 17.2243H101.533L95.4982 7.0048V17.2243H89.0143L87.7753 14.1873H81.1616L79.9596 17.2243H76.2341C74.6866 17.2243 72.7272 16.8744 71.6176 15.7183C70.4987 14.5623 69.9166 12.9963 69.9166 10.5203C69.9166 8.50093 70.2645 6.65489 71.6328 5.19614C72.6621 4.10946 74.274 3.60842 76.4679 3.60842H79.5502V6.52594H76.5326C75.3708 6.52594 74.7147 6.70253 74.0827 7.33253C73.54 7.90585 73.1675 8.98965 73.1675 10.4168C73.1675 11.8755 73.4512 12.9273 74.043 13.6144C74.5331 14.1532 75.4238 14.3167 76.2618 14.3167H77.6917L82.1789 3.60883H86.9493L92.3396 16.4876V3.60883H97.1871L102.784 13.0916V3.60883H106.045V17.2243Z" fill="#9E9E9E"/>
<path fill-rule="evenodd" clip-rule="evenodd" d="M108.598 40.2261C110.621 40.2261 112.116 39.6405 112.883 38.4852V42.0229C111.618 42.6525 109.955 42.8983 108.252 42.8983H100.071V41.6831C99.1227 42.4666 97.4109 42.8983 95.7733 42.8983H69.9796V38.5094C69.9796 37.9713 69.9282 37.9492 69.4054 37.9492H68.9958V42.8987H60.505V37.7735C59.0837 38.4064 57.4728 38.463 56.1069 38.4412H55.0949V42.9086L44.8006 42.8991L42.2697 39.9466L39.583 42.8991H22.8826V23.9086H39.9033L42.3454 26.8151L44.9528 23.9086H56.3472C57.6644 23.9086 59.8256 24.0506 60.7974 25.02V23.9086H70.9785C71.9352 23.9086 74.0079 24.1072 75.2363 25.02V23.9086H90.6712V25.02C91.4386 24.2615 93.0611 23.9086 94.4433 23.9086H103.087V25.02C103.994 24.3436 105.275 23.9086 107.039 23.9086H112.882V26.6165H106.593C103.279 26.6165 102.062 28.6944 102.062 30.6685C102.062 34.6936 105.293 34.7837 108.136 34.8631C108.335 34.8686 108.532 34.8741 108.726 34.8809C109.276 34.8809 109.609 34.9753 109.838 35.183C110.071 35.3718 110.224 35.6866 110.224 36.083C110.224 36.4544 110.071 36.7602 109.851 36.9707C109.597 37.226 109.175 37.3077 108.573 37.3077H102.5V40.2261H108.598ZM107.128 29.5123H112.883V33.385C112.869 33.3668 112.855 33.3486 112.842 33.3305C112.769 33.2324 112.698 33.1357 112.59 33.048C111.887 32.3023 110.734 31.9965 109.007 31.9526L107.296 31.9054C106.77 31.9054 106.412 31.8706 106.079 31.7511C105.67 31.6001 105.389 31.2508 105.389 30.7374C105.389 30.3057 105.517 29.9786 105.85 29.7582C106.172 29.5345 106.553 29.5123 107.128 29.5123ZM100.287 33.048C100.902 33.7035 101.232 34.5308 101.232 35.9316C101.232 38.8594 99.4558 40.2261 96.2714 40.2261H90.1214V37.3077H96.2467C96.8456 37.3077 97.2703 37.226 97.5365 36.9707C97.7536 36.7602 97.9094 36.4544 97.9094 36.083C97.9094 35.6866 97.7409 35.3718 97.5241 35.183C97.2826 34.9753 96.9495 34.8809 96.3997 34.8809C96.2065 34.8741 96.0102 34.8686 95.812 34.8631L95.8119 34.8631L95.8116 34.8631L95.8113 34.8631C92.9784 34.7837 89.7488 34.6933 89.7488 30.6685C89.7488 28.6944 90.9529 26.6165 94.2632 26.6165H100.593V29.5131H94.8011C94.227 29.5131 93.8536 29.5353 93.5361 29.759C93.1902 29.9794 93.0619 30.3065 93.0619 30.7382C93.0619 31.2517 93.3556 31.6009 93.7528 31.7519C94.0859 31.8714 94.4437 31.9063 94.9816 31.9063L96.6814 31.9535C98.3955 31.9965 99.5721 32.3019 100.287 33.048ZM70.2362 32.4878C70.8506 32.4878 71.3729 32.4656 71.7953 32.2075C72.2045 31.9526 72.4492 31.4835 72.4492 30.9012C72.4492 30.3188 72.2045 29.8973 71.7953 29.6769C71.4132 29.4434 70.8506 29.4311 70.2884 29.4311H66.4004V32.4878H70.2362ZM73.7023 33.9013C74.4051 34.1684 74.9797 34.6474 75.249 35.0439C75.6949 35.7083 75.7594 36.3284 75.7722 37.5281V40.2261H72.6021V38.5233C72.6021 38.4416 72.6029 38.3559 72.6037 38.2673C72.6108 37.4683 72.6201 36.429 72.0917 35.8593C71.6303 35.3718 70.9271 35.2552 69.7752 35.2552H66.4007V40.2261H63.2279V26.6161H70.5179C72.1164 26.6161 73.2807 26.6887 74.3171 27.2583C75.3136 27.8785 75.9403 28.728 75.9403 30.2806C75.9399 32.4529 74.5334 33.5614 73.7023 33.9013ZM88.2296 26.6161H77.6911V40.2261H88.2296V37.4021L80.8356 37.3898V34.6819H88.0491V31.905H80.8356V29.4307H88.2296V26.6161ZM56.3874 32.897H52.3069V29.4311H56.4241C57.564 29.4311 58.3553 29.9096 58.3553 31.0998C58.3553 32.2769 57.6007 32.897 56.3874 32.897ZM44.3141 33.4445L49.162 38.9883V28.0767L44.3141 33.4445ZM36.6425 37.3898H28.8792V34.6819H35.8113V31.905H28.8792V29.4307H36.7955L40.2492 33.3969L36.6425 37.3898ZM56.2468 35.6611C59.0068 35.6611 61.7453 34.8805 61.7453 31.0998C61.7453 27.3306 58.9299 26.6161 56.4241 26.6161H46.3347L42.3183 31.0772L38.4335 26.6161H25.7338V40.2261H38.241L42.2817 35.7206L46.1697 40.2261H52.3069V35.6611H56.2468Z" fill="#9E9E9E"/>
</svg>
