<svg width="112" height="42" viewBox="0 0 112 42" fill="none" xmlns="http://www.w3.org/2000/svg">
<path fill-rule="evenodd" clip-rule="evenodd" d="M5.44014 18.9901H0.000401753H0V9.02894L3.85562 0H12.1582L13.2277 2.24276V0H22.963L25.0927 4.90483L27.1665 0H58.0746C59.4795 0 60.743 0.267768 61.6703 1.10885V0H70.1304V1.10885C71.5875 0.292819 73.3914 0 75.4436 0H87.703L88.8404 2.24276V0H97.9164L99.155 2.24276V0H108V18.9901H99.0626L97.3736 16.1174V18.9901H86.2206L85.0093 15.9658H82.2633L81.0247 18.9901H75.2371C72.9659 18.9901 71.24 18.4423 70.1304 17.8345V18.9901H56.3732V14.6808C56.3732 14.0726 56.2679 14.0385 55.9075 14.0258H55.3929L55.4053 18.9901H28.8061V16.6435L27.8507 19H22.2945L21.3391 16.678V18.9901H10.636L9.41267 15.9658H6.66669L5.44014 18.9901ZM34.3748 16.3158H31.1113L31.0993 5.65187L26.4827 16.3158H23.6873L19.0588 5.64242V16.3158H12.5833L11.36 13.2787H4.73104L3.49525 16.3158H0.037363L5.73864 2.69985H10.4689L15.8837 15.5913V2.69985H21.08L25.2465 11.9366L29.074 2.69985H34.3748V16.3158ZM10.2105 10.4405L8.03144 5.01243L5.86479 10.4405H10.2105ZM58.216 8.27903C57.7785 8.55049 57.261 8.55953 56.6411 8.55953H52.7734V5.53523H56.6938C57.2486 5.53523 57.8275 5.5607 58.2035 5.78082C58.6165 5.97918 58.8721 6.40137 58.8721 6.98455C58.8721 7.57963 58.629 8.05849 58.216 8.27903ZM83.6044 5.01243L85.8076 10.4405H81.4132L83.6044 5.01243ZM36.7479 16.3158H47.3835V13.4997H39.9318V10.7805H47.2048V7.98949H39.9318V5.53523H47.3835V2.69985H36.7479V16.3158ZM62.3794 6.36687C62.3794 8.53776 60.962 9.65935 60.136 9.99611C60.8326 10.2672 61.4276 10.746 61.7108 11.1427C62.1604 11.82 62.2379 12.4249 62.2379 13.641V16.3158H59.0267L59.0147 14.5987C59.0147 14.5159 59.0155 14.4294 59.0163 14.3401L59.0163 14.3394C59.0235 13.5458 59.0327 12.5347 58.5121 11.946C58.0469 11.4672 57.3378 11.3633 56.1916 11.3633H52.7739V16.3158H49.5904V2.69985H56.9131C58.5402 2.69985 59.739 2.7438 60.7683 3.35202C61.7755 3.96025 62.3794 4.84815 62.3794 6.36687ZM64.2258 16.3158H67.4744V2.69985H64.2258V16.3158ZM105.162 16.3158H100.65L94.6156 6.09623V16.3158H88.1317L86.8927 13.2787H80.2791L79.077 16.3158H75.3516C73.804 16.3158 71.8447 15.9658 70.735 14.8098C69.6161 13.6537 69.034 12.0877 69.034 9.61171C69.034 7.59236 69.3819 5.74633 70.7503 4.28757C71.7796 3.20089 73.3914 2.69985 75.5854 2.69985H78.6676V5.61737H75.6501C74.4882 5.61737 73.8321 5.79396 73.2002 6.42396C72.6574 6.99728 72.285 8.08108 72.285 9.50821C72.285 10.967 72.5686 12.0187 73.1604 12.7058C73.6505 13.2446 74.5412 13.4081 75.3793 13.4081H76.8091L81.2963 2.70026H86.0667L91.457 15.579V2.70026H96.3046L101.901 12.183V2.70026H105.162V16.3158Z" fill="#20272A"/>
<path fill-rule="evenodd" clip-rule="evenodd" d="M107.715 39.3176C109.738 39.3176 111.233 38.7319 112 37.5766V41.1143C110.735 41.7439 109.072 41.9897 107.37 41.9897H99.188V40.7745C98.2401 41.558 96.5284 41.9897 94.8908 41.9897H69.097V37.6008C69.097 37.0627 69.0456 37.0406 68.5229 37.0406H68.1133V41.9902H59.6224V36.8649C58.2011 37.4978 56.5902 37.5544 55.2243 37.5327H54.2123V42L43.9181 41.9906L41.3871 39.0381L38.7004 41.9906H22V23H39.0208L41.4629 25.9065L44.0703 23H55.4646C56.7819 23 58.943 23.142 59.9148 24.1114V23H70.0959C71.0526 23 73.1253 23.1986 74.3537 24.1114V23H89.7887V24.1114C90.5561 23.353 92.1785 23 93.5608 23H102.204V24.1114C103.111 23.435 104.392 23 106.156 23H112V25.7079H105.71C102.397 25.7079 101.18 27.7858 101.18 29.7599C101.18 33.785 104.411 33.8752 107.253 33.9545C107.452 33.9601 107.649 33.9656 107.843 33.9724C108.393 33.9724 108.727 34.0667 108.956 34.2744C109.188 34.4632 109.342 34.778 109.342 35.1744C109.342 35.5459 109.188 35.8516 108.968 36.0622C108.714 36.3174 108.293 36.3991 107.69 36.3991H101.617V39.3176H107.715ZM106.245 28.6038H112V32.4764C111.986 32.4582 111.973 32.4401 111.959 32.4219C111.887 32.3238 111.815 32.2271 111.707 32.1395C111.004 31.3937 109.852 31.088 108.125 31.0441L106.413 30.9969C105.887 30.9969 105.53 30.962 105.197 30.8426C104.787 30.6915 104.506 30.3423 104.506 29.8288C104.506 29.3971 104.634 29.07 104.967 28.8496C105.289 28.6259 105.671 28.6038 106.245 28.6038ZM99.4047 32.1395C100.02 32.7949 100.349 33.6223 100.349 35.023C100.349 37.9509 98.5732 39.3176 95.3888 39.3176H89.2388V36.3991H95.3641C95.963 36.3991 96.3877 36.3174 96.6539 36.0622C96.871 35.8516 97.0268 35.5459 97.0268 35.1744C97.0268 34.778 96.8583 34.4632 96.6415 34.2744C96.4001 34.0667 96.067 33.9724 95.5171 33.9724C95.324 33.9656 95.1276 33.9601 94.9294 33.9545L94.9293 33.9545L94.9291 33.9545L94.9287 33.9545C92.0958 33.8752 88.8663 33.7847 88.8663 29.7599C88.8663 27.7858 90.0704 25.7079 93.3807 25.7079H99.7108V28.6046H93.9186C93.3444 28.6046 92.9711 28.6267 92.6535 28.8504C92.3076 29.0708 92.1793 29.3979 92.1793 29.8297C92.1793 30.3431 92.473 30.6923 92.8702 30.8434C93.2033 30.9628 93.5611 30.9977 94.0991 30.9977L95.7988 31.0449C97.5129 31.088 98.6895 31.3933 99.4047 32.1395ZM69.3536 31.5792C69.968 31.5792 70.4904 31.5571 70.9127 31.2989C71.3219 31.0441 71.5666 30.575 71.5666 29.9926C71.5666 29.4102 71.3219 28.9887 70.9127 28.7683C70.5306 28.5348 69.968 28.5225 69.4058 28.5225H65.5178V31.5792H69.3536ZM72.8197 32.9927C73.5225 33.2599 74.0971 33.7388 74.3665 34.1353C74.8123 34.7997 74.8769 35.4199 74.8896 36.6195V39.3176H71.7196V37.6148C71.7196 37.533 71.7203 37.4474 71.7211 37.3587C71.7282 36.5597 71.7375 35.5205 71.2092 34.9508C70.7478 34.4632 70.0445 34.3466 68.8926 34.3466H65.5182V39.3176H62.3454V25.7075H69.6353C71.2339 25.7075 72.3981 25.7801 73.4345 26.3498C74.431 26.9699 75.0578 27.8195 75.0578 29.372C75.0574 31.5444 73.6508 32.6529 72.8197 32.9927ZM87.347 25.7075H76.8085V39.3176H87.347V36.4935L79.9531 36.4812V33.7733H87.1665V30.9965H79.9531V28.5221H87.347V25.7075ZM55.5049 31.9884H51.4244V28.5225H55.5415C56.6815 28.5225 57.4728 29.001 57.4728 30.1912C57.4728 31.3683 56.7181 31.9884 55.5049 31.9884ZM43.4316 32.5359L48.2795 38.0798V27.1681L43.4316 32.5359ZM35.7599 36.4812H27.9966V33.7733H34.9287V30.9965H27.9966V28.5221H35.9129L39.3666 32.4883L35.7599 36.4812ZM55.3642 34.7525C58.1242 34.7525 60.8627 33.9719 60.8627 30.1912C60.8627 26.422 58.0473 25.7075 55.5415 25.7075H45.4521L41.4358 30.1687L37.5509 25.7075H24.8513V39.3176H37.3585L41.3991 34.8121L45.2871 39.3176H51.4244V34.7525H55.3642Z" fill="#20272A"/>
</svg>
