<svg width="102" height="40" viewBox="0 0 102 40" fill="none" xmlns="http://www.w3.org/2000/svg">
<mask id="mask0" mask-type="alpha" maskUnits="userSpaceOnUse" x="0" y="10" width="24" height="25">
<path fill-rule="evenodd" clip-rule="evenodd" d="M0 10.0376V34.7207H23.6813V10.0376L0 10.0376L0 10.0376Z" fill="white"/>
</mask>
<g mask="url(#mask0)">
<path fill-rule="evenodd" clip-rule="evenodd" d="M4.92202 20.1694C4.92202 20.1694 5.2572 13.5145 11.9914 13.5125C18.7011 13.5105 18.7011 20.1694 18.7011 20.1694H4.92202ZM12.1072 10.0376C0.39919 10.0352 -0.0556648 20.1993 0.0039943 22.838C0.0039943 22.838 -0.569456 34.7207 11.8205 34.7207C22.4665 34.7207 22.9908 27.2646 22.9908 27.2646L18.0926 27.2759C18.0926 27.2759 17.1388 31.3832 11.8407 31.2735C5.02946 31.132 4.76515 23.7731 4.76515 23.7731H23.6344C23.6344 23.7731 25.0662 10.0404 12.1072 10.0376Z" fill="#20272A"/>
</g>
<path fill-rule="evenodd" clip-rule="evenodd" d="M36.5315 29.8473C28.8024 29.9495 28.9279 21.2073 28.9279 21.2073C28.9279 21.2073 28.6464 12.7928 36.5191 12.5765C44.3914 12.3602 44.135 21.3868 44.135 21.3868C44.135 21.3868 44.2606 29.7443 36.5315 29.8473ZM37.6554 9.08093C31.5352 9.04488 28.9024 12.9009 28.9024 12.9009V0H23.996L24.079 27.2654C24.079 27.2654 24.0493 30.4416 23.8636 32.5406H28.6294L28.8336 29.4773C28.8336 29.4773 31.0567 33.3333 37.5528 33.3333C44.0493 33.3333 49.179 29.1167 49.3158 21.2973C49.4519 13.4774 43.7764 9.11698 37.6554 9.08093Z" fill="#20272A"/>
<path fill-rule="evenodd" clip-rule="evenodd" d="M59.9026 31.6159C59.9026 31.6159 54.8503 31.6224 54.5537 27.3727C54.2382 22.8379 62.3264 23.1107 62.3264 23.1107L68.041 23.105C68.041 23.105 68.9664 31.7411 59.9026 31.6159ZM73.076 28.6627C73.0887 25.0435 73.1892 21.8118 73.076 19.5322C72.9439 16.8892 73.1818 10.5103 62.3264 10.0386C62.3264 10.0386 51.9198 9.04014 50.8392 17.1941H56.1615C56.1615 17.1941 56.5751 13.4582 61.9758 13.566C67.0868 13.6676 68.0179 16.3066 67.9913 19.5517C67.9913 19.5517 63.611 19.5647 62.1488 19.5725C59.5145 19.5863 50.2947 19.8936 49.4342 25.8054C48.4104 32.8348 54.3703 35.0278 59.0333 34.9997C63.6967 34.9721 66.3572 33.5024 68.3334 30.8675L68.5447 34.1399L73.1818 34.1122C73.1818 34.1122 73.0621 32.2823 73.076 28.6627Z" fill="#20272A"/>
<path fill-rule="evenodd" clip-rule="evenodd" d="M68.4091 10H74.0061L82.1918 26.8288L90.3948 10H95.4545L80.6451 40H75.2335L79.5193 31.6635L68.4091 10Z" fill="#20272A"/>
<path fill-rule="evenodd" clip-rule="evenodd" d="M98.9593 11.2876V10.6086H98.6364V10.3541H98.9593V10H99.543V10.3541H100.227V10.6086H99.543V11.2414C99.543 11.3563 99.6583 11.4026 99.8556 11.4026C99.9864 11.4026 100.103 11.388 100.218 11.3584V11.6004C100.073 11.6421 99.9146 11.6667 99.6929 11.6667C99.2623 11.6667 98.9593 11.5713 98.9593 11.2876Z" fill="#20272A"/>
<mask id="mask1" mask-type="alpha" maskUnits="userSpaceOnUse" x="100" y="10" width="2" height="1">
<path fill-rule="evenodd" clip-rule="evenodd" d="M101.602 10.6842V10.0256L100.228 10.0256V10.6842H101.602Z" fill="white"/>
</mask>
<g mask="url(#mask1)">
<path fill-rule="evenodd" clip-rule="evenodd" d="M100.228 10.039H100.435V10.1367C100.493 10.0794 100.572 10.0256 100.711 10.0256C100.84 10.0256 100.933 10.0708 100.981 10.1392C101.053 10.0708 101.149 10.0256 101.286 10.0256C101.482 10.0256 101.602 10.1148 101.602 10.2725V10.6842H101.395V10.3177C101.395 10.215 101.328 10.16 101.212 10.16C101.099 10.16 101.019 10.2163 101.019 10.32V10.6842H100.811V10.3165C100.811 10.2163 100.743 10.16 100.629 10.16C100.514 10.16 100.435 10.2211 100.435 10.32V10.6842H100.228V10.039Z" fill="#20272A"/>
</g>
</svg>
