<svg width="93" height="41" viewBox="0 0 93 41" fill="none" xmlns="http://www.w3.org/2000/svg">
<path d="M92.8892 40.7715C88.7064 40.7715 84.4483 40.7715 80.3158 40.7715C80.2002 40.7715 79.9891 40.2601 79.9287 40.1537C78.1993 37.0094 76.4699 33.8499 74.7506 30.7107C72.9106 34.0525 71.1209 37.4499 69.2859 40.7968C65.1685 40.8069 61.0863 40.7765 57.0042 40.7866C57.4667 39.9158 57.9593 39.0651 58.452 38.2094C61.8857 32.2348 65.2691 26.1791 68.7078 20.1993C65.0529 13.7689 61.3427 7.38918 57.6678 0.973991C57.6577 0.973991 57.6326 0.933485 57.6577 0.938548C61.8706 0.938548 66.0785 0.938548 70.2914 0.938548C71.8448 3.78412 73.358 6.66513 74.8863 9.53095C76.475 6.69045 78.0083 3.79424 79.5819 0.938548C83.654 0.938548 87.7211 0.938548 91.7932 0.938548C91.8033 0.989181 91.7681 1.04488 91.7429 1.08538C88.1786 7.39424 84.5287 13.7234 80.9694 20.0423C84.9259 26.9588 88.9578 33.8702 92.8892 40.7715Z" fill="#9E9E9E"/>
<path fill-rule="evenodd" clip-rule="evenodd" d="M62.8711 20.6854C62.8711 19.1614 62.6851 17.7133 62.3633 16.3968C61.7248 13.8095 60.7395 11.5917 59.4273 9.74363C57.4365 6.92338 54.9631 4.66515 51.6451 3.15629C50.5742 2.67021 49.3727 2.22971 48.0757 1.9411C46.8289 1.66262 45.2402 1.41958 43.7421 1.49047H43.717C42.1836 1.49047 40.7659 1.70819 39.484 2.02718C38.202 2.34616 37.0256 2.78667 35.9749 3.30312C33.2953 4.62464 31.0783 6.37654 29.3288 8.61452C27.5793 10.8576 26.1967 13.4601 25.4929 16.7816C25.2164 18.0981 25.0254 19.6171 25.0606 21.1563C25.136 24.2652 25.7895 26.817 26.7849 29.0297C28.268 32.331 30.4499 34.9487 33.2501 36.9284C36.0503 38.9031 39.5091 40.3411 44.1946 40.3411C47.1908 40.3411 49.79 39.5462 51.9417 38.5284C53.0225 38.0171 53.9978 37.4095 54.9329 36.7411C56.3255 35.7436 57.5723 34.5436 58.6029 33.2272C58.9548 32.7816 59.2816 32.3158 59.6033 31.8297C61.5036 28.9639 62.8711 25.4398 62.8711 20.6854ZM47.3692 28.1967C47.3745 28.7104 47.3795 29.1963 47.2813 29.5917C46.9495 30.9588 45.8536 31.9563 44.3605 32.1183C43.2042 32.2449 42.3093 31.7487 41.7312 31.1563C41.2837 30.6955 40.9419 30.0778 40.8363 29.3082C40.8048 29.098 40.8072 28.866 40.8098 28.6244C40.8105 28.5576 40.8112 28.4901 40.8112 28.4221V13.7892C40.8112 13.7638 40.8112 13.7385 40.8112 13.7132C40.811 13.1074 40.8108 12.5244 40.9218 12.0626C41.148 11.1158 41.701 10.4019 42.43 9.93604C42.8221 9.68793 43.2695 9.51578 43.8075 9.47528C44.9185 9.3892 45.8033 9.93097 46.3915 10.5335C46.6931 10.8424 46.9495 11.2221 47.1154 11.6373C47.2964 12.093 47.3668 12.5791 47.3668 13.2069V27.8398C47.3668 27.9597 47.368 28.0789 47.3692 28.1967Z" fill="#9E9E9E"/>
<path d="M25.5734 11.8044C21.1192 11.8044 16.67 11.8044 12.2158 11.8044C12.1605 13.4753 12.2057 15.3234 12.1907 17.0044C15.8003 17.0348 19.4652 17.0095 23.0999 17.0145C23.0999 20.65 23.0999 24.2803 23.0999 27.9158C19.4401 27.9259 15.75 27.9006 12.1102 27.9259C12.1152 32.25 12.1354 36.493 12.1354 40.817C12.1354 40.8322 12.1303 40.8373 12.1253 40.8424C8.41514 40.8424 4.69995 40.8424 0.989783 40.8424C0.969674 40.8474 0.969674 40.8322 0.954592 40.8322C0.929455 27.5563 0.929455 14.1943 0.949565 0.913251C0.949565 0.898061 0.949565 0.877808 0.959619 0.877808C8.91284 0.877808 16.8661 0.877808 24.8143 0.877808C24.8293 0.877808 24.8344 0.877808 24.8394 0.887934C25.0908 4.52338 25.3321 8.16388 25.5734 11.8044Z" fill="#9E9E9E"/>
</svg>
