<svg width="153" height="28" viewBox="0 0 153 28" fill="none" xmlns="http://www.w3.org/2000/svg">
<path fill-rule="evenodd" clip-rule="evenodd" d="M77.0532 7.72494H77.7347V4.89868H75.5189C72.6225 4.89868 71.0891 6.48845 71.0891 9.66799V10.0213H69.3853V12.8484H71.0891V22.9178H75.179V12.8484H77.5644V10.0213H75.179V9.66799C75.179 8.4315 75.8606 7.72494 77.0532 7.72494Z" fill="#9E9E9E"/>
<path fill-rule="evenodd" clip-rule="evenodd" d="M79.9494 10.0215H78.2456V12.8486H79.9494V19.0311C79.9494 21.6816 81.1429 22.9181 83.5283 22.9181H86.5951V19.9152H85.7432L84.3802 19.7376C84.2098 19.3852 84.0394 18.8544 84.0394 17.9712V12.8486H86.4256V10.0215H84.0394V5.95874H79.9494V10.0215Z" fill="#9E9E9E"/>
<path fill-rule="evenodd" clip-rule="evenodd" d="M91.5376 4.89844H87.4468V22.9185H91.5376V15.4978C91.5376 13.7314 92.2191 12.8482 93.5813 12.8482C94.7749 12.8482 95.286 13.7314 95.286 15.4978V22.9185H99.376V15.4978C99.376 13.7314 99.2056 12.4958 98.8648 11.7883C98.0121 10.3752 96.8185 9.66864 94.9452 9.66864C93.2414 9.66864 92.2191 10.1986 91.5376 11.435V4.89844Z" fill="#9E9E9E"/>
<path fill-rule="evenodd" clip-rule="evenodd" d="M106.361 17.4416L108.917 16.735V17.7958C108.917 19.5622 108.065 20.4454 106.021 20.4454C105 20.4454 104.318 20.0921 104.318 19.208C104.318 18.3248 105 17.7958 106.361 17.4416ZM107.044 12.3191C108.236 12.3191 108.748 12.6715 108.748 13.5547C108.748 14.0855 108.408 14.4379 107.556 14.6154L103.976 15.3211C101.592 16.0286 100.397 17.4417 100.397 19.3856C100.397 20.6212 100.74 21.5044 101.762 22.3885C102.614 23.0951 103.805 23.4484 105.17 23.4484C106.533 23.4484 107.895 22.9184 109.26 21.8586L109.43 22.9184H113.177L112.838 21.152V14.4379C112.838 11.0817 110.964 9.49194 107.044 9.49194C103.125 9.49194 101.08 11.0817 101.08 14.0855H104.829C104.829 13.0248 105.509 12.3191 107.044 12.3191Z" fill="#9E9E9E"/>
<path fill-rule="evenodd" clip-rule="evenodd" d="M117.95 10.0214H114.201V22.918H118.29V15.4981C118.29 13.7317 118.972 12.8485 120.336 12.8485C121.528 12.8485 122.211 13.7317 122.211 15.4981V22.918H126.301V15.4981C126.301 13.9084 125.958 12.6719 125.618 11.7878C124.766 10.3756 123.573 9.66809 121.698 9.66809C120.336 9.66809 118.972 10.198 118.12 11.4354L117.95 10.0214Z" fill="#9E9E9E"/>
<path fill-rule="evenodd" clip-rule="evenodd" d="M131.752 13.3786C131.752 12.6711 132.265 12.3187 133.286 12.3187C134.477 12.3187 134.99 12.8487 135.159 14.0851H139.081L138.397 11.7879C137.716 10.1981 136.012 9.49158 133.456 9.49158C129.366 9.49158 127.491 10.9047 127.491 13.9085C127.491 15.8515 128.856 17.088 131.752 17.7955H132.945C134.477 18.1479 135.33 18.6787 135.33 19.3853C135.33 20.0918 134.649 20.4451 133.286 20.4451C131.921 20.4451 131.069 19.9152 131.069 18.8544V18.6787H127.152C127.152 21.8582 129.196 23.448 133.626 23.448C137.377 23.448 139.42 22.0349 139.42 19.0311C139.42 16.9123 137.885 15.4983 134.99 14.9683L133.626 14.6151C132.434 14.4384 131.752 14.0851 131.752 13.3786Z" fill="#9E9E9E"/>
<mask id="mask0" mask-type="alpha" maskUnits="userSpaceOnUse" x="140" y="9" width="13" height="15">
<path fill-rule="evenodd" clip-rule="evenodd" d="M152.883 23.4484V9.49194L140.102 9.49194V23.4484H152.883Z" fill="white"/>
</mask>
<g mask="url(#mask0)">
<path fill-rule="evenodd" clip-rule="evenodd" d="M146.066 17.4416L148.623 16.735V17.7958C148.623 19.5622 147.771 20.4454 145.725 20.4454C144.702 20.4454 144.022 20.0921 144.022 19.208C144.022 18.3248 144.702 17.7958 146.066 17.4416ZM146.749 12.3191C147.94 12.3191 148.453 12.6715 148.453 13.5547C148.453 14.0855 148.11 14.4379 147.258 14.6154L143.68 15.3211C141.294 16.0286 140.102 17.4417 140.102 19.3856C140.102 20.6212 140.442 21.5044 141.466 22.3885C142.317 23.0951 143.511 23.4484 144.874 23.4484C146.236 23.4484 147.601 22.9184 148.963 21.8586L149.134 22.9184H152.883L152.542 21.152V14.4379C152.542 11.0817 150.666 9.49194 146.749 9.49194C142.998 9.49194 140.955 11.0817 140.785 14.0855H144.533C144.533 13.0248 145.215 12.3191 146.749 12.3191Z" fill="#9E9E9E"/>
</g>
<path fill-rule="evenodd" clip-rule="evenodd" d="M13.6628 1.71864C17.0713 1.71864 19.7974 2.95423 22.1836 5.25146C24.3985 7.72533 25.5912 10.5525 25.5912 13.9087C25.5912 17.2648 24.3985 20.092 22.1836 22.565C19.7974 24.8622 17.0713 26.0978 13.8332 26.0978C10.596 26.0978 7.86906 24.8622 5.4846 22.565C3.2688 20.092 2.07614 17.2648 2.07614 13.9087C2.07614 10.5525 3.2688 7.72533 5.4846 5.25146C7.86906 2.95423 10.596 1.71864 13.6628 1.71864ZM23.0346 4.36905C20.6501 1.71854 17.5815 0.482056 14.0044 0.482056C10.4256 0.482056 7.35788 1.71854 4.6318 4.36905C2.07609 7.01867 0.882568 10.1982 0.882568 13.9086C0.882568 17.7956 2.07609 20.7976 4.6318 23.4481C7.18836 26.0977 10.2552 27.3351 13.8332 27.3351C17.412 27.3351 20.4789 26.0977 23.0346 23.4481C25.5911 20.7976 26.7838 17.7956 26.7838 13.9086C26.7838 10.1982 25.5911 7.01867 23.0346 4.36905Z" fill="#9E9E9E"/>
<path fill-rule="evenodd" clip-rule="evenodd" d="M5.14292 10.9044L4.97254 11.6118L3.09749 11.081L2.92798 11.7876C4.29102 12.1418 5.99482 13.025 8.20976 14.2624C12.1294 16.7353 16.2194 18.6784 20.4789 19.7382L21.6724 18.6784H20.8205C18.2639 18.6784 16.2194 17.7952 14.6859 16.0288C16.3897 15.1447 18.2639 14.6147 20.4789 14.6147L21.8419 14.7914L22.3539 14.0848H20.8205L17.2416 14.2624L17.412 13.7315H22.6947L23.2058 13.025H17.7528L17.9232 12.6717H23.5457L23.8873 12.1418L18.2639 11.9651L18.4343 11.4352L24.2281 11.6118L24.7392 11.081L20.1381 10.7286L15.5378 11.081C14.8563 13.2016 13.4924 14.2624 11.4487 14.2624C10.5959 14.2624 9.57367 13.9082 8.38014 13.2016L7.869 12.8483L8.04025 12.6717L10.7655 13.7315L10.9367 13.3783L5.14292 10.9044Z" fill="#9E9E9E"/>
<path fill-rule="evenodd" clip-rule="evenodd" d="M48.4249 4.89844H44.1646V22.9185H55.753V19.3848H48.4249V4.89844Z" fill="#9E9E9E"/>
<path fill-rule="evenodd" clip-rule="evenodd" d="M68.5329 10.0214H64.443V17.4412C64.443 19.2085 63.7614 20.0917 62.3984 20.0917C61.2049 20.0917 60.6946 19.2085 60.6946 17.4412V10.0214H56.6055V17.7954C56.6055 19.2085 56.775 20.4459 57.2861 21.1515C57.9676 22.5647 59.1612 23.2712 61.2049 23.2712C62.5696 23.2712 63.7614 22.7413 64.7837 21.6815V22.9179H68.5329V10.0214Z" fill="#9E9E9E"/>
</svg>
