<svg width="118" height="22" viewBox="0 0 118 22" fill="none" xmlns="http://www.w3.org/2000/svg">
<path fill-rule="evenodd" clip-rule="evenodd" d="M117.357 19.8575C117.357 18.685 116.446 18.006 115.432 18.006C114.41 18.006 113.499 18.685 113.499 19.8575C113.499 21.0279 114.41 21.7109 115.432 21.7109C116.446 21.7109 117.357 21.0279 117.357 19.8575ZM115.318 20.0122H115.113V20.8499H114.67V18.8572H115.441C115.973 18.8572 116.291 19.0043 116.291 19.4628C116.291 19.8304 116.066 19.96 115.792 19.9793L116.322 20.8499H115.795L115.318 20.0122ZM115.113 19.1958V19.6756H115.502C115.701 19.6756 115.819 19.6369 115.819 19.4144C115.819 19.2094 115.589 19.1958 115.42 19.1958H115.113ZM115.432 21.2853C116.175 21.2853 116.8 20.7107 116.8 19.8576C116.8 19.0044 116.175 18.4336 115.432 18.4336C114.67 18.4336 114.054 19.0044 114.054 19.8576C114.054 20.7107 114.67 21.2853 115.432 21.2795V21.2853Z" fill="#20272A"/>
<path fill-rule="evenodd" clip-rule="evenodd" d="M0 21.0549V0H10.6638C15.841 0 21.1342 1.11823 21.1342 9.42179V21.0549H15.3283V11.8111C15.3283 8.85687 14.9452 7.24336 14.0069 6.24315C13.264 5.44994 12.169 5.06881 10.6329 5.06881H5.99164V21.0549H0ZM46.7181 21.0549L46.7162 0.0290145H52.6556V21.0549H46.7181ZM56.2792 0.0290145V21.0549H65.9099C71.0426 21.0549 72.718 20.2017 74.5288 18.2883C75.8096 16.9457 76.6357 13.9953 76.6357 10.776C76.6357 7.81989 75.9353 5.18295 74.7145 3.54042C72.5148 0.601673 69.3439 0.0290145 64.6137 0.0290145H56.2792ZM64.722 4.60639H62.1683V16.5684H64.722C68.425 16.5684 70.822 14.9046 70.822 10.5864C70.822 6.27213 68.425 4.60639 64.722 4.60639ZM38.1553 0.0290145L33.1968 16.6942L28.4491 0.0290145H22.0377L28.8206 21.0549H37.3795L44.2166 0.0290145H38.1553ZM85.3398 21.0549H79.3985V0.0290145H85.3398V21.0549ZM96.0481 0.0367742L87.7562 21.051H93.6105L94.9222 17.3346H104.737L105.979 21.051H112.336L103.98 0.0367742H96.0481ZM103.5 13.7149L99.902 3.86939L96.1913 13.7149H103.5Z" fill="#20272A"/>
</svg>
