<svg width="119" height="22" viewBox="0 0 119 22" fill="none" xmlns="http://www.w3.org/2000/svg">
<path fill-rule="evenodd" clip-rule="evenodd" d="M118.065 19.8627C118.065 18.6903 117.154 18.0112 116.14 18.0112C115.118 18.0112 114.207 18.6903 114.207 19.8627C114.207 21.0332 115.118 21.7161 116.14 21.7161C117.154 21.7161 118.065 21.0332 118.065 19.8627ZM116.026 20.0175H115.82V20.8552H115.377V18.8625H116.149C116.681 18.8625 116.999 19.0095 116.999 19.468C116.999 19.8356 116.774 19.9652 116.5 19.9846L117.03 20.8552H116.503L116.026 20.0175ZM115.821 19.2011V19.6809H116.209C116.409 19.6809 116.527 19.6422 116.527 19.4197C116.527 19.2146 116.297 19.2011 116.128 19.2011H115.821ZM116.14 21.2906C116.883 21.2906 117.508 20.716 117.508 19.8628C117.508 19.0096 116.883 18.4389 116.14 18.4389C115.378 18.4389 114.762 19.0096 114.762 19.8628C114.762 20.716 115.378 21.2906 116.14 21.2848V21.2906Z" fill="#9E9E9E"/>
<path fill-rule="evenodd" clip-rule="evenodd" d="M0.708008 21.0601V0.00524902H11.3718C16.549 0.00524902 21.8422 1.12348 21.8422 9.42704V21.0601H16.0363V11.8163C16.0363 8.86212 15.6532 7.24861 14.7149 6.24839C13.972 5.45518 12.877 5.07406 11.3409 5.07406H6.69965V21.0601H0.708008ZM47.4261 21.0601L47.4242 0.0342635H53.3636V21.0601H47.4261ZM56.9872 0.0342635V21.0601H66.6179C71.7506 21.0601 73.426 20.207 75.2368 18.2936C76.5176 16.9509 77.3437 14.0006 77.3437 10.7813C77.3437 7.82514 76.6433 5.1882 75.4226 3.54567C73.2228 0.606922 70.0519 0.0342635 65.3217 0.0342635H56.9872ZM65.43 4.61164H62.8763V16.5736H65.43C69.133 16.5736 71.53 14.9098 71.53 10.5917C71.53 6.27738 69.133 4.61164 65.43 4.61164ZM38.8633 0.0342635L33.9048 16.6994L29.1572 0.0342635H22.7457L29.5286 21.0601H38.0875L44.9246 0.0342635H38.8633ZM86.0478 21.0601H80.1065V0.0342635H86.0478V21.0601ZM96.7561 0.0420232L88.4642 21.0563H94.3185L95.6302 17.3398H105.445L106.687 21.0563H113.044L104.688 0.0420232H96.7561ZM104.208 13.7201L100.61 3.87464L96.8993 13.7201H104.208Z" fill="#9E9E9E"/>
</svg>
