<svg width="117" height="28" viewBox="0 0 117 28" fill="none" xmlns="http://www.w3.org/2000/svg">
<mask id="mask0" mask-type="alpha" maskUnits="userSpaceOnUse" x="107" y="0" width="10" height="26">
<path fill-rule="evenodd" clip-rule="evenodd" d="M107.538 25.9718H116.17V0.528076L107.538 0.528076V25.9718Z" fill="white"/>
</mask>
<g mask="url(#mask0)">
<path fill-rule="evenodd" clip-rule="evenodd" d="M113.263 0.528076C111.116 0.528076 109.366 2.43698 109.366 4.78328V7.06646H107.538V10.6824H109.366V21.4227C109.366 24.3566 111.039 25.9719 114.077 25.9719C115.186 25.9719 115.988 25.6192 116.17 25.5291V21.8037C115.878 21.9141 115.401 22.0457 115.082 22.0457C113.862 22.0457 113.49 21.6735 113.49 20.4524V10.6824H116.17V7.06646H113.49V0.528076H113.263Z" fill="#9E9E9E"/>
</g>
<path fill-rule="evenodd" clip-rule="evenodd" d="M94.149 24.2749H92.3865C89.7242 24.2749 88.4302 22.2459 88.4302 18.0733C88.4302 15.0624 89.1654 11.4723 92.668 11.4723C93.2229 11.4723 93.7042 11.5407 94.149 11.6628V24.2749ZM98.1517 1.67175C95.9278 1.67175 94.1176 3.60103 94.1176 5.9723V9.00879C93.4358 8.82845 92.6817 8.72467 91.7912 8.72467C87.1704 8.72467 84.1853 12.4859 84.1853 18.3057C84.1853 24.0803 87.0529 27.2821 92.2603 27.3216C92.464 27.3223 97.4645 27.3236 98.3631 27.2573V1.67175H98.1517Z" fill="#9E9E9E"/>
<path fill-rule="evenodd" clip-rule="evenodd" d="M71.542 16.4396C71.5546 13.0868 72.7222 11.4223 75.1967 11.345C76.3636 11.3089 78.8909 11.4672 79.0299 15.3695L71.542 16.4396ZM82.8964 17.224C82.8964 11.5435 80.1928 8.42175 75.3573 8.42175C70.4415 8.42175 67.4297 12.0183 67.4297 17.8189C67.4297 23.7698 70.6609 27.3218 76.0725 27.3218C79.0645 27.3218 81.16 26.5972 82.2903 25.9809V22.241C81.1682 23.059 79.6051 24.0691 76.5113 24.0691C73.7172 24.0691 72.1832 22.5643 71.8095 19.4949L82.8964 17.9472V17.224Z" fill="#9E9E9E"/>
<mask id="mask1" mask-type="alpha" maskUnits="userSpaceOnUse" x="58" y="7" width="10" height="21">
<path fill-rule="evenodd" clip-rule="evenodd" d="M58.481 27.3218H67.4026V7.42603H58.481L58.481 27.3218H58.481Z" fill="white"/>
</mask>
<g mask="url(#mask1)">
<path fill-rule="evenodd" clip-rule="evenodd" d="M58.481 8.94304V27.3219H58.7119C61.0302 27.3219 62.9099 25.3153 62.9099 22.8498V11.151C63.8298 10.6508 65.8528 10.2756 67.4026 11.4327V7.55539C62.969 7.11841 60.6543 7.84031 58.481 8.94304Z" fill="#9E9E9E"/>
</g>
<mask id="mask2" mask-type="alpha" maskUnits="userSpaceOnUse" x="40" y="0" width="17" height="28">
<path fill-rule="evenodd" clip-rule="evenodd" d="M56.9884 0.495361H40.4874L40.4874 27.3217H56.9884V0.495361Z" fill="white"/>
</mask>
<g mask="url(#mask2)">
<path fill-rule="evenodd" clip-rule="evenodd" d="M40.4874 13.8389C40.4874 20.5387 44.2111 27.3217 51.3286 27.3217C53.6938 27.3217 55.709 26.7778 56.9884 25.7655V21.1769C55.9515 22.6707 54.2198 23.2664 52.3182 23.2664C47.9867 23.2664 45.0761 18.372 45.0761 13.8013C45.0761 9.24604 47.8454 4.32959 52.3182 4.32959C54.5841 4.32959 56.0041 5.30019 56.9884 6.67368V2.04686C55.3634 0.982291 53.4395 0.495239 51.3667 0.495239C44.2242 0.495239 40.4874 7.20807 40.4874 13.8389Z" fill="#9E9E9E"/>
</g>
<path fill-rule="evenodd" clip-rule="evenodd" d="M35.2291 7.42603V27.3218H35.4858C38.0382 27.3218 40.1136 25.3189 40.1136 22.8565V7.42603H35.2291Z" fill="#9E9E9E"/>
<path fill-rule="evenodd" clip-rule="evenodd" d="M35.2075 3.71198C35.2075 4.82025 36.3637 5.72175 37.7857 5.72175C39.2312 5.72175 40.3631 4.83902 40.3631 3.71198C40.3631 2.56803 39.2312 1.67175 37.7857 1.67175C36.3637 1.67175 35.2075 2.5868 35.2075 3.71198Z" fill="#9E9E9E"/>
<mask id="mask3" mask-type="alpha" maskUnits="userSpaceOnUse" x="0" y="0" width="17" height="26">
<path fill-rule="evenodd" clip-rule="evenodd" d="M0.407593 25.9718H16.9165V0.528076H0.407593V25.9718V25.9718Z" fill="white"/>
</mask>
<g mask="url(#mask3)">
<path fill-rule="evenodd" clip-rule="evenodd" d="M16.692 0.528076C14.4384 0.528076 12.605 2.37488 12.605 4.64456V18.7473C12.605 21.0481 10.658 22.2897 8.82558 22.2897C6.95231 22.2897 5.01437 20.9647 5.01437 18.7473V0.528076H4.71545C2.33984 0.528076 0.407593 2.47478 0.407593 4.86765V18.7804C0.407593 22.8804 3.95642 25.9719 8.66238 25.9719C13.368 25.9719 16.9165 22.8804 16.9165 18.7804V0.528076H16.692Z" fill="#9E9E9E"/>
</g>
<path fill-rule="evenodd" clip-rule="evenodd" d="M18.4519 9.79159V27.3218H22.8324V11.8411C23.5524 11.5651 24.1978 11.4112 25.3301 11.4112C27.7416 11.4112 28.2478 12.9066 28.2478 14.1606L28.2445 23.1036C28.2442 25.4275 30.1224 27.3218 32.4116 27.3218H32.6297V14.0955C32.6297 11.9764 31.7028 8.42175 25.4921 8.42175C22.7105 8.42175 20.3347 8.89355 18.4519 9.79159Z" fill="#9E9E9E"/>
<path fill-rule="evenodd" clip-rule="evenodd" d="M101.24 7.42603V27.3218H101.479C103.861 27.3218 105.799 25.3189 105.799 22.8565V7.42603H101.24Z" fill="#9E9E9E"/>
<path fill-rule="evenodd" clip-rule="evenodd" d="M100.941 3.71198C100.941 4.82025 102.097 5.72175 103.52 5.72175C104.965 5.72175 106.096 4.83902 106.096 3.71198C106.096 2.56803 104.965 1.67175 103.52 1.67175C102.097 1.67175 100.941 2.5868 100.941 3.71198Z" fill="#9E9E9E"/>
</svg>
