<svg width="133" height="22" viewBox="0 0 133 22" fill="none" xmlns="http://www.w3.org/2000/svg">
<path fill-rule="evenodd" clip-rule="evenodd" d="M84.9224 10.2566H84.9968L85.5321 17.1069H86.9801L90.7976 8.29858H89.4231L86.5997 15.2306L86.1419 8.29858H84.54L81.7931 15.2306L81.3332 8.29858H79.8088L80.7245 17.1069H82.1744L84.9224 10.2566Z" fill="#9E9E9E"/>
<path fill-rule="evenodd" clip-rule="evenodd" d="M93.3933 6.75007L93.6961 5.03723H92.3227L92.0188 6.75007H93.3933Z" fill="#9E9E9E"/>
<path fill-rule="evenodd" clip-rule="evenodd" d="M93.1611 8.29834H91.7886L90.3376 17.1066H91.7132L93.1611 8.29834Z" fill="#9E9E9E"/>
<path fill-rule="evenodd" clip-rule="evenodd" d="M95.9105 11.9686C96.1389 10.6655 97.132 9.60313 98.429 9.60313H98.8878L99.1897 8.05591H98.8093C97.7418 8.05591 96.9026 8.70749 96.2174 9.76657L96.4448 8.2978H95.1467L93.6213 17.1061H95.0713L95.9105 11.9686Z" fill="#9E9E9E"/>
<path fill-rule="evenodd" clip-rule="evenodd" d="M100.03 11.9686C100.261 10.745 101.251 9.60311 102.32 9.43967V8.13761C100.109 8.46231 98.8093 10.502 98.3536 12.9482C97.9702 15.4738 99.0388 17.3501 101.328 17.3501C101.711 17.3501 102.092 17.3501 102.32 17.2706V15.9642C102.167 16.0459 101.939 16.0459 101.711 16.0459C100.183 16.0459 99.4966 14.9857 99.8025 13.1922H102.32V11.9686H100.03ZM102.32 17.2706V15.9642C103.314 15.719 104.001 14.9029 104.152 14.333H105.525C105.449 14.7416 104.838 16.0459 103.695 16.7792C103.388 16.9437 103.007 17.1867 102.32 17.2706ZM102.32 9.43969C102.474 9.35906 102.627 9.35906 102.78 9.35906C104.456 9.35906 104.762 10.6655 104.609 11.9686H102.32V13.1923H105.831C105.907 12.7019 105.984 12.2138 105.984 11.8063V11.2353C105.907 9.27843 104.991 8.05591 103.16 8.05591C102.854 8.05591 102.627 8.05591 102.32 8.13763V9.43969Z" fill="#9E9E9E"/>
<path fill-rule="evenodd" clip-rule="evenodd" d="M111.706 11.9686C111.939 10.745 112.927 9.60311 114.074 9.43967V8.13761C111.784 8.46231 110.485 10.502 110.103 12.9482C109.647 15.4738 110.716 17.3501 113.081 17.3501C113.461 17.3501 113.767 17.3501 114.074 17.2706V15.9642C113.843 16.0459 113.691 16.0459 113.461 16.0459C111.859 16.0459 111.25 14.9857 111.553 13.1922H114.074V11.9686H111.706ZM114.074 17.2706V15.9642C115.064 15.719 115.751 14.9029 115.904 14.333H117.279C117.125 14.7416 116.591 16.0459 115.371 16.7792C115.064 16.9437 114.683 17.1867 114.074 17.2706ZM114.074 9.43969C114.148 9.35906 114.302 9.35906 114.454 9.35906C116.131 9.35906 116.438 10.6655 116.284 11.9686H114.074V13.1923H117.583C117.66 12.7019 117.66 12.2138 117.734 11.8063V11.2353C117.66 9.27843 116.744 8.05591 114.835 8.05591C114.608 8.05591 114.302 8.05591 114.074 8.13763V9.43969Z" fill="#9E9E9E"/>
<path fill-rule="evenodd" clip-rule="evenodd" d="M109.951 5.03735H108.577L106.593 17.1068H107.969L109.951 5.03735Z" fill="#9E9E9E"/>
<path fill-rule="evenodd" clip-rule="evenodd" d="M125.29 10.8265C125.368 10.3384 125.52 8.05566 122.62 8.05566C120.94 8.05566 119.338 8.86959 118.955 10.8265C118.804 12.0501 119.415 12.7028 120.558 13.0275L122.084 13.4361C123.23 13.7619 123.613 14.007 123.534 14.6597C123.381 15.6371 122.391 16.0457 121.399 16.0457C119.415 16.0457 119.415 14.9855 119.489 14.2533H118.117C118.041 15.3124 117.888 17.3499 121.17 17.3499C123.079 17.3499 124.681 16.2908 124.985 14.4156C125.137 13.2726 124.681 12.5393 123 12.1329L121.704 11.7243C120.637 11.4792 120.256 11.3157 120.406 10.5813C120.558 9.43945 121.78 9.27819 122.239 9.27819C123.994 9.27819 123.994 10.2566 123.916 10.8265H125.29Z" fill="#9E9E9E"/>
<mask id="mask0" mask-type="alpha" maskUnits="userSpaceOnUse" x="125" y="8" width="8" height="10">
<path fill-rule="evenodd" clip-rule="evenodd" d="M132.883 17.3499V8.05566L125.693 8.05566V17.3499H132.883Z" fill="white"/>
</mask>
<g mask="url(#mask0)">
<path fill-rule="evenodd" clip-rule="evenodd" d="M132.846 10.8265C132.92 10.3384 133.153 8.05566 130.176 8.05566C128.573 8.05566 126.891 8.86959 126.588 10.8265C126.358 12.0501 127.045 12.7028 128.113 13.0275L129.641 13.4361C130.784 13.7619 131.244 14.007 131.09 14.6597C130.936 15.6371 129.945 16.0457 128.955 16.0457C127.045 16.0457 127.045 14.9855 127.045 14.2533H125.749C125.597 15.3124 125.519 17.3499 128.801 17.3499C130.63 17.3499 132.234 16.2908 132.539 14.4156C132.693 13.2726 132.234 12.5393 130.63 12.1329L129.261 11.7243C128.268 11.4792 127.808 11.3157 127.961 10.5813C128.113 9.43945 129.412 9.27819 129.795 9.27819C131.55 9.27819 131.624 10.2566 131.55 10.8265H132.846Z" fill="#9E9E9E"/>
</g>
<path fill-rule="evenodd" clip-rule="evenodd" d="M42.0345 5.03772L41.5002 8.54403H47.0696L39.8973 18.6555L39.4385 21.7543H50.6587H76.6038L77.1381 19.3463L45.0853 18.1652L52.2606 8.0559L52.7949 5.03772H42.0345Z" fill="#9E9E9E"/>
<path fill-rule="evenodd" clip-rule="evenodd" d="M38.9821 17.1065H34.4783L36.4615 5.03711H40.9653L38.9821 17.1065Z" fill="#9E9E9E"/>
<path fill-rule="evenodd" clip-rule="evenodd" d="M36.6938 3.48867L37.3016 0.0629883H41.8043L41.1936 3.48867H36.6938Z" fill="#9E9E9E"/>
<mask id="mask1" mask-type="alpha" maskUnits="userSpaceOnUse" x="0" y="5" width="14" height="13">
<path fill-rule="evenodd" clip-rule="evenodd" d="M0.826416 5.03711V17.1065H13.5706V5.03711L0.826416 5.03711V5.03711Z" fill="white"/>
</mask>
<g mask="url(#mask1)">
<path fill-rule="evenodd" clip-rule="evenodd" d="M2.7319 17.1065L0.826172 5.03711H5.32692L6.01518 12.6207L9.2954 5.03711H13.5708L7.77 17.1065H2.7319Z" fill="#9E9E9E"/>
</g>
<path fill-rule="evenodd" clip-rule="evenodd" d="M65.0042 17.1064L66.9874 5.03696H71.1088L70.805 6.99278C72.0255 5.52619 73.3215 4.71008 75.0008 4.71008C77.9762 4.71008 79.1233 6.58636 78.5094 9.84752L77.3664 17.1064H72.8616L73.8558 10.6658C74.0821 9.52391 73.9332 8.46265 72.7107 8.46265C71.3382 8.46265 70.805 9.35938 70.498 10.9088L69.5049 17.1064H65.0042Z" fill="#9E9E9E"/>
<path fill-rule="evenodd" clip-rule="evenodd" d="M25.2458 17.1064L27.2291 5.03696H31.3485L30.8937 7.40247H30.9681C31.8828 5.60791 33.1828 4.71008 34.8602 4.71008C35.0131 4.71008 35.2405 4.7918 35.3934 4.7918L34.6328 9.52391C34.3248 9.43892 34.021 9.35938 33.7916 9.35938C31.9613 9.35938 30.8937 10.3378 30.4328 12.9485L29.7466 17.1064H25.2458Z" fill="#9E9E9E"/>
<path fill-rule="evenodd" clip-rule="evenodd" d="M58.746 7.97364C57.6009 8.29834 57.0677 9.76711 56.8403 10.9079C56.4569 13.1917 57.1431 14.2541 58.2892 14.2541C58.4422 14.2541 58.5951 14.1723 58.746 14.1723V17.3496C58.3636 17.4313 57.9833 17.4313 57.5255 17.4313C53.8629 17.4313 51.4198 15.3121 52.1081 11.1542C52.7158 7.31988 55.3883 5.1189 58.746 4.79203V7.97364ZM59.3578 7.89194C59.1304 7.89194 58.9764 7.89194 58.746 7.97366V4.79205C59.0509 4.71033 59.3578 4.71033 59.5842 4.71033C63.6301 4.71033 65.6919 7.23819 65.0791 10.9079C64.3939 14.8239 61.8743 16.9432 58.746 17.3496V14.1724C59.7381 13.9261 60.4244 12.867 60.7313 10.9079C61.0341 9.11447 60.4998 7.80913 59.3578 7.89194Z" fill="#9E9E9E"/>
<path fill-rule="evenodd" clip-rule="evenodd" d="M16.8491 9.68453H18.9108V12.1328H16.4688C16.2404 13.5984 17.0816 14.4962 18.3011 14.4962C18.5305 14.4962 18.6835 14.4962 18.9108 14.4155V17.3498C18.452 17.4305 17.9962 17.4305 17.5364 17.4305C13.8748 17.4305 11.4337 15.2306 12.1189 11.1544C12.7297 7.48355 15.5542 5.03741 18.9108 4.79116V7.56527C17.7668 7.72653 17.0816 8.54372 16.8491 9.68453ZM18.9108 17.3499V14.4156C19.3686 14.2533 19.8265 13.9264 20.1324 13.4361H24.4822C23.4146 15.965 21.1245 17.0241 18.9108 17.3499ZM18.9108 9.68457H20.9725C21.1245 8.54376 20.3608 7.56531 19.2922 7.56531H18.9108V4.7912C19.1392 4.71057 19.3686 4.71057 19.5981 4.71057C23.797 4.71057 25.8546 7.72657 25.0165 12.1329H18.9108V9.68457Z" fill="#9E9E9E"/>
</svg>
