<svg width="126" height="20" viewBox="0 0 126 20" fill="none" xmlns="http://www.w3.org/2000/svg">
<mask id="mask0" mask-type="alpha" maskUnits="userSpaceOnUse" x="0" y="0" width="126" height="20">
<path fill-rule="evenodd" clip-rule="evenodd" d="M0.882568 19.3352H125.592V0.481812H0.882568V19.3352Z" fill="white"/>
</mask>
<g mask="url(#mask0)">
<mask id="mask1" mask-type="alpha" maskUnits="userSpaceOnUse" x="0" y="0" width="126" height="20">
<path fill-rule="evenodd" clip-rule="evenodd" d="M0.882568 0.481905V19.5466H125.799V0.481905" fill="white"/>
</mask>
<g mask="url(#mask1)">
<path fill-rule="evenodd" clip-rule="evenodd" d="M95.2159 9.88975C95.2159 3.74216 90.8247 0.456921 84.6607 0.456921C78.2634 0.456921 74.0751 3.94116 74.0751 9.88975C74.0751 15.9126 78.3141 19.3474 84.6607 19.3474C91.1562 19.3474 95.2159 15.7634 95.2159 9.88975ZM11.7195 14.0708C11.7195 14.0708 7.35437 2.87118 7.1003 2.22408C6.77045 1.35277 6.31374 0.655924 4.63878 0.655924H0.882568L8.62336 19.1234H14.2575L22.2771 0.655924H18.9525C17.5313 0.655924 16.9731 1.25327 16.6175 2.14946L11.7957 14.0708H11.7195ZM24.6121 16.9332V0.655924H29.688V19.1234H27.0485C25.3736 19.1234 24.6121 18.2025 24.6121 16.9332ZM108.515 3.21944C109.124 4.91197 112.324 13.8967 112.324 13.8967H112.426C112.426 13.8967 115.927 4.06587 116.333 2.92093C116.942 1.20352 118.16 0.655924 120.139 0.655924H125.748V19.1234H123.234C121.435 19.1234 120.724 18.2025 120.724 16.9083V3.99091H120.646L114.834 19.1234H109.405L103.592 3.99091H103.515V16.8834C103.515 18.4514 102.55 19.1234 101.004 19.1234H98.9982V0.655924H104.963C107.578 0.655924 108.136 2.0745 108.515 3.21944ZM69.8361 4.53851H67.2481C63.6722 4.53851 61.6153 6.13154 61.6153 9.88975C61.6153 14.2204 64.3319 15.2407 67.2481 15.2407H69.9647C71.6393 15.2407 72.7828 15.9126 72.7828 17.5305V19.1234H65.4212C60.827 19.1234 56.3343 16.9581 56.3343 9.88975C56.3343 4.21513 59.281 0.655924 65.4212 0.655924H72.7828V2.22408C72.7828 3.86653 71.6901 4.53851 69.8361 4.53851ZM47.5282 12.2046C47.5282 14.046 46.6656 15.4898 44.1283 15.4898H41.4895C39.6356 15.4898 38.5462 14.992 38.5462 13.5236C38.5462 12.1047 39.5611 11.5323 41.4895 11.5323H47.5282V12.2046ZM34.6875 0.655924H45.0687C51.006 0.655924 52.6299 3.29406 52.6299 7.57499V12.1544C52.6299 16.1119 51.3105 19.1234 45.1939 19.1234H40.5253C36.0596 19.1234 33.3931 17.4061 33.3931 13.4987C33.3931 10.2878 35.2951 7.92358 40.5253 7.92358H47.5282V7.59987C47.5282 5.43469 46.5641 4.53851 43.773 4.53851H37.149C35.3458 4.53851 34.6875 3.31894 34.6875 2.0745V0.655924ZM84.6608 15.44C87.9592 15.44 89.8876 13.1999 89.8876 9.88977C89.8876 6.38032 87.8307 4.33952 84.6608 4.33952C81.2844 4.33952 79.3798 6.55478 79.3798 9.88977C79.3798 13.0755 81.2337 15.44 84.6608 15.44Z" fill="#9E9E9E"/>
</g>
</g>
</svg>
