<svg width="161" height="30" viewBox="0 0 161 30" fill="none" xmlns="http://www.w3.org/2000/svg">
<path d="M4.43786 29.0755C4.84466 29.0755 5.02957 28.8574 5.02957 28.494V19.3352H9.46742C12.9437 19.3352 14.7929 17.4816 14.7929 14.1016V5.23359C14.7929 1.81722 12.9437 0 9.46742 0H0.591714C0.221893 0 0 0.218066 0 0.58151V28.494C0 28.8574 0.221893 29.0755 0.591714 29.0755H4.43786ZM8.284 14.5377H5.02957V4.79745H8.284C9.28251 4.79745 9.76328 5.30627 9.76328 6.25123V13.084C9.76328 13.9926 9.28251 14.5377 8.284 14.5377ZM22.9289 29.0755C23.2987 29.0755 23.5206 28.8574 23.5206 28.494V19.3352H26.0724L28.5502 28.5667C28.6242 28.8938 28.8091 29.0755 29.1789 29.0755H33.025C33.4318 29.0755 33.6537 28.8574 33.5428 28.4213L30.991 18.8991C32.7662 18.1358 33.6907 16.5367 33.6907 14.1016V5.23359C33.6907 1.81722 31.8416 0 28.3653 0H19.0828C18.713 0 18.4911 0.218066 18.4911 0.58151V28.494C18.4911 28.8574 18.713 29.0755 19.0828 29.0755H22.9289ZM27.1819 14.5377H23.5206V4.79745H27.1819C28.1434 4.79745 28.6611 5.30627 28.6611 6.25123V13.084C28.6611 14.0289 28.1434 14.5377 27.1819 14.5377ZM41.8268 29.0755C42.1966 29.0755 42.4185 28.8574 42.4185 28.494V0.58151C42.4185 0.218066 42.1966 0 41.8268 0H37.9806C37.5738 0 37.3889 0.218066 37.3889 0.58151V28.494C37.3889 28.8574 37.5738 29.0755 37.9806 29.0755H41.8268ZM50.2587 29.0755C50.7395 29.0755 50.9983 28.8211 50.9983 28.3486V11.9936H51.2572L54.9185 28.4213C55.0294 28.8574 55.2883 29.0755 55.7321 29.0755H57.5442C57.988 29.0755 58.2468 28.8574 58.3578 28.4213L62.019 11.9936H62.2779V28.3486C62.2779 28.8211 62.5368 29.0755 63.0175 29.0755H66.4569C66.9377 29.0755 67.1965 28.8211 67.1965 28.3486V0.726887C67.1965 0.25441 66.9377 0 66.4569 0H61.5752C61.1315 0 60.8726 0.218066 60.7616 0.654198L56.6566 18.7537L52.5516 0.654198C52.4407 0.218066 52.1818 0 51.738 0H46.8564C46.3756 0 46.1167 0.25441 46.1167 0.726887V28.3486C46.1167 28.8211 46.3756 29.0755 46.8564 29.0755H50.2587ZM85.0589 29.0755C85.5027 29.0755 85.6506 28.8574 85.6506 28.494V24.8595C85.6506 24.4597 85.5027 24.278 85.0589 24.278H75.8134V16.9365H82.8769C83.2468 16.9365 83.4687 16.7184 83.4687 16.3186V12.7205C83.4687 12.3207 83.2468 12.1027 82.8769 12.1027H75.8134V4.8338H85.0589C85.5027 4.8338 85.6506 4.57939 85.6506 4.21594V0.58151C85.6506 0.218066 85.5027 0 85.0589 0H71.4495C71.1166 0 70.8947 0.218066 70.8947 0.58151V28.494C70.8947 28.8574 71.1166 29.0755 71.4495 29.0755H85.0589Z" fill="#131314" fill-opacity="0.87"/>
<path d="M93.7867 29.0755C94.1565 29.0755 94.3784 28.8574 94.3784 28.494V16.9001H101.331C101.701 16.9001 101.923 16.7184 101.923 16.3186V12.6842C101.923 12.3207 101.701 12.1027 101.331 12.1027H94.3784V4.79745H103.55C103.92 4.79745 104.142 4.57939 104.142 4.21594V0.58151C104.142 0.218066 103.92 0 103.55 0H89.9405C89.5337 0 89.3488 0.218066 89.3488 0.58151V28.494C89.3488 28.8574 89.5337 29.0755 89.9405 29.0755H93.7867ZM121.671 29.0755C122.078 29.0755 122.263 28.8938 122.263 28.494V24.8595C122.263 24.4961 122.078 24.278 121.671 24.278H112.869V0.58151C112.869 0.218066 112.685 0 112.278 0H108.432C108.062 0 107.84 0.218066 107.84 0.58151V28.494C107.84 28.8938 108.062 29.0755 108.432 29.0755H121.671ZM140.125 29.0755C140.569 29.0755 140.717 28.8574 140.717 28.494V24.8595C140.717 24.4597 140.569 24.278 140.125 24.278H130.88V16.9365H137.943C138.313 16.9365 138.535 16.7184 138.535 16.3186V12.7205C138.535 12.3207 138.313 12.1027 137.943 12.1027H130.88V4.8338H140.125C140.569 4.8338 140.717 4.57939 140.717 4.21594V0.58151C140.717 0.218066 140.569 0 140.125 0H126.516C126.183 0 125.961 0.218066 125.961 0.58151V28.494C125.961 28.8574 126.183 29.0755 126.516 29.0755H140.125ZM147.744 29.0755C148.15 29.0755 148.446 28.9301 148.594 28.5667L152.144 19.7713L155.695 28.5667C155.843 28.9301 156.139 29.0755 156.545 29.0755H160.355C160.946 29.0755 161.131 28.712 160.909 28.2032L155.029 14.247L160.687 0.872264C160.909 0.363443 160.724 0 160.133 0H156.434C156.028 0 155.732 0.145377 155.584 0.508821L152.144 9.12243L148.705 0.508821C148.557 0.145377 148.261 0 147.855 0H144.156C143.565 0 143.38 0.363443 143.602 0.872264L149.223 14.247L143.38 28.2032C143.158 28.712 143.343 29.0755 143.934 29.0755H147.744Z" fill="#0078E3"/>
</svg>
