<svg width="145" height="28" viewBox="0 0 145 28" fill="none" xmlns="http://www.w3.org/2000/svg">
<path d="M4.44153 27.5282C4.80595 27.5282 4.97159 27.3253 4.97159 26.9871V18.4643H8.94706C12.0612 18.4643 13.7176 16.7395 13.7176 13.5942V5.34196C13.7176 2.16284 12.0612 0.471815 8.94706 0.471815H0.996127C0.664838 0.471815 0.466064 0.674738 0.466064 1.01294V26.9871C0.466064 27.3253 0.664838 27.5282 0.996127 27.5282H4.44153ZM7.88694 14H4.97159V4.93612H7.88694C8.78142 4.93612 9.21209 5.4096 9.21209 6.28893V12.6472C9.21209 13.4927 8.78142 14 7.88694 14ZM21.006 27.5282C21.3373 27.5282 21.536 27.3253 21.536 26.9871V18.4643H23.8219L26.0416 27.0547C26.1078 27.3591 26.2735 27.5282 26.6048 27.5282H30.0502C30.4146 27.5282 30.6134 27.3253 30.514 26.9194L28.2281 18.0585C29.8183 17.3482 30.6465 15.8601 30.6465 13.5942V5.34196C30.6465 2.16284 28.99 0.471815 25.8759 0.471815H17.5606C17.2293 0.471815 17.0305 0.674738 17.0305 1.01294V26.9871C17.0305 27.3253 17.2293 27.5282 17.5606 27.5282H21.006ZM24.8158 14H21.536V4.93612H24.8158C25.6772 4.93612 26.141 5.4096 26.141 6.28893V12.6472C26.141 13.5265 25.6772 14 24.8158 14ZM37.9348 27.5282C38.2661 27.5282 38.4649 27.3253 38.4649 26.9871V1.01294C38.4649 0.674738 38.2661 0.471815 37.9348 0.471815H34.4894C34.125 0.471815 33.9594 0.674738 33.9594 1.01294V26.9871C33.9594 27.3253 34.125 27.5282 34.4894 27.5282H37.9348ZM45.4882 27.5282C45.9189 27.5282 46.1508 27.2914 46.1508 26.8518V11.6326H46.3827L49.6625 26.9194C49.7619 27.3253 49.9938 27.5282 50.3913 27.5282H52.0146C52.4122 27.5282 52.6441 27.3253 52.7435 26.9194L56.0232 11.6326H56.2551V26.8518C56.2551 27.2914 56.487 27.5282 56.9177 27.5282H59.9987C60.4294 27.5282 60.6613 27.2914 60.6613 26.8518V1.14822C60.6613 0.708558 60.4294 0.471815 59.9987 0.471815H55.6257C55.2281 0.471815 54.9962 0.674738 54.8968 1.08058L51.2195 17.9232L47.5422 1.08058C47.4428 0.674738 47.2109 0.471815 46.8134 0.471815H42.4404C42.0097 0.471815 41.7778 0.708558 41.7778 1.14822V26.8518C41.7778 27.2914 42.0097 27.5282 42.4404 27.5282H45.4882ZM76.6625 27.5282C77.0601 27.5282 77.1926 27.3253 77.1926 26.9871V23.605C77.1926 23.233 77.0601 23.0639 76.6625 23.0639H68.3803V16.2322H74.7079C75.0392 16.2322 75.238 16.0292 75.238 15.6572V12.309C75.238 11.937 75.0392 11.734 74.7079 11.734H68.3803V4.96994H76.6625C77.0601 4.96994 77.1926 4.73319 77.1926 4.39499V1.01294C77.1926 0.674738 77.0601 0.471815 76.6625 0.471815H64.4711C64.1729 0.471815 63.9742 0.674738 63.9742 1.01294V26.9871C63.9742 27.3253 64.1729 27.5282 64.4711 27.5282H76.6625Z" fill="white" fill-opacity="0.87"/>
<path d="M84.5453 27.5282C84.875 27.5282 85.0728 27.3253 85.0728 26.9871V16.1983H91.272C91.6017 16.1983 91.7996 16.0292 91.7996 15.6572V12.2752C91.7996 11.937 91.6017 11.734 91.272 11.734H85.0728V4.93612H93.2504C93.5801 4.93612 93.778 4.73319 93.778 4.39499V1.01294C93.778 0.674738 93.5801 0.471815 93.2504 0.471815H81.116C80.7533 0.471815 80.5884 0.674738 80.5884 1.01294V26.9871C80.5884 27.3253 80.7533 27.5282 81.116 27.5282H84.5453ZM109.408 27.5282C109.77 27.5282 109.935 27.3591 109.935 26.9871V23.605C109.935 23.2668 109.77 23.0639 109.408 23.0639H101.56V1.01294C101.56 0.674738 101.395 0.471815 101.032 0.471815H97.603C97.2732 0.471815 97.0754 0.674738 97.0754 1.01294V26.9871C97.0754 27.3591 97.2732 27.5282 97.603 27.5282H109.408ZM125.862 27.5282C126.257 27.5282 126.389 27.3253 126.389 26.9871V23.605C126.389 23.233 126.257 23.0639 125.862 23.0639H117.618V16.2322H123.916C124.246 16.2322 124.444 16.0292 124.444 15.6572V12.309C124.444 11.937 124.246 11.734 123.916 11.734H117.618V4.96994H125.862C126.257 4.96994 126.389 4.73319 126.389 4.39499V1.01294C126.389 0.674738 126.257 0.471815 125.862 0.471815H113.727C113.431 0.471815 113.233 0.674738 113.233 1.01294V26.9871C113.233 27.3253 113.431 27.5282 113.727 27.5282H125.862ZM132.654 27.5282C133.017 27.5282 133.281 27.3929 133.413 27.0547L136.578 18.8701L139.744 27.0547C139.876 27.3929 140.139 27.5282 140.502 27.5282H143.899C144.426 27.5282 144.591 27.19 144.393 26.7165L139.15 13.7294L144.195 1.28351C144.393 0.81002 144.228 0.471815 143.701 0.471815H140.403C140.041 0.471815 139.777 0.607097 139.645 0.945302L136.578 8.96075L133.512 0.945302C133.38 0.607097 133.116 0.471815 132.753 0.471815H129.456C128.928 0.471815 128.763 0.81002 128.961 1.28351L133.973 13.7294L128.763 26.7165C128.566 27.19 128.73 27.5282 129.258 27.5282H132.654Z" fill="#0078E3"/>
</svg>
