<svg width="231" height="50" viewBox="0 0 231 50" fill="none" xmlns="http://www.w3.org/2000/svg">
<rect width="12.2446" height="4.08088" transform="matrix(0.86601 0.500028 3.18351e-05 1 38.8839 5.24521e-05)" fill="#6E6E6E"/>
<rect width="12.2446" height="4.08088" transform="matrix(0.86601 -0.500028 -3.18351e-05 1 28.2799 6.12263)" fill="#5A5A5A"/>
<rect width="12.2446" height="12.2446" transform="matrix(0.866041 0.499972 -0.866041 0.499972 38.8839 4.08037)" fill="black"/>
<rect width="12.2446" height="4.08088" transform="matrix(0.86601 0.500028 3.18351e-05 1 28.2797 6.12094)" fill="url(#paint0_linear)"/>
<rect width="12.2446" height="4.08088" transform="matrix(0.86601 0.500028 3.18351e-05 1 28.2797 6.12094)" fill="#CAE6FC" fill-opacity="0.65"/>
<rect width="12.2446" height="4.08088" transform="matrix(0.86601 -0.500028 -3.18351e-05 1 38.8839 12.2435)" fill="url(#paint1_linear)"/>
<rect width="12.2446" height="4.08088" transform="matrix(0.86601 -0.500028 -3.18351e-05 1 38.8839 12.2435)" fill="#75BEF8" fill-opacity="0.6"/>
<rect width="12.2446" height="12.2446" transform="matrix(0.866041 -0.499972 0.866041 0.499972 28.2797 6.12206)" fill="#0078E3"/>
<rect width="12.2446" height="4.08088" transform="matrix(0.86601 0.500028 3.18351e-05 1 24.7444 8.16377)" fill="#6E6E6E"/>
<rect width="12.2446" height="4.08088" transform="matrix(0.86601 -0.500028 -3.18351e-05 1 14.1404 14.2863)" fill="#5A5A5A"/>
<rect width="12.2446" height="12.2446" transform="matrix(0.866041 0.499972 -0.866041 0.499972 24.7444 12.2441)" fill="black"/>
<rect width="12.2446" height="4.08088" transform="matrix(0.86601 0.500028 3.18351e-05 1 14.14 14.2847)" fill="url(#paint2_linear)"/>
<rect width="12.2446" height="4.08088" transform="matrix(0.86601 0.500028 3.18351e-05 1 14.14 14.2847)" fill="#CAE6FC" fill-opacity="0.7"/>
<rect width="12.2446" height="4.08088" transform="matrix(0.86601 -0.500028 -3.18351e-05 1 24.7443 20.4072)" fill="url(#paint3_linear)"/>
<rect width="12.2446" height="4.08088" transform="matrix(0.86601 -0.500028 -3.18351e-05 1 24.7443 20.4072)" fill="#75BEF8" fill-opacity="0.6"/>
<rect width="12.2446" height="12.2446" transform="matrix(0.866041 -0.499972 0.866041 0.499972 14.14 14.2858)" fill="#0078E3"/>
<rect width="12.2446" height="4.08088" transform="matrix(0.86601 0.500028 3.18351e-05 1 10.6044 16.3275)" fill="#6E6E6E"/>
<rect width="12.2446" height="4.08088" transform="matrix(0.86601 -0.500028 -3.18351e-05 1 0.000366211 22.4501)" fill="#5A5A5A"/>
<rect width="12.2446" height="12.2446" transform="matrix(0.866041 0.499972 -0.866041 0.499972 10.6044 20.4078)" fill="black"/>
<rect width="12.2446" height="4.08088" transform="matrix(0.86601 0.500028 3.18351e-05 1 0 22.4484)" fill="url(#paint4_linear)"/>
<rect width="12.2446" height="4.08088" transform="matrix(0.86601 0.500028 3.18351e-05 1 0 22.4484)" fill="#CAE6FC" fill-opacity="0.85"/>
<rect width="12.2446" height="4.08088" transform="matrix(0.86601 -0.500028 -3.18351e-05 1 10.6044 28.571)" fill="url(#paint5_linear)"/>
<rect width="12.2446" height="4.08088" transform="matrix(0.86601 -0.500028 -3.18351e-05 1 10.6044 28.571)" fill="#75BEF8" fill-opacity="0.6"/>
<rect width="12.2446" height="12.2446" transform="matrix(0.866041 -0.499972 0.866041 0.499972 0 22.4495)" fill="#0078E3"/>
<rect width="22.4492" height="4.08088" transform="matrix(0.86601 0.500028 3.18351e-05 1 53.0239 8.16376)" fill="#6E6E6E"/>
<rect width="26.5311" height="4.08088" transform="matrix(0.86601 -0.500028 -3.18351e-05 1 30.0475 21.4296)" fill="black"/>
<rect width="22.4492" height="26.5311" transform="matrix(0.866041 0.499972 -0.866041 0.499972 53.0239 12.2441)" fill="black"/>
<rect width="22.4492" height="4.08088" transform="matrix(0.86601 0.500028 3.18351e-05 1 30.0471 21.4279)" fill="url(#paint6_linear)"/>
<rect width="22.4492" height="4.08088" transform="matrix(0.86601 0.500028 3.18351e-05 1 30.0471 21.4279)" fill="#CAE6FC" fill-opacity="0.7"/>
<rect width="26.5311" height="4.08088" transform="matrix(0.86601 -0.500028 -3.18351e-05 1 49.4889 32.6528)" fill="url(#paint7_linear)"/>
<rect width="26.5311" height="4.08088" transform="matrix(0.86601 -0.500028 -3.18351e-05 1 49.4889 32.6528)" fill="#75BEF8" fill-opacity="0.6"/>
<rect width="26.5311" height="22.4492" transform="matrix(0.866041 -0.499972 0.866041 0.499972 30.0471 21.429)" fill="#0078E3"/>
<rect width="22.4492" height="4.08088" transform="matrix(0.86601 0.500028 3.18351e-05 1 24.7444 24.4912)" fill="#6E6E6E"/>
<rect width="12.2446" height="4.08088" transform="matrix(0.86601 -0.500028 -3.18351e-05 1 14.1404 30.6138)" fill="black"/>
<rect width="22.4492" height="12.2446" transform="matrix(0.866041 0.499972 -0.866041 0.499972 24.7444 28.5715)" fill="black"/>
<rect width="22.4492" height="4.08088" transform="matrix(0.86601 0.500028 3.18351e-05 1 14.14 30.6121)" fill="url(#paint8_linear)"/>
<rect width="22.4492" height="4.08088" transform="matrix(0.86601 0.500028 3.18351e-05 1 14.14 30.6121)" fill="#CAE6FC" fill-opacity="0.85"/>
<rect width="12.2446" height="4.08088" transform="matrix(0.86601 -0.500028 -3.18351e-05 1 33.5818 41.837)" fill="url(#paint9_linear)"/>
<rect width="12.2446" height="4.08088" transform="matrix(0.86601 -0.500028 -3.18351e-05 1 33.5818 41.837)" fill="#75BEF8" fill-opacity="0.6"/>
<rect width="12.2446" height="22.4492" transform="matrix(0.866041 -0.499972 0.866041 0.499972 14.14 30.6132)" fill="#0078E3"/>
<mask id="mask0" mask-type="alpha" maskUnits="userSpaceOnUse" x="1" y="21" width="33" height="29">
<path fill-rule="evenodd" clip-rule="evenodd" d="M10.604 26.53L1.76758 21.4279L1.7679 31.6316L10.6044 36.7337L10.604 26.53ZM33.5814 39.7963L15.9076 29.5916L15.9079 39.7953L33.5817 50L33.5814 39.7963Z" fill="#FF0000"/>
</mask>
<g mask="url(#mask0)">
<g opacity="0.5">
<path d="M29.4659 27.1584L31.5167 25.2226L32.3945 28.2138L41.4725 33.6675L28.5851 34.3727L18.6287 28.3912L23.0224 27.159L29.4659 27.1584Z" fill="url(#paint10_linear)" fill-opacity="0.7"/>
<path fill-rule="evenodd" clip-rule="evenodd" d="M33.859 28.0376L32.6885 24.5186L35.0317 24.1664L40.8905 20.6467L41.4767 19.2389L47.3343 19.9422L60.512 27.8588L61.3899 30.4981L61.3892 32.9615L55.5303 36.4813L51.4299 36.4817L47.0367 35.9543L33.859 28.0376Z" fill="url(#paint11_linear)" fill-opacity="0.7"/>
<path fill-rule="evenodd" clip-rule="evenodd" d="M16.2897 13.9629L19.5101 18.7134L34.4461 23.1108L36.2038 22.0548L19.5121 12.0271L20.6838 11.3231L37.3756 21.3509L39.4261 20.119L31.8136 11.3219L23.9062 9.38724L16.2897 13.9629Z" fill="url(#paint12_linear)" fill-opacity="0.7"/>
<path d="M34.4463 23.1108L17.1644 27.8635L8.08582 24.5212L19.8031 18.5374L34.7392 22.9348L34.4463 23.1108Z" fill="url(#paint13_linear)" fill-opacity="0.7"/>
<path d="M18.0458 18.5376L11.3084 21.8815L11.3098 16.9547L15.411 14.4909L18.0458 18.5376Z" fill="url(#paint14_linear)" fill-opacity="0.7"/>
</g>
</g>
<g opacity="0.5">
<mask id="mask1" mask-type="alpha" maskUnits="userSpaceOnUse" x="1" y="0" width="70" height="40">
<path fill-rule="evenodd" clip-rule="evenodd" d="M30.0471 5.10165L38.8839 0.000103951L47.7207 5.10165L38.8839 10.2032L30.0471 5.10165ZM15.9076 13.2654L24.7444 8.16382L33.5811 13.2654L24.7444 18.3669L15.9076 13.2654ZM53.0241 8.16421L31.8146 20.4086L49.4891 30.6122L70.6986 18.3678L53.0241 8.16421ZM1.76758 21.4291L10.6044 16.3275L19.4412 21.4291L10.6044 26.5306L1.76758 21.4291ZM24.7444 24.4912L15.9076 29.5928L33.582 39.7964L42.4188 34.6948L24.7444 24.4912Z" fill="#35454C"/>
</mask>
<g mask="url(#mask1)">
<path d="M50.4134 21.4542L46.217 23.0588L52.7014 23.7456L64.5241 30.8483L66.0529 20.7651L53.086 12.975L50.4148 16.4127L50.4134 21.4542Z" fill="#0D3C61"/>
<path d="M29.0485 34.2894L31.7194 31.7684L32.8626 35.664L44.6854 42.7667L27.9014 43.6851L14.9345 35.895L20.6567 34.2903L29.0485 34.2894Z" fill="#0D3C61"/>
<path fill-rule="evenodd" clip-rule="evenodd" d="M34.7699 35.4345L33.2455 30.8515L36.2972 30.3929L43.9275 25.8089L44.6909 23.9755L52.3196 24.8913L69.4817 35.2017L70.625 38.639L70.624 41.8472L62.9938 46.4312L57.6535 46.4318L51.932 45.7449L34.7699 35.4345Z" fill="#0D3C61"/>
<path d="M71.7702 35.2015L71.772 29.2434L66.8141 26.2648L66.0495 31.7647L71.7702 35.2015Z" fill="#0D3C61"/>
<path fill-rule="evenodd" clip-rule="evenodd" d="M11.8884 17.1043L16.0825 23.2911L35.5346 29.018L37.8238 27.6428L16.0851 14.5831L17.6112 13.6663L39.3498 26.726L42.0204 25.1217L32.1061 13.6647L21.8078 11.1451L11.8884 17.1043Z" fill="#0D3C61"/>
<path d="M35.5347 29.018L13.0276 35.2077L1.20398 30.855L16.4641 23.0619L35.9163 28.7888L35.5347 29.018Z" fill="#0D3C61"/>
<path d="M42.0204 25.1217L52.3234 11.6002L45.078 4.49698L31.7246 13.8939L41.6389 25.3509L42.0204 25.1217Z" fill="#0D3C61"/>
<path d="M31.7251 12.5189L38.9741 7.24751L28.2936 7.24864L22.9524 10.4574L31.7251 12.5189Z" fill="#0D3C61"/>
<path d="M14.1755 23.0621L5.40093 27.4171L5.40282 21.0006L10.744 17.7918L14.1755 23.0621Z" fill="#0D3C61"/>
</g>
</g>
<path d="M90.4417 38.5282C90.8061 38.5282 90.9717 38.3253 90.9717 37.9871V29.4643H94.9472C98.0613 29.4643 99.7177 27.7395 99.7177 24.5942V16.342C99.7177 13.1628 98.0613 11.4718 94.9472 11.4718H86.9962C86.665 11.4718 86.4662 11.6747 86.4662 12.0129V37.9871C86.4662 38.3253 86.665 38.5282 86.9962 38.5282H90.4417ZM93.8871 25H90.9717V15.9361H93.8871C94.7815 15.9361 95.2122 16.4096 95.2122 17.2889V23.6472C95.2122 24.4927 94.7815 25 93.8871 25ZM107.006 38.5282C107.337 38.5282 107.536 38.3253 107.536 37.9871V29.4643H109.822L112.042 38.0547C112.108 38.3591 112.274 38.5282 112.605 38.5282H116.05C116.415 38.5282 116.613 38.3253 116.514 37.9194L114.228 29.0585C115.818 28.3482 116.647 26.8601 116.647 24.5942V16.342C116.647 13.1628 114.99 11.4718 111.876 11.4718H103.561C103.229 11.4718 103.031 11.6747 103.031 12.0129V37.9871C103.031 38.3253 103.229 38.5282 103.561 38.5282H107.006ZM110.816 25H107.536V15.9361H110.816C111.677 15.9361 112.141 16.4096 112.141 17.2889V23.6472C112.141 24.5265 111.677 25 110.816 25ZM123.935 38.5282C124.266 38.5282 124.465 38.3253 124.465 37.9871V12.0129C124.465 11.6747 124.266 11.4718 123.935 11.4718H120.49C120.125 11.4718 119.959 11.6747 119.959 12.0129V37.9871C119.959 38.3253 120.125 38.5282 120.49 38.5282H123.935ZM131.488 38.5282C131.919 38.5282 132.151 38.2914 132.151 37.8518V22.6326H132.383L135.663 37.9194C135.762 38.3253 135.994 38.5282 136.391 38.5282H138.015C138.412 38.5282 138.644 38.3253 138.744 37.9194L142.023 22.6326H142.255V37.8518C142.255 38.2914 142.487 38.5282 142.918 38.5282H145.999C146.429 38.5282 146.661 38.2914 146.661 37.8518V12.1482C146.661 11.7086 146.429 11.4718 145.999 11.4718H141.626C141.228 11.4718 140.996 11.6747 140.897 12.0806L137.22 28.9232L133.542 12.0806C133.443 11.6747 133.211 11.4718 132.814 11.4718H128.44C128.01 11.4718 127.778 11.7086 127.778 12.1482V37.8518C127.778 38.2914 128.01 38.5282 128.44 38.5282H131.488ZM162.663 38.5282C163.06 38.5282 163.193 38.3253 163.193 37.9871V34.605C163.193 34.233 163.06 34.0639 162.663 34.0639H154.38V27.2322H160.708C161.039 27.2322 161.238 27.0292 161.238 26.6572V23.309C161.238 22.937 161.039 22.734 160.708 22.734H154.38V15.9699H162.663C163.06 15.9699 163.193 15.7332 163.193 15.395V12.0129C163.193 11.6747 163.06 11.4718 162.663 11.4718H150.471C150.173 11.4718 149.974 11.6747 149.974 12.0129V37.9871C149.974 38.3253 150.173 38.5282 150.471 38.5282H162.663Z" fill="#131314" fill-opacity="0.87"/>
<path d="M170.546 38.5282C170.875 38.5282 171.073 38.3253 171.073 37.9871V27.1983H177.272C177.602 27.1983 177.8 27.0292 177.8 26.6572V23.2752C177.8 22.937 177.602 22.734 177.272 22.734H171.073V15.9361H179.251C179.58 15.9361 179.778 15.7332 179.778 15.395V12.0129C179.778 11.6747 179.58 11.4718 179.251 11.4718H167.116C166.753 11.4718 166.589 11.6747 166.589 12.0129V37.9871C166.589 38.3253 166.753 38.5282 167.116 38.5282H170.546ZM195.408 38.5282C195.771 38.5282 195.936 38.3591 195.936 37.9871V34.605C195.936 34.2668 195.771 34.0639 195.408 34.0639H187.56V12.0129C187.56 11.6747 187.395 11.4718 187.033 11.4718H183.603C183.273 11.4718 183.076 11.6747 183.076 12.0129V37.9871C183.076 38.3591 183.273 38.5282 183.603 38.5282H195.408ZM211.862 38.5282C212.258 38.5282 212.39 38.3253 212.39 37.9871V34.605C212.39 34.233 212.258 34.0639 211.862 34.0639H203.618V27.2322H209.917C210.246 27.2322 210.444 27.0292 210.444 26.6572V23.309C210.444 22.937 210.246 22.734 209.917 22.734H203.618V15.9699H211.862C212.258 15.9699 212.39 15.7332 212.39 15.395V12.0129C212.39 11.6747 212.258 11.4718 211.862 11.4718H199.728C199.431 11.4718 199.233 11.6747 199.233 12.0129V37.9871C199.233 38.3253 199.431 38.5282 199.728 38.5282H211.862ZM218.655 38.5282C219.017 38.5282 219.281 38.3929 219.413 38.0547L222.579 29.8701L225.744 38.0547C225.876 38.3929 226.14 38.5282 226.502 38.5282H229.899C230.426 38.5282 230.591 38.19 230.393 37.7165L225.151 24.7294L230.196 12.2835C230.393 11.81 230.229 11.4718 229.701 11.4718H226.404C226.041 11.4718 225.777 11.6071 225.645 11.9453L222.579 19.9608L219.512 11.9453C219.38 11.6071 219.116 11.4718 218.754 11.4718H215.456C214.929 11.4718 214.764 11.81 214.962 12.2835L219.974 24.7294L214.764 37.7165C214.566 38.19 214.731 38.5282 215.258 38.5282H218.655Z" fill="#0078E3"/>
<defs>
<linearGradient id="paint0_linear" x1="6.12229" y1="0" x2="6.12229" y2="4.08088" gradientUnits="userSpaceOnUse">
<stop stop-color="#0078E3"/>
<stop offset="1" stop-color="#D9E0E3" stop-opacity="0.5"/>
</linearGradient>
<linearGradient id="paint1_linear" x1="6.12229" y1="0" x2="6.12229" y2="4.08088" gradientUnits="userSpaceOnUse">
<stop stop-color="#0078E3"/>
<stop offset="1" stop-color="#9CAEB7" stop-opacity="0.5"/>
</linearGradient>
<linearGradient id="paint2_linear" x1="6.12229" y1="0" x2="6.12229" y2="4.08088" gradientUnits="userSpaceOnUse">
<stop stop-color="#0078E3"/>
<stop offset="1" stop-color="#D9E0E3" stop-opacity="0.5"/>
</linearGradient>
<linearGradient id="paint3_linear" x1="6.12229" y1="0" x2="6.12229" y2="4.08088" gradientUnits="userSpaceOnUse">
<stop stop-color="#0078E3"/>
<stop offset="1" stop-color="#9CAEB7" stop-opacity="0.5"/>
</linearGradient>
<linearGradient id="paint4_linear" x1="6.12229" y1="0" x2="6.12229" y2="4.08088" gradientUnits="userSpaceOnUse">
<stop stop-color="#0078E3"/>
<stop offset="1" stop-color="#D9E0E3" stop-opacity="0.5"/>
</linearGradient>
<linearGradient id="paint5_linear" x1="6.12229" y1="0" x2="6.12229" y2="4.08088" gradientUnits="userSpaceOnUse">
<stop stop-color="#0078E3"/>
<stop offset="1" stop-color="#9CAEB7" stop-opacity="0.5"/>
</linearGradient>
<linearGradient id="paint6_linear" x1="11.2246" y1="0" x2="11.2246" y2="4.08088" gradientUnits="userSpaceOnUse">
<stop stop-color="#0078E3"/>
<stop offset="1" stop-color="#D9E0E3" stop-opacity="0.5"/>
</linearGradient>
<linearGradient id="paint7_linear" x1="13.2655" y1="0" x2="13.2655" y2="4.08088" gradientUnits="userSpaceOnUse">
<stop stop-color="#0078E3"/>
<stop offset="1" stop-color="#9CAEB7" stop-opacity="0.5"/>
</linearGradient>
<linearGradient id="paint8_linear" x1="11.2246" y1="0" x2="11.2246" y2="4.08088" gradientUnits="userSpaceOnUse">
<stop stop-color="#0078E3"/>
<stop offset="1" stop-color="#D9E0E3" stop-opacity="0.5"/>
</linearGradient>
<linearGradient id="paint9_linear" x1="6.12229" y1="0" x2="6.12229" y2="4.08088" gradientUnits="userSpaceOnUse">
<stop stop-color="#0078E3"/>
<stop offset="1" stop-color="#9CAEB7" stop-opacity="0.5"/>
</linearGradient>
<linearGradient id="paint10_linear" x1="23.1693" y1="25.6634" x2="31.5566" y2="39.6246" gradientUnits="userSpaceOnUse">
<stop offset="0.463542" stop-color="#526A76"/>
<stop offset="1" stop-color="#607D8B"/>
</linearGradient>
<linearGradient id="paint11_linear" x1="37.0826" y1="21.8788" x2="48.4211" y2="40.7522" gradientUnits="userSpaceOnUse">
<stop offset="0.463542" stop-color="#526A76"/>
<stop offset="1" stop-color="#607D8B"/>
</linearGradient>
<linearGradient id="paint12_linear" x1="20.0979" y1="11.6751" x2="28.9513" y2="26.4119" gradientUnits="userSpaceOnUse">
<stop offset="0.463542" stop-color="#526A76"/>
<stop offset="1" stop-color="#607D8B"/>
</linearGradient>
<linearGradient id="paint13_linear" x1="15.4093" y1="20.1215" x2="21.7775" y2="30.7217" gradientUnits="userSpaceOnUse">
<stop offset="0.463542" stop-color="#526A76"/>
<stop offset="1" stop-color="#607D8B"/>
</linearGradient>
<linearGradient id="paint14_linear" x1="11.3098" y1="16.9547" x2="13.795" y2="21.0914" gradientUnits="userSpaceOnUse">
<stop offset="0.463542" stop-color="#526A76"/>
<stop offset="1" stop-color="#607D8B"/>
</linearGradient>
</defs>
</svg>
