<svg width="228" height="50" viewBox="0 0 228 50" fill="none" xmlns="http://www.w3.org/2000/svg">
<path d="M87.3259 37C87.6904 37 87.856 36.805 87.856 36.48V28.29H91.8315C94.9456 28.29 96.602 26.6325 96.602 23.61V15.68C96.602 12.625 94.9456 11 91.8315 11H83.8805C83.5493 11 83.3505 11.195 83.3505 11.52V36.48C83.3505 36.805 83.5493 37 83.8805 37H87.3259ZM90.7714 24H87.856V15.29H90.7714C91.6658 15.29 92.0965 15.745 92.0965 16.59V22.7C92.0965 23.5125 91.6658 24 90.7714 24ZM103.89 37C104.222 37 104.42 36.805 104.42 36.48V28.29H106.706L108.926 36.545C108.992 36.8375 109.158 37 109.489 37H112.935C113.299 37 113.498 36.805 113.398 36.415L111.112 27.9C112.703 27.2175 113.531 25.7875 113.531 23.61V15.68C113.531 12.625 111.874 11 108.76 11H100.445C100.114 11 99.9149 11.195 99.9149 11.52V36.48C99.9149 36.805 100.114 37 100.445 37H103.89ZM107.7 24H104.42V15.29H107.7C108.562 15.29 109.025 15.745 109.025 16.59V22.7C109.025 23.545 108.562 24 107.7 24ZM120.819 37C121.151 37 121.349 36.805 121.349 36.48V11.52C121.349 11.195 121.151 11 120.819 11H117.374C117.009 11 116.844 11.195 116.844 11.52V36.48C116.844 36.805 117.009 37 117.374 37H120.819ZM128.373 37C128.803 37 129.035 36.7725 129.035 36.35V21.725H129.267L132.547 36.415C132.646 36.805 132.878 37 133.276 37H134.899C135.297 37 135.528 36.805 135.628 36.415L138.908 21.725H139.14V36.35C139.14 36.7725 139.371 37 139.802 37H142.883C143.314 37 143.546 36.7725 143.546 36.35V11.65C143.546 11.2275 143.314 11 142.883 11H138.51C138.113 11 137.881 11.195 137.781 11.585L134.104 27.77L130.427 11.585C130.327 11.195 130.095 11 129.698 11H125.325C124.894 11 124.662 11.2275 124.662 11.65V36.35C124.662 36.7725 124.894 37 125.325 37H128.373ZM159.547 37C159.944 37 160.077 36.805 160.077 36.48V33.23C160.077 32.8725 159.944 32.71 159.547 32.71H151.265V26.145H157.592C157.924 26.145 158.122 25.95 158.122 25.5925V22.375C158.122 22.0175 157.924 21.8225 157.592 21.8225H151.265V15.3225H159.547C159.944 15.3225 160.077 15.095 160.077 14.77V11.52C160.077 11.195 159.944 11 159.547 11H147.355C147.057 11 146.859 11.195 146.859 11.52V36.48C146.859 36.805 147.057 37 147.355 37H159.547Z" fill="#131314" fill-opacity="0.87"/>
<path d="M167.43 37C167.759 37 167.957 36.805 167.957 36.48V26.1125H174.156C174.486 26.1125 174.684 25.95 174.684 25.5925V22.3425C174.684 22.0175 174.486 21.8225 174.156 21.8225H167.957V15.29H176.135C176.465 15.29 176.662 15.095 176.662 14.77V11.52C176.662 11.195 176.465 11 176.135 11H164C163.638 11 163.473 11.195 163.473 11.52V36.48C163.473 36.805 163.638 37 164 37H167.43ZM192.292 37C192.655 37 192.82 36.8375 192.82 36.48V33.23C192.82 32.905 192.655 32.71 192.292 32.71H184.444V11.52C184.444 11.195 184.279 11 183.917 11H180.487C180.158 11 179.96 11.195 179.96 11.52V36.48C179.96 36.8375 180.158 37 180.487 37H192.292ZM208.746 37C209.142 37 209.274 36.805 209.274 36.48V33.23C209.274 32.8725 209.142 32.71 208.746 32.71H200.503V26.145H206.801C207.13 26.145 207.328 25.95 207.328 25.5925V22.375C207.328 22.0175 207.13 21.8225 206.801 21.8225H200.503V15.3225H208.746C209.142 15.3225 209.274 15.095 209.274 14.77V11.52C209.274 11.195 209.142 11 208.746 11H196.612C196.315 11 196.117 11.195 196.117 11.52V36.48C196.117 36.805 196.315 37 196.612 37H208.746ZM215.539 37C215.902 37 216.165 36.87 216.297 36.545L219.463 28.68L222.628 36.545C222.76 36.87 223.024 37 223.387 37H226.783C227.311 37 227.475 36.675 227.278 36.22L222.035 23.74L227.08 11.78C227.278 11.325 227.113 11 226.585 11H223.288C222.925 11 222.661 11.13 222.529 11.455L219.463 19.1575L216.396 11.455C216.264 11.13 216.001 11 215.638 11H212.34C211.813 11 211.648 11.325 211.846 11.78L216.858 23.74L211.648 36.22C211.45 36.675 211.615 37 212.143 37H215.539Z" fill="#0078E3"/>
<rect width="12.2446" height="4.08088" transform="matrix(0.86601 0.500028 3.18351e-05 1 38.8839 5.24521e-05)" fill="#6E6E6E"/>
<rect width="12.2446" height="4.08088" transform="matrix(0.86601 -0.500028 -3.18351e-05 1 28.2799 6.12263)" fill="#5A5A5A"/>
<rect width="12.2446" height="12.2446" transform="matrix(0.866041 0.499972 -0.866041 0.499972 38.8839 4.08037)" fill="black"/>
<rect width="12.2446" height="4.08088" transform="matrix(0.86601 0.500028 3.18351e-05 1 28.2796 6.12094)" fill="url(#paint0_linear)"/>
<rect width="12.2446" height="4.08088" transform="matrix(0.86601 0.500028 3.18351e-05 1 28.2796 6.12094)" fill="#CAE6FC" fill-opacity="0.65"/>
<rect width="12.2446" height="4.08088" transform="matrix(0.86601 -0.500028 -3.18351e-05 1 38.8839 12.2435)" fill="url(#paint1_linear)"/>
<rect width="12.2446" height="4.08088" transform="matrix(0.86601 -0.500028 -3.18351e-05 1 38.8839 12.2435)" fill="#75BEF8" fill-opacity="0.6"/>
<rect width="12.2446" height="12.2446" transform="matrix(0.866041 -0.499972 0.866041 0.499972 28.2796 6.12206)" fill="#0078E3"/>
<rect width="12.2446" height="4.08088" transform="matrix(0.86601 0.500028 3.18351e-05 1 24.7444 8.16377)" fill="#6E6E6E"/>
<rect width="12.2446" height="4.08088" transform="matrix(0.86601 -0.500028 -3.18351e-05 1 14.1404 14.2863)" fill="#5A5A5A"/>
<rect width="12.2446" height="12.2446" transform="matrix(0.866041 0.499972 -0.866041 0.499972 24.7444 12.2441)" fill="black"/>
<rect width="12.2446" height="4.08088" transform="matrix(0.86601 0.500028 3.18351e-05 1 14.1401 14.2847)" fill="url(#paint2_linear)"/>
<rect width="12.2446" height="4.08088" transform="matrix(0.86601 0.500028 3.18351e-05 1 14.1401 14.2847)" fill="#CAE6FC" fill-opacity="0.7"/>
<rect width="12.2446" height="4.08088" transform="matrix(0.86601 -0.500028 -3.18351e-05 1 24.7443 20.4072)" fill="url(#paint3_linear)"/>
<rect width="12.2446" height="4.08088" transform="matrix(0.86601 -0.500028 -3.18351e-05 1 24.7443 20.4072)" fill="#75BEF8" fill-opacity="0.6"/>
<rect width="12.2446" height="12.2446" transform="matrix(0.866041 -0.499972 0.866041 0.499972 14.1401 14.2858)" fill="#0078E3"/>
<rect width="12.2446" height="4.08088" transform="matrix(0.86601 0.500028 3.18351e-05 1 10.6043 16.3275)" fill="#6E6E6E"/>
<rect width="12.2446" height="4.08088" transform="matrix(0.86601 -0.500028 -3.18351e-05 1 0.000379562 22.4501)" fill="#5A5A5A"/>
<rect width="12.2446" height="12.2446" transform="matrix(0.866041 0.499972 -0.866041 0.499972 10.6043 20.4078)" fill="black"/>
<rect width="12.2446" height="4.08088" transform="matrix(0.86601 0.500028 3.18351e-05 1 5.53131e-05 22.4484)" fill="url(#paint4_linear)"/>
<rect width="12.2446" height="4.08088" transform="matrix(0.86601 0.500028 3.18351e-05 1 5.53131e-05 22.4484)" fill="#CAE6FC" fill-opacity="0.85"/>
<rect width="12.2446" height="4.08088" transform="matrix(0.86601 -0.500028 -3.18351e-05 1 10.6043 28.571)" fill="url(#paint5_linear)"/>
<rect width="12.2446" height="4.08088" transform="matrix(0.86601 -0.500028 -3.18351e-05 1 10.6043 28.571)" fill="#75BEF8" fill-opacity="0.6"/>
<rect width="12.2446" height="12.2446" transform="matrix(0.866041 -0.499972 0.866041 0.499972 5.53131e-05 22.4495)" fill="#0078E3"/>
<rect width="22.4492" height="4.08088" transform="matrix(0.86601 0.500028 3.18351e-05 1 53.0239 8.16376)" fill="#6E6E6E"/>
<rect width="26.5311" height="4.08088" transform="matrix(0.86601 -0.500028 -3.18351e-05 1 30.0475 21.4296)" fill="black"/>
<rect width="22.4492" height="26.5311" transform="matrix(0.866041 0.499972 -0.866041 0.499972 53.0239 12.2441)" fill="black"/>
<rect width="22.4492" height="4.08088" transform="matrix(0.86601 0.500028 3.18351e-05 1 30.0471 21.4279)" fill="url(#paint6_linear)"/>
<rect width="22.4492" height="4.08088" transform="matrix(0.86601 0.500028 3.18351e-05 1 30.0471 21.4279)" fill="#CAE6FC" fill-opacity="0.7"/>
<rect width="26.5311" height="4.08088" transform="matrix(0.86601 -0.500028 -3.18351e-05 1 49.4889 32.6528)" fill="url(#paint7_linear)"/>
<rect width="26.5311" height="4.08088" transform="matrix(0.86601 -0.500028 -3.18351e-05 1 49.4889 32.6528)" fill="#75BEF8" fill-opacity="0.6"/>
<rect width="26.5311" height="22.4492" transform="matrix(0.866041 -0.499972 0.866041 0.499972 30.0471 21.429)" fill="#0078E3"/>
<rect width="22.4492" height="4.08088" transform="matrix(0.86601 0.500028 3.18351e-05 1 24.7444 24.4912)" fill="#6E6E6E"/>
<rect width="12.2446" height="4.08088" transform="matrix(0.86601 -0.500028 -3.18351e-05 1 14.1404 30.6138)" fill="black"/>
<rect width="22.4492" height="12.2446" transform="matrix(0.866041 0.499972 -0.866041 0.499972 24.7444 28.5715)" fill="black"/>
<rect width="22.4492" height="4.08088" transform="matrix(0.86601 0.500028 3.18351e-05 1 14.1401 30.6121)" fill="url(#paint8_linear)"/>
<rect width="22.4492" height="4.08088" transform="matrix(0.86601 0.500028 3.18351e-05 1 14.1401 30.6121)" fill="#CAE6FC" fill-opacity="0.85"/>
<rect width="12.2446" height="4.08088" transform="matrix(0.86601 -0.500028 -3.18351e-05 1 33.5819 41.837)" fill="url(#paint9_linear)"/>
<rect width="12.2446" height="4.08088" transform="matrix(0.86601 -0.500028 -3.18351e-05 1 33.5819 41.837)" fill="#75BEF8" fill-opacity="0.6"/>
<rect width="12.2446" height="22.4492" transform="matrix(0.866041 -0.499972 0.866041 0.499972 14.1401 30.6132)" fill="#0078E3"/>
<mask id="mask0" mask-type="alpha" maskUnits="userSpaceOnUse" x="1" y="21" width="33" height="29">
<path fill-rule="evenodd" clip-rule="evenodd" d="M10.604 26.53L1.76755 21.4279L1.76788 31.6316L10.6043 36.7337L10.604 26.53ZM33.5813 39.7963L15.9075 29.5916L15.9079 39.7953L33.5817 50L33.5813 39.7963Z" fill="#FF0000"/>
</mask>
<g mask="url(#mask0)">
<g opacity="0.5">
<path d="M29.4658 25.7076L31.5166 23.8474L32.3944 26.7218L41.4724 31.9626L28.5851 32.6402L18.6286 26.8923L23.0223 25.7082L29.4658 25.7076Z" fill="url(#paint10_linear)" fill-opacity="0.7"/>
<path fill-rule="evenodd" clip-rule="evenodd" d="M33.859 26.5525L32.6884 23.1709L35.0317 22.8325L40.8905 19.4501L41.4767 18.0974L47.3343 18.7731L60.5119 26.3807L61.3898 28.9169L61.3891 31.2841L55.5303 34.6665L51.4298 34.6669L47.0367 34.1601L33.859 26.5525Z" fill="url(#paint11_linear)" fill-opacity="0.7"/>
<path fill-rule="evenodd" clip-rule="evenodd" d="M16.2897 13.0273L19.5101 17.5924L34.4461 21.818L36.2038 20.8033L19.5121 11.1671L20.6838 10.4906L37.3756 20.1268L39.4261 18.943L31.8136 10.4894L23.9062 8.6303L16.2897 13.0273Z" fill="url(#paint12_linear)" fill-opacity="0.7"/>
<path d="M34.4462 21.818L17.1643 26.3851L8.08573 23.1734L19.8031 17.4232L34.7391 21.6489L34.4462 21.818Z" fill="url(#paint13_linear)" fill-opacity="0.7"/>
</g>
</g>
<g opacity="0.5">
<mask id="mask1" mask-type="alpha" maskUnits="userSpaceOnUse" x="1" y="0" width="70" height="40">
<path fill-rule="evenodd" clip-rule="evenodd" d="M30.0471 5.10165L38.8839 0.000103951L47.7207 5.10165L38.8839 10.2032L30.0471 5.10165ZM15.9075 13.2654L24.7443 8.16382L33.5811 13.2654L24.7443 18.3669L15.9075 13.2654ZM53.0241 8.16421L31.8146 20.4086L49.489 30.6122L70.6985 18.3678L53.0241 8.16421ZM1.76754 21.4291L10.6043 16.3275L19.4411 21.4291L10.6043 26.5306L1.76754 21.4291ZM24.7443 24.4912L15.9075 29.5928L33.582 39.7964L42.4188 34.6948L24.7443 24.4912Z" fill="#35454C"/>
</mask>
<g mask="url(#mask1)">
<path d="M50.4132 20.2261L46.2168 21.768L52.7012 22.428L64.524 29.2534L66.0527 19.5639L53.0858 12.078L50.4147 15.3815L50.4132 20.2261Z" fill="#0D3C61"/>
<path d="M29.0484 32.5602L31.7193 30.1376L32.8625 33.8811L44.6852 40.7065L27.9013 41.589L14.9344 34.1031L20.6566 32.5611L29.0484 32.5602Z" fill="#0D3C61"/>
<path fill-rule="evenodd" clip-rule="evenodd" d="M34.7699 33.6606L33.2454 29.2565L36.2971 28.8158L43.9274 24.4108L44.6909 22.649L52.3195 23.5291L69.4816 33.4369L70.6249 36.7399L70.624 39.8229L62.9937 44.2279L57.6535 44.2285L51.9319 43.5684L34.7699 33.6606Z" fill="#0D3C61"/>
<path d="M71.7702 33.4367L71.772 27.7112L66.814 24.8489L66.0495 30.1341L71.7702 33.4367Z" fill="#0D3C61"/>
<path d="M51.9315 44.8898L42.0138 44.8908L37.0559 42.0285L46.2108 41.5872L51.9315 44.8898Z" fill="#0D3C61"/>
<path fill-rule="evenodd" clip-rule="evenodd" d="M11.8884 16.046L16.0825 21.9913L35.5346 27.4946L37.8237 26.1731L16.0851 13.6232L17.6111 12.7422L39.3498 25.2921L42.0203 23.7504L32.1061 12.7408L21.8077 10.3195L11.8884 16.046Z" fill="#0D3C61"/>
<path d="M35.5346 27.4946L13.0274 33.4427L1.20385 29.2598L16.464 21.7711L35.9161 27.2744L35.5346 27.4946Z" fill="#0D3C61"/>
<path d="M42.0203 23.7504L52.3233 10.7568L45.0779 3.93096L31.7245 12.961L41.6388 23.9706L42.0203 23.7504Z" fill="#0D3C61"/>
<path d="M31.725 11.6397L38.974 6.57411L28.2935 6.5752L22.9523 9.65871L31.725 11.6397Z" fill="#0D3C61"/>
<path d="M14.1754 21.7713L5.40079 25.9562L5.40268 19.7903L10.7439 16.7067L14.1754 21.7713Z" fill="#0D3C61"/>
</g>
</g>
<defs>
<linearGradient id="paint0_linear" x1="6.12229" y1="0" x2="6.12229" y2="4.08088" gradientUnits="userSpaceOnUse">
<stop stop-color="#0078E3"/>
<stop offset="1" stop-color="#D9E0E3" stop-opacity="0.5"/>
</linearGradient>
<linearGradient id="paint1_linear" x1="6.12229" y1="0" x2="6.12229" y2="4.08088" gradientUnits="userSpaceOnUse">
<stop stop-color="#0078E3"/>
<stop offset="1" stop-color="#9CAEB7" stop-opacity="0.5"/>
</linearGradient>
<linearGradient id="paint2_linear" x1="6.12229" y1="0" x2="6.12229" y2="4.08088" gradientUnits="userSpaceOnUse">
<stop stop-color="#0078E3"/>
<stop offset="1" stop-color="#D9E0E3" stop-opacity="0.5"/>
</linearGradient>
<linearGradient id="paint3_linear" x1="6.12229" y1="0" x2="6.12229" y2="4.08088" gradientUnits="userSpaceOnUse">
<stop stop-color="#0078E3"/>
<stop offset="1" stop-color="#9CAEB7" stop-opacity="0.5"/>
</linearGradient>
<linearGradient id="paint4_linear" x1="6.12229" y1="0" x2="6.12229" y2="4.08088" gradientUnits="userSpaceOnUse">
<stop stop-color="#0078E3"/>
<stop offset="1" stop-color="#D9E0E3" stop-opacity="0.5"/>
</linearGradient>
<linearGradient id="paint5_linear" x1="6.12229" y1="0" x2="6.12229" y2="4.08088" gradientUnits="userSpaceOnUse">
<stop stop-color="#0078E3"/>
<stop offset="1" stop-color="#9CAEB7" stop-opacity="0.5"/>
</linearGradient>
<linearGradient id="paint6_linear" x1="11.2246" y1="0" x2="11.2246" y2="4.08088" gradientUnits="userSpaceOnUse">
<stop stop-color="#0078E3"/>
<stop offset="1" stop-color="#D9E0E3" stop-opacity="0.5"/>
</linearGradient>
<linearGradient id="paint7_linear" x1="13.2655" y1="0" x2="13.2655" y2="4.08088" gradientUnits="userSpaceOnUse">
<stop stop-color="#0078E3"/>
<stop offset="1" stop-color="#9CAEB7" stop-opacity="0.5"/>
</linearGradient>
<linearGradient id="paint8_linear" x1="11.2246" y1="0" x2="11.2246" y2="4.08088" gradientUnits="userSpaceOnUse">
<stop stop-color="#0078E3"/>
<stop offset="1" stop-color="#D9E0E3" stop-opacity="0.5"/>
</linearGradient>
<linearGradient id="paint9_linear" x1="6.12229" y1="0" x2="6.12229" y2="4.08088" gradientUnits="userSpaceOnUse">
<stop stop-color="#0078E3"/>
<stop offset="1" stop-color="#9CAEB7" stop-opacity="0.5"/>
</linearGradient>
<linearGradient id="paint10_linear" x1="23.1692" y1="24.271" x2="31.0749" y2="37.9651" gradientUnits="userSpaceOnUse">
<stop offset="0.463542" stop-color="#526A76"/>
<stop offset="1" stop-color="#607D8B"/>
</linearGradient>
<linearGradient id="paint11_linear" x1="37.0826" y1="20.6341" x2="47.77" y2="39.1466" gradientUnits="userSpaceOnUse">
<stop offset="0.463542" stop-color="#526A76"/>
<stop offset="1" stop-color="#607D8B"/>
</linearGradient>
<linearGradient id="paint12_linear" x1="20.0979" y1="10.8288" x2="28.4429" y2="25.2838" gradientUnits="userSpaceOnUse">
<stop offset="0.463542" stop-color="#526A76"/>
<stop offset="1" stop-color="#607D8B"/>
</linearGradient>
<linearGradient id="paint13_linear" x1="15.4093" y1="18.9455" x2="21.4118" y2="29.3429" gradientUnits="userSpaceOnUse">
<stop offset="0.463542" stop-color="#526A76"/>
<stop offset="1" stop-color="#607D8B"/>
</linearGradient>
</defs>
</svg>
