<svg width="300" height="300" viewBox="0 0 300 300" fill="none" xmlns="http://www.w3.org/2000/svg">
    <path fill-rule="evenodd" clip-rule="evenodd" d="M0 0H300V300H0V0Z" fill="#F8F9FA"/>
    <path d="M193.75 112H106.25C104.592 112 103.003 112.658 101.831 113.831C100.658 115.003 100 116.592 100 118.25V180.75C100 182.408 100.658 183.997 101.831 185.169C103.003 186.342 104.592 187 106.25 187H193.75C195.408 187 196.997 186.342 198.169 185.169C199.342 183.997 200 182.408 200 180.75V118.25C200 116.592 199.342 115.003 198.169 113.831C196.997 112.658 195.408 112 193.75 112ZM125 124.5C131.904 124.5 137.5 130.096 137.5 137C137.5 143.904 131.904 149.5 125 149.5C118.096 149.5 112.5 143.904 112.5 137C112.5 130.096 118.096 124.5 125 124.5ZM187.5 162V174.5H112.5V162L123.188 156.625C123.752 156.349 124.372 156.205 125 156.205C125.628 156.205 126.248 156.349 126.812 156.625L137.5 162L167.062 138.375C167.573 138.009 168.185 137.812 168.813 137.812C169.44 137.812 170.052 138.009 170.562 138.375L187.5 149.5V162Z" fill="#BABABC"/>
</svg>
