<svg width="300" height="300" viewBox="0 0 300 300" fill="none" xmlns="http://www.w3.org/2000/svg">
    <path fill-rule="evenodd" clip-rule="evenodd" d="M0 0H300V300H0V0Z" fill="#BABABC"/>
    <path d="M205.266 147.609C204.328 147.609 203.438 147.469 202.594 147.188C201.75 146.812 201 146.297 200.344 145.641L149.578 94.875L98.8125 145.641C98.1562 146.203 97.4062 146.672 96.5625 147.047C95.8125 147.328 94.9688 147.469 94.0312 147.469C92.0625 147.469 90.375 146.812 88.9688 145.5C87.6562 144.094 87 142.453 87 140.578C87 139.641 87.1406 138.797 87.4219 138.047C87.7969 137.203 88.3125 136.453 88.9688 135.797L144.656 80.1094C145.312 79.4531 146.062 78.9375 146.906 78.5625C147.75 78.1875 148.641 78 149.578 78C150.516 78 151.406 78.1875 152.25 78.5625C153.094 78.9375 153.844 79.4531 154.5 80.1094L210.188 135.797C210.844 136.453 211.359 137.203 211.734 138.047C212.109 138.891 212.297 139.781 212.297 140.719C212.297 141.656 212.109 142.547 211.734 143.391C211.359 144.234 210.844 144.984 210.188 145.641C209.625 146.297 208.922 146.812 208.078 147.188C207.234 147.469 206.344 147.609 205.406 147.609C205.406 147.609 205.359 147.609 205.266 147.609ZM149.578 222C147.703 222 146.062 221.297 144.656 219.891C143.344 218.578 142.641 216.938 142.547 214.969V85.0312C142.547 83.0625 143.203 81.4219 144.516 80.1094C145.922 78.7031 147.609 78 149.578 78C151.547 78 153.188 78.7031 154.5 80.1094C155.906 81.4219 156.609 83.0625 156.609 85.0312V214.969C156.516 216.938 155.766 218.578 154.359 219.891C153.047 221.297 151.453 222 149.578 222Z" fill="white"/>
</svg>
