<svg width="71" height="71" viewBox="0 0 71 71" fill="none" xmlns="http://www.w3.org/2000/svg">
<rect x="0.682617" y="0.812744" width="70" height="69.5" rx="4" fill="#DFE3E7"/>
<rect x="7.68262" y="12.8127" width="15" height="5" fill="#F2FCFD"/>
<rect x="7.68262" y="17.8127" width="15" height="5" fill="#C2EFF5"/>
<rect x="7.68262" y="22.8127" width="15" height="5" fill="#61D5E4"/>
<rect x="7.68262" y="27.8127" width="15" height="5" fill="#30C9DC"/>
<rect x="7.68262" y="32.8127" width="15" height="5" fill="#00BCD4"/>
<rect x="7.68262" y="37.8127" width="15" height="5" fill="#00A0B4"/>
<rect x="7.68262" y="42.8127" width="15" height="5" fill="#008494"/>
<rect x="7.68262" y="47.8127" width="15" height="5" fill="#006775"/>
<rect x="7.68262" y="52.8127" width="15" height="5" fill="#004B55"/>
<rect x="28.1826" y="13.3127" width="15" height="5" fill="#FEF4F7"/>
<rect x="28.1826" y="18.3127" width="15" height="5" fill="#FAC9DA"/>
<rect x="28.1826" y="23.3127" width="15" height="5" fill="#F69EBC"/>
<rect x="28.1826" y="28.3127" width="15" height="5" fill="#F1749E"/>
<rect x="28.1826" y="33.3127" width="15" height="5" fill="#ED4981"/>
<rect x="28.1826" y="38.3127" width="15" height="5" fill="#E91E63"/>
<rect x="28.1826" y="43.3127" width="15" height="5" fill="#C61A54"/>
<rect x="28.1826" y="48.3127" width="15" height="5" fill="#A31545"/>
<rect x="28.1826" y="53.3127" width="15" height="5" fill="#801136"/>
<rect x="48.6826" y="13.3127" width="15" height="5" fill="#FFF8F2"/>
<rect x="48.6826" y="18.3127" width="15" height="5" fill="#FDE0C2"/>
<rect x="48.6826" y="23.3127" width="15" height="5" fill="#FBC791"/>
<rect x="48.6826" y="28.3127" width="15" height="5" fill="#F9AE61"/>
<rect x="48.6826" y="33.3127" width="15" height="5" fill="#F79530"/>
<rect x="48.6826" y="38.3127" width="15" height="5" fill="#F57C00"/>
<rect x="48.6826" y="43.3127" width="15" height="5" fill="#D06900"/>
<rect x="48.6826" y="48.3127" width="15" height="5" fill="#AC5700"/>
<rect x="48.6826" y="53.3127" width="15" height="5" fill="#874400"/>
</svg>
