<svg width="71" height="71" viewBox="0 0 71 71" fill="none" xmlns="http://www.w3.org/2000/svg">
<rect x="0.682617" y="0.812744" width="70" height="70" rx="4" fill="#75BEF8"/>
<path d="M13.7236 35.0549H10.6416L10.0557 36.8127H8.18652L11.3623 28.2815H12.9912L16.1846 36.8127H14.3154L13.7236 35.0549ZM11.1162 33.6311H13.249L12.1768 30.4377L11.1162 33.6311Z" fill="white"/>
<path d="M58.9834 37.6252H53.3467L52.3623 40.8127H47.9678L54.2256 23.7502H58.0928L64.3975 40.8127H59.9795L58.9834 37.6252ZM54.3311 34.4495H57.999L56.1592 28.5315L54.3311 34.4495Z" fill="white"/>
<rect x="11.6826" y="51.8127" width="44" height="1" fill="white"/>
<rect x="11.6826" y="49.8127" width="1" height="5" rx="0.5" fill="white"/>
<rect x="22.6826" y="49.8127" width="1" height="5" rx="0.5" fill="white"/>
<rect x="33.6826" y="49.8127" width="1" height="5" rx="0.5" fill="white"/>
<rect x="44.6826" y="49.8127" width="1" height="5" rx="0.5" fill="white"/>
<circle cx="55.6826" cy="52.3127" r="4" fill="#495057" stroke="white"/>
</svg>
