<svg width="71" height="71" viewBox="0 0 71 71" fill="none" xmlns="http://www.w3.org/2000/svg">
<rect x="0.682617" y="0.812744" width="70" height="70" rx="4" fill="#8893D1"/>
<path d="M14.6826 21.6877C13.7165 21.6877 12.8096 21.5055 11.9619 21.1409C11.1051 20.7763 10.3577 20.2795 9.71973 19.6506C9.09082 19.0126 8.59408 18.2652 8.22949 17.4084C7.86491 16.5608 7.68262 15.6539 7.68262 14.6877C7.68262 13.7216 7.86491 12.8147 8.22949 11.967C8.59408 11.1103 9.09082 10.3674 9.71973 9.73853C10.3577 9.1005 11.1051 8.5992 11.9619 8.23462C12.8096 7.87004 13.7165 7.68774 14.6826 7.68774C15.6488 7.68774 16.5557 7.87004 17.4033 8.23462C18.2601 8.5992 19.0029 9.1005 19.6318 9.73853C20.2699 10.3674 20.7712 11.1103 21.1357 11.967C21.5003 12.8147 21.6826 13.7216 21.6826 14.6877C21.6826 15.6539 21.5003 16.5608 21.1357 17.4084C20.7712 18.2652 20.2699 19.0126 19.6318 19.6506C19.0029 20.2795 18.2601 20.7763 17.4033 21.1409C16.5557 21.5055 15.6488 21.6877 14.6826 21.6877ZM14.6826 8.84985C13.8805 8.84985 13.124 9.0048 12.4131 9.3147C11.7021 9.61548 11.0824 10.0302 10.5537 10.5588C10.0251 11.0875 9.61035 11.7073 9.30957 12.4182C8.99967 13.1292 8.84473 13.8857 8.84473 14.6877C8.84473 15.4898 8.99967 16.2463 9.30957 16.9573C9.61035 17.6682 10.0251 18.288 10.5537 18.8167C11.0824 19.3453 11.7021 19.76 12.4131 20.0608C13.124 20.3707 13.8805 20.5256 14.6826 20.5256C15.4847 20.5256 16.2412 20.3707 16.9521 20.0608C17.6631 19.76 18.2829 19.3453 18.8115 18.8167C19.3402 18.288 19.7549 17.6682 20.0557 16.9573C20.3656 16.2463 20.5205 15.4898 20.5205 14.6877C20.5205 13.8857 20.3656 13.1292 20.0557 12.4182C19.7549 11.7073 19.3402 11.0875 18.8115 10.5588C18.2829 10.0302 17.6631 9.61548 16.9521 9.3147C16.2412 9.0048 15.4847 8.84985 14.6826 8.84985Z" fill="white"/>
<path d="M35.6826 20.0334C35.5732 20.0334 35.473 20.0152 35.3818 19.9788C35.2907 19.9332 35.2132 19.8739 35.1494 19.801L31.6084 16.2463C31.5719 16.1825 31.54 16.1187 31.5127 16.0549C31.4945 15.982 31.4854 15.9045 31.4854 15.8225C31.4854 15.6129 31.5583 15.4351 31.7041 15.2893C31.859 15.1435 32.0413 15.0706 32.251 15.0706C32.3239 15.0706 32.3923 15.0797 32.4561 15.0979C32.5199 15.1161 32.5791 15.1389 32.6338 15.1663L35.6826 18.2151L38.7314 15.1663C38.7861 15.1389 38.8454 15.1161 38.9092 15.0979C38.973 15.0797 39.0413 15.0706 39.1143 15.0706C39.3239 15.0706 39.5016 15.1435 39.6475 15.2893C39.8024 15.4351 39.8799 15.6129 39.8799 15.8225C39.8799 15.9045 39.8662 15.982 39.8389 16.0549C39.8206 16.1187 39.7887 16.1825 39.7432 16.2463H39.7568L36.2158 19.7737C36.152 19.8466 36.0745 19.9058 35.9834 19.9514C35.8923 19.997 35.792 20.0243 35.6826 20.0334ZM35.6826 14.428C35.5732 14.428 35.473 14.4097 35.3818 14.3733C35.2907 14.3368 35.2132 14.2821 35.1494 14.2092L31.6084 10.6135C31.5902 10.568 31.5719 10.5178 31.5537 10.4631C31.5446 10.4084 31.54 10.3492 31.54 10.2854C31.54 10.0758 31.613 9.89803 31.7588 9.7522C31.9137 9.60636 32.096 9.53345 32.3057 9.53345C32.3604 9.53345 32.415 9.54256 32.4697 9.56079C32.5335 9.56991 32.5882 9.58358 32.6338 9.60181L35.6826 12.6506L38.7314 9.60181C38.777 9.57446 38.8271 9.55623 38.8818 9.54712C38.9456 9.538 39.0049 9.53345 39.0596 9.53345C39.2692 9.53345 39.4469 9.60636 39.5928 9.7522C39.7477 9.89803 39.8252 10.0758 39.8252 10.2854C39.8252 10.3492 39.8161 10.4084 39.7979 10.4631C39.7887 10.5178 39.7705 10.5725 39.7432 10.6272L39.7568 10.6135L36.1885 14.1819C36.1247 14.2548 36.0472 14.314 35.9561 14.3596C35.874 14.4052 35.7829 14.428 35.6826 14.428Z" fill="white"/>
<path d="M60.6611 21.3733C60.6064 21.3733 60.5563 21.3642 60.5107 21.3459C60.4652 21.3368 60.4242 21.3232 60.3877 21.3049L56.6826 19.3635L52.9775 21.3049C52.9411 21.3232 52.9001 21.3368 52.8545 21.3459C52.8089 21.3642 52.7588 21.3733 52.7041 21.3733C52.6403 21.3733 52.5811 21.3642 52.5264 21.3459C52.4717 21.3277 52.4215 21.3004 52.376 21.2639C52.3031 21.2092 52.2438 21.1409 52.1982 21.0588C52.1527 20.9859 52.1299 20.8993 52.1299 20.7991C52.1299 20.7808 52.1299 20.7626 52.1299 20.7444C52.139 20.7262 52.1436 20.7125 52.1436 20.7034L52.8682 16.5745L49.8467 13.6624C49.8011 13.6077 49.7601 13.5484 49.7236 13.4846C49.6963 13.4117 49.6826 13.3342 49.6826 13.2522C49.6826 13.2157 49.6826 13.1838 49.6826 13.1565C49.6917 13.12 49.7008 13.0881 49.71 13.0608C49.7464 12.9605 49.8057 12.8785 49.8877 12.8147C49.9697 12.7418 50.0654 12.6962 50.1748 12.678L54.3174 12.0764L56.1768 8.31665C56.2223 8.23462 56.2907 8.16626 56.3818 8.11157C56.473 8.05688 56.5732 8.02954 56.6826 8.02954C56.792 8.02954 56.8923 8.05688 56.9834 8.11157C57.0745 8.16626 57.1429 8.23462 57.1885 8.31665L59.0479 12.0764L63.1904 12.678C63.2998 12.6962 63.3955 12.7418 63.4775 12.8147C63.5596 12.8785 63.6188 12.9605 63.6553 13.0608C63.6644 13.0881 63.6689 13.12 63.6689 13.1565C63.6781 13.1838 63.6826 13.2157 63.6826 13.2522C63.6826 13.3342 63.6644 13.4117 63.6279 13.4846C63.6006 13.5484 63.5641 13.6077 63.5186 13.6624L60.4971 16.5745L61.208 20.7034C61.2171 20.7216 61.2217 20.7398 61.2217 20.7581C61.2217 20.7672 61.2217 20.7808 61.2217 20.7991C61.2217 20.8993 61.1989 20.9859 61.1533 21.0588C61.1169 21.1409 61.0622 21.2092 60.9893 21.2639C60.9437 21.3004 60.889 21.3277 60.8252 21.3459C60.7705 21.3642 60.7158 21.3733 60.6611 21.3733ZM56.6826 18.1467C56.7282 18.1467 56.7738 18.1513 56.8193 18.1604C56.8649 18.1695 56.9105 18.1832 56.9561 18.2014L59.8955 19.7327L59.335 16.4514C59.335 16.4423 59.3304 16.4286 59.3213 16.4104C59.3213 16.3922 59.3213 16.3739 59.3213 16.3557C59.3213 16.2737 59.335 16.2008 59.3623 16.137C59.3988 16.064 59.4443 16.0002 59.499 15.9456L61.8779 13.6487L58.583 13.1565C58.4919 13.1474 58.4098 13.1155 58.3369 13.0608C58.264 12.997 58.2048 12.9286 58.1592 12.8557V12.842L56.6826 9.86157L55.2061 12.8557C55.1696 12.9377 55.1104 13.0061 55.0283 13.0608C54.9554 13.1155 54.8734 13.1519 54.7822 13.1702L51.4873 13.6487L53.8662 15.9456C53.9209 16.0002 53.9619 16.064 53.9893 16.137C54.0257 16.2008 54.0439 16.2737 54.0439 16.3557C54.0439 16.3739 54.0394 16.3922 54.0303 16.4104C54.0303 16.4286 54.0303 16.4423 54.0303 16.4514L53.4697 19.76L56.4092 18.2288C56.4548 18.2014 56.4958 18.1832 56.5322 18.1741C56.5778 18.1558 56.6279 18.1467 56.6826 18.1467Z" fill="white"/>
<path d="M12.8506 40.1448C12.7412 40.1357 12.6364 40.1083 12.5361 40.0627C12.445 40.0172 12.363 39.9579 12.29 39.885C12.2171 39.8121 12.1579 39.7301 12.1123 39.6389C12.0758 39.5387 12.0576 39.4338 12.0576 39.3245C12.0576 39.2151 12.0758 39.1148 12.1123 39.0237C12.1579 38.9234 12.2171 38.8368 12.29 38.7639L15.4346 35.6194L12.29 32.4749C12.2718 32.4293 12.2581 32.3837 12.249 32.3381C12.2399 32.2834 12.2354 32.2288 12.2354 32.1741C12.2354 31.9644 12.3128 31.7821 12.4678 31.6272C12.6227 31.4722 12.805 31.3948 13.0146 31.3948C13.0876 31.3948 13.1559 31.4039 13.2197 31.4221C13.2835 31.4403 13.3473 31.4631 13.4111 31.4905H13.3975L17.0752 35.1682C17.1481 35.232 17.2028 35.314 17.2393 35.4143C17.2848 35.5055 17.3076 35.6057 17.3076 35.7151C17.3076 35.8245 17.2848 35.9293 17.2393 36.0295C17.2028 36.1207 17.1481 36.2027 17.0752 36.2756L13.3975 39.885C13.3337 39.9579 13.2516 40.0172 13.1514 40.0627C13.0602 40.1083 12.96 40.1357 12.8506 40.1448Z" fill="white"/>
<path d="M35.6826 41.0881C34.516 41.0881 33.5042 40.8284 32.6475 40.3088C31.7816 39.7893 31.0615 39.2151 30.4873 38.5862C29.9222 37.9573 29.4938 37.3694 29.2021 36.8225C28.9105 36.2756 28.7555 35.9794 28.7373 35.9338C28.7191 35.8974 28.7054 35.8609 28.6963 35.8245C28.6872 35.7789 28.6826 35.7333 28.6826 35.6877C28.6826 35.6422 28.6872 35.6012 28.6963 35.5647C28.7054 35.5191 28.7191 35.4781 28.7373 35.4417C28.7555 35.3961 28.9105 35.0999 29.2021 34.553C29.4938 34.0061 29.9222 33.4182 30.4873 32.7893C31.0615 32.1604 31.7816 31.5862 32.6475 31.0667C33.5042 30.5471 34.516 30.2874 35.6826 30.2874C36.8493 30.2874 37.861 30.5471 38.7178 31.0667C39.5837 31.5862 40.2992 32.1604 40.8643 32.7893C41.4385 33.4182 41.8714 34.0061 42.1631 34.553C42.4548 35.0999 42.6097 35.3961 42.6279 35.4417C42.6462 35.4781 42.6598 35.5191 42.6689 35.5647C42.6781 35.6012 42.6826 35.6422 42.6826 35.6877C42.6826 35.7333 42.6781 35.7789 42.6689 35.8245C42.6598 35.8609 42.6462 35.8974 42.6279 35.9338C42.6097 35.9794 42.4548 36.2756 42.1631 36.8225C41.8714 37.3694 41.4385 37.9573 40.8643 38.5862C40.2992 39.2151 39.5837 39.7893 38.7178 40.3088C37.861 40.8284 36.8493 41.0881 35.6826 41.0881ZM29.9404 35.6877C30.0589 35.9156 30.2686 36.262 30.5693 36.7268C30.8701 37.2008 31.2575 37.6702 31.7314 38.135C32.2145 38.5999 32.7842 39.01 33.4404 39.3655C34.0967 39.7118 34.8441 39.885 35.6826 39.885C36.5212 39.885 37.2686 39.7118 37.9248 39.3655C38.5811 39.01 39.1462 38.5999 39.6201 38.135C40.1032 37.6702 40.4951 37.2008 40.7959 36.7268C41.0967 36.262 41.3063 35.9156 41.4248 35.6877C41.3063 35.4599 41.0967 35.1135 40.7959 34.6487C40.4951 34.1747 40.1032 33.7053 39.6201 33.2405C39.1462 32.7756 38.5811 32.3655 37.9248 32.01C37.2686 31.6637 36.5212 31.4905 35.6826 31.4905C34.8441 31.4905 34.0967 31.6637 33.4404 32.01C32.7842 32.3655 32.2145 32.7756 31.7314 33.2405C31.2575 33.7053 30.8701 34.1747 30.5693 34.6487C30.2686 35.1135 30.0589 35.4599 29.9404 35.6877ZM35.6826 38.2854C34.9626 38.2854 34.3473 38.0347 33.8369 37.5334C33.3356 37.023 33.085 36.4078 33.085 35.6877C33.085 34.9677 33.3356 34.357 33.8369 33.8557C34.3473 33.3453 34.9626 33.0901 35.6826 33.0901C36.4027 33.0901 37.0133 33.3453 37.5146 33.8557C38.0251 34.357 38.2803 34.9677 38.2803 35.6877C38.2803 36.4078 38.0251 37.023 37.5146 37.5334C37.0133 38.0347 36.4027 38.2854 35.6826 38.2854ZM35.6826 34.2932C35.2998 34.2932 34.9717 34.4299 34.6982 34.7034C34.4248 34.9768 34.2881 35.3049 34.2881 35.6877C34.2881 36.0706 34.4248 36.3987 34.6982 36.6721C34.9717 36.9456 35.2998 37.0823 35.6826 37.0823C36.0654 37.0823 36.3936 36.9456 36.667 36.6721C36.9404 36.3987 37.0771 36.0706 37.0771 35.6877C37.0771 35.3049 36.9404 34.9768 36.667 34.7034C36.3936 34.4299 36.0654 34.2932 35.6826 34.2932Z" fill="white"/>
<path d="M58.5146 40.1311C58.4053 40.1311 58.3005 40.1129 58.2002 40.0764C58.109 40.0308 58.027 39.9716 57.9541 39.8987L54.3037 36.2483C54.2308 36.1754 54.1715 36.0933 54.126 36.0022C54.0895 35.9019 54.0713 35.7971 54.0713 35.6877C54.0713 35.5784 54.0895 35.4781 54.126 35.387C54.1715 35.2867 54.2308 35.2001 54.3037 35.1272L57.9541 31.5042C58.0179 31.4677 58.0863 31.4403 58.1592 31.4221C58.2321 31.3948 58.305 31.3811 58.3779 31.3811C58.5967 31.3811 58.7835 31.4586 58.9385 31.6135C59.0934 31.7685 59.1709 31.9508 59.1709 32.1604C59.1709 32.2333 59.1618 32.3062 59.1436 32.3792C59.1253 32.443 59.098 32.5022 59.0615 32.5569L55.9307 35.6877L59.0615 38.8186C59.1344 38.8915 59.1891 38.9781 59.2256 39.0784C59.2712 39.1695 59.2939 39.2698 59.2939 39.3792C59.2939 39.4885 59.2712 39.5933 59.2256 39.6936C59.1891 39.7847 59.1344 39.8622 59.0615 39.926C58.9977 39.9898 58.9202 40.04 58.8291 40.0764C58.738 40.1129 58.6423 40.1311 58.542 40.1311C58.542 40.1311 58.5374 40.1311 58.5283 40.1311C58.5192 40.1311 58.5146 40.1311 58.5146 40.1311Z" fill="white"/>
<path d="M14.6826 62.9084C14.6006 62.9084 14.5231 62.8902 14.4502 62.8538C14.3773 62.8264 14.3135 62.7854 14.2588 62.7307L8.83105 57.2756C8.47559 56.9202 8.19303 56.5009 7.9834 56.0178C7.78288 55.5347 7.68262 55.0198 7.68262 54.4729C7.68262 53.926 7.78288 53.4111 7.9834 52.928C8.19303 52.4449 8.47559 52.0256 8.83105 51.6702C9.18652 51.3056 9.60579 51.023 10.0889 50.8225C10.5719 50.6129 11.0869 50.5081 11.6338 50.5081C12.1807 50.5081 12.6956 50.6129 13.1787 50.8225C13.6618 51.023 14.0811 51.3056 14.4365 51.6702L14.6826 51.8752L14.9014 51.6565C15.266 51.2919 15.6852 51.0048 16.1592 50.7952C16.6423 50.5855 17.1618 50.4807 17.7178 50.4807C17.7269 50.4807 17.7314 50.4807 17.7314 50.4807C17.7314 50.4807 17.736 50.4807 17.7451 50.4807C18.292 50.4807 18.8024 50.5855 19.2764 50.7952C19.7594 51.0048 20.1787 51.2874 20.5342 51.6428C20.8896 52.0074 21.1676 52.4312 21.3682 52.9143C21.5778 53.3883 21.6826 53.8987 21.6826 54.4456C21.6826 54.9924 21.5778 55.5074 21.3682 55.9905C21.1676 56.4736 20.8896 56.8974 20.5342 57.262L15.1064 62.7034C15.0518 62.7581 14.988 62.8036 14.915 62.8401C14.8421 62.8765 14.7646 62.8993 14.6826 62.9084ZM11.6475 51.6702C11.6383 51.6702 11.6338 51.6702 11.6338 51.6702C11.6338 51.6702 11.6292 51.6702 11.6201 51.6702C11.2464 51.6702 10.891 51.7431 10.5537 51.8889C10.2165 52.0347 9.9248 52.2307 9.67871 52.4768C9.4235 52.732 9.22298 53.0282 9.07715 53.3655C8.94043 53.7027 8.87207 54.0627 8.87207 54.4456C8.87207 54.8284 8.94043 55.1884 9.07715 55.5256C9.22298 55.8629 9.4235 56.1591 9.67871 56.4143L14.6826 61.4456L19.6729 56.428C19.9281 56.1819 20.1286 55.8902 20.2744 55.553C20.4202 55.2066 20.4932 54.842 20.4932 54.4592C20.4932 54.0764 20.4202 53.7164 20.2744 53.3792C20.1286 53.0419 19.9281 52.7457 19.6729 52.4905C19.4268 52.2444 19.1396 52.053 18.8115 51.9163C18.4834 51.7704 18.1279 51.6975 17.7451 51.6975C17.7451 51.6975 17.7406 51.6975 17.7314 51.6975C17.7314 51.6975 17.7269 51.6975 17.7178 51.6975C17.7178 51.6975 17.7132 51.6975 17.7041 51.6975C17.3213 51.6975 16.9613 51.7704 16.624 51.9163C16.2959 52.053 16.0088 52.2444 15.7627 52.4905L15.1064 53.1467C15.0518 53.2014 14.988 53.2424 14.915 53.2698C14.8421 53.2971 14.7646 53.3108 14.6826 53.3108C14.6006 53.3108 14.5231 53.2971 14.4502 53.2698C14.3773 53.2424 14.3135 53.2014 14.2588 53.1467L13.6025 52.4905C13.3564 52.2444 13.0648 52.0484 12.7275 51.9026C12.3903 51.7476 12.0303 51.6702 11.6475 51.6702Z" fill="white"/>
<path d="M39.1963 56.4417C39.1963 56.4417 39.1917 56.4417 39.1826 56.4417C39.0824 56.4417 38.9867 56.4234 38.8955 56.387C38.8044 56.3414 38.7269 56.2867 38.6631 56.2229L35.6553 53.2014L32.6475 56.2229C32.5928 56.2411 32.5381 56.2594 32.4834 56.2776C32.4287 56.2867 32.374 56.2913 32.3193 56.2913C32.1097 56.2913 31.932 56.2183 31.7861 56.0725C31.6403 55.9267 31.5674 55.7489 31.5674 55.5393C31.5674 55.4664 31.5765 55.398 31.5947 55.3342C31.613 55.2704 31.6403 55.2112 31.6768 55.1565L35.1494 51.6702C35.2223 51.6064 35.3044 51.5562 35.3955 51.5198C35.4867 51.4742 35.5824 51.4514 35.6826 51.4514C35.7829 51.4514 35.8786 51.4742 35.9697 51.5198C36.0609 51.5562 36.1429 51.6064 36.2158 51.6702L39.7295 55.1838C39.7933 55.2476 39.8434 55.3251 39.8799 55.4163C39.9255 55.5074 39.9482 55.6077 39.9482 55.717C39.9482 55.8173 39.9255 55.913 39.8799 56.0042C39.8434 56.0953 39.7933 56.1773 39.7295 56.2502C39.6566 56.3049 39.5791 56.3505 39.4971 56.387C39.415 56.4234 39.3239 56.4417 39.2236 56.4417C39.2236 56.4417 39.2191 56.4417 39.21 56.4417C39.2008 56.4417 39.1963 56.4417 39.1963 56.4417ZM39.1963 61.9514C39.096 61.9423 39.0003 61.9195 38.9092 61.8831C38.8271 61.8375 38.7542 61.7782 38.6904 61.7053L35.6826 58.6975L32.6748 61.7053C32.6292 61.7236 32.5791 61.7418 32.5244 61.76C32.4697 61.7691 32.4105 61.7737 32.3467 61.7737C32.137 61.7737 31.9593 61.7008 31.8135 61.5549C31.6676 61.4091 31.5947 61.2314 31.5947 61.0217C31.5947 60.967 31.5993 60.9124 31.6084 60.8577C31.6266 60.803 31.6494 60.7483 31.6768 60.6936L35.1768 57.1936C35.2497 57.1207 35.3317 57.066 35.4229 57.0295C35.514 56.9931 35.6097 56.9749 35.71 56.9749C35.8193 56.9749 35.9196 56.9931 36.0107 57.0295C36.1019 57.066 36.1794 57.1207 36.2432 57.1936L39.6885 60.6936C39.7523 60.7665 39.7979 60.8486 39.8252 60.9397C39.8617 61.0217 39.8799 61.1083 39.8799 61.1995C39.8799 61.2997 39.8617 61.3954 39.8252 61.4866C39.7979 61.5686 39.7523 61.6415 39.6885 61.7053C39.6338 61.7782 39.5609 61.8375 39.4697 61.8831C39.3877 61.9195 39.2965 61.9423 39.1963 61.9514Z" fill="white"/>
<path d="M56.751 63.6741C56.596 63.6741 56.4411 63.6695 56.2861 63.6604C56.1403 63.6513 55.9899 63.6331 55.835 63.6057L55.876 63.6194C55.0739 63.51 54.3265 63.2776 53.6338 62.9221C52.932 62.5758 52.3122 62.1337 51.7744 61.5959C51.2367 61.0582 50.7946 60.443 50.4482 59.7502C50.0928 59.0575 49.8649 58.3193 49.7646 57.5354L49.751 57.4944C49.7327 57.3577 49.7191 57.2118 49.71 57.0569C49.7008 56.8928 49.6963 56.7288 49.6963 56.5647C49.6963 55.7262 49.833 54.9286 50.1064 54.1721C50.389 53.4156 50.7764 52.7366 51.2686 52.135C51.7607 51.5243 52.3441 51.0094 53.0186 50.5901C53.693 50.1708 54.4268 49.8746 55.2197 49.7014H55.2607C55.2972 49.6923 55.3337 49.6877 55.3701 49.6877C55.4066 49.6786 55.443 49.6741 55.4795 49.6741C55.6436 49.6741 55.7939 49.7105 55.9307 49.7834C56.0765 49.8564 56.195 49.9566 56.2861 50.0842C56.3499 50.1663 56.3955 50.2574 56.4229 50.3577C56.4593 50.4579 56.4775 50.5627 56.4775 50.6721C56.4775 50.7724 56.4639 50.8681 56.4365 50.9592C56.4092 51.0504 56.3727 51.137 56.3271 51.219C56.1449 51.5198 56.0036 51.8525 55.9033 52.217C55.8031 52.5816 55.7529 52.9644 55.7529 53.3655C55.7529 53.4749 55.7529 53.5888 55.7529 53.7073C55.762 53.8167 55.7757 53.926 55.7939 54.0354V54.0081C55.8669 54.4638 56.0081 54.8922 56.2178 55.2932C56.4183 55.6851 56.6735 56.0361 56.9834 56.3459C57.2933 56.6558 57.6442 56.9156 58.0361 57.1252C58.4281 57.3258 58.8519 57.4625 59.3076 57.5354L59.3213 57.5491C59.4215 57.5582 59.5264 57.5673 59.6357 57.5764C59.7542 57.5855 59.8682 57.5901 59.9775 57.5901C60.3786 57.5901 60.7614 57.54 61.126 57.4397C61.4906 57.3303 61.8324 57.1799 62.1514 56.9885L62.124 57.0022C62.1969 56.9566 62.279 56.9247 62.3701 56.9065C62.4613 56.8792 62.5524 56.8655 62.6436 56.8655C62.762 56.8655 62.8714 56.8837 62.9717 56.9202C63.0811 56.9475 63.1768 56.9931 63.2588 57.0569C63.3773 57.148 63.473 57.262 63.5459 57.3987C63.6279 57.5354 63.6689 57.6858 63.6689 57.8499C63.6689 57.8954 63.6644 57.9364 63.6553 57.9729C63.6553 58.0094 63.6507 58.0458 63.6416 58.0823V58.0686C63.4684 58.8798 63.1722 59.6272 62.7529 60.3108C62.3337 60.9944 61.8187 61.5868 61.208 62.0881C60.6064 62.5803 59.9274 62.9677 59.1709 63.2502C58.4144 63.5328 57.6123 63.6741 56.7646 63.6741C56.7646 63.6741 56.7601 63.6741 56.751 63.6741ZM55.0693 51.0413C54.4587 51.2236 53.8981 51.497 53.3877 51.8616C52.8682 52.217 52.4215 52.6409 52.0479 53.1331C51.6833 53.6252 51.3962 54.1676 51.1865 54.76C50.9769 55.3616 50.8721 55.9905 50.8721 56.6467C50.8721 57.4579 51.027 58.219 51.3369 58.9299C51.6377 59.6409 52.0524 60.2607 52.5811 60.7893C53.1097 61.318 53.7295 61.7327 54.4404 62.0334C55.1514 62.3433 55.9124 62.4983 56.7236 62.4983C57.3799 62.4983 58.0088 62.3935 58.6104 62.1838C59.2028 61.9742 59.7451 61.6871 60.2373 61.3225C60.7295 60.9488 61.1533 60.5113 61.5088 60.01C61.8643 59.4996 62.1331 58.9436 62.3154 58.342L62.3291 58.301C61.9827 58.4742 61.6045 58.6109 61.1943 58.7112C60.7933 58.8023 60.3786 58.8479 59.9502 58.8479C59.2757 58.8479 58.6331 58.734 58.0225 58.5061C57.4209 58.2691 56.8831 57.9501 56.4092 57.5491C55.9352 57.1389 55.5387 56.6558 55.2197 56.0999C54.9007 55.5439 54.6865 54.9423 54.5771 54.2952V54.2678C54.5589 54.1402 54.5407 54.0081 54.5225 53.8713C54.5133 53.7255 54.5088 53.5797 54.5088 53.4338C54.5088 53.0055 54.5589 52.5862 54.6592 52.176C54.7594 51.7659 54.9007 51.3785 55.083 51.0139L55.0693 51.0413Z" fill="white"/>
</svg>
