<svg width="80" height="80" viewBox="0 0 80 80" fill="none" xmlns="http://www.w3.org/2000/svg">
<g opacity="0.2" clip-path="url(#clip0_588_123179)">
<path d="M30.8719 29.7397L37.9015 32.7295C30.5482 35.7193 23.3574 39.2741 16.569 43.3164C14.3192 42.1039 11.8818 40.9728 9.53948 39.9228C16.4078 36.0443 23.5186 32.5695 30.8719 29.7422M22.0662 26.6549C14.418 29.0676 7.02875 32.2351 0.00756836 36.1106C2.18868 36.918 4.45229 37.808 6.63216 38.6979C13.4192 34.7382 20.6113 31.3446 28.0433 28.6785C26.1034 27.9511 24.0836 27.3036 22.0637 26.6587" fill="black" fill-opacity="0.5"/>
<path d="M46.9521 29.4849C40.8925 26.5763 34.6704 24.1515 28.2058 22.1316C25.9559 22.7778 23.681 23.5065 21.4987 24.2315C28.1233 26.1713 34.5891 28.6762 40.81 31.6647C42.7499 30.9373 44.8497 30.1298 46.9508 29.4836M56.729 26.4838C50.5881 23.8177 44.2048 21.5554 37.6589 19.7767C35.5924 20.175 33.5436 20.6604 31.5181 21.2316C37.9827 23.0903 44.2848 25.5139 50.3456 28.3562C52.4455 27.71 54.6279 27.0638 56.729 26.4976M72.5655 31.8147C57.0515 36.9994 42.5899 44.434 29.4982 53.8071C32.7305 55.827 35.9628 57.9281 39.1138 60.1905C51.4768 50.4136 65.2135 42.1703 80 36.0295C77.4952 34.4946 75.0716 33.1209 72.5668 31.8272M61.9012 26.7376C45.8209 31.0198 30.7106 37.8869 17.054 46.9388C20.125 48.4737 23.1136 50.0886 26.1034 51.7885C39.4376 42.5766 54.3041 35.3833 70.1419 30.6148C67.4261 29.256 64.678 27.9628 61.8999 26.7363" fill="black"/>
</g>
<defs>
<clipPath id="clip0_588_123179">
<rect width="80" height="80" fill="white"/>
</clipPath>
</defs>
</svg>
