<svg width="80" height="80" viewBox="0 0 80 80" fill="none" xmlns="http://www.w3.org/2000/svg">
<g opacity="0.2" clip-path="url(#clip0_588_123171)">
<path d="M56.3366 27.5825C55.6878 26.222 53.6597 22.235 51.9402 19.1173C49.5846 14.8469 45.3772 7.81775 44.8985 7.1753C44.4261 6.53915 44.1616 6.51396 43.727 6.46987H43.664C43.0278 6.39429 40.3321 6.36279 38.7134 6.36279C37.3214 6.36279 34.3737 6.40058 33.6871 6.46987C33.0384 6.53285 32.862 6.7344 32.4967 7.21309C31.9865 7.87443 27.7099 15.1051 25.4865 19.1236C23.8741 22.0272 21.3232 27.0471 21.0901 27.5888C20.876 28.0737 20.7752 28.458 20.7752 28.7981C20.7752 29.1571 20.876 29.5413 21.0901 30.0074C21.6255 31.1663 23.2379 34.3786 25.4865 38.4726C27.8358 42.743 32.0747 49.7973 32.5219 50.4146C33.0006 51.0633 33.3092 51.0885 33.7375 51.1326C34.3926 51.1893 37.208 51.2334 38.7134 51.2334C40.3384 51.2334 43.2798 51.1704 43.6892 51.1326C44.0923 51.0948 44.4387 51.0633 44.9048 50.4146C45.3331 49.8225 49.8932 42.2202 51.9465 38.4726C53.9117 34.8824 56.0909 30.5743 56.3429 30.0074C56.62 29.3901 56.6578 29.0626 56.6578 28.7981C56.6578 28.5902 56.62 28.1619 56.3429 27.5888L56.3366 27.5825ZM44.8355 30.1019C42.4484 35.2288 36.005 47.1267 34.6697 49.4005C34.5815 49.5454 34.5122 49.6587 34.4619 49.7406C34.2603 50.0429 34.0902 50.2193 33.9454 50.213C33.9454 50.213 36.3262 45.8481 38.1906 41.1809C36.0995 37.32 34.2981 33.7487 32.566 30.0767C32.2574 29.4216 32.1062 29.1004 32.1125 28.7792C32.1125 28.458 32.27 28.1367 32.5723 27.4817C35.0728 22.1028 41.2013 10.5576 42.9774 7.80515C43.1853 7.48393 43.2924 7.36426 43.4435 7.36426H43.4561C43.4561 7.36426 40.9808 11.9937 39.2172 16.3963C41.3083 20.2573 43.116 23.8349 44.8481 27.5069C45.1567 28.1619 45.3016 28.4706 45.3016 28.7918C45.3016 29.113 45.1441 29.4405 44.8355 30.1019Z" fill="black"/>
<path d="M80.0001 63.6225V65.4491H76.1958V73.486H73.6323V65.4491H69.828V63.6225H80.0001Z" fill="black"/>
<path d="M70.9176 71.6594V73.486H62.7674V63.6225H65.3308V71.6594H70.9176Z" fill="black"/>
<path d="M21.531 71.6594V73.486H12.9651V63.6225H21.3736V65.4491H15.5348V67.6158H20.8697V69.3857H15.5348V71.6594H21.531Z" fill="black"/>
<path d="M8.37344 69.8265C9.46938 69.2282 10.1496 68.0567 10.1496 66.8285C10.1496 65.8018 9.85359 65.0082 9.22374 64.4854C8.49311 63.8808 7.49795 63.6288 5.80995 63.6288H-0.072857L-0.179932 64.2209C-0.179932 64.2209 -0.072857 64.3972 0.0468146 64.6114C0.229471 64.9263 0.216874 65.0208 0.216874 65.2286V73.4923H2.78667V70.3367H5.97371L7.68061 73.4923H10.5086L8.37974 69.8265H8.37344ZM7.07595 68.2267C6.8807 68.422 6.64765 68.5102 6.28234 68.5102H2.78037V65.5058H5.54541C6.37052 65.5058 6.80511 65.6003 7.10114 65.8396C7.39087 66.0726 7.52944 66.4254 7.52944 66.9481C7.52944 67.4709 7.38458 67.9244 7.06965 68.2267H7.07595Z" fill="black"/>
<path d="M32.2763 63.6225V70.1667C31.6779 69.4108 31.0481 68.6865 29.9899 67.5213C29.127 66.5702 27.3257 64.624 26.3998 63.6288H23.9245L23.8174 64.2209C23.8174 64.2209 23.9245 64.3972 24.0441 64.6114C24.1827 64.8444 24.2079 64.9578 24.2142 65.0838V73.486L26.5194 73.4797V66.9481C26.9792 67.5654 27.798 68.5039 28.346 69.0959C29.4357 70.2737 31.0796 72.1066 32.3582 73.486H34.5752V63.6225H32.2763Z" fill="black"/>
<path d="M57.3947 63.6225V69.6565C57.3947 70.3304 57.2625 70.7272 56.9349 71.0359C56.5192 71.4201 55.8327 71.609 54.8438 71.609C53.855 71.609 53.1369 71.4264 52.7212 71.0359C52.3937 70.7272 52.2614 70.3241 52.2614 69.6565V63.6225H49.4082L49.3011 64.2146C49.3011 64.2146 49.4082 64.3909 49.5279 64.6051C49.6602 64.8318 49.6854 64.9389 49.6917 65.0649V69.7447C49.6917 72.3208 51.4426 73.6371 54.806 73.6371H54.8753C58.245 73.6371 59.9015 72.3585 59.9015 69.7447V63.6225H57.3947Z" fill="black"/>
<path d="M40.773 63.6225C39.803 65.6317 38.1087 69.3353 36.5278 73.486H39.1039C39.3054 72.9254 39.5259 72.3522 39.7463 71.7791H45.0119C45.2323 72.3522 45.4528 72.9254 45.6543 73.486H48.2304C46.6432 69.3353 44.9552 65.6317 43.9852 63.6225H40.773ZM40.4769 69.921C41.1509 68.2393 41.8248 66.6521 42.3728 65.4176C42.9208 66.6521 43.5947 68.2393 44.2686 69.921H40.4769Z" fill="black"/>
</g>
<defs>
<clipPath id="clip0_588_123171">
<rect width="80" height="80" fill="white"/>
</clipPath>
</defs>
</svg>
