<svg width="80" height="80" viewBox="0 0 80 80" fill="none" xmlns="http://www.w3.org/2000/svg">
<g opacity="0.2">
<path d="M11.4449 31.876C11.272 32.1875 11.0933 32.4977 10.9261 32.8121C9.62689 35.2533 8.60639 37.786 8.51921 40.596C8.39343 44.6365 11.0576 47.5322 15.0839 47.8867C18.0625 48.1497 20.8981 47.5051 23.7367 46.7576C30.9902 44.8466 38.2495 42.9528 45.506 41.0505C45.6803 41.0047 45.849 40.9418 46.0219 40.7732C45.4259 40.7732 44.8285 40.7732 44.2325 40.7732C42.9618 40.7732 41.6912 40.7618 40.4206 40.7789C40.0104 40.7846 39.8632 40.6474 39.8303 40.2272C39.6645 38.1348 39.4687 36.0452 39.2772 33.9556C39.2543 33.7083 39.1971 33.4653 39.12 33.0079C38.4854 34.8088 37.9194 36.4096 37.3562 38.0104C37.0818 38.7922 36.8245 39.5797 36.5244 40.3516C36.4558 40.5259 36.2471 40.766 36.097 40.7703C34.6949 40.8018 33.2928 40.7889 31.7964 40.7889C32.4252 39.0381 33.0184 37.3729 33.6187 35.7121C35.3781 30.8426 37.149 25.9788 38.8856 21.1021C39.0899 20.529 39.3586 20.3117 39.9704 20.3346C41.1895 20.3817 42.4116 20.3489 43.768 20.3489C43.1248 22.1212 42.5202 23.7877 41.917 25.4542C41.9528 25.4757 41.9885 25.4985 42.0228 25.52C42.8947 24.4952 43.7665 23.4718 44.637 22.447C44.8613 22.1826 45.1272 21.9439 45.303 21.6509C46.8052 20.0216 46.2234 20.2931 48.143 20.3189C52.0892 20.4018 56.0368 20.3489 59.9845 20.3517C60.2775 20.3517 60.5705 20.3832 60.9664 20.406C60.5505 21.5881 60.1817 22.6943 59.753 23.7777C59.6958 23.9249 59.3399 24.0207 59.1212 24.025C57.8277 24.0478 56.5342 24.025 55.2407 24.0464C55.0178 24.0507 54.6533 24.1336 54.5961 24.2779C54.0759 25.5729 53.6099 26.8892 53.0897 28.3028C54.5275 28.3028 55.8539 28.3028 57.3475 28.3028C56.8858 29.5748 56.4799 30.7325 56.0311 31.8731C55.9854 31.9874 55.6795 32.0475 55.4937 32.0503C54.4089 32.0661 53.3212 32.0389 52.2378 32.0746C52.012 32.0818 51.659 32.239 51.5932 32.4134C51.0644 33.8298 50.5913 35.2676 50.0768 36.7712C51.8705 36.7712 53.5742 36.7712 55.3737 36.7712C55.175 37.3958 54.9978 37.9475 54.7877 38.6078C63.2389 36.391 71.5916 34.1985 79.9443 32.0075C79.9629 32.0589 79.9815 32.1104 80 32.1604C79.344 32.4448 78.6923 32.7378 78.0334 33.0137C58.9869 40.9919 39.9475 48.9744 20.9024 56.9454C17.8552 58.2203 14.7165 59.2194 11.4192 59.5853C9.55829 59.7911 7.6888 59.7968 5.86362 59.2423C2.14179 58.1146 -0.0278508 55.1574 0.0521885 51.2841C0.122223 47.9296 1.39571 44.9638 3.06653 42.1367C4.93316 38.9795 7.32433 36.2267 9.76267 33.5111C10.2801 32.9351 10.806 32.3691 11.3292 31.7988C11.3663 31.8245 11.4063 31.8502 11.4449 31.876ZM44.1924 39.6584C44.2468 39.6727 44.3011 39.6869 44.354 39.7012C46.6251 33.4081 48.8976 27.1136 51.1687 20.8205C50.9958 20.862 50.9129 20.9406 50.8414 21.0292C48.466 23.9392 46.0791 26.8392 43.7322 29.7721C43.4764 30.0922 43.2949 30.6025 43.3306 31.0027C43.5821 33.8912 43.898 36.7741 44.1924 39.6584Z" fill="black"/>
<path d="M30.5772 20.3474C29.4209 23.5347 28.3275 26.5362 27.2427 29.542C25.9706 33.0694 24.6986 36.5969 23.448 40.1329C23.2679 40.6417 23.0292 40.8447 22.4618 40.8232C21.1726 40.7718 19.8805 40.8075 18.5113 40.8075C18.5113 37.9175 18.5113 35.0733 18.5113 32.229C18.4598 32.2204 18.4083 32.2104 18.3569 32.2018C17.8452 33.6168 17.3321 35.0304 16.8204 36.4454C16.3602 37.7217 15.92 39.0066 15.4283 40.2701C15.3426 40.4916 15.0467 40.7746 14.8395 40.7818C13.5274 40.8289 12.2124 40.8061 10.7903 40.8061C10.8875 40.4573 10.9475 40.1758 11.0433 39.9099C13.313 33.6368 15.5955 27.368 17.8452 21.0864C18.0553 20.5004 18.3412 20.3131 18.94 20.336C20.0935 20.3803 21.2497 20.3632 22.4032 20.3432C22.902 20.3346 23.0892 20.4961 23.0821 21.0206C23.0549 23.1217 23.0706 25.2241 23.0706 27.3252C23.0706 27.5438 23.0706 27.7625 23.0706 27.9812C23.1192 27.9912 23.1664 28.0012 23.215 28.0126C23.5309 27.1636 23.851 26.3147 24.1626 25.4642C24.71 23.9749 25.2832 22.4942 25.7848 20.9892C25.9592 20.4675 26.2222 20.3274 26.731 20.3389C27.973 20.3675 29.2151 20.3474 30.5772 20.3474Z" fill="black"/>
<path d="M37.1833 20.3474C36.8102 21.4122 36.5015 22.3213 36.1771 23.2231C34.1504 28.8459 32.1137 34.4644 30.1012 40.0914C29.9111 40.6217 29.6725 40.8489 29.075 40.8232C27.833 40.7689 26.5881 40.8075 25.2417 40.8075C25.3203 40.5259 25.3661 40.3144 25.4389 40.1114C27.7415 33.7354 30.0526 27.3609 32.3409 20.9792C32.5081 20.5118 32.7254 20.326 33.2242 20.3374C34.4877 20.3675 35.7526 20.3474 37.1833 20.3474Z" fill="black"/>
</g>
</svg>
