<svg width="80" height="80" viewBox="0 0 80 80" fill="none" xmlns="http://www.w3.org/2000/svg">
<g opacity="0.2">
<path d="M52.4441 9.07807C52.6086 9.32337 52.9792 9.61148 53.2238 9.73413C53.9231 10.1045 54.5414 10.2269 55.1958 10.2269C56.2232 10.2269 56.8388 9.77429 56.8388 9.11871C56.8388 8.33591 56.0565 8.21326 54.8673 8.0519C53.3491 7.84579 52.5275 7.14644 52.5275 5.91561C52.5665 4.68309 53.7197 3.73603 55.4017 3.73603C56.549 3.73603 57.3318 3.98398 57.8249 4.22928V5.83216C57.6604 5.54501 57.2898 5.33891 56.9225 5.1761C56.4264 5.01016 55.9339 4.92815 55.4017 4.92815C54.5801 4.92815 54.0869 5.2569 54.0869 5.67031C54.0869 6.36533 54.7444 6.44878 56.1818 6.73713C57.6188 7.02379 58.4819 7.64114 58.4403 8.91237C58.3987 10.39 57.2482 11.3769 55.1958 11.3769C54.2903 11.3769 53.143 11.2115 52.4441 10.8435V9.07807Z" fill="black"/>
<path d="M26.9407 6.12027C26.9407 6.85978 26.3253 7.14644 25.3811 7.14644H23.657V5.0508H25.3811C26.3253 5.0508 26.9407 5.33891 26.9407 6.12027ZM28.0073 9.40538C27.6396 8.70796 27.3527 8.17454 26.8181 7.9266C27.9683 7.6813 28.5421 7.02403 28.5421 6.03826C28.5421 5.09409 28.1299 4.35578 27.3529 4.06767C26.8601 3.86157 26.2414 3.86157 25.2974 3.86157H21.5207C21.8911 4.10687 22.0946 4.84614 22.0946 5.50485V9.65188C22.0946 10.2673 21.8909 11.0484 21.5207 11.2548H24.2277C23.8602 11.0484 23.657 10.2673 23.657 9.65188V8.33568H24.8044C25.3811 8.33568 25.7094 8.54177 25.9547 8.99582C26.364 9.65188 26.654 10.5554 27.1468 11.2548H29.3218C28.6674 10.8034 28.336 10.1042 28.0073 9.40538Z" fill="black"/>
<path d="M33.7586 11.4594C34.7834 11.4594 35.6496 11.1708 36.3042 10.5946C37.0868 9.93999 37.6185 8.95253 37.6185 7.5572C37.6185 6.20372 37.0868 5.1761 36.3042 4.51739C35.6496 3.98398 34.7834 3.69587 33.7586 3.69587C32.7308 3.69587 31.8701 3.98398 31.2101 4.51739C30.4331 5.1761 29.8983 6.20372 29.8983 7.5572C29.8983 8.95253 30.4331 9.93999 31.2101 10.5946C31.8701 11.1708 32.7726 11.4594 33.7586 11.4594ZM32.1988 9.52923C31.7479 9.11847 31.5418 8.46241 31.5418 7.5572C31.5418 6.69384 31.7479 6.03826 32.1988 5.58686C32.5665 5.21626 33.1014 4.97144 33.7586 4.97144C34.4157 4.97144 34.9505 5.21626 35.3182 5.58686C35.7723 6.03802 36.0171 6.69384 36.0171 7.5572C36.0171 8.46265 35.772 9.11847 35.3182 9.52923C34.9503 9.89959 34.4157 10.1447 33.7586 10.1447C33.1014 10.1447 32.5665 9.89959 32.1988 9.52923Z" fill="black"/>
<path d="M44.4369 9.36329C44.0245 9.89935 43.164 10.0626 42.2198 10.0626H40.7824V5.50485C40.7824 4.88799 40.9861 4.10663 41.3146 3.86157H38.6466C39.0138 4.10687 39.2228 4.88823 39.2228 5.50485V9.65188C39.2228 10.3104 39.0138 11.0068 38.6466 11.2548H44.1887L44.4369 9.36329Z" fill="black"/>
<path d="M51.1293 9.36329C50.7174 9.89935 49.8566 10.1042 48.9125 10.0626H47.4337V5.50485C47.4337 4.88799 47.6371 4.10663 48.0099 3.86157H45.3393C45.7067 4.10687 45.9155 4.88823 45.9155 5.50485V9.65188C45.9155 10.3104 45.7067 11.0484 45.3393 11.2935H50.84L51.1293 9.36329Z" fill="black"/>
<path fill-rule="evenodd" clip-rule="evenodd" d="M21.3146 0C18.6435 0 16.4683 2.17645 16.4683 4.84614V75.1541C16.4683 77.8247 18.6437 80 21.3146 80H58.6464C61.3565 80 63.5315 77.8247 63.5315 75.1541V4.84614C63.5315 2.17645 61.3565 0 58.6464 0H21.3146ZM18.4795 4.84615V13.1417H61.5205V4.84615C61.5205 3.28656 60.2476 2.01388 58.6464 2.01388H21.3147C19.7548 2.01388 18.4795 3.28656 18.4795 4.84615ZM61.5179 15.1553H18.4795V64.849H61.5179V15.1553ZM18.4795 75.1538V66.8597H61.5205V75.1538C61.5205 76.7189 60.2476 77.989 58.6464 77.989H21.3147C19.7548 77.989 18.4795 76.7189 18.4795 75.1538Z" fill="black"/>
<path d="M36.9197 56.9222V45.874C37.9865 45.8348 39.0141 45.7929 40.042 45.7093C39.6714 44.8459 39.301 43.9854 38.8498 43.1639C38.2342 43.2445 37.58 43.2445 36.9197 43.2865V40.9886C35.4822 41.3169 33.9229 41.5622 32.3215 41.7267V56.9222C32.3215 60.2866 30.759 61.1918 29.8151 61.8075H39.4237C38.5242 61.1918 36.9197 60.2866 36.9197 56.9222Z" fill="black"/>
<path d="M59.2618 61.7686C58.4821 61.0276 57.4932 59.8776 57.0033 57.6215C56.1005 53.4716 54.2095 47.5168 50.227 43.0802C54.129 40.9468 56.5101 37.5768 56.5101 33.4326C56.549 30.4734 55.0311 27.354 52.3212 25.506C51.1712 24.7636 49.8172 24.2302 48.2134 23.9015C48.7896 25.1342 49.1575 26.4488 49.2407 27.7647C50.923 29.0766 51.8284 31.0903 51.8284 33.513C51.8284 36.5934 50.2686 40.2058 44.8073 42.055C45.2553 42.9157 45.7065 43.8209 46.0771 44.6816C46.3666 44.6011 46.6533 44.5198 46.9431 44.4363C49.4887 47.3941 51.5386 52.0344 52.1541 56.3457C52.6084 59.4678 51.4997 61.0276 50.7619 61.7686H59.2618Z" fill="black"/>
<path d="M28.5837 38.318V21.0707H35.1121C37.4959 21.1111 39.262 21.6041 40.6576 22.5872C42.5039 23.9015 43.4928 25.9964 43.4928 28.5028C43.4928 32.7306 40.5739 38.1116 28.5837 38.318ZM49.6924 56.7971C48.8704 56.059 47.8877 54.9083 47.4335 52.6501C46.5309 48.503 44.7231 42.6709 41.1112 38.521C41.2728 38.4404 41.3981 38.3983 41.5595 38.3177C45.6678 36.2228 48.1742 32.7306 48.1742 28.4598C48.2134 25.4628 46.6928 22.3825 43.9853 20.5344C41.849 19.0974 38.9751 18.5236 35.3182 18.5236H21.4789C22.4231 19.139 23.9829 20.0416 23.9829 23.4087V51.912C23.9829 55.3181 22.4231 56.1817 21.4789 56.7971H31.0877C30.1852 56.1814 28.5837 55.3181 28.5837 51.912V40.8633C31.9511 40.8633 35.1121 40.4514 37.7804 39.7549C40.2062 42.6711 42.0137 47.1885 42.5876 51.3355C42.9969 54.4605 41.9303 56.0593 41.192 56.7973H49.6924V56.7971Z" fill="black"/>
<path d="M36.9197 35.8556V26.1217H42.0946C41.7273 25.0522 41.0669 24.1901 40.1673 23.5314H29.8148C30.759 24.148 32.3212 25.0116 32.3212 28.4191V37.003C34.0455 36.7579 35.6049 36.3904 36.9197 35.8556Z" fill="black"/>
<path d="M46.325 72.4466C46.325 73.8393 47.1468 74.9088 48.584 74.9088C49.6113 74.9088 50.5555 74.6218 50.9653 74.1291L50.7174 75.7332C50.3497 75.8948 49.6924 76.1009 48.6258 76.1009C46.3253 76.1009 44.7234 74.7443 44.7234 72.4466C44.7234 71.2158 45.2166 70.2687 45.9547 69.6533C46.6119 69.0768 47.5143 68.7481 48.6256 68.7481C49.6924 68.7481 50.3494 68.9539 50.7171 69.16V70.6809C50.2686 70.1881 49.6111 69.9402 48.5837 69.9402C47.1468 69.9402 46.325 71.0097 46.325 72.4466Z" fill="black"/>
<path d="M26.6928 71.0486C26.6928 71.7475 26.1192 72.0344 25.2166 72.0344H23.5736V70.0655H25.2166C26.1192 70.0655 26.6928 70.3103 26.6928 71.0486ZM27.7206 74.1707C27.3919 73.5134 27.1047 72.9786 26.612 72.7754C27.6814 72.5693 28.2134 71.9118 28.2552 71.0097C28.2552 70.0655 27.8454 69.3661 27.1047 69.0766C26.6538 68.9123 26.0379 68.9123 25.1329 68.9123H21.5599C21.8911 69.1184 22.0948 69.8176 22.0948 70.4717V74.4184C22.0948 74.992 21.8911 75.7329 21.5599 75.978H24.1056C23.7797 75.7327 23.5736 74.9917 23.5736 74.4184V73.1428H24.6404C25.2166 73.1428 25.5425 73.3881 25.7933 73.7998C26.1608 74.4182 26.4479 75.2762 26.8989 75.9359L28.9959 75.978C28.336 75.4881 28.0518 74.8669 27.7206 74.1707Z" fill="black"/>
<path d="M33.1848 76.1427C34.168 76.1427 34.9895 75.8558 35.6049 75.3207C36.343 74.7053 36.8807 73.7585 36.8807 72.4466C36.8807 71.1323 36.3432 70.1881 35.6049 69.5278C34.9895 69.0374 34.168 68.7481 33.1848 68.7481C32.2378 68.7481 31.4162 69.0374 30.8008 69.5278C30.0625 70.1881 29.5277 71.1323 29.5277 72.4466C29.5277 73.7585 30.0625 74.7055 30.8008 75.3207C31.4165 75.8558 32.238 76.1427 33.1848 76.1427ZM31.7032 74.296C31.2938 73.9225 31.0877 73.3071 31.0877 72.4466C31.0877 71.5832 31.2938 70.9705 31.7032 70.5556C32.0738 70.1884 32.5665 69.982 33.224 69.982C33.8394 69.982 34.3322 70.1881 34.7028 70.5556C35.1121 70.9707 35.3185 71.5832 35.3185 72.4466C35.3185 73.3071 35.1124 73.9227 34.7028 74.296C34.3322 74.6635 33.8394 74.9088 33.224 74.9088C32.5665 74.9088 32.0738 74.6637 31.7032 74.296Z" fill="black"/>
<path d="M42.3812 68.9123C42.5486 69.0374 42.6292 69.1598 42.5876 69.3217C42.5876 69.4886 42.5036 69.7339 42.3423 69.9818L40.944 71.9926L39.5487 69.94C39.3844 69.6947 39.2231 69.4498 39.262 69.2411C39.301 69.1184 39.3457 68.9958 39.5073 68.9123H36.6743C37.1647 69.1184 37.4124 69.4886 37.7804 70.0234L40.0836 73.2655V74.4184C40.0836 74.992 39.8775 75.7329 39.5487 75.9361H42.0943C41.7656 75.7329 41.5595 74.992 41.5595 74.4184V73.2655L43.6565 70.3101C43.9853 69.9008 44.4367 69.1598 44.9295 68.9121L42.3812 68.9123Z" fill="black"/>
<path d="M56.0173 74.8279H54.2095V72.898H56.9225L57.0839 71.8285H54.2095V70.0657H55.8112C56.7162 70.0657 57.4545 70.1042 57.8249 70.4719V68.9126H52.1986C52.5273 69.16 52.7308 69.901 52.7308 70.4719V74.4186C52.7308 75.0314 52.5273 75.7332 52.1986 75.9782H57.8665L58.1113 74.251C57.6996 74.7861 56.9228 74.8279 56.0173 74.8279Z" fill="black"/>
</g>
</svg>
