<svg width="80" height="80" viewBox="0 0 80 80" fill="none" xmlns="http://www.w3.org/2000/svg">
<g opacity="0.2">
<path fill-rule="evenodd" clip-rule="evenodd" d="M37.6425 50.556L32.499 34.5314C32.4428 34.3278 32.3501 34.1576 32.2209 34.0178C32.0918 33.8795 31.9338 33.8096 31.7484 33.8096C31.3411 33.8096 31.0631 34.0603 30.9142 34.5587L25.8254 50.5545L20.7366 50.5195L26.3253 32.5271C26.696 31.3617 27.3859 30.4637 28.3964 29.8346C29.4068 29.2055 30.5419 28.891 31.8031 28.891C34.1203 28.891 35.7887 29.9167 36.8083 31.968L37.0028 32.357L41.2027 45.7194L41.3698 46.0248H52.4378C52.9742 46.0248 53.424 45.8227 53.7856 45.417C54.1473 45.0129 54.3281 44.5266 54.3281 43.9614C54.3281 43.4903 54.1944 43.0907 53.9254 42.761C53.658 42.4312 53.3192 42.2656 52.9134 42.2656H46.0058C44.3784 42.2656 43.0185 41.5712 41.9275 40.1809C40.9109 38.8832 40.4019 37.3531 40.4019 35.592C40.4019 33.8309 40.9109 32.2734 41.932 31.1429C43.0443 29.9015 44.6383 29.28 46.7169 29.28H58.1466V33.8126H46.9312C46.413 33.8126 45.9952 34.0284 45.6822 34.4615C45.3676 34.8945 45.2111 35.396 45.2111 35.9673C45.2111 36.4642 45.3585 36.8927 45.6548 37.2528C45.9496 37.6114 46.3295 37.7922 46.7929 37.7922H52.7858C54.5606 37.7922 56.0542 38.3499 57.2653 39.4652C58.4763 40.5805 59.0826 42.0666 59.0826 43.9249C59.0826 45.7832 58.5599 47.242 57.5175 48.5244C56.4174 49.8813 55.0499 50.559 53.4118 50.559H37.6455L37.6425 50.556ZM4.75299 34.8064C4.75299 34.5298 4.82136 34.2761 4.96116 34.0451C5.09943 33.8142 5.28937 33.6804 5.52945 33.644C5.80752 33.5893 6.05368 33.6485 6.26641 33.8248C6.47914 34.0011 6.63108 34.2366 6.72377 34.5314L6.97449 35.3352L10.4739 47.6158C10.8264 48.8177 11.5755 49.7233 12.7227 50.3326C13.7043 50.8492 14.926 51.1091 16.3893 51.1091C18.0547 51.1091 19.3143 50.6274 20.1652 49.664C21.0162 48.7007 21.4431 47.3286 21.4431 45.5492V29.3666H16.6355V45.7164C16.6355 46.1054 16.4212 46.3363 15.9957 46.4108C15.7541 46.4655 15.5369 46.4062 15.3424 46.23C15.1479 46.0552 15.0142 45.8379 14.9397 45.5796L14.4656 44.1103L11.4069 33.3264C11.0164 31.9589 10.284 30.8785 9.20815 30.0838C8.13083 29.2891 6.88028 28.891 5.45196 28.891C3.72581 28.891 2.44639 29.2146 1.61219 29.8619C0.536382 30.7113 0 32.1913 0 34.2989V50.521H4.75299V34.8064ZM63.6776 32.4223C64.0301 31.2553 64.688 30.374 65.6514 29.7814C66.6147 29.1888 67.7453 28.891 69.0444 28.891C70.3436 28.891 71.4316 29.1888 72.3676 29.7814C73.3036 30.374 73.9478 31.2356 74.3004 32.3676L80 50.556H75.2166L69.7115 34.2275C69.599 33.8749 69.3863 33.6987 69.0718 33.6987C68.774 33.6987 68.5719 33.8749 68.4594 34.2275L63.0652 50.556H58.0326L63.6776 32.4238V32.4223Z" fill="black"/>
</g>
</svg>
