<svg width="80" height="80" viewBox="0 0 80 80" fill="none" xmlns="http://www.w3.org/2000/svg">
<g style="mix-blend-mode:color-dodge" opacity="0.3" clip-path="url(#clip0_588_123110)">
<rect width="80" height="80" fill="white" fill-opacity="0.01"/>
<path d="M3.36463 31.8644V32.2661H4.86289V40.0737C4.86289 42.42 4.21212 43.0807 2.76124 43.0807C1.84873 43.0807 1.69829 42.3875 1.69829 42.0288C1.69829 41.1752 1.6509 40.6528 0.873392 40.6528C0.0914722 40.6528 0 41.4425 0 41.6838C0 42.7589 0.478299 43.5816 2.61467 43.5816C5.161 43.5816 6.52206 42.722 6.52206 39.8671V32.2639L8.06937 32.2661V31.8644H3.36463ZM8.04672 42.033C7.86543 42.2137 7.77561 42.4281 7.77561 42.6881C7.77561 42.9466 7.86543 43.1593 8.04892 43.3306C8.23132 43.5097 8.44842 43.5962 8.7019 43.5962C8.95979 43.5962 9.17744 43.5097 9.36369 43.3306C9.54278 43.1593 9.6337 42.9466 9.6337 42.6881C9.6337 42.4253 9.54278 42.2104 9.36369 42.033C9.18406 41.8528 8.9675 41.7696 8.7019 41.7696C8.43961 41.7696 8.22305 41.8528 8.04672 42.033ZM18.495 42.033C18.3159 42.2137 18.2294 42.4281 18.2294 42.6881C18.2294 42.9466 18.3159 43.1593 18.495 43.3306C18.6857 43.5097 18.8967 43.5962 19.1502 43.5962C19.4125 43.5962 19.6313 43.5097 19.8159 43.3306C19.9977 43.1593 20.0875 42.9466 20.0875 42.6881C20.0875 42.4253 19.9977 42.2104 19.817 42.033C19.634 41.8528 19.4147 41.7696 19.1502 41.7696C18.8912 41.7696 18.6736 41.8528 18.495 42.033ZM11.2648 31.8654V32.266H12.6182V41.1724C12.6182 41.8727 12.5752 42.0546 12.4969 42.2573C12.4132 42.4838 12.2242 42.6624 11.9443 42.7786C11.736 42.8662 11.4202 42.9125 10.9992 42.9241V43.2922H15.9585V42.928C15.5381 42.9175 15.2174 42.8695 15.0075 42.7946C14.7116 42.6778 14.5198 42.5059 14.4261 42.2728C14.344 42.0722 14.3016 41.8959 14.3016 41.5438V38.4938L15.5287 38.4888C19.0928 38.4888 20.0946 37.0826 20.0946 35.1633C20.0946 33.2237 19.4797 31.8643 15.8709 31.8643L11.2648 31.8654ZM14.3016 32.3172L15.154 32.3056C17.9026 32.3056 18.5027 33.4364 18.5027 35.2686C18.5027 37.1123 17.4221 38.0529 15.2422 38.0529H14.3016V32.3172ZM32.9604 31.8911C32.919 31.9969 29.4679 40.597 29.4679 40.597L29.3891 40.6482L29.3065 40.597C29.3065 40.597 25.6288 31.9969 25.5859 31.8911H22.3408V32.2592H23.7493V41.1039L23.719 41.9095C23.6964 42.1222 23.6302 42.3118 23.5261 42.4628C23.4164 42.6275 23.2379 42.7521 23.0059 42.8342C22.8527 42.8843 22.6246 42.9179 22.3408 42.9245V43.2926H25.5616V42.9295C25.2878 42.9179 25.1687 42.8909 25.0084 42.8375C24.772 42.7598 24.5945 42.6424 24.4772 42.4743C24.3725 42.3178 24.3047 42.131 24.281 41.9095L24.2452 41.1039V33.4644H24.4342C24.4342 33.4644 28.5989 43.1857 28.6425 43.2926H28.9902L32.9317 33.5724H33.0309V41.4494C33.0309 41.7867 32.9967 42.0467 32.9317 42.2484C32.854 42.4843 32.686 42.6622 32.4424 42.7824C32.2617 42.8628 31.9861 42.9102 31.623 42.9245V43.2926H36.1167V42.9245C35.758 42.9069 35.4803 42.8584 35.2918 42.7741C35.0306 42.6468 34.8614 42.4628 34.7871 42.2275C34.722 42.0219 34.6906 41.7707 34.6906 41.4494V32.2664L35.8853 32.2548V31.8911H32.9604ZM36.9298 39.2895C36.9298 43.3589 40.0961 43.6278 40.7794 43.6278C42.1327 43.6278 44.6983 42.7836 44.6983 39.2129C44.6983 36.4345 43.0573 34.9225 40.8334 34.9225C38.4347 34.9225 36.9298 36.5122 36.9298 39.2895ZM38.7207 39.3347C38.7207 37.103 38.8595 35.4284 40.8014 35.4284C42.8997 35.4284 42.9097 37.1614 42.9097 39.1941C42.9097 42.1152 42.4104 43.123 40.8014 43.123C38.9984 43.123 38.7207 42.2221 38.7207 39.3347ZM48.6953 36.7577L48.5829 36.7539C48.5708 36.7577 48.3763 35.4986 48.303 35.1278C47.7431 35.1278 45.5263 35.1223 45.5263 35.1223V35.5482H47.029C47.029 35.5482 47.0202 36.8239 47.0202 37.2834V41.1903C47.0202 41.7496 46.9584 42.1397 46.8378 42.3761C46.684 42.6549 46.3396 42.7949 45.7693 42.7949H45.5263V43.2925H50.1792V42.7949H49.9285C49.318 42.7949 49.0546 42.6621 48.8909 42.3976C48.7427 42.1645 48.6766 41.7694 48.6766 41.1903V38.2604C48.6766 37.2724 49.4205 36.1477 50.312 36.1477C51.2438 36.1477 51.2218 37.5832 52.2781 37.0057C52.8523 36.6916 52.7553 35.0468 50.9733 35.0468C49.5384 35.0468 49.091 35.8943 48.6953 36.7577ZM63.2227 35.5521C62.6915 35.9566 62.4848 36.3302 62.4848 36.8652C62.4848 37.1138 62.5515 37.289 62.6915 37.4069C62.8314 37.5314 62.9962 37.5887 63.1979 37.5887C63.6602 37.5887 63.9203 37.3535 64.0161 36.7451C64.0872 36.2938 64.1859 36.0365 64.4079 35.8012C64.6454 35.5521 65.0168 35.4276 65.5183 35.4276C66.1018 35.4276 66.5145 35.5846 66.7465 35.8987C66.9587 36.1941 67.0711 36.5958 67.0711 37.0917V38.4621C65.58 38.5966 62.06 38.8793 62.2165 41.5606C62.2754 42.6098 63.2006 43.5306 64.3958 43.5306C65.7172 43.5306 66.5537 42.7778 67.1212 42.1756C67.2122 42.7464 67.7422 43.4281 68.7055 43.4281C69.7888 43.4281 70.4357 42.8969 70.5112 41.5689H70.2329C70.1596 42.1464 69.8026 42.4577 69.5089 42.4577C69.0107 42.4577 68.8526 42.1805 68.8157 41.7193L68.7865 40.6734V37.251C68.7865 36.512 68.6674 36.0155 68.2316 35.5802C67.8029 35.1449 66.973 34.9223 65.7734 34.9223C64.6217 34.9223 63.7665 35.135 63.2227 35.5521ZM63.8453 41.2465C63.8453 39.7251 65.9293 38.9641 67.0711 38.9641V41.5926L67.043 41.6576L67.0083 41.6907C66.2109 42.4136 65.602 42.6715 65.1568 42.6715C64.0161 42.6715 63.8453 41.7215 63.8453 41.2465ZM73.786 36.603L73.6367 36.5969L73.3452 35.1124L70.8159 35.108V35.534C71.2909 35.5538 72.0828 35.5626 72.0828 35.5626V41.181C72.0828 41.6174 72.0486 41.9315 71.9841 42.1398C71.9169 42.3883 71.7554 42.5619 71.5168 42.6622C71.3637 42.7283 71.1229 42.7647 70.8159 42.7785V43.2926H74.8374V42.7746C74.4329 42.7421 74.1602 42.6324 74.0147 42.4258C73.8576 42.2048 73.786 41.8252 73.786 41.2703V39.1124C73.786 38.2098 73.7811 37.3381 74.0891 36.7986C74.4214 36.2107 75.0297 35.8867 75.7108 35.8867C76.323 35.8867 76.6453 36.0828 76.8476 36.4713C77.0123 36.7876 77.1192 37.7288 77.1192 38.3762L77.0994 41.0504C77.0994 41.4956 77.1556 41.8252 77.1192 42.0362C77.074 42.2825 76.9622 42.4743 76.7688 42.6016C76.6283 42.6986 76.4073 42.7487 76.1241 42.7702V43.2926H80V42.7785C79.5096 42.7465 79.1889 42.6275 79.0484 42.3982C78.8892 42.1646 78.7575 41.7712 78.7575 41.1849L78.7795 37.483C78.7795 36.9479 78.7079 36.49 78.5067 36.1142C78.3034 35.7489 78.018 35.4717 77.6631 35.2893C77.3022 35.108 76.8889 35.0188 76.4348 35.0188C74.7999 35.0188 74.1436 36.0167 73.786 36.603ZM60.8387 34.5925C60.599 34.6691 60.4398 34.8823 60.3554 35.2427C60.2926 35.575 60.1664 35.7673 59.9984 35.8213C59.8298 35.8709 59.6418 35.8566 59.4181 35.7805C59.0015 35.3931 58.202 34.9226 56.7947 34.9226C54.5293 34.9226 53.5309 36.5365 53.5309 38.0089C53.5309 39.7325 54.1932 40.5668 55.6507 40.8737C55.7389 40.8925 55.7389 40.99 55.6623 41.0076C54.4191 41.2595 53.3176 41.6232 53.3176 42.8046C53.3176 43.5165 53.7265 43.9066 54.2494 44.1199C54.8269 44.3546 55.6386 44.4764 56.6574 44.4946C57.5485 44.5045 58.18 44.5359 58.591 44.585C59.0357 44.6357 59.3878 44.7624 59.6479 44.952C59.9157 45.1592 60.0573 45.4644 60.0573 45.8639C60.0573 46.4106 59.7653 46.8503 59.1823 47.1759C58.6401 47.479 57.8989 47.6372 56.977 47.6372C56.1863 47.6372 55.5394 47.5506 54.9553 47.187C54.5227 46.9192 54.4384 46.3924 54.5293 46.0133C54.6098 45.6297 54.4726 45.2253 54.0279 45.1503C53.7832 45.109 53.4752 45.2424 53.333 45.4644C53.1997 45.6711 53.1529 45.9168 53.1529 46.21C53.1529 47.182 53.9034 47.6372 54.477 47.8047C55.352 48.0714 55.9323 48.1358 56.7368 48.1358C57.8036 48.1358 58.6698 47.9727 59.2892 47.6592C59.9086 47.3462 60.3406 46.9638 60.5709 46.5241C60.8139 46.081 60.9302 45.6292 60.9302 45.1939C60.9302 44.6065 60.8012 44.1276 60.5505 43.7749C59.741 42.6619 58.591 42.8046 56.0067 42.6811C54.7635 42.6811 54.5238 42.4569 54.5238 42.0745C54.5238 41.514 54.9845 41.2931 56.7847 41.017C58.5558 40.7415 60.2067 40.0913 60.2067 37.9279C60.2067 37.3058 60.0612 36.7713 59.8854 36.3977C60.2519 36.4792 60.5935 36.4792 60.9054 36.3762C61.263 36.266 61.495 36.0869 61.6294 35.8356C61.7639 35.5838 61.7942 35.3469 61.7198 35.1154C61.6013 34.7369 61.3986 34.5479 61.106 34.5479C61.0238 34.5479 60.9351 34.5627 60.8387 34.5925ZM55.1741 38.0089C55.1741 36.4897 55.7042 35.3595 56.8382 35.3595C58.1579 35.3595 58.5436 36.3894 58.5436 37.9775C58.5436 40.2489 57.8284 40.5464 56.8382 40.5464C55.7796 40.5464 55.1741 40.1618 55.1741 38.0089Z" fill="white"/>
</g>
<defs>
<clipPath id="clip0_588_123110">
<rect width="80" height="80" fill="white"/>
</clipPath>
</defs>
</svg>
