<svg width="80" height="80" viewBox="0 0 80 80" fill="none" xmlns="http://www.w3.org/2000/svg">
<g style="mix-blend-mode:color-dodge" opacity="0.3">
<rect width="80" height="80" fill="white" fill-opacity="0.01"/>
<path d="M52.36 48.4082L35.9105 19.8204L47.7278 13.0327L68.1826 48.4082H52.36Z" fill="white"/>
<path d="M8.54576 44.4028L20.3631 37.5693L26.6157 48.4082H10.8389L8.54576 44.4028Z" fill="white"/>
<path d="M31.737 66.6463H35.1003V53.0403H31.737V66.6463Z" fill="white"/>
<path d="M73.8849 66.9673C70.1242 66.9673 67.8616 65.0258 67.7393 62.2893H71.286C71.286 63.1454 71.8211 64.399 74.1142 64.4449C75.643 64.4449 76.3615 63.5429 76.3615 62.8702C76.2698 61.8001 74.9245 61.7084 73.4874 61.4791C72.0504 61.2498 70.8274 60.9899 69.9407 60.5312C68.8094 59.9503 68.0451 58.6967 68.0451 57.2597C68.0451 54.829 70.1547 52.9027 73.6709 52.9027C77.08 52.9027 79.2356 54.6914 79.4649 57.3514H76.0405C76.0099 56.6329 75.8723 55.5016 73.8543 55.5016C72.4937 55.5016 71.5918 55.7768 71.5153 56.7246C71.5153 58.1158 74.3435 58.0241 76.545 58.605C78.6546 59.1401 80 60.4548 80 62.2893C80 65.6679 77.2635 66.9673 73.8849 66.9673Z" fill="white"/>
<path d="M22.3963 32.2645L34.2136 25.4462L47.468 48.4082H35.1003V51.7714H31.737V48.3929L22.3963 32.2645Z" fill="white"/>
<path fill-rule="evenodd" clip-rule="evenodd" d="M22.7021 66.9673C18.7884 66.9673 15.6086 63.7722 15.6086 59.9044C15.6086 55.9908 18.7884 52.9027 22.7021 52.9027C24.185 52.9027 25.5303 53.3002 26.7074 54.1105V48.4082H30.0707V66.6463H26.7074V65.7443C25.5303 66.5087 24.185 66.9673 22.7021 66.9673ZM18.8343 59.9044C18.8343 62.0141 20.6382 63.7722 22.7938 63.7722C24.9035 63.7722 26.7074 62.0141 26.7074 59.9044C26.7074 57.7948 24.9035 55.9908 22.7938 55.9908C20.6382 55.9908 18.8343 57.7948 18.8343 59.9044Z" fill="white"/>
<path fill-rule="evenodd" clip-rule="evenodd" d="M47.5597 48.4082H50.8771V66.6463H47.5597V65.7443C46.4284 66.5087 45.0372 66.9673 43.5085 66.9673C39.6407 66.9673 36.4609 63.7722 36.4609 59.9044C36.4609 55.9908 39.6407 52.9027 43.5085 52.9027C45.0372 52.9027 46.3825 53.3002 47.5597 54.1105V48.4082ZM39.7324 59.9044C39.7324 62.0141 41.5364 63.7722 43.6002 63.7722C45.7557 63.7722 47.5597 62.0141 47.5597 59.9044C47.5597 57.7948 45.7557 55.9908 43.6002 55.9908C41.5364 55.9908 39.7324 57.7948 39.7324 59.9044Z" fill="white"/>
<path fill-rule="evenodd" clip-rule="evenodd" d="M59.056 66.9673C55.2035 66.9673 52.0084 63.7722 52.0084 59.9045C52.0084 55.9908 55.2035 52.9027 59.056 52.9027C60.5389 52.9027 61.93 53.3002 63.0613 54.1105V53.025H66.4246V66.6463H63.0613V65.7443C61.93 66.5087 60.5847 66.9673 59.056 66.9673ZM55.2799 59.9045C55.2799 62.0141 57.0839 63.7722 59.1935 63.7722C61.3032 63.7722 63.0613 62.0141 63.0613 59.9045C63.0613 57.7948 61.3032 55.9908 59.1935 55.9908C57.0839 55.9908 55.2799 57.7948 55.2799 59.9045Z" fill="white"/>
<path fill-rule="evenodd" clip-rule="evenodd" d="M3.24097 59.9045C3.24097 62.0141 5.0449 63.7722 7.15459 63.7722C9.31014 63.7722 11.1141 62.0141 11.1141 59.9045C11.1141 57.7948 9.31014 55.9908 7.15459 55.9908C5.0449 55.9908 3.24097 57.7948 3.24097 59.9045ZM7.06286 66.9673C3.1951 66.9673 0 63.7722 0 59.9045C0 55.9908 3.1951 52.9027 7.06286 52.9027C8.54576 52.9027 9.93693 53.3002 11.1141 54.1105V53.025H14.4315V66.6463H11.1141V65.7443C9.98279 66.5087 8.59162 66.9673 7.06286 66.9673Z" fill="white"/>
</g>
</svg>
