<svg width="80" height="80" viewBox="0 0 80 80" fill="none" xmlns="http://www.w3.org/2000/svg">
<g style="mix-blend-mode:color-dodge" opacity="0.3" clip-path="url(#clip0_588_123104)">
<rect width="80" height="80" fill="white" fill-opacity="0.01"/>
<path d="M56.3365 27.5825C55.6878 26.222 53.6597 22.235 51.9402 19.1173C49.5845 14.8469 45.3771 7.81775 44.8984 7.1753C44.4261 6.53915 44.1615 6.51396 43.7269 6.46987H43.6639C43.0278 6.39429 40.332 6.36279 38.7133 6.36279C37.3213 6.36279 34.3736 6.40058 33.6871 6.46987C33.0384 6.53285 32.862 6.7344 32.4967 7.21309C31.9865 7.87443 27.7098 15.1051 25.4864 19.1236C23.874 22.0272 21.3231 27.0471 21.0901 27.5888C20.8759 28.0737 20.7752 28.458 20.7752 28.7981C20.7752 29.1571 20.8759 29.5413 21.0901 30.0074C21.6255 31.1663 23.2379 34.3786 25.4864 38.4726C27.8358 42.743 32.0747 49.7973 32.5219 50.4146C33.0006 51.0633 33.3092 51.0885 33.7375 51.1326C34.3925 51.1893 37.208 51.2334 38.7133 51.2334C40.3383 51.2334 43.2797 51.1704 43.6891 51.1326C44.0922 51.0948 44.4387 51.0633 44.9047 50.4146C45.333 49.8225 49.8932 42.2202 51.9465 38.4726C53.9116 34.8824 56.0909 30.5743 56.3428 30.0074C56.62 29.3901 56.6578 29.0626 56.6578 28.7981C56.6578 28.5902 56.62 28.1619 56.3428 27.5888L56.3365 27.5825ZM44.8355 30.1019C42.4483 35.2288 36.0049 47.1267 34.6697 49.4005C34.5815 49.5454 34.5122 49.6587 34.4618 49.7406C34.2603 50.0429 34.0902 50.2193 33.9453 50.213C33.9453 50.213 36.3262 45.8481 38.1905 41.1809C36.0994 37.32 34.2981 33.7487 32.566 30.0767C32.2573 29.4216 32.1062 29.1004 32.1125 28.7792C32.1125 28.458 32.2699 28.1367 32.5723 27.4817C35.0728 22.1028 41.2012 10.5576 42.9774 7.80515C43.1852 7.48393 43.2923 7.36426 43.4435 7.36426H43.4561C43.4561 7.36426 40.9808 11.9937 39.2172 16.3963C41.3083 20.2573 43.116 23.8349 44.848 27.5069C45.1567 28.1619 45.3015 28.4706 45.3015 28.7918C45.3015 29.113 45.1441 29.4405 44.8355 30.1019Z" fill="white"/>
<path d="M80 63.6225V65.4491H76.1957V73.486H73.6322V65.4491H69.8279V63.6225H80Z" fill="white"/>
<path d="M70.9176 71.6594V73.486H62.7673V63.6225H65.3308V71.6594H70.9176Z" fill="white"/>
<path d="M21.531 71.6594V73.486H12.965V63.6225H21.3735V65.4491H15.5348V67.6158H20.8696V69.3857H15.5348V71.6594H21.531Z" fill="white"/>
<path d="M8.3734 69.8265C9.46934 69.2282 10.1496 68.0567 10.1496 66.8285C10.1496 65.8018 9.85355 65.0082 9.22369 64.4854C8.49307 63.8808 7.4979 63.6288 5.8099 63.6288H-0.0729028L-0.179977 64.2209C-0.179977 64.2209 -0.0729028 64.3972 0.0467689 64.6114C0.229426 64.9263 0.216829 65.0208 0.216829 65.2286V73.4923H2.78662V70.3367H5.97366L7.68056 73.4923H10.5086L8.37969 69.8265H8.3734ZM7.0759 68.2267C6.88065 68.422 6.6476 68.5102 6.28229 68.5102H2.78032V65.5058H5.54537C6.37047 65.5058 6.80507 65.6003 7.1011 65.8396C7.39083 66.0726 7.5294 66.4254 7.5294 66.9481C7.5294 67.4709 7.38453 67.9244 7.0696 68.2267H7.0759Z" fill="white"/>
<path d="M32.2762 63.6225V70.1667C31.6779 69.4108 31.048 68.6865 29.9899 67.5213C29.127 66.5702 27.3256 64.624 26.3997 63.6288H23.9244L23.8173 64.2209C23.8173 64.2209 23.9244 64.3972 24.0441 64.6114C24.1826 64.8444 24.2078 64.9578 24.2141 65.0838V73.486L26.5194 73.4797V66.9481C26.9792 67.5654 27.798 68.5039 28.346 69.0959C29.4356 70.2737 31.0795 72.1066 32.3581 73.486H34.5752V63.6225H32.2762Z" fill="white"/>
<path d="M57.3947 63.6225V69.6565C57.3947 70.3304 57.2624 70.7272 56.9349 71.0359C56.5192 71.4201 55.8326 71.609 54.8438 71.609C53.8549 71.609 53.1369 71.4264 52.7212 71.0359C52.3937 70.7272 52.2614 70.3241 52.2614 69.6565V63.6225H49.4082L49.3011 64.2146C49.3011 64.2146 49.4082 64.3909 49.5278 64.6051C49.6601 64.8318 49.6853 64.9389 49.6916 65.0649V69.7447C49.6916 72.3208 51.4426 73.6371 54.806 73.6371H54.8753C58.245 73.6371 59.9015 72.3585 59.9015 69.7447V63.6225H57.3947Z" fill="white"/>
<path d="M40.7729 63.6225C39.8029 65.6317 38.1087 69.3353 36.5277 73.486H39.1038C39.3054 72.9254 39.5258 72.3522 39.7463 71.7791H45.0118C45.2323 72.3522 45.4527 72.9254 45.6543 73.486H48.2304C46.6431 69.3353 44.9551 65.6317 43.9852 63.6225H40.7729ZM40.4769 69.921C41.1508 68.2393 41.8248 66.6521 42.3727 65.4176C42.9207 66.6521 43.5947 68.2393 44.2686 69.921H40.4769Z" fill="white"/>
</g>
<defs>
<clipPath id="clip0_588_123104">
<rect width="80" height="80" fill="white"/>
</clipPath>
</defs>
</svg>
