<svg width="80" height="80" viewBox="0 0 80 80" fill="none" xmlns="http://www.w3.org/2000/svg">
<g style="mix-blend-mode:color-dodge" opacity="0.3">
<rect width="80" height="80" fill="white" fill-opacity="0.01"/>
<path fill-rule="evenodd" clip-rule="evenodd" d="M0 34.9689V36.4296H2.3959L7.0846 45.2227H12.8543L17.543 36.415L19.9385 36.3999L19.9437 34.9689H12.7761V36.4049H14.6849L11.374 42.6561L7.7933 36.4267L10.405 36.415L10.4004 34.9689H0Z" fill="white"/>
<path fill-rule="evenodd" clip-rule="evenodd" d="M46.2405 34.9689V36.4296H48.6357L53.3245 45.2227H59.0944L63.7831 36.415L66.1789 36.3999L66.1832 34.9689H59.0169V36.4049H60.9249L57.6141 42.6561L54.033 36.4267L56.6455 36.415L56.6406 34.9689H46.2405Z" fill="white"/>
<path fill-rule="evenodd" clip-rule="evenodd" d="M34.4515 34.9689V36.4296H36.847L36.851 43.6084H34.3255V45.2085L36.8527 45.2228H48.8139V40.4498H47.2558C47.1704 42.9769 44.9782 43.6118 44.0548 43.6118C43.2087 43.6118 41.5693 43.6085 41.5693 43.6085V36.4267L43.9288 36.4149L43.9256 34.9688L34.4515 34.9689Z" fill="white"/>
<path fill-rule="evenodd" clip-rule="evenodd" d="M26.2808 43.9096C24.8453 43.9096 23.6822 42.1901 23.6822 40.0679C23.6822 37.9452 24.8453 36.2244 26.2808 36.2244C27.7159 36.2244 28.8794 37.9452 28.8794 40.0679C28.8794 42.1901 27.7159 43.9096 26.2808 43.9096ZM26.3864 34.6743C22.3144 34.6743 19.0135 37.099 19.0135 40.0888C19.0135 43.0788 22.3143 45.5032 26.3864 45.5032C30.4581 45.5032 33.7595 43.0788 33.7595 40.0888C33.7595 37.099 30.4581 34.6743 26.3864 34.6743Z" fill="white"/>
<path fill-rule="evenodd" clip-rule="evenodd" d="M72.5215 43.8823C71.0865 43.8823 69.9235 42.1343 69.9235 39.977C69.9235 37.8205 71.0866 36.0721 72.5215 36.0721C73.9567 36.0721 75.1195 37.8205 75.1195 39.977C75.1196 42.1342 73.9567 43.8823 72.5215 43.8823ZM72.6276 34.4966C68.5547 34.4966 65.2548 36.9608 65.2548 39.9994C65.2548 43.0379 68.5546 45.5016 72.6276 45.5016C76.699 45.5016 80 43.0379 80 39.9994C80 36.9608 76.699 34.4966 72.6276 34.4966Z" fill="white"/>
</g>
</svg>
