<svg width="80" height="80" viewBox="0 0 80 80" fill="none" xmlns="http://www.w3.org/2000/svg">
<g style="mix-blend-mode:color-dodge" opacity="0.3">
<rect width="80" height="80" fill="white" fill-opacity="0.01"/>
<path d="M11.4449 31.876C11.2719 32.1875 11.0933 32.4977 10.9261 32.8121C9.62685 35.2533 8.60635 37.786 8.51916 40.596C8.39338 44.6365 11.0575 47.5322 15.0838 47.8867C18.0624 48.1497 20.8981 47.5051 23.7366 46.7576C30.9902 44.8466 38.2495 42.9528 45.5059 41.0505C45.6803 41.0047 45.8489 40.9418 46.0219 40.7732C45.4259 40.7732 44.8284 40.7732 44.2324 40.7732C42.9618 40.7732 41.6912 40.7618 40.4206 40.7789C40.0103 40.7846 39.8631 40.6474 39.8303 40.2272C39.6645 38.1348 39.4687 36.0452 39.2771 33.9556C39.2543 33.7083 39.1971 33.4653 39.1199 33.0079C38.4853 34.8088 37.9193 36.4096 37.3562 38.0104C37.0818 38.7922 36.8245 39.5797 36.5243 40.3516C36.4557 40.5259 36.2471 40.766 36.097 40.7703C34.6949 40.8018 33.2928 40.7889 31.7963 40.7889C32.4252 39.0381 33.0183 37.3729 33.6186 35.7121C35.3781 30.8426 37.1489 25.9788 38.8855 21.1021C39.0899 20.529 39.3586 20.3117 39.9703 20.3346C41.1895 20.3817 42.4115 20.3489 43.7679 20.3489C43.1247 22.1212 42.5202 23.7877 41.917 25.4542C41.9527 25.4757 41.9885 25.4985 42.0228 25.52C42.8946 24.4952 43.7665 23.4718 44.6369 22.447C44.8613 22.1826 45.1271 21.9439 45.3029 21.6509C46.8051 20.0216 46.2234 20.2931 48.1429 20.3189C52.0891 20.4018 56.0368 20.3489 59.9844 20.3517C60.2775 20.3517 60.5704 20.3832 60.9664 20.406C60.5504 21.5881 60.1817 22.6943 59.7529 23.7777C59.6957 23.9249 59.3398 24.0207 59.1212 24.025C57.8277 24.0478 56.5342 24.025 55.2407 24.0464C55.0177 24.0507 54.6533 24.1336 54.5961 24.2779C54.0758 25.5729 53.6099 26.8892 53.0896 28.3028C54.5275 28.3028 55.8538 28.3028 57.3474 28.3028C56.8858 29.5748 56.4799 30.7325 56.0311 31.8731C55.9853 31.9874 55.6795 32.0475 55.4937 32.0503C54.4088 32.0661 53.3212 32.0389 52.2378 32.0746C52.012 32.0818 51.6589 32.239 51.5932 32.4134C51.0643 33.8298 50.5913 35.2676 50.0767 36.7712C51.8705 36.7712 53.5742 36.7712 55.3736 36.7712C55.1749 37.3958 54.9977 37.9475 54.7876 38.6078C63.2389 36.391 71.5916 34.1985 79.9443 32.0075C79.9628 32.0589 79.9814 32.1104 80 32.1604C79.344 32.4448 78.6922 32.7378 78.0333 33.0137C58.9868 40.9919 39.9475 48.9744 20.9024 56.9454C17.8552 58.2203 14.7165 59.2194 11.4192 59.5853C9.55824 59.7911 7.68875 59.7968 5.86357 59.2423C2.14174 58.1146 -0.0278966 55.1574 0.0521427 51.2841C0.122177 47.9296 1.39566 44.9638 3.06648 42.1367C4.93311 38.9795 7.32429 36.2267 9.76263 33.5111C10.28 32.9351 10.806 32.3691 11.3291 31.7988C11.3663 31.8245 11.4063 31.8502 11.4449 31.876ZM44.1924 39.6584C44.2467 39.6727 44.301 39.6869 44.3539 39.7012C46.625 33.4081 48.8976 27.1136 51.1687 20.8205C50.9957 20.862 50.9128 20.9406 50.8414 21.0292C48.4659 23.9392 46.079 26.8392 43.7322 29.7721C43.4763 30.0922 43.2948 30.6025 43.3305 31.0027C43.5821 33.8912 43.898 36.7741 44.1924 39.6584Z" fill="white"/>
<path d="M30.5771 20.3474C29.4209 23.5347 28.3275 26.5362 27.2426 29.542C25.9706 33.0694 24.6985 36.5969 23.4479 40.1329C23.2678 40.6417 23.0291 40.8447 22.4617 40.8232C21.1725 40.7718 19.8805 40.8075 18.5112 40.8075C18.5112 37.9175 18.5112 35.0733 18.5112 32.229C18.4598 32.2204 18.4083 32.2104 18.3568 32.2018C17.8452 33.6168 17.3321 35.0304 16.8204 36.4454C16.3602 37.7217 15.9199 39.0066 15.4283 40.2701C15.3425 40.4916 15.0467 40.7746 14.8394 40.7818C13.5273 40.8289 12.2124 40.8061 10.7903 40.8061C10.8875 40.4573 10.9475 40.1758 11.0433 39.9099C13.3129 33.6368 15.5955 27.368 17.8452 21.0864C18.0553 20.5004 18.3411 20.3131 18.94 20.336C20.0934 20.3803 21.2497 20.3632 22.4031 20.3432C22.9019 20.3346 23.0892 20.4961 23.082 21.0206C23.0549 23.1217 23.0706 25.2241 23.0706 27.3252C23.0706 27.5438 23.0706 27.7625 23.0706 27.9812C23.1192 27.9912 23.1664 28.0012 23.215 28.0126C23.5308 27.1636 23.851 26.3147 24.1626 25.4642C24.71 23.9749 25.2831 22.4942 25.7848 20.9892C25.9592 20.4675 26.2221 20.3274 26.731 20.3389C27.973 20.3675 29.215 20.3474 30.5771 20.3474Z" fill="white"/>
<path d="M37.1832 20.3474C36.8102 21.4122 36.5015 22.3213 36.177 23.2231C34.1503 28.8459 32.1136 34.4644 30.1012 40.0914C29.9111 40.6217 29.6724 40.8489 29.075 40.8232C27.8329 40.7689 26.588 40.8075 25.2417 40.8075C25.3203 40.5259 25.366 40.3144 25.4389 40.1114C27.7415 33.7354 30.0526 27.3609 32.3409 20.9792C32.5081 20.5118 32.7253 20.326 33.2242 20.3374C34.4876 20.3675 35.7525 20.3474 37.1832 20.3474Z" fill="white"/>
</g>
</svg>
