<svg width="80" height="80" viewBox="0 0 80 80" fill="none" xmlns="http://www.w3.org/2000/svg">
<g style="mix-blend-mode:color-dodge" opacity="0.3">
<rect width="80" height="80" fill="white" fill-opacity="0.01"/>
<path fill-rule="evenodd" clip-rule="evenodd" d="M12.4104 42.476H21.244C21.644 42.476 21.968 42.1528 21.968 41.7572V37.8432C21.968 37.448 21.644 37.1244 21.244 37.1244H12.4104C12.0104 37.1244 11.6864 37.448 11.6864 37.8432V41.7572C11.6868 42.1528 12.0104 42.476 12.4104 42.476ZM12.972 38.1628H20.7228C20.8556 38.1628 20.964 38.2708 20.964 38.4024V41.1984C20.964 41.33 20.8556 41.438 20.7228 41.438H12.972C12.8392 41.438 12.7308 41.33 12.7308 41.1984V38.4024C12.7308 38.2704 12.8392 38.1628 12.972 38.1628Z" fill="white"/>
<path fill-rule="evenodd" clip-rule="evenodd" d="M0 42.476H1.044V41.1984H9.518C9.9376 41.1984 10.2812 40.8568 10.2812 40.4396V37.8832C10.2812 37.466 9.9376 37.1244 9.518 37.1244H0V42.476ZM1.044 40.1596V38.1628H8.9152C9.0916 38.1628 9.2364 38.3064 9.2364 38.4824V39.8404C9.2364 40.016 9.092 40.16 8.9152 40.16H1.3252L1.044 40.1596Z" fill="white"/>
<path fill-rule="evenodd" clip-rule="evenodd" d="M23.3332 42.476H24.3776V41.1984H31.9048L32.5644 42.476H33.6932L33.0232 41.1788C33.3608 41.1008 33.614 40.798 33.614 40.4392V37.8828C33.614 37.4656 33.2708 37.124 32.8512 37.124H23.3332V42.476ZM24.3776 40.1596V38.1628H32.2484C32.4252 38.1628 32.57 38.3064 32.57 38.4824V39.8404C32.57 40.016 32.4256 40.16 32.2484 40.16H24.6584L24.3776 40.1596Z" fill="white"/>
<path fill-rule="evenodd" clip-rule="evenodd" d="M58.2732 42.476H59.3176V40.3192H66.988V42.476H68.0324V37.124H66.988V39.2812H59.3176V37.124H58.2732V42.476Z" fill="white"/>
<path fill-rule="evenodd" clip-rule="evenodd" d="M47.752 42.476H56.7072V41.424C56.682 41.4328 56.6548 41.4376 56.6268 41.4376H48.3136C48.1816 41.4376 48.0724 41.3296 48.0724 41.198V38.402C48.0724 38.2704 48.1812 38.1624 48.3136 38.1624H56.6268C56.6548 38.1624 56.682 38.1676 56.7072 38.1764V37.124H47.752C47.3524 37.124 47.0284 37.4476 47.0284 37.8428V41.7568C47.0284 42.1528 47.3524 42.476 47.752 42.476Z" fill="white"/>
<path fill-rule="evenodd" clip-rule="evenodd" d="M69.6388 42.476H80V41.4376H70.6832V40.3192H80V39.2812H70.6832V38.1628H80V37.124H69.6388V42.476Z" fill="white"/>
<path fill-rule="evenodd" clip-rule="evenodd" d="M36.5064 38.642V38.402C36.5064 38.2704 36.6148 38.1624 36.7472 38.1624H45.0608C45.0888 38.1624 45.116 38.1676 45.1408 38.1764V37.124H36.1856C35.7856 37.124 35.4616 37.4476 35.4616 37.8428V39.6C35.4616 39.9952 35.7856 40.3188 36.1856 40.3188H36.948V40.3324C36.9732 40.324 37 40.3188 37.028 40.3188H43.8552C43.988 40.3188 44.0964 40.4268 44.0964 40.5588V41.198C44.0964 41.3296 43.988 41.4376 43.8552 41.4376H35.542C35.514 41.4376 35.4868 41.4328 35.4616 41.424V42.476H44.4168C44.8168 42.476 45.1408 42.1524 45.1408 41.7572V40C45.1408 39.6044 44.8168 39.2808 44.4168 39.2808H43.6552V39.2672C43.6296 39.276 43.6028 39.2808 43.5744 39.2808H36.7468C36.6144 39.2808 36.506 39.1728 36.506 39.0408L36.5064 38.642Z" fill="white"/>
</g>
</svg>
