<svg width="80" height="80" viewBox="0 0 80 80" fill="none" xmlns="http://www.w3.org/2000/svg">
<g style="mix-blend-mode:color-dodge" opacity="0.3">
<rect width="80" height="80" fill="white" fill-opacity="0.01"/>
<path d="M52.4442 9.07807C52.6087 9.32337 52.9793 9.61148 53.2239 9.73413C53.9232 10.1045 54.5415 10.2269 55.1959 10.2269C56.2233 10.2269 56.839 9.77429 56.839 9.11871C56.839 8.33591 56.0566 8.21326 54.8674 8.0519C53.3492 7.84579 52.5277 7.14644 52.5277 5.91561C52.5666 4.68309 53.7198 3.73603 55.4018 3.73603C56.5492 3.73603 57.332 3.98398 57.825 4.22928V5.83216C57.6605 5.54501 57.2899 5.33891 56.9226 5.1761C56.4265 5.01016 55.934 4.92815 55.4018 4.92815C54.5803 4.92815 54.087 5.2569 54.087 5.67031C54.087 6.36533 54.7445 6.44878 56.1819 6.73713C57.6189 7.02379 58.482 7.64114 58.4404 8.91237C58.3988 10.39 57.2483 11.3769 55.1959 11.3769C54.2905 11.3769 53.1431 11.2115 52.4442 10.8435V9.07807Z" fill="white"/>
<path d="M26.9408 6.12027C26.9408 6.85978 26.3254 7.14644 25.3812 7.14644H23.6572V5.0508H25.3812C26.3254 5.0508 26.9408 5.33891 26.9408 6.12027ZM28.0074 9.40538C27.6397 8.70796 27.3528 8.17454 26.8182 7.9266C27.9684 7.6813 28.5423 7.02403 28.5423 6.03826C28.5423 5.09409 28.1301 4.35578 27.353 4.06767C26.8603 3.86157 26.2415 3.86157 25.2975 3.86157H21.5209C21.8912 4.10687 22.0947 4.84614 22.0947 5.50485V9.65188C22.0947 10.2673 21.891 11.0484 21.5209 11.2548H24.2278C23.8604 11.0484 23.6572 10.2673 23.6572 9.65188V8.33568H24.8045C25.3812 8.33568 25.7095 8.54177 25.9548 8.99582C26.3641 9.65188 26.6542 10.5554 27.1469 11.2548H29.3219C28.6676 10.8034 28.3362 10.1042 28.0074 9.40538Z" fill="white"/>
<path d="M33.7588 11.4594C34.7835 11.4594 35.6497 11.1708 36.3044 10.5946C37.0869 9.93999 37.6186 8.95253 37.6186 7.5572C37.6186 6.20372 37.0869 5.1761 36.3044 4.51739C35.6497 3.98398 34.7835 3.69587 33.7588 3.69587C32.7309 3.69587 31.8702 3.98398 31.2103 4.51739C30.4332 5.1761 29.8984 6.20372 29.8984 7.5572C29.8984 8.95253 30.4332 9.93999 31.2103 10.5946C31.8702 11.1708 32.7727 11.4594 33.7588 11.4594ZM32.1989 9.52923C31.748 9.11847 31.5419 8.46241 31.5419 7.5572C31.5419 6.69384 31.748 6.03826 32.1989 5.58686C32.5666 5.21626 33.1015 4.97144 33.7588 4.97144C34.4158 4.97144 34.9506 5.21626 35.3183 5.58686C35.7724 6.03802 36.0172 6.69384 36.0172 7.5572C36.0172 8.46265 35.7722 9.11847 35.3183 9.52923C34.9504 9.89959 34.4158 10.1447 33.7588 10.1447C33.1015 10.1447 32.5666 9.89959 32.1989 9.52923Z" fill="white"/>
<path d="M44.4371 9.36329C44.0246 9.89935 43.1641 10.0626 42.22 10.0626H40.7825V5.50485C40.7825 4.88799 40.9862 4.10663 41.3148 3.86157H38.6467C39.014 4.10687 39.223 4.88823 39.223 5.50485V9.65188C39.223 10.3104 39.014 11.0068 38.6467 11.2548H44.1889L44.4371 9.36329Z" fill="white"/>
<path d="M51.1294 9.36329C50.7175 9.89935 49.8568 10.1042 48.9126 10.0626H47.4338V5.50485C47.4338 4.88799 47.6373 4.10663 48.01 3.86157H45.3394C45.7068 4.10687 45.9156 4.88823 45.9156 5.50485V9.65188C45.9156 10.3104 45.7068 11.0484 45.3394 11.2935H50.8401L51.1294 9.36329Z" fill="white"/>
<path fill-rule="evenodd" clip-rule="evenodd" d="M21.3148 0C18.6436 0 16.4684 2.17645 16.4684 4.84614V75.1541C16.4684 77.8247 18.6439 80 21.3148 80H58.6465C61.3566 80 63.5316 77.8247 63.5316 75.1541V4.84614C63.5316 2.17645 61.3566 0 58.6465 0H21.3148ZM18.4796 4.84615V13.1417H61.5206V4.84615C61.5206 3.28656 60.2477 2.01388 58.6465 2.01388H21.3148C19.7549 2.01388 18.4796 3.28656 18.4796 4.84615ZM61.518 15.1553H18.4796V64.849H61.518V15.1553ZM18.4796 75.1538V66.8597H61.5206V75.1538C61.5206 76.7189 60.2477 77.989 58.6465 77.989H21.3148C19.7549 77.989 18.4796 76.7189 18.4796 75.1538Z" fill="white"/>
<path d="M36.9198 56.9222V45.874C37.9866 45.8348 39.0142 45.7929 40.0421 45.7093C39.6715 44.8459 39.3011 43.9854 38.85 43.1639C38.2343 43.2445 37.5802 43.2445 36.9198 43.2865V40.9886C35.4824 41.3169 33.923 41.5622 32.3216 41.7267V56.9222C32.3216 60.2866 30.7591 61.1918 29.8152 61.8075H39.4238C38.5243 61.1918 36.9198 60.2866 36.9198 56.9222Z" fill="white"/>
<path d="M59.2619 61.7686C58.4822 61.0276 57.4933 59.8776 57.0035 57.6215C56.1007 53.4716 54.2097 47.5168 50.2271 43.0802C54.1291 40.9468 56.5102 37.5768 56.5102 33.4326C56.5492 30.4734 55.0312 27.354 52.3213 25.506C51.1713 24.7636 49.8173 24.2302 48.2135 23.9015C48.7897 25.1342 49.1577 26.4488 49.2409 27.7647C50.9231 29.0766 51.8286 31.0903 51.8286 33.513C51.8286 36.5934 50.2687 40.2058 44.8074 42.055C45.2554 42.9157 45.7066 43.8209 46.0772 44.6816C46.3668 44.6011 46.6534 44.5198 46.9432 44.4363C49.4888 47.3941 51.5388 52.0344 52.1542 56.3457C52.6085 59.4678 51.4998 61.0276 50.762 61.7686H59.2619Z" fill="white"/>
<path d="M28.5839 38.318V21.0707H35.1122C37.496 21.1111 39.2622 21.6041 40.6577 22.5872C42.504 23.9015 43.4929 25.9964 43.4929 28.5028C43.4929 32.7306 40.574 38.1116 28.5839 38.318ZM49.6925 56.7971C48.8705 56.059 47.8879 54.9083 47.4336 52.6501C46.531 48.503 44.7232 42.6709 41.1113 38.521C41.2729 38.4404 41.3982 38.3983 41.5596 38.3177C45.6679 36.2228 48.1743 32.7306 48.1743 28.4598C48.2135 25.4628 46.6929 22.3825 43.9854 20.5344C41.8491 19.0974 38.9753 18.5236 35.3183 18.5236H21.479C22.4232 19.139 23.983 20.0416 23.983 23.4087V51.912C23.983 55.3181 22.4232 56.1817 21.479 56.7971H31.0879C30.1853 56.1814 28.5839 55.3181 28.5839 51.912V40.8633C31.9512 40.8633 35.1122 40.4514 37.7805 39.7549C40.2063 42.6711 42.0139 47.1885 42.5877 51.3355C42.997 54.4605 41.9304 56.0593 41.1921 56.7973H49.6925V56.7971Z" fill="white"/>
<path d="M36.9198 35.8556V26.1217H42.0947C41.7274 25.0522 41.0671 24.1901 40.1674 23.5314H29.8149C30.7591 24.148 32.3213 25.0116 32.3213 28.4191V37.003C34.0457 36.7579 35.605 36.3904 36.9198 35.8556Z" fill="white"/>
<path d="M46.3251 72.4466C46.3251 73.8393 47.1469 74.9088 48.5841 74.9088C49.6115 74.9088 50.5556 74.6218 50.9654 74.1291L50.7175 75.7332C50.3498 75.8948 49.6925 76.1009 48.6259 76.1009C46.3254 76.1009 44.7235 74.7443 44.7235 72.4466C44.7235 71.2158 45.2167 70.2687 45.9548 69.6533C46.6121 69.0768 47.5144 68.7481 48.6257 68.7481C49.6925 68.7481 50.3495 68.9539 50.7172 69.16V70.6809C50.2687 70.1881 49.6112 69.9402 48.5838 69.9402C47.1469 69.9402 46.3251 71.0097 46.3251 72.4466Z" fill="white"/>
<path d="M26.6929 71.0486C26.6929 71.7475 26.1193 72.0344 25.2167 72.0344H23.5737V70.0655H25.2167C26.1193 70.0655 26.6929 70.3103 26.6929 71.0486ZM27.7207 74.1707C27.392 73.5134 27.1048 72.9786 26.6121 72.7754C27.6815 72.5693 28.2135 71.9118 28.2554 71.0097C28.2554 70.0655 27.8456 69.3661 27.1048 69.0766C26.6539 68.9123 26.038 68.9123 25.1331 68.9123H21.5601C21.8912 69.1184 22.0949 69.8176 22.0949 70.4717V74.4184C22.0949 74.992 21.8912 75.7329 21.5601 75.978H24.1057C23.7798 75.7327 23.5737 74.9917 23.5737 74.4184V73.1428H24.6405C25.2167 73.1428 25.5426 73.3881 25.7934 73.7998C26.1609 74.4182 26.4481 75.2762 26.899 75.9359L28.9961 75.978C28.3362 75.4881 28.0519 74.8669 27.7207 74.1707Z" fill="white"/>
<path d="M33.1849 76.1427C34.1681 76.1427 34.9896 75.8558 35.605 75.3207C36.3431 74.7053 36.8808 73.7585 36.8808 72.4466C36.8808 71.1323 36.3433 70.1881 35.605 69.5278C34.9896 69.0374 34.1681 68.7481 33.1849 68.7481C32.2379 68.7481 31.4164 69.0374 30.801 69.5278C30.0626 70.1881 29.5278 71.1323 29.5278 72.4466C29.5278 73.7585 30.0626 74.7055 30.801 75.3207C31.4166 75.8558 32.2381 76.1427 33.1849 76.1427ZM31.7033 74.296C31.294 73.9225 31.0879 73.3071 31.0879 72.4466C31.0879 71.5832 31.294 70.9705 31.7033 70.5556C32.0739 70.1884 32.5666 69.982 33.2241 69.982C33.8396 69.982 34.3323 70.1881 34.7029 70.5556C35.1122 70.9707 35.3186 71.5832 35.3186 72.4466C35.3186 73.3071 35.1125 73.9227 34.7029 74.296C34.3323 74.6635 33.8396 74.9088 33.2241 74.9088C32.5666 74.9088 32.0739 74.6637 31.7033 74.296Z" fill="white"/>
<path d="M42.3813 68.9123C42.5487 69.0374 42.6293 69.1598 42.5877 69.3217C42.5877 69.4886 42.5037 69.7339 42.3424 69.9818L40.9442 71.9926L39.5488 69.94C39.3846 69.6947 39.2232 69.4498 39.2622 69.2411C39.3011 69.1184 39.3458 68.9958 39.5075 68.9123H36.6745C37.1648 69.1184 37.4125 69.4886 37.7805 70.0234L40.0837 73.2655V74.4184C40.0837 74.992 39.8776 75.7329 39.5488 75.9361H42.0944C41.7657 75.7329 41.5596 74.992 41.5596 74.4184V73.2655L43.6567 70.3101C43.9854 69.9008 44.4368 69.1598 44.9296 68.9121L42.3813 68.9123Z" fill="white"/>
<path d="M56.0174 74.8279H54.2097V72.898H56.9226L57.084 71.8285H54.2097V70.0657H55.8113C56.7163 70.0657 57.4546 70.1042 57.825 70.4719V68.9126H52.1987C52.5274 69.16 52.7309 69.901 52.7309 70.4719V74.4186C52.7309 75.0314 52.5274 75.7332 52.1987 75.9782H57.8666L58.1114 74.251C57.6997 74.7861 56.9229 74.8279 56.0174 74.8279Z" fill="white"/>
</g>
</svg>
