<svg width="71" height="71" viewBox="0 0 71 71" fill="none" xmlns="http://www.w3.org/2000/svg">
<rect x="0.682617" y="0.812744" width="70" height="70" rx="4" fill="#61D5E4"/>
<path d="M41.4858 25.271H25.0978C25 25.271 24.9207 25.35 24.9207 25.4476V25.5015C24.9207 25.599 25 25.678 25.0978 25.678H41.4858C41.5837 25.678 41.663 25.599 41.663 25.5015V25.4476C41.663 25.35 41.5837 25.271 41.4858 25.271Z" fill="#E0E0E0"/>
<path d="M41.4858 26.4921H25.0978C25 26.4921 24.9207 26.5711 24.9207 26.6686V26.7225C24.9207 26.82 25 26.8991 25.0978 26.8991H41.4858C41.5837 26.8991 41.663 26.82 41.663 26.7225V26.6686C41.663 26.5711 41.5837 26.4921 41.4858 26.4921Z" fill="#E0E0E0"/>
<path d="M41.4858 28.1196H25.0978C25 28.1196 24.9207 28.1987 24.9207 28.2962V28.3501C24.9207 28.4476 25 28.5267 25.0978 28.5267H41.4858C41.5837 28.5267 41.663 28.4476 41.663 28.3501V28.2962C41.663 28.1987 41.5837 28.1196 41.4858 28.1196Z" fill="#E0E0E0"/>
<path d="M37.4024 29.3407H25.0978C25 29.3407 24.9207 29.4197 24.9207 29.5173V29.5712C24.9207 29.6687 25 29.7477 25.0978 29.7477H37.4024C37.5002 29.7477 37.5795 29.6687 37.5795 29.5712V29.5173C37.5795 29.4197 37.5002 29.3407 37.4024 29.3407Z" fill="#E0E0E0"/>
<g opacity="0.5">
<path opacity="0.5" d="M43.2111 22.3655L43.2807 22.0563L43.1832 22.3584C40.6476 21.6759 38.0338 21.3246 35.4074 21.3133C16.4839 21.2019 7.68262 37.87 7.68262 37.87L25.6157 47.2998C25.6157 47.2998 27.8153 40.5018 35.6273 40.7234C36.1647 40.738 36.7007 40.7847 37.2324 40.8632L34.8557 48.2413C34.7541 48.3854 34.6826 48.5483 34.6454 48.7204C34.6082 48.8926 34.606 49.0704 34.6391 49.2434C34.6721 49.4164 34.7397 49.581 34.8377 49.7275C34.9358 49.8739 35.0624 49.9993 35.2099 50.0961C35.3575 50.1929 35.5231 50.2592 35.6969 50.2911C35.8706 50.3229 36.0491 50.3196 36.2215 50.2815C36.394 50.2433 36.5571 50.171 36.701 50.0689C36.8449 49.9668 36.9668 49.8369 37.0594 49.6869V49.6869V49.6834C37.1828 49.4836 37.2499 49.2544 37.2538 49.0198C37.2538 48.9801 37.2538 48.9404 37.2497 48.9013L38.9677 41.2501C44.0862 42.819 45.6372 47.2993 45.6372 47.2993L63.6826 38.3084C63.6826 38.3084 56.9055 26.0721 43.2111 22.3655Z" fill="url(#paint0_linear)"/>
</g>
<path d="M35.4109 21.4988C16.7288 21.3904 8.03931 37.8446 8.03931 37.8446L25.7441 47.153C25.7441 47.153 27.9163 40.4414 35.6285 40.6577C36.1717 40.6723 36.7135 40.7202 37.2509 40.8011L43.1136 22.538C40.6023 21.8595 38.0129 21.5101 35.4109 21.4988V21.4988Z" fill="#1D4A54"/>
<path d="M43.1135 22.5374L37.2507 40.8022C43.6485 41.7709 45.5122 47.1523 45.5122 47.1523L63.3258 38.277C63.3258 38.277 56.6326 26.1965 43.1135 22.5374Z" fill="#F1F8F9"/>
<path d="M37.2319 48.7349L43.1838 22.2317L34.8658 48.0832C34.7639 48.2253 34.6919 48.3865 34.6539 48.5571C34.616 48.7277 34.613 48.9041 34.6451 49.0759C34.6772 49.2476 34.7437 49.4112 34.8407 49.5567C34.9377 49.7022 35.0632 49.8268 35.2096 49.9228C35.356 50.0189 35.5204 50.0846 35.6928 50.1158C35.8653 50.1471 36.0423 50.1434 36.2133 50.1049C36.3843 50.0664 36.5458 49.9939 36.688 49.8917C36.8302 49.7896 36.9503 49.6599 37.041 49.5104V49.5069C37.1628 49.3097 37.2291 49.0836 37.2331 48.8522C37.2366 48.8113 37.2348 48.7734 37.2319 48.7349Z" fill="#FDD87D"/>
<defs>
<linearGradient id="paint0_linear" x1="33607.7" y1="23927.8" x2="33607.7" y2="9732.54" gradientUnits="userSpaceOnUse">
<stop stop-color="#808080" stop-opacity="0.25"/>
<stop offset="0.54" stop-color="#808080" stop-opacity="0.12"/>
<stop offset="1" stop-color="#808080" stop-opacity="0.1"/>
</linearGradient>
</defs>
</svg>
