<svg width="71" height="71" viewBox="0 0 71 71" fill="none" xmlns="http://www.w3.org/2000/svg">
<rect x="0.682739" y="0.812744" width="70" height="70" rx="4" fill="#C279CE"/>
<path d="M47.0363 36.1663C47.2316 35.971 47.2316 35.6545 47.0363 35.4592L43.8543 32.2772C43.659 32.0819 43.3425 32.0819 43.1472 32.2772C42.9519 32.4725 42.9519 32.7891 43.1472 32.9843L45.9756 35.8127L43.1472 38.6412C42.9519 38.8364 42.9519 39.153 43.1472 39.3483C43.3425 39.5435 43.659 39.5435 43.8543 39.3483L47.0363 36.1663ZM29.6827 36.3127H46.6827V35.3127H29.6827V36.3127Z" fill="white"/>
<path d="M24.3292 35.4592C24.1339 35.6545 24.1339 35.971 24.3292 36.1663L27.5112 39.3483C27.7064 39.5435 28.023 39.5435 28.2183 39.3483C28.4135 39.153 28.4135 38.8364 28.2183 38.6412L25.3898 35.8127L28.2183 32.9843C28.4135 32.7891 28.4135 32.4725 28.2183 32.2772C28.023 32.0819 27.7064 32.0819 27.5112 32.2772L24.3292 35.4592ZM41.6827 35.3127L24.6827 35.3127L24.6827 36.3127L41.6827 36.3127L41.6827 35.3127Z" fill="white"/>
<rect x="50.6827" y="14.8127" width="13" height="42" fill="white"/>
<rect x="7.68274" y="14.8127" width="13" height="42" fill="white"/>
</svg>
