<svg width="71" height="71" viewBox="0 0 71 71" fill="none" xmlns="http://www.w3.org/2000/svg">
<rect x="0.682739" y="0.812744" width="70" height="70" rx="4" fill="#61D5E4"/>
<rect x="7.68274" y="14.8127" width="56" height="42" fill="#DFE3E7"/>
<rect x="11.6827" y="24.8127" width="48" height="28" fill="white"/>
<rect x="35.6827" y="30.8127" width="5" height="5" rx="1" fill="#C5CFD7"/>
<rect x="35.6827" y="37.8127" width="20" height="1" rx="0.5" fill="#495057"/>
<rect x="35.6827" y="40.8127" width="17" height="1" rx="0.5" fill="#C5CFD7"/>
<rect x="35.6827" y="43.8127" width="15" height="1" rx="0.5" fill="#C5CFD7"/>
<rect x="35.6827" y="46.8127" width="19" height="1" rx="0.5" fill="#C5CFD7"/>
<path d="M27.2914 38.593L26.274 38.367L27.0654 39.497V43.0001L29.7784 40.7401V36.8979L28.5349 37.35L27.2914 38.593Z" fill="#C5CFD7"/>
<path d="M20.9609 38.593L21.9783 38.367L21.187 39.497V43.0001L18.4739 40.7401V36.8979L19.7174 37.35L20.9609 38.593Z" fill="#C5CFD7"/>
<path fill-rule="evenodd" clip-rule="evenodd" d="M21.5262 39.723L22.4306 38.3669L22.9958 38.706H25.2567L25.8219 38.3669L26.7262 39.723V44.8082L26.048 45.8252L25.2567 46.6162H22.9958L22.2045 45.8252L21.5262 44.8082V39.723Z" fill="#C5CFD7"/>
<path d="M27.0653 45.1472L28.5349 43.6782V42.2091L27.0653 43.4521V45.1472Z" fill="#C5CFD7"/>
<path d="M21.1871 45.1472L19.7176 43.6782V42.2091L21.1871 43.4521V45.1472Z" fill="#C5CFD7"/>
<path fill-rule="evenodd" clip-rule="evenodd" d="M23.9002 31.8127H22.6567L21.7523 33.9598L23.2219 38.254H25.1436L26.5001 33.9598L25.5958 31.8127H24.3524V38.2539H23.9002V31.8127Z" fill="#C5CFD7"/>
<path d="M23.2219 38.2539L18.361 36.4459L17.6827 33.6208L21.8654 33.9598L23.3349 38.2539H23.2219Z" fill="#C5CFD7"/>
<path d="M25.1435 38.2539L30.0044 36.4459L30.6826 33.6208L26.387 33.9598L25.0304 38.2539H25.1435Z" fill="#C5CFD7"/>
<path d="M26.7262 33.6208L29.1002 33.3948L27.5175 31.8127H25.9349L26.7262 33.6208Z" fill="#C5CFD7"/>
<path d="M21.5263 33.6208L19.1524 33.3948L20.735 31.8127H22.3176L21.5263 33.6208Z" fill="#C5CFD7"/>
<rect x="7.68274" y="14.8127" width="56" height="6" fill="#495057"/>
<circle cx="10.6827" cy="17.8127" r="1" fill="white"/>
<circle cx="14.6827" cy="17.8127" r="1" fill="white"/>
<circle cx="18.6827" cy="17.8127" r="1" fill="white"/>
</svg>
