<svg width="132" height="24" viewBox="0 0 132 24" fill="none" xmlns="http://www.w3.org/2000/svg">
<path fill-rule="evenodd" clip-rule="evenodd" d="M21.5322 11.7588C21.4206 6.08377 17.0586 1.47263 11.6902 1.47263C6.32105 1.47263 2.07135 6.20173 2.07135 11.8776H0.170044C0.170044 5.61041 4.86752 0.526659 10.7953 0.408691C16.7232 0.408691 21.6445 5.49244 21.6445 11.7588H21.5322Z" fill="#9E9E9E"/>
<path fill-rule="evenodd" clip-rule="evenodd" d="M21.8291 11.3515C21.8291 6.74039 18.3619 3.07523 13.9999 3.07523C9.63795 3.07523 6.5063 6.74039 6.5063 11.3515H4.3811C4.3811 6.14907 8.40761 2.01055 13.329 1.89258C18.138 1.89258 22.053 6.62168 22.1646 11.2328L21.8291 11.3515Z" fill="#9E9E9E"/>
<path fill-rule="evenodd" clip-rule="evenodd" d="M21.4234 11.3308C21.4234 8.02025 18.7389 5.30106 15.4956 5.30106C12.2524 5.30106 9.90328 8.02025 9.90328 11.4495H7.89038C7.89038 7.42893 10.7981 4.11841 14.6008 4.11841C18.4041 4.11841 21.4234 7.42893 21.5357 11.3308H21.4234Z" fill="#9E9E9E"/>
<mask id="mask0" mask-type="alpha" maskUnits="userSpaceOnUse" x="0" y="11" width="22" height="13">
<path fill-rule="evenodd" clip-rule="evenodd" d="M0.170044 11.9396V23.4084H21.7565V11.9396H0.170044V11.9396Z" fill="white"/>
</mask>
<g mask="url(#mask0)">
<path fill-rule="evenodd" clip-rule="evenodd" d="M0.39369 12.0583C0.39369 17.7334 4.75568 22.3445 10.1241 22.3445C15.6049 22.3445 19.8553 17.6154 19.8553 11.9396H21.7566C21.7566 18.206 16.9468 23.4084 11.019 23.4084C5.09116 23.4084 0.282096 18.3247 0.1698 12.0583H0.39369Z" fill="#9E9E9E"/>
</g>
<mask id="mask1" mask-type="alpha" maskUnits="userSpaceOnUse" x="0" y="11" width="18" height="11">
<path fill-rule="evenodd" clip-rule="evenodd" d="M0.170044 11.9399V21.3989H17.8416V11.9399H0.170044V11.9399Z" fill="white"/>
</mask>
<g mask="url(#mask1)">
<path fill-rule="evenodd" clip-rule="evenodd" d="M0.39369 11.9399C0.39369 16.5511 3.86082 20.2162 8.22281 20.2162C12.5848 20.2162 15.828 16.5511 15.7165 11.9399H17.8417C17.8417 17.1424 13.8151 21.3989 9.00608 21.3989C4.08471 21.3989 0.1698 16.6698 0.1698 12.0587L0.39369 11.9399Z" fill="#9E9E9E"/>
</g>
<path fill-rule="evenodd" clip-rule="evenodd" d="M0.170044 11.6566C0.281638 14.9671 2.96621 17.6863 6.09786 17.6863C9.3411 17.6863 11.6902 14.9671 11.6902 11.5378H13.7031C13.7031 15.5584 10.7953 18.8689 6.99272 18.8689C3.1901 18.8689 0.170044 15.6764 0.170044 11.6566Z" fill="#9E9E9E"/>
<path fill-rule="evenodd" clip-rule="evenodd" d="M32.4327 20.2192L33.4391 17.8546H39.0314L39.3669 20.2192H44.9593L41.8276 1.89258H36.1237L26.8403 20.2192H32.4327ZM38.696 14.0708H35.1165L38.025 7.44976L38.696 14.0708Z" fill="#9E9E9E"/>
<path fill-rule="evenodd" clip-rule="evenodd" d="M47.1938 20.2192L50.2139 1.89258H55.9178L52.8978 20.2192H47.1938Z" fill="#9E9E9E"/>
<path fill-rule="evenodd" clip-rule="evenodd" d="M61.7986 20.2192L62.8051 13.8348H65.0419C65.7128 13.8348 66.2722 13.9528 66.6077 14.0707C66.9432 14.3074 67.1671 14.5441 67.2793 14.8987C67.3909 15.2534 67.3909 15.726 67.2793 16.3173L67.1671 17.7359C66.9432 18.9185 66.9432 19.7465 66.9432 20.2192H72.7594V19.6278C72.6478 19.6278 72.4239 19.6278 72.4239 19.5099C72.3123 19.3919 72.3123 19.1552 72.4239 18.6819L72.8717 15.8447C72.9833 14.5441 72.9833 13.5981 72.6478 13.1248C72.3123 12.5342 71.6413 12.0608 70.6342 11.5882C71.1936 11.4702 71.6413 11.2336 72.0884 10.9969C72.6478 10.5243 73.0949 10.0509 73.4304 9.46033C73.8781 8.7503 74.1013 8.04101 74.3252 7.09504C74.4368 6.38575 74.4368 5.79442 74.3252 5.32181C74.2136 4.73049 73.9897 4.25787 73.7658 3.90323C73.4304 3.42987 73.0949 3.07523 72.6478 2.72058C72.0884 2.4839 71.529 2.24722 70.7465 2.12926C69.9632 2.01129 68.9568 1.89258 67.7264 1.89258H59.3379L56.3179 20.2192H61.7986ZM64.0354 6.38582H66.8316C67.7264 6.38582 68.2858 6.50379 68.6213 6.85918C68.8445 7.09511 68.9568 7.56847 68.8445 8.04108C68.7329 8.63241 68.5097 9.10502 68.0619 9.3417C67.7264 9.69634 67.0555 9.81431 66.1606 9.81431H63.4761L64.0354 6.38582Z" fill="#9E9E9E"/>
<path fill-rule="evenodd" clip-rule="evenodd" d="M85.0292 12.5335C86.148 12.5335 86.8189 12.7702 87.1544 13.0068C87.4899 13.3607 87.6015 13.7161 87.4899 14.3067C87.3783 14.7801 87.1544 15.2527 86.7073 15.6073C86.2595 15.844 85.5886 16.0807 84.4698 16.0807H82.1214L82.6808 12.5335H85.0292ZM84.6937 20.2184C86.0356 20.2184 86.9305 20.1004 87.4899 19.9825C88.0492 19.8638 88.7202 19.6278 89.2796 19.3912C89.9506 19.0365 90.3976 18.7998 90.7338 18.4452C91.2925 18.0905 91.628 17.4992 91.9635 16.9079C92.4112 16.1986 92.6351 15.4893 92.7467 14.78C92.8583 13.7161 92.7467 12.7701 92.4112 12.0601C91.9635 11.2328 91.4048 10.7602 90.5099 10.5235C92.1873 9.45959 93.1938 8.15898 93.4177 6.62168C93.7532 4.96642 93.3061 3.78452 92.0758 2.95652C91.1809 2.24722 89.7267 1.89258 87.4899 1.89258H78.9898L75.9697 20.2184H84.6937ZM85.5886 6.03044C86.3711 6.03044 86.9305 6.14915 87.1544 6.14915C87.4899 6.26711 87.7138 6.50379 87.8253 6.73973C88.0492 6.97641 88.0492 7.33105 88.0492 7.6857C87.9369 8.15905 87.7138 8.5137 87.266 8.86835C86.9305 9.10502 86.2595 9.34096 85.3647 9.34096H83.2395L83.7988 6.03044H85.5886Z" fill="#9E9E9E"/>
<path fill-rule="evenodd" clip-rule="evenodd" d="M97.6786 1.89258H103.271L101.37 13.2427C101.257 13.952 101.257 14.5433 101.37 14.898C101.481 15.2526 101.705 15.608 102.153 15.844C102.6 16.0806 103.047 16.1986 103.606 16.1986C104.389 16.1986 105.172 15.9619 105.619 15.4893C106.179 15.0167 106.515 14.1887 106.738 13.2427L108.639 1.89258H114.232L112.442 12.6514C112.219 13.952 111.995 15.0167 111.659 15.844C111.324 16.5532 110.876 17.2625 110.317 17.8539C109.758 18.4452 109.087 19.0365 108.416 19.3912C107.633 19.8638 106.85 20.2192 105.955 20.4551C104.948 20.5738 103.942 20.6918 102.935 20.6918C101.705 20.6918 100.699 20.5738 99.8038 20.4551C98.9089 20.2192 98.2379 19.8638 97.6786 19.3912C97.0076 18.9185 96.5605 18.4452 96.2243 17.8539C95.8895 17.2625 95.6656 16.4353 95.6656 15.4893C95.5534 14.898 95.6656 13.834 95.8895 12.5334L97.6786 1.89258Z" fill="#9E9E9E"/>
<path fill-rule="evenodd" clip-rule="evenodd" d="M131.826 7.68636H126.346C126.346 7.21301 126.122 6.74039 125.898 6.50372C125.563 6.26778 125.115 6.14907 124.444 6.14907C123.773 6.14907 123.214 6.26778 122.878 6.50372C122.543 6.74039 122.431 6.97707 122.32 7.33172C122.32 7.68636 122.32 7.80433 122.543 8.04101C122.767 8.27769 123.326 8.51362 124.333 8.7503L126.458 9.34162C128.359 9.93295 129.701 10.6422 130.372 11.5882C131.044 12.5342 131.267 13.5981 131.044 14.8987C130.82 15.9627 130.484 16.7907 129.925 17.6179C129.366 18.4459 128.695 19.1552 128.024 19.6278C127.353 20.1012 126.458 20.4558 125.451 20.8105C124.444 21.0472 123.326 21.1651 122.207 21.1651C121.089 21.1651 119.971 21.0472 118.964 20.6918C117.958 20.3371 117.175 19.8645 116.615 19.2732C116.056 18.6819 115.609 17.9726 115.385 17.1453C115.273 16.554 115.273 15.8447 115.273 15.0167H120.754C120.754 15.608 120.977 16.0806 121.313 16.3173C121.649 16.672 122.32 16.7907 123.214 16.7907C123.997 16.7907 124.557 16.672 124.892 16.4353C125.228 16.1993 125.339 15.9627 125.451 15.608C125.451 15.2534 125.451 14.8987 125.228 14.6621C125.004 14.4254 124.444 14.1894 123.438 13.9528L121.536 13.4801C120.642 13.2435 119.635 12.8888 118.852 12.4155C118.069 11.9429 117.398 11.3515 117.063 10.5235C116.727 9.81424 116.727 8.98698 116.839 7.92304C117.063 6.8591 117.398 6.0311 117.958 5.2031C118.516 4.37584 119.188 3.78452 119.971 3.3119C120.642 2.72058 121.536 2.4839 122.431 2.24797C123.326 2.01129 124.221 1.89258 125.115 1.89258C126.234 1.89258 127.129 2.01129 128.024 2.24797C128.919 2.4839 129.477 2.83855 130.037 3.19319C130.484 3.54858 130.82 4.02119 131.044 4.49381C131.379 4.96716 131.491 5.43978 131.602 5.91313C131.715 6.38575 131.826 6.97707 131.826 7.68636Z" fill="#9E9E9E"/>
</svg>
