<svg width="103" height="41" viewBox="0 0 103 41" fill="none" xmlns="http://www.w3.org/2000/svg">
<mask id="mask0" mask-type="alpha" maskUnits="userSpaceOnUse" x="0" y="10" width="25" height="26">
<path fill-rule="evenodd" clip-rule="evenodd" d="M0.88916 10.8982V35.5813H24.5705V10.8982L0.88916 10.8982V10.8982Z" fill="white"/>
</mask>
<g mask="url(#mask0)">
<path fill-rule="evenodd" clip-rule="evenodd" d="M5.81131 21.03C5.81131 21.03 6.14648 14.3751 12.8807 14.3731C19.5904 14.3711 19.5904 21.03 19.5904 21.03H5.81131ZM12.9965 10.8982C1.28847 10.8958 0.833617 21.0599 0.893277 23.6986C0.893277 23.6986 0.319826 35.5813 12.7098 35.5813C23.3558 35.5813 23.8801 28.1252 23.8801 28.1252L18.9819 28.1365C18.9819 28.1365 18.0281 32.2438 12.73 32.1341C5.91874 31.9925 5.65443 24.6337 5.65443 24.6337H24.5237C24.5237 24.6337 25.9555 10.901 12.9965 10.8982Z" fill="#9E9E9E"/>
</g>
<path fill-rule="evenodd" clip-rule="evenodd" d="M37.4205 30.7079C29.6914 30.8101 29.817 22.0679 29.817 22.0679C29.817 22.0679 29.5354 13.6534 37.4081 13.4371C45.2804 13.2208 45.024 22.2474 45.024 22.2474C45.024 22.2474 45.1496 30.6049 37.4205 30.7079ZM38.5445 9.94153C32.4243 9.90547 29.7914 13.7615 29.7914 13.7615V0.860596H24.885L24.9681 28.126C24.9681 28.126 24.9384 31.3022 24.7527 33.4012H29.5185L29.7226 30.3379C29.7226 30.3379 31.9457 34.1939 38.4418 34.1939C44.9383 34.1939 50.068 29.9773 50.2048 22.1579C50.3409 14.338 44.6654 9.97758 38.5445 9.94153Z" fill="#9E9E9E"/>
<path fill-rule="evenodd" clip-rule="evenodd" d="M60.7917 32.4765C60.7917 32.4765 55.7394 32.483 55.4428 28.2333C55.1273 23.6985 63.2155 23.9713 63.2155 23.9713L68.9301 23.9656C68.9301 23.9656 69.8555 32.6017 60.7917 32.4765ZM73.9651 29.5233C73.9778 25.9041 74.0783 22.6724 73.9651 20.3928C73.833 17.7498 74.0709 11.3708 63.2155 10.8992C63.2155 10.8992 52.8089 9.90073 51.7283 18.0547H57.0506C57.0506 18.0547 57.4642 14.3188 62.8649 14.4265C67.9759 14.5282 68.907 17.1672 68.8804 20.4123C68.8804 20.4123 64.5001 20.4253 63.0379 20.433C60.4036 20.4469 51.1838 20.7542 50.3233 26.666C49.2995 33.6954 55.2594 35.8884 59.9224 35.8603C64.5858 35.8327 67.2463 34.363 69.2225 31.7281L69.4338 35.0005L74.0709 34.9728C74.0709 34.9728 73.9512 33.1429 73.9651 29.5233Z" fill="#9E9E9E"/>
<path fill-rule="evenodd" clip-rule="evenodd" d="M69.2983 10.8606H74.8954L83.0811 27.6894L91.2841 10.8606H96.3438L81.5343 40.8606H76.1228L80.4086 32.5241L69.2983 10.8606Z" fill="#9E9E9E"/>
<path fill-rule="evenodd" clip-rule="evenodd" d="M99.8486 12.1482V11.4692H99.5256V11.2147H99.8486V10.8606H100.432V11.2147H101.117V11.4692H100.432V12.102C100.432 12.2169 100.548 12.2632 100.745 12.2632C100.876 12.2632 100.992 12.2486 101.108 12.219V12.461C100.963 12.5027 100.804 12.5273 100.582 12.5273C100.152 12.5273 99.8486 12.4319 99.8486 12.1482Z" fill="#9E9E9E"/>
<mask id="mask1" mask-type="alpha" maskUnits="userSpaceOnUse" x="101" y="10" width="2" height="2">
<path fill-rule="evenodd" clip-rule="evenodd" d="M102.491 11.5448V10.8862L101.117 10.8862V11.5448H102.491Z" fill="white"/>
</mask>
<g mask="url(#mask1)">
<path fill-rule="evenodd" clip-rule="evenodd" d="M101.117 10.8996H101.324V10.9973C101.382 10.94 101.461 10.8862 101.6 10.8862C101.729 10.8862 101.822 10.9314 101.87 10.9998C101.942 10.9314 102.038 10.8862 102.175 10.8862C102.371 10.8862 102.491 10.9754 102.491 11.1331V11.5448H102.284V11.1783C102.284 11.0756 102.217 11.0206 102.101 11.0206C101.988 11.0206 101.908 11.0769 101.908 11.1806V11.5448H101.701V11.1771C101.701 11.0769 101.632 11.0206 101.518 11.0206C101.403 11.0206 101.324 11.0816 101.324 11.1806V11.5448H101.117V10.8996Z" fill="#9E9E9E"/>
</g>
</svg>
