<svg width="103" height="42" viewBox="0 0 103 42" fill="none" xmlns="http://www.w3.org/2000/svg">
<mask id="mask0" mask-type="alpha" maskUnits="userSpaceOnUse" x="0" y="0" width="103" height="42">
<path fill-rule="evenodd" clip-rule="evenodd" d="M102.708 41.7059H0.708008V0.0155029L102.708 0.0155029V41.7059Z" fill="white"/>
</mask>
<g mask="url(#mask0)">
<path fill-rule="evenodd" clip-rule="evenodd" d="M48.7054 14.3587C48.9007 14.1442 49.2311 13.5058 49.1659 13.0802C49.1342 12.8674 49.0357 12.6169 48.8038 12.6529C48.3083 12.7576 48.0129 13.0099 47.8827 13.5401C47.7159 14.1082 47.7842 14.5012 47.8827 14.9268C47.8827 14.9268 48.2098 14.9628 48.7054 14.3587ZM74.6569 28.1134C76.072 28.043 78.6688 25.1291 79.2961 24.4169C79.4264 24.2384 79.6582 23.9209 79.7853 23.9209C79.9187 23.9209 80.1824 24.0617 80.1824 24.2728C80.1824 24.4169 79.887 24.9506 79.6582 25.2698C78.34 27.0477 76.1705 29.7832 73.7024 29.8535C72.4874 29.8535 72.0268 29.3233 71.8601 28.2919C71.3026 28.8239 69.3936 29.7488 67.4512 29.7488C65.8391 29.7128 65.18 28.6831 64.8544 27.8663C64.5558 27.1901 64.4272 26.1948 64.6575 25.1994C63.7681 25.6971 62.9454 25.7675 61.7622 25.7332C60.382 25.6971 59.5259 25.021 59.1003 23.2826C57.52 26.4059 57.4533 26.5157 55.8428 29.7832H53.0444L56.6306 23.2071C57.0928 22.3215 57.3231 21.6111 57.4851 20.8628C57.5851 20.4373 57.2897 20.046 56.8609 20.0117C56.4035 20.0117 55.6459 20.5076 54.9201 21.2558C54.9201 21.2558 53.0762 23.389 51.7293 25.553C50.4476 27.6157 48.2432 29.9651 45.8434 29.9651C44.0979 29.9651 42.5177 28.932 42.1921 26.9413C42.1921 26.9413 42.0253 27.4046 40.48 28.3622C40.3481 28.4326 40.0194 28.6454 39.9209 28.575C39.6239 28.2919 39.4619 27.9349 39.4286 27.6861C39.527 27.7204 39.724 27.5454 40.3481 27.0117C41.5663 26.0146 41.8299 25.2355 41.8299 25.2355C42.1269 24.5576 42.6526 23.4936 43.0148 22.7471C43.9995 20.614 45.7084 18.4466 48.5052 18.3402C48.9674 18.3402 49.0977 18.553 49.1961 18.7314C49.4614 18.946 49.3629 19.3698 49.3629 19.3698C47.3887 19.689 46.0387 20.9349 45.2176 22.1431C44.7237 22.9256 44.1996 24.2024 44.0979 25.1291C43.9026 26.7285 44.595 27.7959 45.6115 28.043C47.519 28.3622 49.0977 26.8709 50.3508 24.5576C50.6764 23.9553 50.9098 22.3919 50.9098 21.5373C50.9098 20.6844 50.481 19.7989 50.1522 19.4419C50.1522 18.8361 50.5128 18.4466 50.94 18.4466C51.0718 18.4466 51.2021 18.4466 51.3355 18.589C51.9914 19.2978 52.3551 20.6501 52.3551 21.6831C52.3551 22.0349 52.3551 22.3919 52.29 22.7471C53.6717 20.9349 55.414 18.589 56.7624 18.1239C57.0261 17.9832 57.2897 17.9832 57.5534 17.9832C60.0199 17.9129 59.6895 20.3274 59.6895 20.3274C61.0062 18.6954 61.9273 18.0896 63.1407 18.16C64.4605 18.2355 64.9211 19.2274 64.9211 20.0117C64.8862 20.9349 64.2604 21.9989 63.1773 22.0349C62.2243 22.0349 61.6637 21.5373 61.3667 20.614C60.7441 20.8628 60.4471 21.3262 60.3169 22.2495C60.1199 23.4198 60.941 24.3465 61.9924 24.3465C63.8014 24.3465 64.5908 23.4936 65.2483 22.8535C67.4845 20.578 68.7376 18.1943 71.9617 18.2355C73.8978 18.2681 74.3949 19.9413 74.7221 20.6501L78.9674 12.9018H81.5641L74.5251 26.3715C74.3949 26.6564 74.0661 27.1901 74.0963 27.6157C74.163 28.2919 74.9523 28.1134 74.6569 28.1134ZM29.5577 29.9976C26.6973 29.9976 24.1657 27.9726 24.1006 24.3465C24.0672 22.143 25.711 19.4419 28.7684 18.6233C29.1321 18.6233 29.2655 18.7657 29.2655 18.9802C29.2655 19.121 29.1321 19.2977 28.8367 19.4419C27.9504 19.7988 26.4019 21.6831 26.4019 23.4198C26.4019 24.7378 27.1611 26.1947 28.4444 26.5157C28.8017 26.6203 29.1321 26.586 29.4608 26.586C32.6532 26.586 36.2378 22.7111 40.121 16.8128C39.4952 16.8471 36.827 17.1663 36.1727 17.9832C35.8757 18.2354 35.6803 18.0896 35.612 17.8081C35.612 17.7361 35.7121 17.4855 35.8121 17.3448C36.8604 16.0663 40.0193 15.7797 40.7769 15.675C43.6103 10.978 47.2235 7.98343 48.2162 7.76891C48.1955 7.76205 48.1685 7.75175 48.1431 7.74661C45.6115 7.1065 43.3086 6.57622 41.5012 6.57622C35.1514 6.57622 32.3244 9.52449 32.4562 12.2274C32.5229 13.3291 33.344 14.0379 34.5574 13.7907C35.8757 13.5402 37.7164 12.1913 38.1802 11.0175C38.2786 10.7687 38.5423 10.7343 38.6392 10.8047C38.8345 10.9797 38.7694 11.232 38.7694 11.232C38.6074 12.6169 36.6317 16.4576 33.2106 16.4576C31.3032 16.4576 30.0183 14.5372 30.0564 12.653C30.0866 9.13493 33.4092 5.57916 41.5996 5.57916C43.145 5.57916 44.8888 5.72332 46.7963 6.07855C48.9992 6.50414 54.4944 7.49949 58.9653 7.56985C60.6091 7.56985 62.7182 7.64192 64.4272 7.35877C66.2346 7.03785 65.8391 6.96749 66.5633 6.96749C67.2224 6.96749 67.2224 7.25065 67.2224 7.53552C67.2224 8.67159 63.5378 10.8407 60.4137 10.8407C55.811 10.8407 51.0321 8.58407 48.5513 7.85815C48.6482 7.95597 48.7149 8.11214 48.6386 8.31635C48.6069 8.38843 48.2781 8.7797 48.1431 8.88438C47.4856 9.52449 45.2494 11.0913 42.8146 15.5343C44.7904 15.4279 47.0901 15.0006 47.0901 15.0006C47.0901 15.0006 46.9631 14.5372 46.9631 14.1442C47.0615 12.6169 47.8826 11.6919 48.934 11.8704C49.5264 11.9751 49.9235 12.5105 49.9235 13.0803C49.9235 13.6809 49.4931 14.5733 49.069 15.0006C48.772 15.2477 48.4417 15.4965 48.0462 15.7093C48.0462 16.1023 48.5386 16.4198 48.9674 16.4576C48.8689 16.8471 48.9007 17.0239 48.7371 16.9896C47.7492 16.9896 47.3538 15.9565 47.3538 15.9565C46.0387 16.207 44.7586 16.3855 42.1603 16.6686C35.612 28.1134 33.5727 29.9976 29.5577 29.9976ZM51.7229 3.67593C25.476 3.67593 4.26207 11.3881 4.26207 20.8782C4.26207 30.4043 25.476 38.1182 51.7229 38.1182C77.9398 38.1182 99.2235 30.4043 99.2235 20.8782C99.2235 11.3881 77.9398 3.67593 51.7229 3.67593ZM72.0935 19.9035C70.9405 19.7593 69.4936 20.8268 68.3072 22.3918C67.7164 23.1727 67.0891 24.6657 66.9922 25.5529C66.8619 26.4419 67.0891 27.3342 67.3876 27.5796C67.683 27.8302 68.9981 28.575 71.0374 26.3355C72.1904 25.0947 73.3069 23.0663 73.3069 23.0663L72.9464 22.9616C73.6373 21.5733 73.5071 20.082 72.0935 19.9035ZM51.723 39.5719C24.6867 39.5719 2.71518 31.2556 2.71518 20.8783C2.71518 10.5336 24.6867 2.1127 51.723 2.1127C78.8308 2.1127 100.767 10.5336 100.767 20.8783C100.767 31.2556 78.8308 39.5719 51.723 39.5719ZM51.7231 0.0155029C23.5369 0.0155029 0.707764 9.36313 0.707764 20.8782C0.707764 32.3933 23.5369 41.7066 51.7231 41.7066C79.8807 41.7066 102.708 32.3933 102.708 20.8782C102.708 9.36313 79.8807 0.0155029 51.7231 0.0155029Z" fill="#9E9E9E"/>
</g>
</svg>
