<svg width="80" height="53" viewBox="0 0 80 53" fill="none" xmlns="http://www.w3.org/2000/svg">
<path fill-rule="evenodd" clip-rule="evenodd" d="M79.54 15.6129C75.8314 -2.4682 40.7332 -3.61284 18.1102 10.1595V11.68C40.7103 0.0654477 72.7626 0.13387 75.6828 16.7873C76.6598 22.294 73.5568 28.0353 68.0149 31.3353V35.6529C74.6853 33.2126 81.5263 25.2993 79.54 15.6129ZM61.1417 31.2038C61.1417 33.344 62.1783 35.1983 65.2339 35.493V12.979H61.1417V31.2038ZM12.4016 17.416H16.4904V13.5319H12.4016V17.416ZM41.0102 35.6471C37.7019 35.6471 36.2982 33.3441 36.2982 31.0695V15.263H40.3529V19.6319H43.4095V22.9099H40.3529V30.8153C40.3529 31.7469 40.7927 32.264 41.76 32.264H43.4095V35.6471H41.0102ZM52.076 32.51C49.7705 32.51 48.4793 30.9812 48.4793 28.904H58.7806V27.4412C58.7806 22.8587 56.2811 19.3603 51.9547 19.3603C47.6865 19.3603 44.4383 22.3485 44.4383 27.6269C44.4383 33.8046 48.1587 35.9243 52.0461 35.9243C55.0153 35.9243 56.7005 34.9615 58.3065 33.376L55.7982 30.9812C54.7611 32.0129 53.8696 32.51 52.076 32.51ZM24.1647 22.9098V35.667H20.1037V19.6318L28.4876 19.6401C32.0486 19.6401 33.2617 22.1513 33.2617 24.4323V35.667H29.2081V24.4533C29.2081 23.4978 28.7134 22.9098 27.5204 22.9098H24.1647ZM51.7788 22.7183C50.3907 22.7183 49.3165 23.4318 48.8678 24.4005C48.6019 24.9821 48.5105 25.4279 48.4793 26.14H54.7269C54.6467 24.4005 53.8579 22.7183 51.7788 22.7183ZM16.5008 35.8356C13.4388 35.5414 12.3973 33.6842 12.3973 31.541L12.4017 19.6318H16.5008V35.8356H16.5008ZM4.25623 34.2244C6.5328 46.4249 22.8031 48.6912 38.4165 47.2479C48.0125 46.3594 59.5342 42.9308 66.4968 38.7848V44.768C58.8236 48.9795 47.7862 51.6911 39.3535 52.5141C18.0398 54.5854 4.07588 48.3481 1.46647 37.3416C-0.577946 28.7582 2.97327 21.494 9.51658 15.7562V17.8739C5.88179 21.8342 3.14189 28.2099 4.25623 34.2244Z" fill="#9E9E9E"/>
<path fill-rule="evenodd" clip-rule="evenodd" d="M68.0146 14.6075C68.0146 15.5043 68.7375 16.2355 69.6436 16.2355C70.54 16.2355 71.2765 15.5043 71.2765 14.6075C71.2765 13.7121 70.54 12.979 69.6436 12.979C68.7375 12.979 68.0146 13.7121 68.0146 14.6075ZM69.6437 13.2502C68.8978 13.2502 68.2947 13.866 68.2947 14.6075C68.2947 15.3499 68.8978 15.9559 69.6437 15.9559C70.3856 15.9559 70.9946 15.3499 70.9946 14.6075C70.9946 13.866 70.3856 13.2502 69.6437 13.2502ZM70.0601 15.5817H70.3632L70.3632 15.5817C70.4115 15.5817 70.4286 15.55 70.4286 15.5216C70.4286 15.511 70.4248 15.4992 70.4212 15.4883C70.4191 15.4817 70.417 15.4754 70.416 15.4698L69.9873 14.745C70.2131 14.6692 70.3588 14.5148 70.3588 14.222V14.1893C70.3588 13.7162 70.0543 13.5676 69.5509 13.5676C69.4091 13.5676 69.1462 13.5764 69.0494 13.5891C68.9634 13.6023 68.9238 13.6449 68.9238 13.7465V15.5045C68.9238 15.5417 68.958 15.5817 68.9922 15.5817H69.2664C69.3153 15.5817 69.3407 15.5417 69.3407 15.5045V14.8095H69.5264C69.5406 14.8095 69.5763 14.8267 69.5836 14.8408L69.9971 15.5417C70.0088 15.5646 70.0328 15.5817 70.0601 15.5817ZM69.5835 13.9277C69.8484 13.9277 69.9642 13.9908 69.9642 14.1892V14.1892V14.2219C69.9642 14.4076 69.8484 14.4961 69.5835 14.4961C69.5676 14.4961 69.5159 14.4945 69.4626 14.4929C69.4057 14.4911 69.347 14.4893 69.3279 14.4893V13.9277H69.5835Z" fill="#9E9E9E"/>
</svg>
