<svg width="78" height="39" viewBox="0 0 78 39" fill="none" xmlns="http://www.w3.org/2000/svg">
<path d="M0.0649414 0.80481V38.897H38.977L77.0649 0.809098H0.0649414V0.80481Z" fill="#9E9E9E"/>
<path fill-rule="evenodd" clip-rule="evenodd" d="M50.3175 33.9581C48.9573 33.9581 47.7981 35.0063 47.7981 36.4239C47.7981 37.8518 48.9572 38.9164 50.3175 38.9164C51.6589 38.9164 52.7832 37.852 52.7832 36.4239C52.7832 35.0063 51.6589 33.9581 50.3175 33.9581ZM49.3528 37.8443V35.0034H50.4248C51.1005 35.0034 51.4432 35.2474 51.4432 35.8074C51.4432 36.3185 51.1079 36.56 50.6927 36.6114L51.5236 37.8443H51.0412L50.2639 36.6114H49.7816V37.8443H49.3528ZM50.3709 35.3786H49.7814V36.263H50.2906C50.6568 36.263 50.9874 36.224 50.9874 35.7805C50.9874 35.4257 50.6609 35.3786 50.3709 35.3786ZM52.3008 36.4237C52.3008 35.2566 51.4273 34.3601 50.3176 34.3601C49.1889 34.3601 48.2807 35.2566 48.2807 36.4237C48.2807 37.6109 49.1889 38.4875 50.3176 38.4875C51.4273 38.4875 52.3008 37.6109 52.3008 36.4237Z" fill="#9E9E9E"/>
<path fill-rule="evenodd" clip-rule="evenodd" d="M46.2033 19.0313H44.5343V12.9275H46.2033C48.4315 12.9275 50.2051 13.6616 50.2051 15.9404C50.2051 18.2937 48.4315 19.0313 46.2033 19.0313ZM28.2401 23.395C27.3567 23.395 26.5283 23.2338 25.8121 22.9645L28.2161 15.3829H28.2676L30.6218 22.9851C29.9125 23.2389 29.1055 23.395 28.2427 23.395M45.7608 7.96864H38.1818V25.9903L31.5608 7.96864H24.9981L19.3411 23.0357C18.7433 19.2381 14.8093 17.9233 11.7166 16.943C9.67803 16.2869 7.5082 15.3229 7.52792 14.2552C7.54508 13.3821 8.69346 12.5725 10.9585 12.6934C12.4851 12.7706 13.8316 12.8941 16.5049 14.1866L19.1378 9.59988C16.6987 8.35373 13.3187 7.57156 10.5537 7.56555H10.5365C7.31094 7.56555 4.62309 8.61702 2.95583 10.3383C1.79716 11.5424 1.17022 13.0656 1.14192 14.7612C1.09903 17.0837 1.9541 18.7321 3.744 20.0503C5.2586 21.16 7.19087 21.8745 8.89758 22.4096C11.0031 23.0589 12.7218 23.6258 12.7021 24.8342C12.6849 25.2742 12.5211 25.6867 12.2029 26.0126C11.6789 26.5572 10.8736 26.7587 9.75951 26.7836C7.61197 26.8265 6.01933 26.492 3.48242 24.9928L1.14192 29.6438C3.6711 31.0838 6.66513 31.926 9.72091 31.926H10.1163C12.775 31.8746 14.9225 31.1156 16.6387 29.7365L16.9165 29.4938L16.1584 31.5315H23.041L24.1971 28.016C25.4063 28.4251 26.7837 28.655 28.2417 28.655C29.6645 28.655 31.0067 28.4406 32.1946 28.0495L33.3061 31.5315H44.5361V24.2501H46.9863C52.9041 24.2501 56.4084 21.2381 56.4084 16.1831C56.4084 10.557 53.0053 7.97636 45.7599 7.97636" fill="white"/>
</svg>
