<svg width="102" height="42" viewBox="0 0 102 42" fill="none" xmlns="http://www.w3.org/2000/svg">
<mask id="mask0" mask-type="alpha" maskUnits="userSpaceOnUse" x="0" y="0" width="102" height="42">
<path fill-rule="evenodd" clip-rule="evenodd" d="M102 41.6904H0V0L102 0V41.6904Z" fill="white"/>
</mask>
<g mask="url(#mask0)">
<path fill-rule="evenodd" clip-rule="evenodd" d="M47.9972 14.3432C48.1926 14.1287 48.5229 13.4903 48.4578 13.0647C48.426 12.8519 48.3276 12.6014 48.0957 12.6374C47.6002 12.7421 47.3048 12.9944 47.1745 13.5246C47.0078 14.0927 47.0761 14.4857 47.1745 14.9113C47.1745 14.9113 47.5017 14.9473 47.9972 14.3432ZM73.9488 28.0979C75.3639 28.0275 77.9607 25.1136 78.588 24.4014C78.7182 24.2229 78.9501 23.9054 79.0772 23.9054C79.2106 23.9054 79.4742 24.0462 79.4742 24.2572C79.4742 24.4014 79.1788 24.9351 78.9501 25.2543C77.6319 27.0322 75.4624 29.7677 72.9943 29.838C71.7793 29.838 71.3187 29.3078 71.1519 28.2764C70.5945 28.8084 68.6854 29.7333 66.743 29.7333C65.131 29.6973 64.4719 28.6676 64.1463 27.8508C63.8477 27.1746 63.7191 26.1793 63.9494 25.1839C63.0599 25.6816 62.2372 25.752 61.054 25.7177C59.6739 25.6816 58.8178 25.0055 58.3922 23.2671C56.8119 26.3904 56.7452 26.5002 55.1347 29.7677H52.3363L55.9225 23.1915C56.3846 22.306 56.6149 21.5956 56.7769 20.8473C56.877 20.4218 56.5816 20.0305 56.1528 19.9962C55.6954 19.9962 54.9378 20.4921 54.212 21.2403C54.212 21.2403 52.368 23.3735 51.0212 25.5375C49.7395 27.6002 47.5351 29.9496 45.1353 29.9496C43.3898 29.9496 41.8095 28.9165 41.4839 26.9258C41.4839 26.9258 41.3172 27.3891 39.7718 28.3467C39.64 28.4171 39.3112 28.6299 39.2128 28.5595C38.9158 28.2764 38.7538 27.9194 38.7204 27.6706C38.8189 27.7049 39.0158 27.5299 39.64 26.9962C40.8582 25.9991 41.1218 25.22 41.1218 25.22C41.4188 24.5421 41.9445 23.4781 42.3066 22.7316C43.2913 20.5985 45.0003 18.4311 47.7971 18.3247C48.2593 18.3247 48.3895 18.5375 48.488 18.7159C48.7532 18.9305 48.6548 19.3543 48.6548 19.3543C46.6806 19.6735 45.3306 20.9194 44.5095 22.1276C44.0156 22.9101 43.4914 24.1869 43.3898 25.1136C43.1945 26.713 43.8869 27.7804 44.9034 28.0275C46.8108 28.3467 48.3895 26.8554 49.6426 24.5421C49.9682 23.9398 50.2017 22.3764 50.2017 21.5218C50.2017 20.6689 49.7729 19.7834 49.4441 19.4264C49.4441 18.8206 49.8046 18.4311 50.2319 18.4311C50.3637 18.4311 50.4939 18.4311 50.6273 18.5735C51.2833 19.2823 51.647 20.6345 51.647 21.6676C51.647 22.0194 51.647 22.3764 51.5819 22.7316C52.9636 20.9194 54.7059 18.5735 56.0543 18.1084C56.3179 17.9677 56.5816 17.9677 56.8452 17.9677C59.3117 17.8974 58.9814 20.3119 58.9814 20.3119C60.298 18.6799 61.2192 18.0741 62.4326 18.1445C63.7524 18.22 64.213 19.2119 64.213 19.9962C64.1781 20.9194 63.5523 21.9834 62.4691 22.0194C61.5162 22.0194 60.9556 21.5218 60.6586 20.5985C60.036 20.8473 59.739 21.3107 59.6087 22.234C59.4118 23.4043 60.2329 24.331 61.2843 24.331C63.0933 24.331 63.8826 23.4781 64.5402 22.838C66.7764 20.5625 68.0295 18.1788 71.2536 18.22C73.1896 18.2526 73.6868 19.9258 74.0139 20.6345L78.2592 12.8863H80.856L73.817 26.356C73.6868 26.6409 73.358 27.1746 73.3882 27.6002C73.4549 28.2764 74.2442 28.0979 73.9488 28.0979ZM28.8496 29.9821C25.9892 29.9821 23.4576 27.9571 23.3924 24.331C23.3591 22.1275 25.0029 19.4264 28.0602 18.6078C28.4239 18.6078 28.5574 18.7502 28.5574 18.9647C28.5574 19.1055 28.4239 19.2822 28.1285 19.4264C27.2423 19.7833 25.6938 21.6676 25.6938 23.4043C25.6938 24.7223 26.453 26.1792 27.7362 26.5002C28.0936 26.6048 28.4239 26.5705 28.7527 26.5705C31.945 26.5705 35.5297 22.6955 39.4129 16.7973C38.7871 16.8316 36.1189 17.1508 35.4645 17.9677C35.1675 18.2199 34.9722 18.0741 34.9039 17.7926C34.9039 17.7206 35.0039 17.47 35.104 17.3293C36.1522 16.0508 39.3112 15.7642 40.0688 15.6595C42.9022 10.9625 46.5154 7.96793 47.508 7.75341C47.4874 7.74655 47.4604 7.73625 47.435 7.7311C44.9033 7.09099 42.6004 6.56072 40.793 6.56072C34.4433 6.56072 31.6163 9.50899 31.7481 12.2119C31.8148 13.3136 32.6359 14.0223 33.8493 13.7752C35.1675 13.5247 37.0083 12.1758 37.472 11.002C37.5705 10.7532 37.8342 10.7188 37.931 10.7892C38.1264 10.9642 38.0613 11.2165 38.0613 11.2165C37.8993 12.6014 35.9235 16.4421 32.5025 16.4421C30.595 16.4421 29.3102 14.5217 29.3483 12.6375C29.3785 9.11943 32.701 5.56366 40.8915 5.56366C42.4368 5.56366 44.1807 5.70781 46.0882 6.06305C48.291 6.48864 53.7863 7.48398 58.2571 7.55434C59.9009 7.55434 62.0101 7.62642 63.719 7.34326C65.5264 7.02235 65.131 6.95199 65.8552 6.95199C66.5143 6.95199 66.5143 7.23515 66.5143 7.52002C66.5143 8.65608 62.8296 10.8252 59.7056 10.8252C55.1029 10.8252 50.324 8.56856 47.8431 7.84265C47.94 7.94047 48.0067 8.09663 47.9305 8.30085C47.8987 8.37293 47.57 8.7642 47.435 8.86888C46.7774 9.50899 44.5412 11.0758 42.1065 15.5188C44.0822 15.4124 46.382 14.9851 46.382 14.9851C46.382 14.9851 46.2549 14.5217 46.2549 14.1287C46.3534 12.6014 47.1745 11.6764 48.2259 11.8549C48.8183 11.9596 49.2154 12.495 49.2154 13.0648C49.2154 13.6654 48.785 14.5578 48.3609 14.9851C48.0639 15.2322 47.7336 15.481 47.3381 15.6938C47.3381 16.0868 47.8304 16.4043 48.2593 16.4421C48.1608 16.8316 48.1926 17.0084 48.029 16.9741C47.0411 16.9741 46.6456 15.941 46.6456 15.941C45.3306 16.1915 44.0505 16.37 41.4521 16.6531C34.9039 28.0979 32.8646 29.9821 28.8496 29.9821ZM51.0148 3.66042C24.7678 3.66042 3.55394 11.3726 3.55394 20.8627C3.55394 30.3888 24.7678 38.1027 51.0148 38.1027C77.2316 38.1027 98.5154 30.3888 98.5154 20.8627C98.5154 11.3726 77.2316 3.66042 51.0148 3.66042ZM71.3854 19.888C70.2324 19.7438 68.7855 20.8113 67.5991 22.3763C67.0083 23.1572 66.3809 24.6502 66.284 25.5374C66.1538 26.4264 66.3809 27.3187 66.6795 27.5641C66.9749 27.8147 68.29 28.5595 70.3292 26.32C71.4823 25.0792 72.5988 23.0508 72.5988 23.0508L72.2383 22.9461C72.9292 21.5578 72.7989 20.0665 71.3854 19.888ZM51.0149 39.5564C23.9785 39.5564 2.00705 31.2401 2.00705 20.8628C2.00705 10.5181 23.9785 2.09719 51.0149 2.09719C78.1227 2.09719 100.059 10.5181 100.059 20.8628C100.059 31.2401 78.1227 39.5564 51.0149 39.5564ZM51.015 0C22.8288 0 -0.000366211 9.34763 -0.000366211 20.8627C-0.000366211 32.3778 22.8288 41.6911 51.015 41.6911C79.1726 41.6911 102 32.3778 102 20.8627C102 9.34763 79.1726 0 51.015 0Z" fill="#20272A"/>
</g>
</svg>
