<svg width="92" height="40" viewBox="0 0 92 40" fill="none" xmlns="http://www.w3.org/2000/svg">
<path d="M91.9542 39.8937C87.7715 39.8937 83.5133 39.8937 79.3808 39.8937C79.2652 39.8937 79.0541 39.3823 78.9937 39.2759C77.2643 36.1316 75.5349 32.9721 73.8156 29.8329C71.9756 33.1747 70.1859 36.5721 68.3509 39.919C64.2335 39.9291 60.1513 39.8987 56.0692 39.9088C56.5317 39.038 57.0243 38.1873 57.517 37.3316C60.9507 31.3569 64.3341 25.3012 67.7728 19.3215C64.1179 12.8911 60.4077 6.51137 56.7328 0.0961838C56.7227 0.0961838 56.6976 0.0556774 56.7227 0.0607407C60.9356 0.0607407 65.1435 0.0607407 69.3564 0.0607407C70.9098 2.90631 72.423 5.78732 73.9513 8.65315C75.54 5.81264 77.0733 2.91644 78.6469 0.0607407C82.719 0.0607407 86.7861 0.0607407 90.8582 0.0607407C90.8683 0.111374 90.8331 0.16707 90.8079 0.207576C87.2436 6.51644 83.5937 12.8456 80.0344 19.1645C83.9909 26.081 88.0228 32.9924 91.9542 39.8937Z" fill="#20272A"/>
<path fill-rule="evenodd" clip-rule="evenodd" d="M61.936 19.8076C61.936 18.2835 61.75 16.8354 61.4283 15.519C60.7898 12.9316 59.8044 10.7139 58.4923 8.86582C56.5015 6.04557 54.0281 3.78734 50.71 2.27848C49.6392 1.79241 48.4377 1.3519 47.1406 1.06329C45.8938 0.784811 44.3052 0.541773 42.8071 0.612659H42.7819C41.2486 0.612659 39.8309 0.83038 38.5489 1.14937C37.267 1.46836 36.0906 1.90886 35.0399 2.42532C32.3603 3.74684 30.1432 5.49873 28.3937 7.73671C26.6442 9.97975 25.2617 12.5823 24.5579 15.9038C24.2814 17.2203 24.0904 18.7392 24.1255 20.2785C24.201 23.3873 24.8545 25.9392 25.8499 28.1519C27.333 31.4532 29.5148 34.0709 32.3151 36.0506C35.1153 38.0253 38.5741 39.4633 43.2595 39.4633C46.2558 39.4633 48.8549 38.6684 51.0066 37.6506C52.0875 37.1392 53.0628 36.5316 53.9979 35.8633C55.3905 34.8658 56.6372 33.6658 57.6678 32.3494C58.0198 31.9038 58.3465 31.438 58.6683 30.9519C60.5686 28.0861 61.936 24.562 61.936 19.8076ZM46.4342 27.3189C46.4395 27.8326 46.4445 28.3185 46.3463 28.7139C46.0145 30.081 44.9185 31.0785 43.4254 31.2405C42.2691 31.3671 41.3743 30.8709 40.7961 30.2785C40.3487 29.8177 40.0069 29.2 39.9013 28.4304C39.8698 28.2202 39.8722 27.9882 39.8747 27.7466C39.8754 27.6798 39.8761 27.6123 39.8761 27.5443V12.9114C39.8761 12.886 39.8761 12.8607 39.8761 12.8354C39.8759 12.2296 39.8757 11.6466 39.9867 11.1848C40.213 10.238 40.766 9.52405 41.4949 9.05823C41.8871 8.81013 42.3345 8.63797 42.8724 8.59747C43.9835 8.51139 44.8683 9.05317 45.4565 9.6557C45.7581 9.96456 46.0145 10.3443 46.1804 10.7595C46.3614 11.2152 46.4318 11.7013 46.4318 12.3291V26.962C46.4318 27.0819 46.433 27.2011 46.4342 27.3189Z" fill="#20272A"/>
<path d="M24.6383 10.9266C20.1841 10.9266 15.7349 10.9266 11.2807 10.9266C11.2254 12.5975 11.2707 14.4456 11.2556 16.1266C14.8652 16.157 18.5301 16.1316 22.1649 16.1367C22.1649 19.7722 22.1649 23.4025 22.1649 27.038C18.505 27.0481 14.8149 27.0228 11.1752 27.0481C11.1802 31.3722 11.2003 35.6152 11.2003 39.9392C11.2003 39.9544 11.1953 39.9595 11.1902 39.9646C7.48008 39.9646 3.76489 39.9646 0.0547246 39.9646C0.0346153 39.9696 0.0346153 39.9544 0.0195334 39.9544C-0.00560326 26.6785 -0.00560326 13.3165 0.014506 0.035443C0.014506 0.0202532 0.014506 0 0.0245607 0C7.97778 0 15.931 0 23.8792 0C23.8943 0 23.8993 0 23.9043 0.0101266C24.1557 3.64557 24.397 7.28608 24.6383 10.9266Z" fill="#20272A"/>
</svg>
