<svg width="79" height="53" viewBox="0 0 79 53" fill="none" xmlns="http://www.w3.org/2000/svg">
<path fill-rule="evenodd" clip-rule="evenodd" d="M78.6507 14.8002C74.9421 -3.28095 39.8439 -4.42559 17.2209 9.34674V10.8672C39.821 -0.747296 71.8733 -0.678874 74.7936 15.9746C75.7706 21.4813 72.6675 27.2226 67.1256 30.5226V34.8401C73.796 32.3998 80.637 24.4866 78.6507 14.8002ZM60.2524 30.391C60.2524 32.5312 61.289 34.3855 64.3446 34.6802V12.1662H60.2524V30.391ZM11.5123 16.6032H15.6011V12.7192H11.5123V16.6032ZM40.1209 34.8343C36.8126 34.8343 35.409 32.5314 35.409 30.2567V14.4503H39.4636V18.8191H42.5202V22.0971H39.4636V30.0026C39.4636 30.9341 39.9035 31.4512 40.8707 31.4512H42.5202V34.8343H40.1209ZM51.1867 31.6972C48.8813 31.6972 47.59 30.1684 47.59 28.0913H57.8913V26.6284C57.8913 22.046 55.3918 18.5475 51.0655 18.5475C46.7973 18.5475 43.5491 21.5357 43.5491 26.8142C43.5491 32.9919 47.2694 35.1116 51.1569 35.1116C54.126 35.1116 55.8112 34.1488 57.4172 32.5633L54.909 30.1684C53.8718 31.2002 52.9804 31.6972 51.1867 31.6972ZM23.2754 22.0971V34.8543H19.2144V18.8191L27.5984 18.8274C31.1594 18.8274 32.3724 21.3385 32.3724 23.6195V34.8543H28.3188V23.6405C28.3188 22.685 27.8242 22.0971 26.6311 22.0971H23.2754ZM50.8895 21.9055C49.5015 21.9055 48.4272 22.6191 47.9785 23.5878C47.7127 24.1694 47.6213 24.6151 47.59 25.3272H53.8376C53.7575 23.5878 52.9686 21.9055 50.8895 21.9055ZM15.6115 35.0229C12.5495 34.7287 11.508 32.8714 11.508 30.7283L11.5124 18.8191H15.6115V35.0229H15.6115ZM3.36694 33.4116C5.64352 45.6121 21.9138 47.8784 37.5272 46.4352C47.1233 45.5466 58.6449 42.1181 65.6076 37.9721V43.9553C57.9343 48.1668 46.897 50.8784 38.4642 51.7014C17.1505 53.7727 3.1866 47.5353 0.57719 36.5288C-1.46723 27.9455 2.08399 20.6813 8.6273 14.9434V17.0612C4.99251 21.0215 2.25261 27.3971 3.36694 33.4116Z" fill="#20272A"/>
<path fill-rule="evenodd" clip-rule="evenodd" d="M67.1254 13.7948C67.1254 14.6916 67.8483 15.4228 68.7544 15.4228C69.6508 15.4228 70.3873 14.6916 70.3873 13.7948C70.3873 12.8994 69.6508 12.1663 68.7544 12.1663C67.8483 12.1663 67.1254 12.8994 67.1254 13.7948ZM68.7545 12.4375C68.0086 12.4375 67.4055 13.0533 67.4055 13.7947C67.4055 14.5371 68.0086 15.1432 68.7545 15.1432C69.4964 15.1432 70.1053 14.5371 70.1053 13.7947C70.1053 13.0533 69.4964 12.4375 68.7545 12.4375ZM69.1709 14.769H69.4739L69.4739 14.769C69.5223 14.769 69.5394 14.7372 69.5394 14.7089C69.5394 14.6982 69.5356 14.6865 69.532 14.6756C69.5298 14.6689 69.5278 14.6626 69.5267 14.6571L69.0981 13.9323C69.3239 13.8565 69.4695 13.7021 69.4695 13.4093V13.3766C69.4695 12.9035 69.1651 12.7549 68.6617 12.7549C68.5199 12.7549 68.257 12.7637 68.1602 12.7764C68.0742 12.7896 68.0346 12.8321 68.0346 12.9338V14.6918C68.0346 14.7289 68.0688 14.769 68.103 14.769H68.3772C68.4261 14.769 68.4515 14.7289 68.4515 14.6918V13.9968H68.6372C68.6514 13.9968 68.6871 14.0139 68.6944 14.0281L69.1079 14.7289C69.1196 14.7519 69.1436 14.769 69.1709 14.769ZM68.6943 13.115C68.9592 13.115 69.075 13.178 69.075 13.3764V13.3765V13.4092C69.075 13.5949 68.9592 13.6834 68.6943 13.6834C68.6784 13.6834 68.6267 13.6818 68.5733 13.6801C68.5165 13.6783 68.4578 13.6765 68.4387 13.6765V13.115H68.6943Z" fill="#20272A"/>
</svg>
