<svg width="152" height="27" viewBox="0 0 152 27" fill="none" xmlns="http://www.w3.org/2000/svg">
<path fill-rule="evenodd" clip-rule="evenodd" d="M76.1707 7.24288H76.8522V4.41663H74.6364C71.7399 4.41663 70.2065 6.00639 70.2065 9.18593V9.53921H68.5027V12.3664H70.2065V22.4358H74.2965V12.3664H76.6818V9.53921H74.2965V9.18593C74.2965 7.94944 74.978 7.24288 76.1707 7.24288Z" fill="#20272A"/>
<path fill-rule="evenodd" clip-rule="evenodd" d="M79.0668 9.53943H77.363V12.3666H79.0668V18.549C79.0668 21.1995 80.2604 22.436 82.6457 22.436H85.7125V19.4331H84.8606L83.4976 19.2556C83.3272 18.9032 83.1568 18.3724 83.1568 17.4892V12.3666H85.543V9.53943H83.1568V5.47668H79.0668V9.53943Z" fill="#20272A"/>
<path fill-rule="evenodd" clip-rule="evenodd" d="M90.6551 4.41638H86.5643V22.4364H90.6551V15.0157C90.6551 13.2493 91.3366 12.3661 92.6988 12.3661C93.8923 12.3661 94.4035 13.2493 94.4035 15.0157V22.4364H98.4935V15.0157C98.4935 13.2493 98.3231 12.0137 97.9823 11.3063C97.1296 9.89315 95.936 9.18658 94.0627 9.18658C92.3589 9.18658 91.3366 9.71651 90.6551 10.953V4.41638Z" fill="#20272A"/>
<path fill-rule="evenodd" clip-rule="evenodd" d="M105.479 16.9595L108.035 16.253V17.3137C108.035 19.0801 107.183 19.9633 105.139 19.9633C104.117 19.9633 103.435 19.61 103.435 18.7259C103.435 17.8427 104.117 17.3137 105.479 16.9595ZM106.161 11.837C107.354 11.837 107.865 12.1894 107.865 13.0726C107.865 13.6034 107.525 13.9558 106.673 14.1334L103.093 14.839C100.709 15.5465 99.5146 16.9596 99.5146 18.9036C99.5146 20.1392 99.8571 21.0224 100.879 21.9065C101.731 22.613 102.922 22.9663 104.287 22.9663C105.65 22.9663 107.012 22.4364 108.378 21.3765L108.547 22.4364H112.295L111.955 20.67V13.9558C111.955 10.5997 110.082 9.00989 106.161 9.00989C102.242 9.00989 100.197 10.5997 100.197 13.6034H103.946C103.946 12.5427 104.627 11.837 106.161 11.837Z" fill="#20272A"/>
<path fill-rule="evenodd" clip-rule="evenodd" d="M117.068 9.53932H113.318V22.4359H117.408V15.0161C117.408 13.2497 118.089 12.3665 119.454 12.3665C120.646 12.3665 121.328 13.2497 121.328 15.0161V22.4359H125.418V15.0161C125.418 13.4263 125.076 12.1898 124.736 11.3057C123.884 9.8935 122.69 9.18604 120.815 9.18604C119.454 9.18604 118.089 9.71596 117.237 10.9533L117.068 9.53932Z" fill="#20272A"/>
<path fill-rule="evenodd" clip-rule="evenodd" d="M130.869 12.8965C130.869 12.1891 131.382 11.8367 132.404 11.8367C133.595 11.8367 134.107 12.3666 134.277 13.6031H138.198L137.515 11.3059C136.833 9.71609 135.13 9.00952 132.574 9.00952C128.483 9.00952 126.609 10.4226 126.609 13.4264C126.609 15.3695 127.974 16.606 130.869 17.3134H132.063C133.595 17.6658 134.447 18.1966 134.447 18.9032C134.447 19.6098 133.767 19.963 132.404 19.963C131.039 19.963 130.187 19.4331 130.187 18.3724V18.1966H126.27C126.27 21.3762 128.314 22.9659 132.743 22.9659C136.494 22.9659 138.537 21.5528 138.537 18.549C138.537 16.4302 137.003 15.0162 134.107 14.4863L132.743 14.133C131.552 13.9564 130.869 13.6031 130.869 12.8965Z" fill="#20272A"/>
<mask id="mask0" mask-type="alpha" maskUnits="userSpaceOnUse" x="139" y="9" width="13" height="14">
<path fill-rule="evenodd" clip-rule="evenodd" d="M152 22.9663V9.00989L139.219 9.00989V22.9663H152Z" fill="white"/>
</mask>
<g mask="url(#mask0)">
<path fill-rule="evenodd" clip-rule="evenodd" d="M145.184 16.9595L147.74 16.253V17.3137C147.74 19.0801 146.888 19.9633 144.842 19.9633C143.82 19.9633 143.139 19.61 143.139 18.7259C143.139 17.8427 143.82 17.3137 145.184 16.9595ZM145.866 11.837C147.058 11.837 147.571 12.1894 147.571 13.0726C147.571 13.6034 147.227 13.9558 146.375 14.1334L142.797 14.839C140.411 15.5465 139.219 16.9596 139.219 18.9036C139.219 20.1392 139.559 21.0224 140.583 21.9065C141.434 22.613 142.628 22.9663 143.991 22.9663C145.353 22.9663 146.718 22.4364 148.08 21.3765L148.251 22.4364H152.001L151.659 20.67V13.9558C151.659 10.5997 149.783 9.00989 145.866 9.00989C142.115 9.00989 140.072 10.5997 139.903 13.6034H143.65C143.65 12.5427 144.333 11.837 145.866 11.837Z" fill="#20272A"/>
</g>
<path fill-rule="evenodd" clip-rule="evenodd" d="M12.7803 1.23659C16.1887 1.23659 18.9148 2.47218 21.301 4.7694C23.516 7.24327 24.7086 10.0704 24.7086 13.4266C24.7086 16.7828 23.516 19.6099 21.301 22.0829C18.9148 24.3801 16.1887 25.6157 12.9507 25.6157C9.71344 25.6157 6.98649 24.3801 4.60204 22.0829C2.38623 19.6099 1.19357 16.7828 1.19357 13.4266C1.19357 10.0704 2.38623 7.24327 4.60204 4.7694C6.98649 2.47218 9.71344 1.23659 12.7803 1.23659ZM22.152 3.887C19.7676 1.23649 16.699 0 13.1219 0C9.54301 0 6.47531 1.23649 3.74923 3.887C1.19353 6.53661 0 9.71615 0 13.4265C0 17.3135 1.19353 20.3155 3.74923 22.966C6.30579 25.6156 9.37263 26.853 12.9506 26.853C16.5295 26.853 19.5963 25.6156 22.152 22.966C24.7086 20.3155 25.9012 17.3135 25.9012 13.4265C25.9012 9.71615 24.7086 6.53661 22.152 3.887Z" fill="#20272A"/>
<path fill-rule="evenodd" clip-rule="evenodd" d="M4.26023 10.4223L4.08985 11.1298L2.2148 10.599L2.04529 11.3055C3.40833 11.6597 5.11213 12.5429 7.32707 13.7803C11.2467 16.2533 15.3367 18.1963 19.5962 19.2562L20.7897 18.1963H19.9378C17.3812 18.1963 15.3367 17.3131 13.8032 15.5467C15.507 14.6626 17.3812 14.1327 19.5962 14.1327L20.9592 14.3093L21.4712 13.6028H19.9378L16.3589 13.7803L16.5293 13.2495H21.812L22.3231 12.5429H16.8701L17.0405 12.1896H22.663L23.0046 11.6597L17.3812 11.4831L17.5516 10.9531L23.3454 11.1298L23.8565 10.599L19.2554 10.2466L14.6551 10.599C13.9736 12.7196 12.6097 13.7803 10.566 13.7803C9.71326 13.7803 8.69098 13.4261 7.49745 12.7196L6.98631 12.3663L7.15756 12.1896L9.88277 13.2495L10.054 12.8962L4.26023 10.4223Z" fill="#20272A"/>
<path fill-rule="evenodd" clip-rule="evenodd" d="M47.5425 4.41638H43.2821V22.4364H54.8705V18.9027H47.5425V4.41638Z" fill="#20272A"/>
<path fill-rule="evenodd" clip-rule="evenodd" d="M67.6504 9.53931H63.5604V16.9591C63.5604 18.7264 62.8789 19.6096 61.5158 19.6096C60.3223 19.6096 59.812 18.7264 59.812 16.9591V9.53931H55.7229V17.3133C55.7229 18.7264 55.8924 19.9638 56.4036 20.6695C57.0851 22.0826 58.2786 22.7892 60.3223 22.7892C61.6871 22.7892 62.8789 22.2592 63.9011 21.1994V22.4359H67.6504V9.53931Z" fill="#20272A"/>
</svg>
