<svg width="77" height="39" viewBox="0 0 77 39" fill="none" xmlns="http://www.w3.org/2000/svg">
<path d="M0 0V38.0922H38.9121L77 0.00428821H0V0Z" fill="#20272A"/>
<path fill-rule="evenodd" clip-rule="evenodd" d="M50.2526 33.1533C48.8923 33.1533 47.7332 34.2014 47.7332 35.619C47.7332 37.047 48.8923 38.1116 50.2526 38.1116C51.5939 38.1116 52.7183 37.0472 52.7183 35.619C52.7183 34.2014 51.5939 33.1533 50.2526 33.1533ZM49.2878 37.0395V34.1985H50.3599C51.0355 34.1985 51.3782 34.4425 51.3782 35.0026C51.3782 35.5137 51.043 35.7552 50.6278 35.8066L51.4587 37.0395H50.9763L50.199 35.8066H49.7166V37.0395H49.2878ZM50.306 34.5737H49.7165V35.4582H50.2256C50.5919 35.4582 50.9225 35.4192 50.9225 34.9757C50.9225 34.6209 50.596 34.5737 50.306 34.5737ZM52.2359 35.6189C52.2359 34.4518 51.3624 33.5553 50.2527 33.5553C49.1239 33.5553 48.2158 34.4518 48.2158 35.6189C48.2158 36.8061 49.1239 37.6827 50.2527 37.6827C51.3624 37.6827 52.2359 36.8061 52.2359 35.6189Z" fill="#20272A"/>
<path fill-rule="evenodd" clip-rule="evenodd" d="M46.1385 18.2265H44.4695V12.1227H46.1385C48.3667 12.1227 50.1403 12.8568 50.1403 15.1356C50.1403 17.4889 48.3667 18.2265 46.1385 18.2265ZM28.1753 22.5902C27.2919 22.5902 26.4634 22.429 25.7473 22.1597L28.1513 14.5781H28.2027L30.557 22.1802C29.8477 22.4341 29.0407 22.5902 28.1779 22.5902M45.6959 7.16383H38.117V25.1855L31.496 7.16383H24.9333L19.2763 22.2309C18.6785 18.4333 14.7445 17.1185 11.6518 16.1382C9.61321 15.4821 7.44338 14.5181 7.4631 13.4504C7.48026 12.5773 8.62864 11.7677 10.8937 11.8886C12.4203 11.9658 13.7668 12.0893 16.44 13.3817L19.073 8.79507C16.6339 7.54892 13.2539 6.76675 10.4889 6.76074H10.4717C7.24612 6.76074 4.55827 7.81221 2.89101 9.5335C1.73234 10.7376 1.1054 12.2608 1.0771 13.9564C1.03421 16.2789 1.88928 17.9272 3.67918 19.2454C5.19378 20.3552 7.12605 21.0697 8.83276 21.6048C10.9383 22.2541 12.657 22.821 12.6373 24.0294C12.6201 24.4693 12.4563 24.8819 12.1381 25.2078C11.6141 25.7524 10.8088 25.9539 9.69469 25.9788C7.54715 26.0217 5.95451 25.6872 3.4176 24.188L1.0771 28.839C3.60628 30.279 6.60032 31.1212 9.6561 31.1212H10.0515C12.7102 31.0698 14.8577 30.3107 16.5738 28.9317L16.8517 28.6889L16.0936 30.7267H22.9761L24.1322 27.2112C25.3415 27.6203 26.7189 27.8502 28.1769 27.8502C29.5997 27.8502 30.9419 27.6358 32.1298 27.2447L33.2413 30.7267H44.4712V23.4453H46.9215C52.8393 23.4453 56.3436 20.4333 56.3436 15.3783C56.3436 9.7522 52.9405 7.17155 45.6951 7.17155" fill="white"/>
</svg>
