<svg width="116" height="27" viewBox="0 0 116 27" fill="none" xmlns="http://www.w3.org/2000/svg">
<mask id="mask0" mask-type="alpha" maskUnits="userSpaceOnUse" x="107" y="0" width="9" height="26">
<path fill-rule="evenodd" clip-rule="evenodd" d="M107.131 25.4764H115.763V0.0327148L107.131 0.0327148V25.4764Z" fill="white"/>
</mask>
<g mask="url(#mask0)">
<path fill-rule="evenodd" clip-rule="evenodd" d="M112.855 0.0327148C110.708 0.0327148 108.958 1.94161 108.958 4.28791V6.5711H107.131V10.1871H108.958V20.9273C108.958 23.8612 110.631 25.4765 113.669 25.4765C114.778 25.4765 115.58 25.1238 115.763 25.0337V21.3084C115.47 21.4187 114.993 21.5504 114.674 21.5504C113.455 21.5504 113.083 21.1781 113.083 19.957V10.1871H115.763V6.5711H113.083V0.0327148H112.855Z" fill="#20272A"/>
</g>
<path fill-rule="evenodd" clip-rule="evenodd" d="M93.7414 23.7795H91.9789C89.3165 23.7795 88.0225 21.7506 88.0225 17.578C88.0225 14.567 88.7578 10.9769 92.2603 10.9769C92.8153 10.9769 93.2966 11.0453 93.7414 11.1675V23.7795ZM97.7441 1.17639C95.5202 1.17639 93.71 3.10567 93.71 5.47694V8.51342C93.0282 8.33309 92.2741 8.22931 91.3836 8.22931C86.7628 8.22931 83.7777 11.9905 83.7777 17.8104C83.7777 23.5849 86.6453 26.7868 91.8527 26.8262C92.0563 26.8269 97.0569 26.8283 97.9555 26.7619V1.17639H97.7441Z" fill="#20272A"/>
<path fill-rule="evenodd" clip-rule="evenodd" d="M71.1345 15.9443C71.1471 12.5914 72.3146 10.9269 74.7891 10.8497C75.956 10.8135 78.4833 10.9718 78.6224 14.8741L71.1345 15.9443ZM82.4888 16.7286C82.4888 11.0481 79.7853 7.92639 74.9498 7.92639C70.0339 7.92639 67.0221 11.5229 67.0221 17.3236C67.0221 23.2744 70.2533 26.8264 75.665 26.8264C78.6569 26.8264 80.7524 26.1018 81.8828 25.4856V21.7456C80.7607 22.5637 79.1975 23.5737 76.1037 23.5737C73.3096 23.5737 71.7757 22.0689 71.402 18.9995L82.4888 17.4518V16.7286Z" fill="#20272A"/>
<mask id="mask1" mask-type="alpha" maskUnits="userSpaceOnUse" x="58" y="6" width="9" height="21">
<path fill-rule="evenodd" clip-rule="evenodd" d="M58.0734 26.8265H66.995V6.93066H58.0734L58.0734 26.8265H58.0734Z" fill="white"/>
</mask>
<g mask="url(#mask1)">
<path fill-rule="evenodd" clip-rule="evenodd" d="M58.0734 8.44768V26.8265H58.3043C60.6226 26.8265 62.5023 24.82 62.5023 22.3545V10.6556C63.4222 10.1554 65.4452 9.78027 66.995 10.9374V7.06002C62.5614 6.62305 60.2467 7.34494 58.0734 8.44768Z" fill="#20272A"/>
</g>
<mask id="mask2" mask-type="alpha" maskUnits="userSpaceOnUse" x="40" y="0" width="17" height="27">
<path fill-rule="evenodd" clip-rule="evenodd" d="M56.5807 0H40.0798L40.0798 26.8264H56.5807V0Z" fill="white"/>
</mask>
<g mask="url(#mask2)">
<path fill-rule="evenodd" clip-rule="evenodd" d="M40.0798 13.3435C40.0798 20.0433 43.8035 26.8263 50.921 26.8263C53.2861 26.8263 55.3014 26.2824 56.5807 25.2701V20.6815C55.5439 22.1753 53.8121 22.771 51.9105 22.771C47.5791 22.771 44.6685 17.8767 44.6685 13.306C44.6685 8.75068 47.4378 3.83423 51.9105 3.83423C54.1765 3.83423 55.5964 4.80483 56.5807 6.17832V1.5515C54.9558 0.48693 53.0318 -0.00012207 50.9591 -0.00012207C43.8166 -0.00012207 40.0798 6.71271 40.0798 13.3435Z" fill="#20272A"/>
</g>
<path fill-rule="evenodd" clip-rule="evenodd" d="M34.8215 6.93066V26.8265H35.0781C37.6305 26.8265 39.706 24.8235 39.706 22.3612V6.93066H34.8215Z" fill="#20272A"/>
<path fill-rule="evenodd" clip-rule="evenodd" d="M34.7999 3.21662C34.7999 4.32489 35.9561 5.22639 37.378 5.22639C38.8235 5.22639 39.9555 4.34366 39.9555 3.21662C39.9555 2.07267 38.8235 1.17639 37.378 1.17639C35.9561 1.17639 34.7999 2.09143 34.7999 3.21662Z" fill="#20272A"/>
<mask id="mask3" mask-type="alpha" maskUnits="userSpaceOnUse" x="0" y="0" width="17" height="26">
<path fill-rule="evenodd" clip-rule="evenodd" d="M0 25.4764H16.5089V0.0327148H0V25.4764H0Z" fill="white"/>
</mask>
<g mask="url(#mask3)">
<path fill-rule="evenodd" clip-rule="evenodd" d="M16.2844 0.0327148C14.0308 0.0327148 12.1974 1.87951 12.1974 4.1492V18.252C12.1974 20.5527 10.2504 21.7944 8.41799 21.7944C6.54472 21.7944 4.60677 20.4694 4.60677 18.252V0.0327148H4.30785C1.93225 0.0327148 0 1.97941 0 4.37229V18.2851C0 22.385 3.54883 25.4765 8.25479 25.4765C12.9604 25.4765 16.5089 22.385 16.5089 18.2851V0.0327148H16.2844Z" fill="#20272A"/>
</g>
<path fill-rule="evenodd" clip-rule="evenodd" d="M18.0443 9.29623V26.8264H22.4249V11.3458C23.1449 11.0697 23.7902 10.9158 24.9226 10.9158C27.3341 10.9158 27.8403 12.4112 27.8403 13.6653L27.837 22.6082C27.8366 24.9321 29.7148 26.8264 32.004 26.8264H32.2221V13.6001C32.2221 11.4811 31.2953 7.92639 25.0845 7.92639C22.3029 7.92639 19.9271 8.39819 18.0443 9.29623Z" fill="#20272A"/>
<path fill-rule="evenodd" clip-rule="evenodd" d="M100.832 6.93066V26.8265H101.072C103.454 26.8265 105.392 24.8235 105.392 22.3612V6.93066H100.832Z" fill="#20272A"/>
<path fill-rule="evenodd" clip-rule="evenodd" d="M100.533 3.21662C100.533 4.32489 101.69 5.22639 103.112 5.22639C104.558 5.22639 105.689 4.34366 105.689 3.21662C105.689 2.07267 104.558 1.17639 103.112 1.17639C101.69 1.17639 100.533 2.09143 100.533 3.21662Z" fill="#20272A"/>
</svg>
