<svg width="133" height="22" viewBox="0 0 133 22" fill="none" xmlns="http://www.w3.org/2000/svg">
<path fill-rule="evenodd" clip-rule="evenodd" d="M84.0959 10.1936H84.1704L84.7057 17.0439H86.1536L89.9712 8.2356H88.5967L85.7732 15.1676L85.3154 8.2356H83.7135L80.9666 15.1676L80.5067 8.2356H78.9824L79.898 17.0439H81.348L84.0959 10.1936Z" fill="#20272A"/>
<path fill-rule="evenodd" clip-rule="evenodd" d="M92.5668 6.68709L92.8696 4.97424H91.4962L91.1923 6.68709H92.5668Z" fill="#20272A"/>
<path fill-rule="evenodd" clip-rule="evenodd" d="M92.3346 8.23535H90.9622L89.5112 17.0436H90.8867L92.3346 8.23535Z" fill="#20272A"/>
<path fill-rule="evenodd" clip-rule="evenodd" d="M95.084 11.9057C95.3124 10.6025 96.3056 9.54014 97.6026 9.54014H98.0614L98.3632 7.99292H97.9829C96.9153 7.99292 96.0762 8.6445 95.391 9.70358L95.6183 8.23481H94.3203L92.7949 17.0431H94.2449L95.084 11.9057Z" fill="#20272A"/>
<path fill-rule="evenodd" clip-rule="evenodd" d="M99.2036 11.9056C99.435 10.682 100.425 9.54012 101.494 9.37668V8.07462C99.2831 8.39932 97.9831 10.439 97.5273 12.8852C97.1439 15.4109 98.2125 17.2871 100.502 17.2871C100.885 17.2871 101.265 17.2871 101.494 17.2076V15.9012C101.341 15.9829 101.112 15.9829 100.885 15.9829C99.3565 15.9829 98.6703 14.9227 98.9762 13.1292H101.494V11.9056H99.2036ZM101.494 17.2076V15.9012C102.488 15.656 103.175 14.8399 103.326 14.27H104.699C104.623 14.6786 104.011 15.9829 102.868 16.7162C102.561 16.8807 102.181 17.1237 101.494 17.2076ZM101.494 9.3767C101.648 9.29607 101.801 9.29607 101.954 9.29607C103.63 9.29607 103.936 10.6025 103.783 11.9057H101.494V13.1293H105.004C105.081 12.639 105.157 12.1508 105.157 11.7433V11.1724C105.081 9.21544 104.164 7.99292 102.334 7.99292C102.028 7.99292 101.801 7.99292 101.494 8.07464V9.3767Z" fill="#20272A"/>
<path fill-rule="evenodd" clip-rule="evenodd" d="M110.88 11.9056C111.112 10.682 112.1 9.54012 113.247 9.37668V8.07462C110.957 8.39932 109.658 10.439 109.277 12.8852C108.821 15.4109 109.89 17.2871 112.254 17.2871C112.635 17.2871 112.94 17.2871 113.247 17.2076V15.9012C113.017 15.9829 112.865 15.9829 112.635 15.9829C111.033 15.9829 110.424 14.9227 110.727 13.1292H113.247V11.9056H110.88ZM113.247 17.2076V15.9012C114.237 15.656 114.925 14.8399 115.078 14.27H116.452C116.298 14.6786 115.765 15.9829 114.544 16.7162C114.237 16.8807 113.857 17.1237 113.247 17.2076ZM113.247 9.3767C113.322 9.29607 113.476 9.29607 113.628 9.29607C115.305 9.29607 115.612 10.6025 115.458 11.9057H113.247V13.1293H116.757C116.833 12.639 116.833 12.1508 116.908 11.7433V11.1724C116.833 9.21544 115.918 7.99292 114.009 7.99292C113.782 7.99292 113.476 7.99292 113.247 8.07464V9.3767Z" fill="#20272A"/>
<path fill-rule="evenodd" clip-rule="evenodd" d="M109.124 4.97437H107.751L105.767 17.0438H107.142L109.124 4.97437Z" fill="#20272A"/>
<path fill-rule="evenodd" clip-rule="evenodd" d="M124.464 10.7635C124.541 10.2754 124.693 7.99268 121.793 7.99268C120.114 7.99268 118.511 8.8066 118.129 10.7635C117.978 11.9871 118.589 12.6398 119.732 12.9645L121.258 13.3731C122.403 13.6989 122.787 13.944 122.708 14.5967C122.555 15.5741 121.565 15.9827 120.573 15.9827C118.589 15.9827 118.589 14.9225 118.663 14.1903H117.291C117.214 15.2494 117.061 17.2869 120.343 17.2869C122.252 17.2869 123.854 16.2278 124.159 14.3526C124.311 13.2097 123.854 12.4764 122.174 12.0699L120.878 11.6613C119.81 11.4162 119.43 11.2527 119.58 10.5184C119.732 9.37646 120.953 9.2152 121.413 9.2152C123.168 9.2152 123.168 10.1937 123.089 10.7635H124.464Z" fill="#20272A"/>
<mask id="mask0" mask-type="alpha" maskUnits="userSpaceOnUse" x="124" y="7" width="9" height="11">
<path fill-rule="evenodd" clip-rule="evenodd" d="M132.056 17.2869V7.99268L124.867 7.99268V17.2869H132.056Z" fill="white"/>
</mask>
<g mask="url(#mask0)">
<path fill-rule="evenodd" clip-rule="evenodd" d="M132.02 10.7635C132.094 10.2754 132.327 7.99268 129.349 7.99268C127.746 7.99268 126.065 8.8066 125.762 10.7635C125.532 11.9871 126.219 12.6398 127.286 12.9645L128.815 13.3731C129.958 13.6989 130.418 13.944 130.264 14.5967C130.11 15.5741 129.119 15.9827 128.129 15.9827C126.219 15.9827 126.219 14.9225 126.219 14.1903H124.923C124.771 15.2494 124.692 17.2869 127.975 17.2869C129.804 17.2869 131.408 16.2278 131.713 14.3526C131.867 13.2097 131.408 12.4764 129.804 12.0699L128.435 11.6613C127.441 11.4162 126.982 11.2527 127.134 10.5184C127.286 9.37646 128.585 9.2152 128.969 9.2152C130.724 9.2152 130.798 10.1937 130.724 10.7635H132.02Z" fill="#20272A"/>
</g>
<path fill-rule="evenodd" clip-rule="evenodd" d="M41.2082 4.97473L40.6739 8.48105H46.2433L39.071 18.5925L38.6122 21.6913H49.8324H75.7775L76.3118 19.2833L44.259 18.1022L51.4343 7.99291L51.9686 4.97473H41.2082Z" fill="#20272A"/>
<path fill-rule="evenodd" clip-rule="evenodd" d="M38.1558 17.0436H33.652L35.6352 4.97412H40.139L38.1558 17.0436Z" fill="#20272A"/>
<path fill-rule="evenodd" clip-rule="evenodd" d="M35.8675 3.42568L36.4752 0H40.978L40.3672 3.42568H35.8675Z" fill="#20272A"/>
<mask id="mask1" mask-type="alpha" maskUnits="userSpaceOnUse" x="0" y="4" width="13" height="14">
<path fill-rule="evenodd" clip-rule="evenodd" d="M0 4.97412V17.0436H12.7442V4.97412L0 4.97412L0 4.97412Z" fill="white"/>
</mask>
<g mask="url(#mask1)">
<path fill-rule="evenodd" clip-rule="evenodd" d="M1.90543 17.0436L-0.000305176 4.97412H4.50044L5.18871 12.5577L8.46893 4.97412H12.7443L6.94353 17.0436H1.90543Z" fill="#20272A"/>
</g>
<path fill-rule="evenodd" clip-rule="evenodd" d="M64.1778 17.0434L66.161 4.97397H70.2825L69.9786 6.9298C71.1991 5.4632 72.4951 4.64709 74.1745 4.64709C77.1498 4.64709 78.2969 6.52338 77.6831 9.78453L76.5401 17.0434H72.0352L73.0294 10.6028C73.2558 9.46092 73.1069 8.39966 71.8843 8.39966C70.5119 8.39966 69.9786 9.29639 69.6717 10.8458L68.6785 17.0434H64.1778Z" fill="#20272A"/>
<path fill-rule="evenodd" clip-rule="evenodd" d="M24.4193 17.0434L26.4025 4.97397H30.5219L30.0672 7.33948H30.1416C31.0562 5.54492 32.3563 4.64709 34.0336 4.64709C34.1866 4.64709 34.4139 4.72881 34.5669 4.72881L33.8062 9.46092C33.4983 9.37593 33.1944 9.29639 32.965 9.29639C31.1347 9.29639 30.0672 10.2748 29.6063 12.8855L28.9201 17.0434H24.4193Z" fill="#20272A"/>
<path fill-rule="evenodd" clip-rule="evenodd" d="M57.9195 7.91065C56.7744 8.23535 56.2411 9.70412 56.0137 10.8449C55.6304 13.1287 56.3166 14.1911 57.4627 14.1911C57.6156 14.1911 57.7686 14.1094 57.9195 14.1094V17.2866C57.5371 17.3683 57.1568 17.3683 56.699 17.3683C53.0364 17.3683 50.5933 15.2491 51.2815 11.0912C51.8893 7.2569 54.5618 5.05592 57.9195 4.72904V7.91065ZM58.5313 7.82895C58.3039 7.82895 58.1499 7.82895 57.9195 7.91067V4.72906C58.2243 4.64734 58.5313 4.64734 58.7576 4.64734C62.8036 4.64734 64.8653 7.1752 64.2525 10.845C63.5673 14.761 61.0478 16.8802 57.9195 17.2866V14.1094C58.9116 13.8631 59.5978 12.804 59.9047 10.845C60.2076 9.05148 59.6733 7.74615 58.5313 7.82895Z" fill="#20272A"/>
<path fill-rule="evenodd" clip-rule="evenodd" d="M16.0226 9.62154H18.0844V12.0699H15.6423C15.4139 13.5354 16.2551 14.4332 17.4746 14.4332C17.704 14.4332 17.857 14.4332 18.0844 14.3526V17.2868C17.6255 17.3675 17.1697 17.3675 16.7099 17.3675C13.0483 17.3675 10.6073 15.1676 11.2925 11.0914C11.9032 7.42056 14.7277 4.97442 18.0844 4.72817V7.50228C16.9403 7.66354 16.2551 8.48073 16.0226 9.62154ZM18.0843 17.2869V14.3527C18.5422 14.1903 19 13.8634 19.3059 13.3731H23.6557C22.5881 15.9021 20.298 16.9611 18.0843 17.2869ZM18.0843 9.62158H20.1461C20.298 8.48078 19.5343 7.50232 18.4657 7.50232H18.0843V4.72821C18.3127 4.64758 18.5422 4.64758 18.7716 4.64758C22.9705 4.64758 25.0282 7.66358 24.19 12.0699H18.0843V9.62158Z" fill="#20272A"/>
</svg>
