<svg width="125" height="19" viewBox="0 0 125 19" fill="none" xmlns="http://www.w3.org/2000/svg">
<mask id="mask0" mask-type="alpha" maskUnits="userSpaceOnUse" x="0" y="0" width="125" height="19">
<path fill-rule="evenodd" clip-rule="evenodd" d="M0 18.8534H124.71V0H0V18.8534Z" fill="white"/>
</mask>
<g mask="url(#mask0)">
<mask id="mask1" mask-type="alpha" maskUnits="userSpaceOnUse" x="0" y="0" width="125" height="20">
<path fill-rule="evenodd" clip-rule="evenodd" d="M0 9.34601e-05V19.0648H124.916V9.34601e-05" fill="white"/>
</mask>
<g mask="url(#mask1)">
<path fill-rule="evenodd" clip-rule="evenodd" d="M94.3333 9.40794C94.3333 3.26035 89.9421 -0.0248909 83.7782 -0.0248909C77.3808 -0.0248909 73.1926 3.45935 73.1926 9.40794C73.1926 15.4308 77.4315 18.8656 83.7782 18.8656C90.2737 18.8656 94.3333 15.2816 94.3333 9.40794ZM10.837 13.589C10.837 13.589 6.4718 2.38937 6.21773 1.74227C5.88789 0.87096 5.43117 0.174112 3.75622 0.174112H0L7.74079 18.6416H13.3749L21.3945 0.174112H18.07C16.6487 0.174112 16.0905 0.771458 15.735 1.66764L10.9131 13.589H10.837ZM23.7295 16.4514V0.174112H28.8054V18.6416H26.166C24.491 18.6416 23.7295 17.7207 23.7295 16.4514ZM107.632 2.73763C108.241 4.43016 111.442 13.4149 111.442 13.4149H111.543C111.543 13.4149 115.044 3.58406 115.45 2.43912C116.059 0.721706 117.277 0.174112 119.256 0.174112H124.866V18.6416H122.352C120.552 18.6416 119.842 17.7207 119.842 16.4265V3.5091H119.764L113.952 18.6416H108.522L102.71 3.5091H102.632V16.4016C102.632 17.9696 101.668 18.6416 100.122 18.6416H98.1156V0.174112H104.08C106.695 0.174112 107.253 1.59268 107.632 2.73763ZM68.9536 4.0567H66.3655C62.7896 4.0567 60.7327 5.64973 60.7327 9.40794C60.7327 13.7386 63.4493 14.7588 66.3655 14.7588H69.0821C70.7567 14.7588 71.9002 15.4308 71.9002 17.0487V18.6416H64.5387C59.9445 18.6416 55.4518 16.4763 55.4518 9.40794C55.4518 3.73331 58.3984 0.174112 64.5387 0.174112H71.9002V1.74227C71.9002 3.38472 70.8075 4.0567 68.9536 4.0567ZM46.6457 11.7228C46.6457 13.5642 45.783 15.008 43.2457 15.008H40.6069C38.753 15.008 37.6636 14.5102 37.6636 13.0418C37.6636 11.6229 38.6786 11.0505 40.6069 11.0505H46.6457V11.7228ZM33.8049 0.174112H44.1862C50.1235 0.174112 51.7473 2.81225 51.7473 7.09318V11.6726C51.7473 15.6301 50.4279 18.6416 44.3113 18.6416H39.6427C35.1771 18.6416 32.5105 16.9243 32.5105 13.0169C32.5105 9.80595 34.4125 7.44177 39.6427 7.44177H46.6457V7.11806C46.6457 4.95288 45.6815 4.0567 42.8905 4.0567H36.2664C34.4632 4.0567 33.8049 2.83713 33.8049 1.59269V0.174112ZM83.7782 14.9582C87.0767 14.9582 89.005 12.7181 89.005 9.40796C89.005 5.8985 86.9481 3.85771 83.7782 3.85771C80.4019 3.85771 78.4972 6.07296 78.4972 9.40796C78.4972 12.5937 80.3511 14.9582 83.7782 14.9582Z" fill="#20272A"/>
</g>
</g>
</svg>
