<svg width="465" height="371" viewBox="0 0 465 371" fill="none" xmlns="http://www.w3.org/2000/svg">
<path opacity="0.4" d="M282.347 350.661L238.866 325.519C235.729 323.701 236.138 320.546 239.775 318.454L267.962 302.187L322.792 333.894L294.604 350.161C290.967 352.243 285.511 352.47 282.347 350.661Z" fill="#D6D8E5"/>
<path d="M286.275 348.36L242.776 323.255C239.648 321.437 240.048 318.282 243.685 316.19L271.872 299.923L326.72 331.593L298.532 347.86C294.886 349.942 289.412 350.17 286.275 348.36Z" fill="#B1B4C4"/>
<path d="M326.683 331.593V329.929L324.146 331.393L326.683 331.593Z" fill="#B1B4C4"/>
<path d="M240.675 320.264V318.573L243.276 319.655L240.675 320.264Z" fill="#B1B4C4"/>
<path d="M286.275 346.705L242.776 321.591C239.648 319.773 240.048 316.627 243.685 314.535L271.872 298.241L326.72 329.902L298.532 346.169C294.886 348.251 289.412 348.515 286.275 346.705Z" fill="#D6D8E5"/>
<path d="M271.991 298.341L265.198 275.828L320.637 307.625L326.683 329.929L271.991 298.341Z" fill="#9EA1AF"/>
<path d="M325.074 330.857L326.683 329.948L324.292 328.038L325.074 330.857Z" fill="#9EA1AF"/>
<path d="M270.236 299.187L263.453 276.673L318.891 308.471L325.074 330.857L270.236 299.187Z" fill="#B1B4C4"/>
<path d="M410.991 368.81L196.403 244.912C193.393 243.176 190.947 238.548 190.947 234.492V68.4954C190.947 64.4855 193.384 62.6397 196.403 64.3764L410.991 188.274C414.001 190.011 416.447 194.639 416.447 198.685V364.691C416.447 368.701 413.982 370.547 410.991 368.81Z" fill="#B1B4C4"/>
<path d="M412.073 370.519L414.455 369.146L413.428 362.099L412.073 370.519Z" fill="#B1B4C4"/>
<path d="M190.538 65.4039L192.884 64.0491L196.248 65.9677C196.248 65.9677 192.666 66.5132 192.611 66.495C192.557 66.4769 190.538 65.4039 190.538 65.4039Z" fill="#B1B4C4"/>
<path d="M409.009 369.946L194.421 246.049C191.411 244.312 188.965 239.684 188.965 235.629V69.632C188.965 65.6221 191.411 63.7763 194.421 65.513L409.009 189.41C412.018 191.147 414.464 195.775 414.464 199.822V365.827C414.455 369.837 412.018 371.683 409.009 369.946Z" fill="#E4E7F2"/>
<path d="M408.627 370.156L194.039 246.258C191.029 244.521 188.583 239.893 188.583 235.847V69.8502C188.583 65.8404 191.02 63.9945 194.039 65.7312L408.627 189.629C411.637 191.365 414.082 195.994 414.082 200.04V366.037C414.082 370.074 411.637 371.892 408.627 370.156Z" fill="#D6D8E5"/>
<path d="M411.127 360.072L191.302 233.156L191.42 70.514C191.42 68.8501 192.593 68.1772 194.03 69.0046L408.618 192.902C409.381 193.4 410.015 194.072 410.468 194.862C410.922 195.652 411.182 196.538 411.227 197.448L411.127 360.072Z" fill="white"/>
<path d="M397.516 218.68L202.659 106.185C201.984 105.701 201.431 105.065 201.046 104.33C200.661 103.594 200.453 102.778 200.44 101.948V87.8811C200.44 86.2535 201.431 85.4988 202.659 86.2081L397.516 198.703C398.192 199.188 398.745 199.825 399.13 200.562C399.515 201.3 399.722 202.118 399.734 202.95V217.007C399.734 218.644 398.743 219.389 397.516 218.68Z" fill="#E9EAF2"/>
<path d="M387.35 256.333L341.55 229.891C340.875 229.407 340.323 228.772 339.937 228.036C339.552 227.3 339.345 226.484 339.331 225.654V196.094C339.331 194.457 340.322 193.711 341.55 194.421L387.35 220.862C388.026 221.345 388.579 221.98 388.964 222.716C389.35 223.452 389.557 224.269 389.569 225.099V254.66C389.532 256.287 388.541 257.042 387.35 256.333Z" fill="#E9EAF2"/>
<path d="M326.983 265.935L212.088 199.558C211.749 199.317 211.472 199 211.279 198.632C211.086 198.263 210.983 197.855 210.978 197.439V192.356C210.978 191.538 211.469 191.156 212.088 191.511L326.983 257.888C327.321 258.13 327.596 258.448 327.789 258.816C327.982 259.183 328.086 259.591 328.093 260.006V265.098C328.093 265.907 327.593 266.289 326.983 265.935Z" fill="#E9EAF2"/>
<path d="M315.672 271.445L212.415 211.86C212.078 211.618 211.803 211.3 211.61 210.932C211.418 210.564 211.314 210.157 211.306 209.742V207.205C211.306 206.387 211.806 206.014 212.415 206.368L315.672 265.98C316.009 266.223 316.285 266.54 316.478 266.908C316.67 267.276 316.774 267.684 316.781 268.099V270.627C316.781 271.418 316.281 271.8 315.672 271.445Z" fill="#E9EAF2"/>
<path d="M315.672 281.047L212.415 221.435C212.078 221.193 211.802 220.875 211.609 220.507C211.417 220.139 211.313 219.732 211.306 219.316V216.78C211.306 215.97 211.806 215.588 212.415 215.943L315.672 275.555C316.009 275.797 316.285 276.115 316.478 276.483C316.67 276.851 316.774 277.258 316.781 277.673V280.21C316.781 281.029 316.281 281.402 315.672 281.047Z" fill="#E9EAF2"/>
<path d="M289.276 275.409L212.415 231.037C212.078 230.795 211.802 230.477 211.609 230.109C211.417 229.741 211.313 229.333 211.306 228.918V226.409C211.306 225.59 211.806 225.218 212.415 225.563L289.276 269.936C289.611 270.182 289.885 270.502 290.077 270.871C290.269 271.24 290.375 271.648 290.385 272.063V274.6C290.385 275.391 289.885 275.764 289.276 275.409Z" fill="#E9EAF2"/>
<path d="M388.423 268.626L340.404 240.903C340.065 240.662 339.788 240.344 339.596 239.976C339.403 239.608 339.3 239.199 339.295 238.784V236.247C339.295 235.429 339.786 235.056 340.404 235.411L388.423 263.134C388.76 263.377 389.036 263.694 389.229 264.062C389.421 264.43 389.525 264.838 389.532 265.253V267.79C389.532 268.608 389.032 268.981 388.423 268.626Z" fill="#E9EAF2"/>
<path d="M388.423 278.237L340.404 250.504C340.065 250.264 339.788 249.946 339.596 249.578C339.403 249.21 339.3 248.801 339.295 248.386V245.858C339.295 245.04 339.786 244.658 340.404 245.012L388.423 272.782C388.761 273.023 389.038 273.34 389.231 273.708C389.423 274.076 389.527 274.485 389.532 274.9V277.428C389.532 278.237 389.032 278.583 388.423 278.237Z" fill="#E9EAF2"/>
<path d="M375.848 280.574L340.386 260.106C340.047 259.866 339.77 259.548 339.577 259.18C339.385 258.812 339.282 258.403 339.277 257.988V255.505C339.277 254.687 339.768 254.314 340.386 254.669L375.848 275.128C376.185 275.369 376.462 275.687 376.654 276.055C376.847 276.423 376.951 276.831 376.957 277.246V279.783C376.957 280.556 376.439 280.965 375.848 280.574Z" fill="#E9EAF2"/>
<path d="M387.35 330.348L341.55 303.906C340.875 303.422 340.323 302.787 339.937 302.051C339.552 301.315 339.345 300.499 339.331 299.669V270.108C339.331 268.481 340.322 267.726 341.55 268.435L387.35 294.877C388.023 295.368 388.571 296.011 388.95 296.754C389.329 297.496 389.529 298.317 389.532 299.151V328.711C389.532 330.302 388.541 331.057 387.35 330.348Z" fill="#E9EAF2"/>
<path d="M388.423 342.641L340.404 314.917C340.065 314.677 339.788 314.359 339.596 313.991C339.403 313.623 339.3 313.214 339.295 312.799V310.271C339.295 309.453 339.786 309.071 340.404 309.425L388.423 337.149C388.758 337.396 389.032 337.716 389.224 338.084C389.416 338.453 389.522 338.861 389.532 339.277V341.804C389.532 342.623 389.032 342.996 388.423 342.641Z" fill="#E9EAF2"/>
<path d="M310.68 160.35L293.822 150.621C293.653 150.499 293.515 150.339 293.419 150.155C293.323 149.97 293.271 149.765 293.268 149.557V147.302C293.268 146.893 293.513 146.702 293.822 146.884L310.68 156.613C310.85 156.732 310.989 156.89 311.085 157.073C311.182 157.257 311.233 157.46 311.235 157.668V159.905C311.235 160.341 310.971 160.532 310.68 160.35Z" fill="#DADCE5"/>
<path d="M337.958 176.108L321.1 166.397C320.932 166.276 320.794 166.118 320.698 165.935C320.602 165.752 320.55 165.549 320.546 165.342V163.105C320.546 162.696 320.8 162.505 321.1 162.687L337.958 172.416C338.127 172.538 338.265 172.698 338.362 172.882C338.458 173.067 338.51 173.272 338.513 173.48V175.717C338.513 176.09 338.249 176.281 337.958 176.108Z" fill="#DADCE5"/>
<path d="M364.8 191.602L347.942 181.854C347.772 181.735 347.633 181.578 347.537 181.394C347.44 181.211 347.389 181.007 347.387 180.8V178.563C347.387 178.154 347.633 177.972 347.942 178.145L364.8 187.874C364.969 187.996 365.107 188.155 365.203 188.34C365.3 188.525 365.352 188.729 365.355 188.938V191.174C365.355 191.593 365.109 191.775 364.8 191.602Z" fill="#DADCE5"/>
<path d="M392.078 207.314L375.229 197.585C375.06 197.463 374.922 197.303 374.826 197.119C374.73 196.934 374.678 196.729 374.675 196.521V194.284C374.675 193.875 374.92 193.693 375.229 193.866L392.078 203.677C392.248 203.796 392.387 203.954 392.483 204.137C392.58 204.32 392.631 204.524 392.633 204.732V206.968C392.633 207.314 392.387 207.532 392.078 207.314Z" fill="#DADCE5"/>
<path d="M354.871 224.508L351.652 216.225L345.805 224.554L352.225 228.264L357.508 231.31L369.283 238.111L360.754 216.134L354.871 224.508Z" fill="#DADCE5"/>
<path d="M382.814 230.515C384.322 229.649 384.328 226.832 382.829 224.224C381.33 221.616 378.893 220.203 377.386 221.07C375.879 221.936 375.872 224.753 377.371 227.361C378.87 229.969 381.307 231.381 382.814 230.515Z" fill="#DADCE5"/>
<path d="M355.198 299.614L351.988 291.331L346.133 299.66L352.561 303.37L357.844 306.416L369.619 313.217L361.09 291.24L355.198 299.614Z" fill="#DADCE5"/>
<path d="M381.646 304.713C383.147 303.847 383.148 301.04 381.649 298.444C380.15 295.847 377.718 294.445 376.218 295.311C374.718 296.177 374.717 298.984 376.216 301.581C377.715 304.177 380.146 305.58 381.646 304.713Z" fill="#DADCE5"/>
<path d="M247.031 186.701L242.776 203.741V189.156L247.031 186.701Z" fill="#232733"/>
<path d="M197.467 157.813L193.211 174.862V160.277L197.467 157.813Z" fill="#232733"/>
<path d="M267.453 263.534L166.142 205.041C165.537 204.607 165.043 204.037 164.699 203.376C164.354 202.716 164.17 201.985 164.16 201.24V149.412C164.16 147.948 165.069 147.275 166.142 147.911L267.453 206.405C268.06 206.836 268.556 207.404 268.902 208.063C269.248 208.721 269.434 209.452 269.445 210.196V262.07C269.445 263.498 268.554 264.171 267.453 263.534Z" fill="#E9EAF2"/>
<path d="M194.339 202.768L188.847 188.61L178.845 202.84L189.829 209.187L198.849 214.397L218.989 226.027L204.404 188.447L194.339 202.768Z" fill="#3BA3EE"/>
<path d="M250.916 218.033C253.478 216.554 253.476 211.755 250.913 207.315C248.349 202.875 244.194 200.474 241.633 201.953C239.071 203.432 239.073 208.23 241.636 212.671C244.2 217.111 248.355 219.512 250.916 218.033Z" fill="#3BA3EE"/>
<path d="M240.912 183.164L240.903 163.724L235.392 159.586V183.164L229.264 186.701L238.148 191.829L247.031 186.701L240.912 183.164Z" fill="#353C4C"/>
<path d="M238.147 191.829L242.776 203.741V189.983V189.156L238.147 191.829Z" fill="#232733"/>
<path d="M229.264 186.701L233.201 198.14L242.776 203.741L238.148 191.829L229.264 186.701Z" fill="#2B303F"/>
<path d="M191.338 154.285V130.699H185.828V154.276L179.699 157.813L188.583 162.951L197.467 157.813L191.338 154.285Z" fill="#353C4C"/>
<path d="M188.583 162.951L193.211 174.862V161.105V160.277L188.583 162.951Z" fill="#232733"/>
<path d="M179.699 157.813L183.637 169.252L193.211 174.862L188.583 162.951L179.699 157.813Z" fill="#2B303F"/>
<path opacity="0.4" d="M130.726 264.362L75.8424 232.519L9.711 270.699L68.8773 305.015L135.018 266.835V261.889L130.726 264.362Z" fill="#D6D8E5"/>
<path d="M137.691 260.07L75.8424 224.363L13.9937 260.07L9.711 257.597V262.543L75.8424 300.733L141.974 262.543V257.597L137.691 260.07Z" fill="#B1B4C4"/>
<path d="M75.8424 295.777L9.711 257.597L75.8424 219.416L141.974 257.597L75.8424 295.777Z" fill="#E7E9F2"/>
<path d="M75.6332 243.458L79.9523 240.966V56.5567L75.6332 59.0481V243.458Z" fill="#B1B4C4"/>
<path d="M75.9788 134.29L106.176 182.082L110.495 180.318L79.9523 132.054L75.9788 134.29Z" fill="#B1B4C4"/>
<path d="M75.7969 142.792L106.012 190.82V181.836L75.7969 133.981V142.792Z" fill="#D6D8E5"/>
<path d="M71.4778 240.966L75.7969 243.458V59.0481L71.4778 56.5567V240.966Z" fill="#D6D8E5"/>
<path d="M106.012 260.907L110.331 263.398V78.9885L106.012 76.4971V260.907Z" fill="#D6D8E5"/>
<path d="M110.167 263.398L114.487 260.907V76.4971L110.167 78.9885V263.398Z" fill="#B1B4C4"/>
<path d="M75.7969 230.164L106.012 193.984V185.31L75.7969 221.544V230.164Z" fill="#D6D8E5"/>
<path d="M75.7969 230.164L79.9522 227.891L106.012 196.476V193.311L75.7969 230.164Z" fill="#B1B4C4"/>
<path d="M75.7969 134.29L106.012 98.1105V89.436L75.7969 125.671V134.29Z" fill="#D6D8E5"/>
<path d="M75.7969 134.29L79.9522 132.008L106.012 100.602V97.4376L75.7969 134.29Z" fill="#B1B4C4"/>
<path d="M41.3537 263.371L45.6727 260.879V76.4698L41.3537 78.9612V263.371Z" fill="#B1B4C4"/>
<path d="M41.6992 154.203L71.8961 201.986L76.2152 200.231L45.6727 151.967L41.6992 154.203Z" fill="#B1B4C4"/>
<path d="M41.5173 162.705L71.7324 210.724V201.749L41.5173 153.885V162.705Z" fill="#D6D8E5"/>
<path d="M37.2074 260.879L41.5173 263.371V78.9612L37.2074 76.4698V260.879Z" fill="#D6D8E5"/>
<path d="M71.7325 280.81L76.0515 283.302V98.9015L71.7325 96.401V280.81Z" fill="#D6D8E5"/>
<path d="M75.8879 283.302L80.2069 280.81V96.401L75.8879 98.9015V283.302Z" fill="#B1B4C4"/>
<path d="M41.5173 250.077L71.7324 213.897V205.214L41.5173 241.457V250.077Z" fill="#D6D8E5"/>
<path d="M41.5173 250.077L45.6727 247.795L71.7324 216.389V213.215L41.5173 250.077Z" fill="#B1B4C4"/>
<path d="M41.5173 154.203L71.7324 118.024V109.34L41.5173 145.574V154.203Z" fill="#D6D8E5"/>
<path d="M41.5173 154.203L45.6727 151.921L71.7324 120.506V117.342L41.5173 154.203Z" fill="#B1B4C4"/>
<path d="M76.0515 108.24L31.4699 82.4983L76.0515 56.7659L120.633 82.4983L76.0515 108.24Z" fill="#F7DC6B"/>
<path d="M72.7327 34.4705L19.8767 64.9857L4.7464 56.2476L57.6024 25.7324L72.7327 34.4705Z" fill="#353C4C"/>
<path d="M4.7464 68.4864V56.2476L19.8767 64.9857V77.2245L4.7464 68.4864Z" fill="#2B303F"/>
<path d="M19.8766 77.2245L72.7326 46.7093V34.4705L19.8766 64.9857V76.0333" fill="#232733"/>
<path d="M72.7327 20.7405L19.8767 51.2557L4.7464 42.5176L57.6024 12.0024L72.7327 20.7405Z" fill="#353C4C"/>
<path d="M4.7464 54.7655V42.5176L19.8767 51.2557V63.5036L4.7464 54.7655Z" fill="#2B303F"/>
<path d="M19.8766 63.5036L72.7326 32.9884V20.7405L19.8766 51.2557V62.3124" fill="#232733"/>
<path d="M32.7793 58.6935L0 39.8898V33.0339L32.7793 51.7194V58.6935Z" fill="#D6D8E5"/>
<path d="M80.2069 78.943L0 33.0339L5.93755 29.6059L86.1444 75.515L80.2069 78.943Z" fill="#E7E9F2"/>
<path d="M68.841 47.855L27.66 24.0321V17.1671L68.841 39.2351V47.855Z" fill="#D6D8E5"/>
<path d="M100.074 58.2753L27.66 17.1762L33.5976 13.7482L106.012 54.8473L100.074 58.2753Z" fill="#E7E9F2"/>
<path d="M49.6008 29.8241V36.68L52.4195 56.4203L56.6022 59.0209L49.6008 29.8241Z" fill="#D6D8E5"/>
<path d="M61.9941 61.9487L56.5749 33.8522L49.6008 29.8241L53.8289 57.5115L61.9941 61.9487Z" fill="#E7E9F2"/>
<path d="M49.6008 36.68L27.9692 42.3812L16.8579 35.9617L48.6552 29.2604L49.6008 29.8241V36.68Z" fill="#B1B4C4"/>
<path d="M49.6008 29.8241L19.4766 37.4802L13.0026 33.7431L43.3632 25.987L49.6008 29.8241Z" fill="#E7E9F2"/>
<path d="M76.0515 51.483L31.4699 25.7415L76.0515 0L120.633 25.7415L76.0515 51.483Z" fill="#E7E9F2"/>
<path d="M31.4699 105.23V25.7415L76.0515 51.483V130.972L31.4699 105.23Z" fill="#D6D8E5"/>
<path d="M120.633 25.7415V105.23L76.0515 130.972V51.4739L120.633 25.7415Z" fill="#B1B4C4"/>
<path d="M76.0515 79.1703L50.4555 64.3947L42.2266 38.2076L76.0515 57.7388V79.1703Z" fill="#3BA3EE"/>
<path d="M120.633 31.9973V53.4288L76.0515 79.1794V57.7479L120.633 31.9973Z" fill="#005CC3"/>
<path d="M274.846 199.376L81.9436 87.9993V81.1434L274.846 192.52V199.376Z" fill="#D6D8E5"/>
<path d="M274.846 192.52L81.9436 81.1525L87.8811 77.7246L280.783 189.092L274.846 192.52Z" fill="#E7E9F2"/>
<path d="M302.506 183.518L109.604 72.1416V65.2857L302.506 176.662V183.518Z" fill="#D6D8E5"/>
<path d="M302.506 176.662L109.604 65.2857L115.541 61.8578L308.443 173.235L302.506 176.662Z" fill="#E7E9F2"/>
<path d="M308.443 180.109L274.846 199.376V192.511L308.443 173.253V180.109Z" fill="#B1B4C4"/>
<path d="M308.443 173.253L274.864 192.52L269.836 189.62L303.415 170.352L308.443 173.253Z" fill="#E7E9F2"/>
<path d="M278.328 169.543L256.687 175.244L245.576 168.825L277.373 162.123L278.328 162.687V169.543Z" fill="#B1B4C4"/>
<path d="M278.328 162.687L248.204 170.343L241.73 166.597L272.081 158.85L278.328 162.687Z" fill="#E7E9F2"/>
<path d="M229.509 134.536V141.392L232.328 161.132L236.511 163.724L229.509 134.536Z" fill="#D6D8E5"/>
<path d="M241.903 166.66L236.484 138.564L229.509 134.536L233.747 162.223L241.903 166.66Z" fill="#E7E9F2"/>
<path d="M229.509 141.392L207.878 147.093L196.766 140.673L228.564 133.972L229.509 134.536V141.392Z" fill="#B1B4C4"/>
<path d="M229.509 134.536L199.394 142.192L192.92 138.455L223.272 130.699L229.509 134.536Z" fill="#E7E9F2"/>
<path d="M180.527 106.23V113.086L183.337 132.826L187.528 135.427L180.527 106.23Z" fill="#D6D8E5"/>
<path d="M192.92 138.355L187.501 110.258L180.527 106.23L184.755 133.918L192.92 138.355Z" fill="#E7E9F2"/>
<path d="M180.527 113.086L158.895 118.787L147.784 112.368L179.581 105.667L180.527 106.23V113.086Z" fill="#B1B4C4"/>
<path d="M180.527 106.23L150.403 113.886L143.929 110.149L174.289 102.393L180.527 106.23Z" fill="#E7E9F2"/>
<path d="M131.544 77.9428V84.7987L134.354 104.539L138.546 107.13L131.544 77.9428Z" fill="#D6D8E5"/>
<path d="M143.929 110.067L138.519 81.9709L131.544 77.9428L135.773 105.63L143.929 110.067Z" fill="#E7E9F2"/>
<path d="M131.544 84.7987L109.913 90.4999L98.8015 84.0804L130.599 77.3791L131.544 77.9428V84.7987Z" fill="#B1B4C4"/>
<path d="M131.544 77.9428L101.42 85.5989L94.9462 81.8618L125.298 74.1057L131.544 77.9428Z" fill="#E7E9F2"/>
<path opacity="0.4" d="M28.8694 314.272L4.54637 300.005C1.81855 298.387 2.1277 295.559 5.31925 293.695L17.6853 286.421C20.8769 284.602 25.696 284.357 28.4602 285.975L52.8196 300.242C55.5474 301.851 55.2292 304.679 52.0467 306.552L39.6806 313.826C36.4527 315.69 31.6245 315.89 28.8694 314.272Z" fill="#D6D8E5"/>
<path d="M59.1027 300.205V265.717L7.07416 259.779V294.486C7.08411 295.08 7.2596 295.659 7.58088 296.159C7.90215 296.658 8.35646 297.058 8.8927 297.314L33.2794 311.58C36.0072 313.199 40.8718 312.999 44.0543 311.126L56.4204 303.851C58.2389 302.797 59.1482 301.442 59.0572 300.214L59.1027 300.205Z" fill="#D6D8E5"/>
<path d="M59.0482 269.481V265.717H55.0474L32.8429 252.696C30.1151 251.077 25.2505 251.286 22.0681 253.15L9.70195 260.425C9.47876 260.551 9.26319 260.691 9.05637 260.843L7.07416 259.779C7.07416 259.779 7.07416 263.753 7.07416 263.889C7.08785 264.481 7.26496 265.057 7.5859 265.555C7.90685 266.052 8.35912 266.451 8.8927 266.708L33.2794 280.965C36.0072 282.584 40.8718 282.374 44.0543 280.51L56.4204 273.236C58.2389 272.154 59.1482 270.754 59.0482 269.445V269.481Z" fill="#EDF0F9"/>
<path d="M33.2794 276.873L8.92906 262.607C6.20124 260.988 6.51039 258.161 9.70194 256.296L22.068 249.022C25.2505 247.204 30.0787 246.949 32.8429 248.568L57.2023 262.834C59.9301 264.453 59.6119 267.281 56.4203 269.145L44.0542 276.419C40.9172 278.283 36.0435 278.492 33.2794 276.873Z" fill="#E2E5F2"/>
<path d="M27.7965 257.397V256.024H26.9691L26.7054 255.86C25.8918 255.439 24.9891 255.219 24.073 255.219C23.157 255.219 22.2543 255.439 21.4407 255.86C21.2852 255.948 21.139 256.052 21.0042 256.169L20.3586 256.024V257.397C20.3804 257.729 20.4927 258.048 20.6835 258.321C20.8743 258.593 21.1362 258.808 21.4407 258.943C22.2556 259.359 23.1578 259.576 24.073 259.576C24.9883 259.576 25.8904 259.359 26.7054 258.943C27.007 258.803 27.2666 258.587 27.4581 258.316C27.6497 258.045 27.7664 257.728 27.7965 257.397V257.397Z" fill="#005CC3"/>
<path d="M24.0776 258.206C26.1315 258.206 27.7965 257.229 27.7965 256.024C27.7965 254.819 26.1315 253.841 24.0776 253.841C22.0237 253.841 20.3586 254.819 20.3586 256.024C20.3586 257.229 22.0237 258.206 24.0776 258.206Z" fill="#3BA3EE"/>
<path d="M36.7801 262.57V261.198H35.9526L35.698 261.034C34.8844 260.613 33.9817 260.393 33.0657 260.393C32.1496 260.393 31.247 260.613 30.4334 261.034C30.2736 261.12 30.1242 261.223 29.9878 261.343L29.3422 261.198V262.57C29.3723 262.901 29.4891 263.218 29.6806 263.49C29.8721 263.761 30.1318 263.977 30.4334 264.116C31.2483 264.533 32.1505 264.75 33.0657 264.75C33.9809 264.75 34.8831 264.533 35.698 264.116C36.0025 263.982 36.2644 263.767 36.4552 263.495C36.646 263.222 36.7584 262.902 36.7801 262.57Z" fill="#005CC3"/>
<path d="M33.0611 263.38C35.1151 263.38 36.7801 262.403 36.7801 261.198C36.7801 259.992 35.1151 259.015 33.0611 259.015C31.0072 259.015 29.3422 259.992 29.3422 261.198C29.3422 262.403 31.0072 263.38 33.0611 263.38Z" fill="#3BA3EE"/>
<path d="M45.7818 268.099V266.726H44.9453L44.6907 266.562C43.8771 266.141 42.9744 265.922 42.0584 265.922C41.1423 265.922 40.2396 266.141 39.426 266.562C39.2683 266.651 39.1191 266.755 38.9805 266.871L38.3349 266.726V268.099C38.3632 268.43 38.4792 268.748 38.6709 269.02C38.8627 269.291 39.1233 269.507 39.426 269.645C40.2396 270.066 41.1423 270.285 42.0584 270.285C42.9744 270.285 43.8771 270.066 44.6907 269.645C44.9934 269.507 45.254 269.291 45.4458 269.02C45.6376 268.748 45.7535 268.43 45.7818 268.099V268.099Z" fill="#005CC3"/>
<path d="M42.0538 268.908C44.1077 268.908 45.7727 267.931 45.7727 266.726C45.7727 265.521 44.1077 264.544 42.0538 264.544C39.9999 264.544 38.3349 265.521 38.3349 266.726C38.3349 267.931 39.9999 268.908 42.0538 268.908Z" fill="#3BA3EE"/>
<path d="M455.736 301.958L379.794 258.112C375.02 255.385 371.156 247.974 371.156 241.618V122.131C371.156 115.766 375.02 112.856 379.794 115.602L455.736 159.456C460.501 162.184 464.365 169.595 464.365 175.951V295.456C464.365 301.821 460.501 304.713 455.736 301.958Z" fill="#211B49"/>
<path d="M458.773 303.703L461.374 302.421L459.619 298.975L458.773 303.703Z" fill="#211B49"/>
<path d="M372.574 115.939C373.339 115.484 374.142 115.098 374.975 114.784L376.902 118.594L372.574 115.939Z" fill="#211B49"/>
<path d="M453.745 302.958L377.793 259.085C373.029 256.358 369.164 248.947 369.164 242.591V123.131C369.164 116.766 373.029 113.847 377.793 116.602L453.745 160.457C458.509 163.184 462.374 170.586 462.374 176.942V296.429C462.374 302.785 458.509 305.713 453.745 302.958Z" fill="#2E245B"/>
<path d="M391.605 141.516L377.793 133.542V128.559L391.605 136.534V141.516Z" fill="#A3ABD9"/>
<path d="M452.881 176.896L394.197 143.008V138.034L452.881 171.913V176.896Z" fill="#A548B5"/>
<path d="M391.605 157.465L377.793 149.491V144.508L391.605 152.482V157.465Z" fill="#A3ABD9"/>
<path d="M433.032 181.379L394.197 158.956V153.973L433.032 176.396V181.379Z" fill="#F9B937"/>
<path d="M391.605 165.43L377.793 157.465V152.482L391.605 160.448V165.43Z" fill="#A3ABD9"/>
<path d="M442.525 194.836L394.197 166.931V161.948L442.525 189.853V194.836Z" fill="#F27320"/>
<path d="M391.605 173.405L377.793 165.43V160.448L391.605 168.422V173.405Z" fill="#A3ABD9"/>
<path d="M427.858 194.336L394.197 174.905V169.922L427.858 189.353V194.336Z" fill="#A3ABD9"/>
<path d="M391.605 149.491L377.793 141.516V136.534L391.605 144.508V149.491Z" fill="#A3ABD9"/>
<path d="M423.539 167.931L394.197 150.982V145.999L423.539 162.939V167.931Z" fill="#248AEE"/>
<path d="M391.605 181.379L377.793 173.405V168.422L391.605 176.396V181.379Z" fill="#A3ABD9"/>
<path d="M411.455 192.836L394.197 182.87V177.887L411.455 187.853V192.836Z" fill="#A548B5"/>
<path d="M391.605 197.318L377.793 189.353V184.37L391.605 192.345V197.318Z" fill="#A3ABD9"/>
<path d="M448.571 230.207L394.197 198.819V193.836L448.571 225.224V230.207Z" fill="#F9B937"/>
<path d="M391.605 205.293L377.793 197.318V192.336L391.605 200.31V205.293Z" fill="#A3ABD9"/>
<path d="M410.591 216.259L394.197 206.793V201.81L410.591 211.276V216.259Z" fill="#F27320"/>
<path d="M391.605 213.267L377.793 205.293V200.31L391.605 208.284V213.267Z" fill="#A3ABD9"/>
<path d="M442.525 242.664L394.197 214.758V209.785L442.525 237.681V242.664Z" fill="#A3ABD9"/>
<path d="M391.605 189.353L377.793 181.379V176.396L391.605 184.37V189.353Z" fill="#A3ABD9"/>
<path d="M439.933 217.259L394.197 190.844V185.862L439.933 212.276V217.259Z" fill="#248AEE"/>
<path d="M391.605 221.241L377.793 213.267V208.284L391.605 216.259V221.241Z" fill="#A3ABD9"/>
<path d="M400.234 226.224L394.197 222.733V217.75L400.234 221.241V226.224Z" fill="#A548B5"/>
<path d="M391.605 237.181L377.793 229.216V224.233L391.605 232.207V237.181Z" fill="#A3ABD9"/>
<path d="M405.417 245.155L394.197 238.681V233.698L405.417 240.172V245.155Z" fill="#F9B937"/>
<path d="M391.605 245.155L377.793 237.181V232.198L391.605 240.172V245.155Z" fill="#A3ABD9"/>
<path d="M423.539 263.595L394.197 246.656V241.673L423.539 258.613V263.595Z" fill="#F27320"/>
<path d="M391.605 253.13L377.793 245.155V240.172L391.605 248.147V253.13Z" fill="#A3ABD9"/>
<path d="M440.797 281.535L394.197 254.621V249.638L440.797 276.552V281.535Z" fill="#A3ABD9"/>
<path d="M391.605 229.216L377.793 221.241V216.259L391.605 224.233V229.216Z" fill="#A3ABD9"/>
<path d="M452.881 264.596L394.197 230.707V225.724L452.881 259.604V264.596Z" fill="#248AEE"/>
<path d="M207.052 105.397C207.195 105.48 207.26 105.429 207.26 105.282L207.26 101.58L208.816 102.478C210.035 103.182 210.683 102.807 210.683 101.441L210.683 97.8565C210.683 96.4756 210.035 95.3666 208.816 94.6627L205.703 92.8656C205.573 92.7907 205.495 92.8339 205.495 92.9808L205.496 104.264C205.496 104.411 205.574 104.544 205.703 104.619L207.052 105.397ZM208.401 100.3L207.259 99.6406L207.259 95.7034L208.401 96.3623C208.751 96.5645 208.919 96.8675 208.919 97.2495L208.919 100.011C208.919 100.379 208.751 100.502 208.401 100.3ZM213.537 109.141C213.666 109.216 213.744 109.173 213.744 109.026L213.744 105.324L214.639 105.841L215.508 110.074C215.534 110.221 215.599 110.332 215.728 110.407L217.077 111.186C217.22 111.268 217.298 111.225 217.259 111.026L216.364 106.66C216.986 106.711 217.31 106.252 217.31 105.268L217.31 101.683C217.31 100.302 216.662 99.1931 215.443 98.4892L212.187 96.6096C212.058 96.5348 211.98 96.578 211.98 96.7249L211.98 108.008C211.98 108.155 212.058 108.288 212.188 108.363L213.537 109.141ZM215.028 104.126L213.744 103.385L213.744 99.4475L215.028 100.189C215.365 100.383 215.546 100.694 215.546 101.076L215.547 103.838C215.547 104.22 215.365 104.321 215.028 104.126ZM220.164 112.968C220.293 113.043 220.371 112.999 220.371 112.853L220.371 101.57C220.371 101.423 220.293 101.29 220.163 101.215L218.815 100.436C218.672 100.354 218.607 100.404 218.607 100.551L218.607 111.834C218.607 111.981 218.672 112.107 218.815 112.189L220.164 112.968ZM223.121 114.675C223.289 114.772 223.38 114.722 223.38 114.531L223.38 107.92L223.471 107.972L224.755 115.354C224.794 115.553 224.884 115.694 225.04 115.783L225.676 116.15C225.831 116.24 225.922 116.204 225.961 116.051L227.245 110.151L227.335 110.204L227.336 116.815C227.336 117.006 227.426 117.161 227.595 117.259L228.801 117.955C228.97 118.052 229.06 118.002 229.06 117.811L229.06 106.646C229.06 106.455 228.969 106.299 228.801 106.202L227.089 105.214C226.933 105.124 226.842 105.159 226.803 105.313L225.364 111.798L223.924 103.651C223.885 103.452 223.795 103.312 223.639 103.222L221.927 102.233C221.759 102.136 221.668 102.186 221.668 102.377L221.668 113.543C221.668 113.734 221.759 113.889 221.927 113.986L223.121 114.675ZM235.324 121.721C235.48 121.811 235.532 121.753 235.532 121.606L235.532 120.137C235.532 119.976 235.48 119.872 235.324 119.782L232.082 117.91L232.082 114.943L234.559 116.373C234.689 116.448 234.767 116.404 234.767 116.243L234.767 114.788C234.767 114.627 234.689 114.494 234.559 114.419L232.082 112.989L232.082 110.05L235.324 111.922C235.48 112.012 235.532 111.939 235.532 111.793L235.532 110.323C235.532 110.176 235.48 110.058 235.324 109.969L230.551 107.213C230.435 107.145 230.357 107.189 230.357 107.336L230.357 118.618C230.357 118.765 230.435 118.898 230.552 118.966L235.324 121.721Z" fill="#131314" fill-opacity="0.87"/>
<path d="M238.41 123.503C238.539 123.578 238.617 123.534 238.617 123.387L238.617 118.701L241.043 120.102C241.172 120.177 241.25 120.148 241.25 119.986L241.25 118.517C241.25 118.37 241.172 118.237 241.043 118.163L238.617 116.762L238.616 113.809L241.818 115.657C241.947 115.732 242.024 115.688 242.024 115.541L242.024 114.072C242.024 113.925 241.947 113.792 241.818 113.718L237.067 110.975C236.925 110.893 236.861 110.944 236.861 111.091L236.861 122.374C236.861 122.521 236.926 122.646 237.068 122.728L238.41 123.503ZM248.143 129.123C248.285 129.205 248.35 129.169 248.35 129.007L248.35 127.538C248.35 127.391 248.285 127.266 248.143 127.184L245.071 125.41L245.071 115.831C245.071 115.684 245.006 115.559 244.864 115.477L243.522 114.702C243.392 114.627 243.315 114.671 243.315 114.818L243.315 126.1C243.315 126.262 243.393 126.38 243.522 126.455L248.143 129.123ZM254.584 132.842C254.739 132.932 254.791 132.873 254.791 132.726L254.791 131.257C254.791 131.096 254.739 130.992 254.584 130.903L251.357 129.04L251.357 126.072L253.823 127.495C253.952 127.57 254.029 127.527 254.029 127.365L254.029 125.911C254.029 125.749 253.952 125.616 253.823 125.542L251.357 124.118L251.357 121.18L254.584 123.043C254.739 123.132 254.791 123.059 254.791 122.913L254.79 121.443C254.79 121.296 254.739 121.179 254.584 121.089L249.834 118.346C249.718 118.279 249.64 118.323 249.64 118.47L249.64 129.752C249.64 129.899 249.718 130.032 249.834 130.099L254.584 132.842ZM257.243 134.377C257.385 134.459 257.489 134.46 257.54 134.343L258.779 131.503L260.019 135.774C260.07 135.951 260.174 136.069 260.316 136.151L261.645 136.919C261.852 137.038 261.916 136.929 261.839 136.678L259.786 129.852L261.761 125.586C261.838 125.425 261.774 125.241 261.567 125.121L260.277 124.376C260.135 124.294 260.031 124.293 259.98 124.41L258.779 127.199L257.579 123.024C257.527 122.847 257.424 122.729 257.282 122.647L255.991 121.901C255.784 121.782 255.72 121.892 255.797 122.142L257.76 128.682L255.72 133.145C255.643 133.306 255.707 133.49 255.914 133.61L257.243 134.377Z" fill="#0078E3"/>
</svg>
