<svg width="12" height="14" viewBox="0 0 12 14" fill="none" xmlns="http://www.w3.org/2000/svg">
<path d="M4.16273 10.8271C4.16273 10.8271 3.62773 11.1382 4.54347 11.2435C5.65287 11.37 6.21987 11.3519 7.44243 11.1205C7.44243 11.1205 7.76385 11.322 8.21274 11.4966C5.47208 12.6712 2.01009 11.4286 4.16273 10.8271Z" fill="#5382A1"/>
<path d="M3.82771 9.2943C3.82771 9.2943 3.22766 9.73847 4.14408 9.83326C5.32917 9.95552 6.26506 9.96552 7.88451 9.65368C7.88451 9.65368 8.1085 9.88077 8.46072 10.005C5.1471 10.9739 1.45633 10.0814 3.82771 9.2943Z" fill="#5382A1"/>
<path d="M6.65113 6.6942C7.32643 7.47168 6.4737 8.17131 6.4737 8.17131C6.4737 8.17131 8.1884 7.28614 7.40091 6.17769C6.66543 5.14399 6.10141 4.63038 9.15478 2.85954C9.15478 2.85954 4.362 4.05656 6.65113 6.6942Z" fill="#E76F00"/>
<path d="M10.2759 11.9608C10.2759 11.9608 10.6718 12.287 9.83986 12.5394C8.25792 13.0186 3.25565 13.1633 1.86604 12.5585C1.36651 12.3412 2.30326 12.0396 2.59793 11.9763C2.90524 11.9097 3.08086 11.9221 3.08086 11.9221C2.52533 11.5307 -0.509841 12.6905 1.53914 13.0227C7.12702 13.9288 11.7253 12.6146 10.2759 11.9608Z" fill="#5382A1"/>
<path d="M4.42025 7.70617C4.42025 7.70617 1.87577 8.31052 3.51919 8.52999C4.21308 8.62289 5.59636 8.60187 6.88484 8.49391C7.93786 8.40508 8.99521 8.21622 8.99521 8.21622C8.99521 8.21622 8.62391 8.37524 8.35528 8.55866C5.77141 9.23822 0.77985 8.92209 2.21685 8.22698C3.43213 7.63953 4.42025 7.70617 4.42025 7.70617Z" fill="#5382A1"/>
<path d="M8.98443 10.2575C11.6111 8.89265 10.3966 7.581 9.54894 7.75771C9.34117 7.80095 9.24854 7.83842 9.24854 7.83842C9.24854 7.83842 9.32566 7.7176 9.47298 7.6653C11.1499 7.07573 12.4396 9.40414 8.93164 10.3263C8.93164 10.3263 8.97228 10.29 8.98443 10.2575Z" fill="#5382A1"/>
<path d="M7.40078 9.91821e-05C7.40078 9.91821e-05 8.85544 1.45525 6.02109 3.69287C3.74823 5.48783 5.50281 6.51126 6.02015 7.68058C4.69344 6.48356 3.71982 5.42983 4.373 4.44911C5.33172 3.0095 7.9877 2.31153 7.40078 9.91821e-05Z" fill="#E76F00"/>
<path d="M4.67826 13.9561C7.19949 14.1175 11.0711 13.8665 11.1628 12.6736C11.1628 12.6736 10.9866 13.1258 9.07916 13.485C6.92724 13.8899 4.27314 13.8427 2.69897 13.5831C2.69897 13.5831 3.02123 13.8498 4.67826 13.9561Z" fill="#5382A1"/>
</svg>
