<svg width="21" height="18" viewBox="0 0 21 18" fill="none" xmlns="http://www.w3.org/2000/svg">
<path d="M10.5 10.7907C11.4985 10.7907 12.3079 9.98132 12.3079 8.98285C12.3079 7.98438 11.4985 7.17497 10.5 7.17497C9.50157 7.17497 8.69215 7.98438 8.69215 8.98285C8.69215 9.98132 9.50157 10.7907 10.5 10.7907Z" fill="#00D8FF"/>
<path d="M10.5 13.1232C7.96204 13.1232 5.74643 12.823 4.08393 12.2572C1.80195 11.4765 0.385986 10.2218 0.385986 8.9828C0.385986 7.74383 1.69765 6.61864 3.8943 5.8506C5.69586 5.22164 8.04105 4.87713 10.5 4.87713C12.9116 4.87713 15.2252 5.21531 17.0173 5.8348C19.2676 6.60916 20.6141 7.78807 20.6141 8.9828C20.6141 10.1775 19.1475 11.4829 16.7865 12.2635C15.1146 12.8167 12.88 13.1232 10.5 13.1232ZM10.5 5.74314C8.17064 5.74314 5.86653 6.08133 4.17875 6.66921C2.15594 7.37403 1.24884 8.34119 1.24884 8.9828C1.24884 9.62441 2.22232 10.7085 4.36207 11.4386C5.93291 11.9759 8.05686 12.2604 10.4969 12.2604C12.7883 12.2604 14.9218 11.9696 16.5116 11.4449C18.7335 10.7085 19.7481 9.65285 19.7481 8.98596C19.7481 8.36331 18.8062 7.36771 16.7328 6.6534C15.0292 6.06553 12.8136 5.74314 10.4969 5.74314H10.5Z" fill="#00D8FF"/>
<path d="M6.40384 17.9938C6.04037 17.9938 5.71166 17.9148 5.43037 17.7536C4.39684 17.1594 4.03652 15.4368 4.47269 13.1485C4.82984 11.2743 5.69902 9.07129 6.92851 6.94102C8.13271 4.85184 9.58345 3.01551 11.0121 1.77338C12.8105 0.212022 14.5014 -0.366375 15.5381 0.230986C16.6127 0.850471 16.9699 2.75002 16.4673 5.18687C16.1133 6.91258 15.26 8.9986 14.0716 11.0625C12.8041 13.2591 11.4356 15.0323 10.1144 16.1859C8.77116 17.3585 7.44053 17.9938 6.40384 17.9938ZM7.67758 7.37403C6.51447 9.39052 5.65477 11.5556 5.32291 13.3129C4.9215 15.4179 5.3071 16.6853 5.86337 17.0077C6.44493 17.3427 7.84509 17.0266 9.54552 15.538C10.7971 14.4444 12.1025 12.7471 13.3225 10.6326C14.4666 8.64777 15.2821 6.6534 15.6203 5.01619C16.0944 2.72157 15.6835 1.31825 15.1051 0.983218C14.5646 0.673476 13.2308 0.9927 11.581 2.43079C10.2219 3.61287 8.83437 5.37019 7.67758 7.38035V7.37403Z" fill="#00D8FF"/>
<path d="M14.6025 18.0001C13.6227 18.0001 12.3806 17.4091 11.0847 16.2934C9.63718 15.0481 8.16432 13.1928 6.93167 11.0657C5.72431 8.97963 4.85829 6.80828 4.49482 4.94666C4.03652 2.60779 4.38103 0.856793 5.41772 0.256271C6.49234 -0.366375 8.31603 0.275235 10.1745 1.92509C11.4925 3.09453 12.8768 4.87397 14.0684 6.9347C15.339 9.12819 16.1923 11.1984 16.5305 12.921C16.9983 15.2851 16.6222 17.1404 15.5507 17.7631C15.2758 17.9211 14.9565 18.0001 14.5994 18.0001H14.6025ZM7.68074 10.6326C8.84702 12.6491 10.2946 14.4728 11.6473 15.6391C13.2719 17.0361 14.5615 17.3395 15.1177 17.014C15.6961 16.679 16.1228 15.3072 15.6835 13.0885C15.3611 11.4576 14.5425 9.48218 13.3193 7.36771C12.172 5.38599 10.8509 3.6824 9.59925 2.56986C7.84826 1.01482 6.42597 0.667154 5.84757 1.00218C5.3071 1.31509 4.91834 2.62991 5.33871 4.77915C5.68638 6.5491 6.51447 8.62564 7.67758 10.6326H7.68074Z" fill="#00D8FF"/>
</svg>
