<svg width="16" height="14" viewBox="0 0 16 14" fill="none" xmlns="http://www.w3.org/2000/svg">
<path d="M7.99947 9.87352C12.1557 9.87352 15.5251 8.58705 15.5251 7.00011C15.5251 5.41316 12.1557 4.12669 7.99947 4.12669C3.8432 4.12669 0.473877 5.41316 0.473877 7.00011C0.473877 8.58705 3.8432 9.87352 7.99947 9.87352Z" stroke="#61DAFB" stroke-width="0.291667"/>
<path d="M5.51101 8.43681C7.58914 12.0362 10.3879 14.3109 11.7622 13.5175C13.1366 12.724 12.566 9.16284 10.4879 5.5634C8.40976 1.96396 5.61098 -0.310729 4.23665 0.482741C2.86232 1.27621 3.43287 4.83737 5.51101 8.43681Z" stroke="#61DAFB" stroke-width="0.291667"/>
<path d="M5.51105 5.5634C3.43291 9.16284 2.86237 12.724 4.23669 13.5175C5.61102 14.3109 8.4098 12.0363 10.4879 8.43681C12.5661 4.83737 13.1366 1.27621 11.7623 0.482743C10.388 -0.310727 7.58918 1.96396 5.51105 5.5634Z" stroke="#61DAFB" stroke-width="0.291667"/>
</svg>
